<svg width="1080" height="206" viewBox="0 0 1080 206" fill="none" xmlns="http://www.w3.org/2000/svg">
<path fill-rule="evenodd" clip-rule="evenodd" d="M1068.01 122.661C1075.03 116.112 1078.5 109.538 1078.5 103C1078.5 96.4619 1075.03 89.8885 1068.01 83.3391C1060.98 76.7909 1050.54 70.4034 1036.95 64.2751C1009.78 52.023 970.37 40.9522 921.557 31.6414C823.954 13.0246 689.052 1.5 540 1.5C390.948 1.5 256.046 13.0246 158.443 31.6414C109.63 40.9522 70.2214 52.023 43.0525 64.2751C29.4633 70.4034 19.0187 76.7909 11.9937 83.3391C4.96741 89.8885 1.5 96.4619 1.5 103C1.5 109.538 4.96741 116.112 11.9937 122.661C19.0187 129.209 29.4633 135.597 43.0525 141.725C70.2214 153.977 109.63 165.048 158.443 174.359C256.046 192.975 390.948 204.5 540 204.5C689.052 204.5 823.954 192.975 921.557 174.359C970.37 165.048 1009.78 153.977 1036.95 141.725C1050.54 135.597 1060.98 129.209 1068.01 122.661ZM540 206C838.234 206 1080 159.885 1080 103C1080 46.1147 838.234 0 540 0C241.766 0 0 46.1147 0 103C0 159.885 241.766 206 540 206Z" fill="#EEBE74"/>
</svg>
