<svg width="1080" height="206" viewBox="0 0 1080 206" fill="none" xmlns="http://www.w3.org/2000/svg">
<path d="M1079.25 103C1079.25 109.824 1075.63 116.582 1068.52 123.209C1061.41 129.836 1050.88 136.264 1037.26 142.409C1010.01 154.696 970.534 165.78 921.697 175.095C824.035 193.723 689.085 205.25 540 205.25C390.915 205.25 255.965 193.723 158.303 175.095C109.466 165.78 69.9914 154.696 42.7442 142.409C29.1182 136.264 18.5914 129.836 11.4823 123.209C4.37251 116.582 0.75 109.824 0.75 103C0.75 96.1756 4.37251 89.4177 11.4823 82.7905C18.5914 76.1639 29.1182 69.7363 42.7442 63.5914C69.9914 51.304 109.466 40.2199 158.303 30.9047C255.965 12.2766 390.915 0.75 540 0.75C689.085 0.75 824.035 12.2766 921.697 30.9047C970.534 40.2199 1010.01 51.304 1037.26 63.5914C1050.88 69.7363 1061.41 76.1639 1068.52 82.7905C1075.63 89.4177 1079.25 96.1756 1079.25 103Z" stroke="#EEBE74" stroke-width="1.5"/>
</svg>
