<svg width="466" height="24" viewBox="0 0 466 24" fill="none" xmlns="http://www.w3.org/2000/svg">
<g clip-path="url(#clip0_143_2901)">
<path d="M2.04006 22.53C1.77006 22.55 1.52006 22.58 1.27006 22.62C1.02006 22.66 0.800059 22.69 0.610059 22.74L0.480059 22.21C1.29006 21.26 2.04006 20.34 2.72006 19.45C3.40006 18.56 3.98006 17.71 4.46006 16.88C4.94006 16.06 5.31006 15.25 5.55006 14.47C5.79006 13.69 5.89006 12.92 5.82006 12.18C5.75006 11.38 5.48006 10.81 5.01006 10.45C4.54006 10.09 3.90006 9.95 3.09006 10.02C2.33006 10.08 1.78006 10.27 1.42006 10.57C1.06006 10.87 0.910059 11.27 0.950059 11.76C1.43006 11.85 1.68006 12.08 1.71006 12.44C1.77006 13.09 1.51006 13.44 0.950059 13.49C0.400059 13.54 0.0900586 13.13 0.0100586 12.27C-0.0799414 11.27 0.190059 10.49 0.810059 9.91C1.43006 9.33 2.41006 8.99 3.75006 8.87C6.14006 8.66 7.43006 9.66 7.62006 11.87C7.68006 12.63 7.62006 13.35 7.45006 14.05C7.28006 14.75 6.96006 15.45 6.52006 16.17C6.08006 16.88 5.51006 17.63 4.81006 18.39C4.11006 19.16 3.27006 19.99 2.29006 20.89L5.82006 20.59C6.18006 20.56 6.48006 20.51 6.73006 20.45C6.98006 20.39 7.19006 20.29 7.37006 20.16C7.55006 20.03 7.69006 19.84 7.80006 19.61C7.91006 19.38 8.02006 19.08 8.12006 18.71L8.64006 18.75L8.16006 22L2.02006 22.53H2.04006Z" fill="#EEBE74"/>
<path d="M15.8101 8.95C15.5301 8.85 15.2401 8.82 14.9401 8.84C14.5701 8.87 14.1701 9.01 13.7501 9.27C13.3301 9.52 12.9501 9.92 12.6101 10.45C12.2701 10.98 12.0101 11.65 11.8101 12.46C11.6201 13.27 11.5601 14.24 11.6601 15.37C12.1701 14.37 13.1901 13.8 14.7301 13.67C15.2401 13.63 15.7001 13.67 16.1401 13.81C16.5801 13.95 16.9501 14.14 17.2701 14.42C17.5901 14.69 17.8501 15.03 18.0501 15.42C18.2501 15.81 18.3701 16.25 18.4101 16.73C18.5301 18.23 18.2901 19.42 17.6901 20.29C17.0901 21.16 16.1101 21.65 14.7701 21.76C13.2801 21.88 12.1301 21.55 11.3101 20.76C10.4901 19.97 10.0201 18.86 9.90007 17.42C9.78007 15.98 9.82007 14.69 10.0101 13.55C10.2001 12.4 10.5201 11.43 10.9801 10.62C11.4401 9.81 12.0101 9.18 12.7101 8.71C13.4101 8.24 14.2201 7.97 15.1301 7.9C16.2701 7.81 16.8801 8.19 16.9501 9.04C16.9901 9.56 16.7801 9.84 16.3201 9.87C15.9201 9.9 15.7101 9.75 15.6801 9.42C15.6601 9.22 15.7101 9.06 15.8201 8.95H15.8101ZM14.7001 20.94C15.0701 20.91 15.3901 20.8 15.6701 20.61C15.9401 20.42 16.1601 20.18 16.3301 19.87C16.5001 19.56 16.6201 19.23 16.6801 18.85C16.7401 18.47 16.7601 18.07 16.7201 17.64C16.6301 16.52 16.3401 15.73 15.8401 15.25C15.3501 14.78 14.7101 14.57 13.9401 14.63C12.3801 14.76 11.6901 15.83 11.8501 17.85C11.8801 18.26 11.9701 18.66 12.1101 19.04C12.2501 19.42 12.4401 19.76 12.6701 20.06C12.9101 20.35 13.1901 20.58 13.5301 20.74C13.8701 20.9 14.2501 20.96 14.6901 20.93L14.7001 20.94Z" fill="#EEBE74"/>
<path d="M24.1998 21.01C23.5298 21.06 22.9298 20.93 22.3898 20.62C21.8498 20.31 21.3898 19.87 20.9898 19.29C20.5998 18.72 20.2798 18.04 20.0398 17.27C19.7998 16.49 19.6498 15.67 19.5798 14.79C19.5098 13.86 19.5398 12.95 19.6798 12.07C19.8198 11.19 20.0498 10.4 20.3798 9.7C20.7098 9 21.1298 8.43 21.6398 7.99C22.1498 7.55 22.7498 7.3 23.4298 7.25C24.0498 7.2 24.6398 7.34 25.1798 7.67C25.7198 8 26.1998 8.45 26.6098 9.03C27.0198 9.61 27.3598 10.3 27.6198 11.09C27.8798 11.88 28.0498 12.71 28.1098 13.57C28.1798 14.45 28.1398 15.32 28.0098 16.19C27.8798 17.06 27.6398 17.84 27.3098 18.53C26.9798 19.23 26.5498 19.8 26.0298 20.25C25.5098 20.71 24.8998 20.96 24.1898 21.01H24.1998ZM24.4298 20.13C24.9498 20.09 25.3498 19.91 25.6398 19.59C25.9298 19.27 26.1398 18.85 26.2898 18.33C26.4298 17.81 26.5098 17.22 26.5098 16.56C26.5098 15.9 26.4998 15.21 26.4398 14.49C26.3898 13.88 26.2998 13.2 26.1698 12.45C26.0398 11.7 25.8398 11 25.5798 10.35C25.3198 9.7 24.9698 9.17 24.5398 8.74C24.1098 8.32 23.5898 8.13 22.9598 8.18C22.5598 8.21 22.2398 8.41 21.9998 8.79C21.7598 9.17 21.5798 9.63 21.4598 10.19C21.3398 10.75 21.2598 11.35 21.2398 12C21.2198 12.65 21.2298 13.27 21.2698 13.87C21.3498 14.88 21.4698 15.78 21.6398 16.57C21.8098 17.36 22.0198 18.03 22.2898 18.57C22.5498 19.11 22.8598 19.52 23.2198 19.79C23.5698 20.06 23.9798 20.18 24.4298 20.15V20.13Z" fill="#EEBE74"/>
<path d="M38.5599 19.65L38.5199 19.05C39.8799 18.96 40.5299 18.6 40.4899 17.99L40.2199 14.09L36.4999 8.79C35.7399 7.72 34.9699 7.21 34.1899 7.26L34.1499 6.66L39.5999 6.28L39.6399 6.88C38.6799 6.95 38.2199 7.21 38.2499 7.66C38.2499 7.77 38.2899 7.87 38.3499 7.95C38.4099 8.04 38.4999 8.17 38.6199 8.33L41.7599 12.86L44.0099 8.04C44.0399 7.9 44.0599 7.76 44.0799 7.61C44.0999 7.46 44.0999 7.31 44.0799 7.17C44.0499 6.77 43.5099 6.61 42.4399 6.68L42.3999 6.08L47.0299 5.76L47.0699 6.36C46.3799 6.41 45.8699 6.7 45.5499 7.23L42.2599 13.88L42.5399 17.92C42.5799 18.48 43.2599 18.71 44.5699 18.62L44.6099 19.22L38.5399 19.64L38.5599 19.65Z" fill="#EEBE74"/>
<path d="M53.8598 16.63C53.5598 17.4 53.1398 18.01 52.5798 18.46C52.0198 18.91 51.3398 19.16 50.5498 19.21C49.8798 19.25 49.2898 19.18 48.7698 18.99C48.2498 18.8 47.8098 18.52 47.4398 18.16C47.0798 17.8 46.7898 17.36 46.5798 16.83C46.3698 16.31 46.2498 15.75 46.2098 15.15C46.1698 14.55 46.2298 13.97 46.3798 13.41C46.5298 12.85 46.7598 12.35 47.0698 11.9C47.3798 11.45 47.7698 11.09 48.2298 10.8C48.6898 10.52 49.2198 10.35 49.7998 10.32C50.1598 10.3 50.5398 10.32 50.9398 10.38C51.3398 10.44 51.7198 10.59 52.0798 10.82C52.4398 11.05 52.7698 11.39 53.0498 11.85C53.3298 12.31 53.5398 12.92 53.6698 13.68C53.6798 13.84 53.6698 13.99 53.6398 14.12L48.3298 14.47C48.0798 14.49 47.9598 14.59 47.9698 14.79C47.9998 15.27 48.0998 15.72 48.2598 16.13C48.4198 16.55 48.6298 16.91 48.8898 17.21C49.1498 17.51 49.4598 17.74 49.8198 17.9C50.1798 18.06 50.5698 18.12 50.9998 18.09C51.5598 18.05 52.0298 17.86 52.4198 17.52C52.8098 17.18 53.1398 16.78 53.4098 16.33L53.8698 16.62L53.8598 16.63ZM50.9398 13.7C51.4898 13.66 51.7398 13.37 51.6998 12.81C51.6298 12.31 51.4298 11.88 51.0998 11.52C50.7698 11.16 50.3298 11 49.7598 11.04C49.4498 11.06 49.1798 11.15 48.9398 11.3C48.6998 11.46 48.4898 11.66 48.3298 11.9C48.1698 12.15 48.0498 12.42 47.9698 12.73C47.8898 13.04 47.8698 13.35 47.8898 13.67C47.8998 13.83 48.0498 13.9 48.3498 13.88L50.9398 13.71V13.7Z" fill="#EEBE74"/>
<path d="M63.3302 17.18C63.1702 17.9 62.6602 18.28 61.8002 18.34C61.0402 18.39 60.5402 17.98 60.2802 17.13C59.3802 18.05 58.3802 18.55 57.3102 18.62C56.6002 18.66 56.0802 18.55 55.7302 18.27C55.3802 17.99 55.1802 17.53 55.1402 16.87C55.0402 15.23 56.6202 14.01 59.8802 13.21L59.8302 12.43C59.7502 11.13 59.2002 10.51 58.1802 10.57C57.7402 10.6 57.3602 10.69 57.0502 10.86C56.7402 11.03 56.5902 11.32 56.6202 11.73C56.7002 11.78 56.7702 11.86 56.8102 11.97C56.8602 12.08 56.8802 12.2 56.8902 12.32C56.9202 12.83 56.6302 13.1 56.0202 13.14C55.7902 13.15 55.6002 13.09 55.4302 12.96C55.2602 12.83 55.1702 12.6 55.1502 12.3C55.1302 11.99 55.2102 11.7 55.3802 11.4C55.5502 11.11 55.7802 10.85 56.0702 10.63C56.3602 10.4 56.6902 10.22 57.0802 10.07C57.4702 9.92 57.8702 9.83 58.2802 9.81C59.3902 9.74 60.1902 9.9 60.6802 10.28C61.1702 10.66 61.4502 11.33 61.5102 12.29L61.7802 16.62C61.8102 17.11 62.0502 17.34 62.5002 17.32C62.7102 17.31 62.9102 17.22 63.1002 17.06L63.3302 17.21V17.18ZM60.0002 13.88C59.5902 13.95 59.1802 14.04 58.7902 14.17C58.4002 14.3 58.0402 14.46 57.7402 14.66C57.4402 14.86 57.2002 15.11 57.0202 15.4C56.8402 15.69 56.7702 16.04 56.7902 16.46C56.8402 17.33 57.2902 17.73 58.1402 17.68C58.5102 17.66 58.8202 17.58 59.0602 17.45C59.3002 17.32 59.4902 17.16 59.6302 16.96C59.7702 16.76 59.8802 16.55 59.9502 16.32C60.0202 16.09 60.0702 15.86 60.1002 15.63L59.9902 13.89L60.0002 13.88Z" fill="#EEBE74"/>
<path d="M64.0598 17.98L64.0198 17.38C64.8898 17.33 65.2998 16.92 65.2498 16.17L64.9998 11.98C64.9398 11.02 64.4598 10.57 63.5398 10.62L63.5098 10.08C64.0098 9.94 64.5098 9.81 65.0198 9.68C65.5298 9.55 66.0298 9.42 66.5198 9.28L66.6298 11.2L66.7298 11.27C66.7598 11.1 66.8398 10.89 66.9598 10.66C67.0898 10.43 67.2398 10.2 67.4398 9.98C67.6298 9.76 67.8498 9.57 68.0898 9.41C68.3298 9.25 68.5898 9.16 68.8698 9.14C69.8798 9.08 70.4098 9.51 70.4598 10.43C70.4998 11.19 70.2198 11.59 69.6098 11.62C69.0598 11.65 68.7798 11.42 68.7498 10.93C68.7398 10.72 68.7498 10.56 68.7798 10.45L68.4198 10.47C68.0198 10.49 67.7098 10.64 67.4898 10.91C67.2698 11.18 67.0998 11.49 66.9998 11.86C66.8998 12.23 66.8298 12.61 66.8098 13C66.7898 13.4 66.7798 13.73 66.7798 13.99L66.9098 16.13C66.9498 16.85 67.4898 17.18 68.5098 17.12L68.5498 17.72L64.0398 17.99L64.0598 17.98Z" fill="#EEBE74"/>
<path d="M76.3798 11.39C75.6898 10.05 74.8398 9.41 73.8298 9.47C73.4198 9.49 73.0598 9.61 72.7698 9.83C72.4698 10.05 72.3398 10.39 72.3698 10.86C72.3798 11.13 72.5198 11.35 72.7798 11.52C73.0398 11.69 73.3498 11.85 73.7298 11.99C74.0998 12.13 74.5098 12.27 74.9398 12.4C75.3698 12.54 75.7798 12.7 76.1598 12.9C76.5398 13.1 76.8598 13.35 77.1198 13.64C77.3798 13.93 77.5298 14.31 77.5498 14.76C77.5698 15.16 77.5198 15.52 77.3898 15.85C77.2598 16.18 77.0698 16.46 76.8298 16.71C76.5798 16.95 76.2898 17.15 75.9598 17.31C75.6298 17.47 75.2798 17.59 74.9098 17.66C74.2398 17.7 73.6398 17.56 73.0998 17.24C72.8198 17.48 72.4298 17.65 71.9298 17.75C71.6598 16.79 71.4998 15.76 71.4398 14.65L71.9798 14.62C72.1498 15.09 72.3298 15.49 72.5298 15.8C72.7198 16.12 72.9298 16.37 73.1498 16.55C73.3698 16.73 73.6198 16.85 73.8898 16.92C74.1598 16.98 74.4598 17.01 74.7998 16.99C75.8998 16.93 76.4298 16.47 76.3798 15.6C76.3698 15.35 76.3098 15.13 76.2098 14.96C76.1098 14.79 75.9698 14.64 75.7898 14.52C75.5998 14.4 75.3698 14.3 75.0998 14.2C74.8298 14.1 74.5098 14 74.1398 13.9C73.8598 13.82 73.5498 13.72 73.2198 13.6C72.8898 13.48 72.5898 13.32 72.2998 13.14C72.0198 12.96 71.7798 12.73 71.5798 12.47C71.3798 12.21 71.2798 11.9 71.2598 11.54C71.2398 11.18 71.2698 10.84 71.3598 10.53C71.4498 10.22 71.5998 9.94 71.7998 9.7C71.9998 9.46 72.2798 9.27 72.6198 9.12C72.9598 8.97 73.3698 8.89 73.8498 8.86C74.4198 8.83 74.9898 8.96 75.5498 9.25C75.7498 9.06 76.0098 8.92 76.3098 8.81C76.5998 9.7 76.7698 10.55 76.8098 11.37L76.3698 11.4L76.3798 11.39Z" fill="#EEBE74"/>
<path d="M88.8802 17C88.2502 17.03 87.6802 16.94 87.1402 16.74C86.6102 16.53 86.1502 16.24 85.7602 15.87C85.3702 15.5 85.0702 15.05 84.8402 14.53C84.6102 14.01 84.4902 13.46 84.4602 12.88C84.4302 12.19 84.5102 11.55 84.7102 10.97C84.9102 10.39 85.1902 9.89 85.5602 9.48C85.9302 9.06 86.3602 8.73 86.8702 8.49C87.3802 8.25 87.9302 8.12 88.5102 8.09C89.1102 8.06 89.6702 8.15 90.1902 8.36C90.7102 8.57 91.1602 8.86 91.5502 9.23C91.9402 9.6 92.2402 10.05 92.4702 10.57C92.7002 11.09 92.8202 11.64 92.8502 12.22C92.8902 12.93 92.8002 13.57 92.6102 14.14C92.4102 14.72 92.1302 15.21 91.7602 15.62C91.3902 16.03 90.9602 16.36 90.4702 16.6C89.9702 16.84 89.4502 16.97 88.8902 17H88.8802ZM88.9202 16.3C89.4402 16.27 89.8402 16.14 90.1302 15.89C90.4202 15.64 90.6302 15.36 90.7802 15.03C90.9202 14.7 91.0102 14.37 91.0402 14.02C91.0702 13.67 91.0802 13.39 91.0702 13.16C91.0502 12.72 91.0002 12.24 90.9202 11.72C90.8402 11.2 90.7102 10.72 90.5202 10.28C90.3302 9.84 90.0702 9.48 89.7402 9.19C89.4102 8.9 88.9902 8.77 88.4702 8.79C87.9402 8.82 87.5202 8.95 87.2302 9.2C86.9402 9.45 86.7202 9.74 86.5702 10.06C86.4302 10.39 86.3402 10.73 86.3102 11.07C86.2802 11.42 86.2702 11.7 86.2802 11.93C86.3002 12.37 86.3502 12.85 86.4302 13.37C86.5102 13.89 86.6402 14.37 86.8302 14.81C87.0202 15.25 87.2802 15.61 87.6202 15.9C87.9502 16.19 88.3902 16.32 88.9202 16.29V16.3Z" fill="#EEBE74"/>
<path d="M94.1502 16.36L94.1202 15.76C94.9902 15.72 95.4002 15.37 95.3702 14.7L95.1102 9.23C95.1102 9.07 95.0202 8.99 94.8602 9L93.2602 9.08L93.2202 8.26L94.7602 8.19C94.9602 8.19 95.0502 8 95.0302 7.64C95.0002 6.89 95.0302 6.21 95.1102 5.57C95.1902 4.93 95.3802 4.39 95.6302 3.93C95.8902 3.47 96.2402 3.1 96.6902 2.83C97.1402 2.56 97.6902 2.4 98.3602 2.37C99.4302 2.32 99.9802 2.73 100.02 3.61C100.03 3.86 99.9602 4.08 99.7902 4.25C99.6202 4.42 99.4202 4.52 99.1802 4.53C98.7002 4.55 98.4502 4.37 98.4302 3.98C98.4202 3.77 98.4702 3.6 98.5702 3.49C98.4002 3.28 98.1902 3.19 97.9402 3.2C97.6402 3.21 97.4002 3.35 97.2302 3.61C97.0602 3.87 96.9302 4.18 96.8402 4.53C96.7502 4.88 96.6902 5.24 96.6702 5.62C96.6502 6 96.6402 6.31 96.6502 6.56L96.7002 7.54C96.7202 7.9 96.8302 8.08 97.0502 8.06L98.8802 7.89L98.8402 8.73L97.0802 8.81C96.8702 8.81 96.7602 8.9 96.7702 9.04L97.0302 14.59C97.0602 15.26 97.6602 15.56 98.8402 15.51L98.8702 16.11L94.1402 16.33L94.1502 16.36Z" fill="#EEBE74"/>
<path d="M106.47 15.79L106.45 15.19C106.85 15.17 107.16 15.14 107.41 15.09C107.66 15.04 107.84 14.95 107.97 14.82C108.1 14.69 108.19 14.5 108.22 14.25C108.25 14 108.27 13.68 108.25 13.28L107.91 4.99C107.89 4.52 107.84 4.18 107.77 3.95C107.69 3.72 107.58 3.56 107.41 3.46C107.25 3.37 107.04 3.31 106.79 3.29C106.54 3.27 106.23 3.23 105.87 3.17L105.84 2.55C106.11 2.58 106.39 2.59 106.68 2.59C106.97 2.59 107.27 2.58 107.58 2.56C107.98 2.54 108.36 2.52 108.71 2.49C109.06 2.46 109.41 2.43 109.75 2.4C110.09 2.37 110.44 2.34 110.81 2.31C111.18 2.28 111.57 2.26 112 2.24C113.13 2.19 114.14 2.31 115.04 2.58C115.93 2.85 116.69 3.26 117.31 3.81C117.93 4.36 118.42 5.04 118.77 5.86C119.12 6.68 119.31 7.61 119.35 8.65C119.39 9.66 119.27 10.58 119 11.41C118.73 12.24 118.27 12.95 117.64 13.55C117.01 14.15 116.18 14.63 115.17 14.98C114.16 15.34 112.93 15.54 111.49 15.6L106.47 15.8V15.79ZM112.67 14.76C114.24 14.7 115.39 14.18 116.11 13.21C116.83 12.24 117.15 10.75 117.07 8.74C116.99 6.74 116.5 5.28 115.61 4.36C114.72 3.44 113.47 3.02 111.85 3.08L111.05 3.11C110.81 3.11 110.61 3.14 110.45 3.16C110.29 3.19 110.17 3.24 110.08 3.33C109.99 3.42 109.93 3.55 109.9 3.71C109.87 3.87 109.86 4.09 109.87 4.37L110.23 13.32C110.24 13.68 110.29 13.96 110.35 14.17C110.41 14.38 110.52 14.52 110.67 14.62C110.81 14.71 111 14.77 111.23 14.78C111.46 14.79 111.74 14.78 112.07 14.78L112.67 14.76Z" fill="#EEBE74"/>
<path d="M128.48 12.95C128.16 13.71 127.72 14.31 127.14 14.74C126.57 15.17 125.88 15.41 125.08 15.44C124.41 15.46 123.82 15.37 123.31 15.16C122.8 14.95 122.36 14.66 122.01 14.29C121.66 13.92 121.38 13.47 121.19 12.94C121 12.41 120.89 11.85 120.87 11.25C120.85 10.65 120.92 10.07 121.09 9.52C121.26 8.97 121.5 8.47 121.83 8.03C122.15 7.59 122.55 7.24 123.02 6.97C123.49 6.7 124.02 6.55 124.61 6.53C124.97 6.52 125.35 6.55 125.74 6.62C126.14 6.69 126.51 6.85 126.87 7.09C127.23 7.33 127.54 7.68 127.81 8.15C128.08 8.61 128.27 9.23 128.38 10C128.38 10.16 128.38 10.31 128.34 10.44L123.02 10.63C122.77 10.63 122.64 10.74 122.65 10.94C122.67 11.42 122.75 11.87 122.9 12.29C123.05 12.71 123.25 13.08 123.5 13.39C123.75 13.7 124.05 13.94 124.41 14.11C124.77 14.28 125.15 14.35 125.58 14.34C126.14 14.32 126.62 14.14 127.01 13.81C127.41 13.48 127.75 13.09 128.04 12.65L128.49 12.95H128.48ZM125.65 9.93C126.2 9.91 126.46 9.62 126.44 9.06C126.38 8.56 126.2 8.12 125.88 7.75C125.57 7.38 125.12 7.21 124.55 7.23C124.24 7.24 123.97 7.32 123.72 7.47C123.47 7.62 123.26 7.81 123.09 8.05C122.92 8.29 122.79 8.56 122.71 8.86C122.63 9.16 122.59 9.48 122.6 9.79C122.6 9.95 122.76 10.02 123.05 10.01L125.65 9.92V9.93Z" fill="#EEBE74"/>
<path d="M134.67 8.85C134.01 7.5 133.18 6.84 132.16 6.87C131.75 6.88 131.39 7 131.09 7.21C130.79 7.42 130.65 7.76 130.66 8.23C130.66 8.5 130.8 8.72 131.05 8.9C131.3 9.08 131.61 9.24 131.99 9.39C132.36 9.54 132.76 9.68 133.2 9.83C133.63 9.98 134.03 10.15 134.41 10.36C134.78 10.57 135.1 10.82 135.36 11.12C135.62 11.42 135.75 11.8 135.77 12.25C135.78 12.65 135.72 13.01 135.59 13.34C135.45 13.67 135.26 13.95 135.01 14.18C134.76 14.42 134.46 14.61 134.13 14.76C133.79 14.91 133.44 15.02 133.07 15.09C132.4 15.11 131.8 14.96 131.27 14.63C130.98 14.87 130.59 15.03 130.09 15.11C129.84 14.14 129.7 13.11 129.67 12L130.21 11.98C130.37 12.46 130.55 12.85 130.73 13.17C130.91 13.49 131.12 13.75 131.34 13.93C131.56 14.12 131.8 14.24 132.07 14.32C132.34 14.39 132.64 14.42 132.97 14.41C134.08 14.37 134.61 13.92 134.59 13.06C134.59 12.81 134.53 12.59 134.44 12.41C134.35 12.23 134.21 12.08 134.02 11.96C133.84 11.84 133.61 11.73 133.34 11.62C133.07 11.52 132.75 11.41 132.39 11.3C132.11 11.22 131.8 11.11 131.48 10.98C131.16 10.85 130.85 10.69 130.57 10.5C130.29 10.31 130.06 10.08 129.87 9.81C129.68 9.54 129.58 9.23 129.57 8.87C129.56 8.51 129.6 8.18 129.7 7.87C129.8 7.56 129.95 7.29 130.16 7.05C130.37 6.82 130.65 6.63 130.99 6.49C131.33 6.35 131.74 6.28 132.22 6.26C132.79 6.24 133.36 6.38 133.92 6.68C134.13 6.5 134.38 6.36 134.69 6.25C134.96 7.15 135.11 8 135.14 8.82H134.7L134.67 8.85Z" fill="#EEBE74"/>
<path d="M137 14.65L136.98 14.05C137.9 14.02 138.35 13.6 138.32 12.79L138.2 8.81C138.17 7.76 137.74 7.24 136.93 7.27L136.91 6.73L139.79 6.02L140 12.82C140.02 13.58 140.54 13.94 141.55 13.91L141.57 14.51L136.99 14.65H137ZM138.75 3.85C138.04 3.87 137.68 3.48 137.65 2.66C137.63 1.9 137.99 1.51 138.75 1.49C139.47 1.47 139.84 1.84 139.86 2.6C139.88 3.41 139.51 3.83 138.74 3.85H138.75Z" fill="#EEBE74"/>
<path d="M145.51 18.04C144.69 18.06 144.02 17.94 143.49 17.67C142.96 17.4 142.69 16.97 142.67 16.38C142.65 15.62 143.21 15.04 144.34 14.65C143.48 14.47 143.04 13.98 143.02 13.16C143.02 12.95 143.05 12.74 143.12 12.54C143.19 12.34 143.3 12.15 143.44 11.99C143.58 11.83 143.75 11.69 143.94 11.59C144.13 11.49 144.34 11.44 144.57 11.43C143.54 10.93 143.01 10.08 142.98 8.9C142.97 8.5 143.03 8.12 143.17 7.76C143.31 7.4 143.51 7.08 143.79 6.79C144.07 6.51 144.42 6.28 144.84 6.11C145.26 5.94 145.76 5.85 146.32 5.83C147.22 5.81 148.01 6.07 148.71 6.62C148.93 6.27 149.17 6.02 149.45 5.87C149.73 5.72 150.03 5.64 150.35 5.63C150.91 5.61 151.2 5.85 151.21 6.33C151.22 6.85 151.02 7.12 150.6 7.13C150.32 7.13 150.1 7.04 149.94 6.85C149.64 6.9 149.39 7.04 149.21 7.27C149.4 7.48 149.54 7.71 149.63 7.98C149.72 8.24 149.76 8.49 149.77 8.72C149.8 9.76 149.52 10.53 148.94 11.04C148.36 11.55 147.4 11.82 146.07 11.86C145.92 11.86 145.77 11.86 145.62 11.83C145.47 11.81 145.3 11.78 145.13 11.74C144.48 11.8 144.16 12.07 144.17 12.57C144.17 12.86 144.3 13.06 144.53 13.17C144.76 13.28 145.14 13.32 145.67 13.31L147.95 13.25C148.34 13.24 148.7 13.27 149.04 13.35C149.38 13.43 149.68 13.56 149.94 13.73C150.2 13.91 150.4 14.14 150.56 14.42C150.72 14.7 150.8 15.04 150.81 15.44C150.82 15.81 150.75 16.15 150.59 16.46C150.43 16.77 150.2 17.03 149.91 17.25C149.62 17.47 149.26 17.64 148.85 17.77C148.44 17.89 147.99 17.96 147.49 17.98L145.49 18.04H145.51ZM147.1 17.4C148.76 17.35 149.57 16.8 149.54 15.73C149.52 15.02 148.71 14.69 147.12 14.74L145.45 14.79C145.01 14.88 144.67 15.02 144.44 15.2C144.2 15.38 144.09 15.64 144.1 15.99C144.11 16.48 144.33 16.85 144.76 17.09C145.19 17.33 145.77 17.44 146.51 17.42L147.09 17.4H147.1ZM146.34 11.08C147.56 11.05 148.15 10.4 148.12 9.15C148.07 7.31 147.45 6.41 146.27 6.44C145.1 6.47 144.54 7.2 144.58 8.61C144.63 10.29 145.21 11.11 146.34 11.08Z" fill="#EEBE74"/>
<path d="M157.34 14.08V13.48C158.19 13.46 158.62 13.17 158.6 12.61L158.52 9.33C158.48 7.5 157.8 6.61 156.49 6.64C155.16 6.67 154.51 7.5 154.55 9.13L154.64 12.71C154.65 13.27 155.14 13.54 156.1 13.51V14.11L151.88 14.21V13.61C152.61 13.59 152.98 13.28 152.96 12.66L152.84 7.56C152.83 7.09 152.46 6.87 151.74 6.89H151.46L151.45 6.38L154.31 5.61C154.36 5.66 154.39 5.79 154.4 6.01L154.43 7.21C154.53 7.01 154.66 6.81 154.83 6.61C155 6.41 155.19 6.24 155.44 6.09C155.68 5.94 155.97 5.81 156.3 5.71C156.63 5.61 157.01 5.55 157.44 5.54C157.68 5.54 157.95 5.58 158.26 5.67C158.57 5.76 158.87 5.92 159.15 6.13C159.44 6.34 159.68 6.62 159.87 6.96C160.06 7.3 160.17 7.72 160.18 8.21L160.29 12.63C160.3 13.15 160.74 13.4 161.61 13.38V13.98L157.35 14.08H157.34Z" fill="#EEBE74"/>
<path d="M163.33 16.69C163.76 16.4 164.09 16.14 164.32 15.9C164.55 15.66 164.71 15.44 164.82 15.25C164.92 15.05 164.98 14.88 165 14.73C165.02 14.58 165.02 14.43 165.02 14.3C165.02 13.99 164.86 13.84 164.57 13.85C163.8 13.87 163.4 13.54 163.39 12.88C163.37 12.03 163.77 11.59 164.58 11.57C165.65 11.55 166.19 12.17 166.22 13.44C166.24 14.25 166.03 14.96 165.59 15.55C165.15 16.15 164.5 16.68 163.64 17.15L163.33 16.7V16.69Z" fill="#EEBE74"/>
<path d="M185.76 9.71C185.65 10.41 185.44 11.01 185.12 11.53C184.8 12.05 184.41 12.48 183.94 12.83C183.47 13.18 182.94 13.44 182.35 13.63C181.76 13.82 181.14 13.91 180.5 13.92C179.55 13.94 178.69 13.78 177.92 13.45C177.15 13.12 176.48 12.66 175.93 12.07C175.37 11.48 174.94 10.78 174.64 9.96C174.34 9.14 174.17 8.26 174.16 7.32C174.14 6.28 174.29 5.32 174.61 4.45C174.93 3.58 175.37 2.83 175.92 2.19C176.47 1.55 177.13 1.06 177.88 0.699998C178.63 0.339998 179.43 0.149998 180.28 0.139998C181.31 0.119998 182.28 0.409998 183.19 1.01C183.65 0.519998 184.12 0.229998 184.62 0.149998C184.66 0.189998 184.72 0.339998 184.81 0.599998C184.89 0.859998 184.98 1.19 185.06 1.61C185.14 2.02 185.21 2.49 185.27 3.03C185.33 3.57 185.37 4.12 185.38 4.71H184.7C184.37 3.45 183.82 2.49 183.05 1.86C182.28 1.23 181.39 0.919998 180.37 0.929998C179.64 0.939998 179.01 1.11 178.5 1.43C177.98 1.75 177.56 2.17 177.24 2.69C176.91 3.21 176.68 3.8 176.54 4.45C176.4 5.1 176.33 5.77 176.34 6.45C176.36 7.4 176.45 8.27 176.63 9.08C176.81 9.89 177.08 10.58 177.45 11.17C177.82 11.76 178.29 12.22 178.87 12.55C179.45 12.88 180.14 13.04 180.94 13.03C181.45 13.03 181.9 12.96 182.31 12.85C182.71 12.74 183.08 12.55 183.42 12.28C183.76 12.01 184.06 11.66 184.34 11.2C184.62 10.74 184.89 10.19 185.14 9.52L185.74 9.73L185.76 9.71Z" fill="#EEBE74"/>
<path d="M187.03 13.52V12.92C187.89 12.91 188.32 12.52 188.31 11.76L188.26 7.56C188.25 6.6 187.78 6.13 186.86 6.14V5.6C187.36 5.49 187.87 5.38 188.38 5.27C188.89 5.16 189.4 5.05 189.9 4.94L189.92 6.86L190.02 6.94C190.06 6.77 190.14 6.56 190.28 6.34C190.42 6.11 190.59 5.89 190.79 5.68C190.99 5.47 191.22 5.29 191.47 5.14C191.72 4.99 191.98 4.91 192.26 4.91C193.27 4.9 193.78 5.35 193.79 6.27C193.79 7.03 193.5 7.41 192.88 7.42C192.33 7.42 192.06 7.18 192.05 6.69C192.05 6.48 192.07 6.32 192.1 6.21H191.74C191.34 6.21 191.03 6.35 190.79 6.61C190.56 6.87 190.38 7.18 190.26 7.54C190.14 7.9 190.06 8.28 190.02 8.67C189.98 9.06 189.95 9.39 189.94 9.66L189.97 11.8C189.97 12.52 190.5 12.87 191.52 12.86V13.46L187.01 13.52H187.03Z" fill="#EEBE74"/>
<path d="M201.96 11.37C201.62 12.12 201.16 12.7 200.58 13.12C200 13.54 199.31 13.75 198.51 13.76C197.84 13.76 197.26 13.66 196.75 13.44C196.24 13.22 195.81 12.92 195.47 12.53C195.13 12.15 194.87 11.69 194.69 11.16C194.51 10.63 194.42 10.06 194.41 9.46C194.41 8.86 194.49 8.29 194.67 7.74C194.85 7.19 195.11 6.7 195.45 6.27C195.79 5.84 196.19 5.5 196.67 5.24C197.15 4.98 197.68 4.85 198.27 4.84C198.63 4.84 199.01 4.88 199.4 4.96C199.79 5.04 200.17 5.21 200.51 5.46C200.85 5.71 201.16 6.07 201.42 6.54C201.68 7.01 201.85 7.63 201.94 8.41C201.94 8.57 201.92 8.72 201.88 8.85L196.56 8.9C196.31 8.9 196.18 9 196.18 9.2C196.18 9.68 196.26 10.13 196.39 10.56C196.53 10.99 196.72 11.36 196.96 11.67C197.2 11.98 197.5 12.23 197.85 12.41C198.2 12.59 198.59 12.67 199.01 12.67C199.57 12.67 200.05 12.5 200.46 12.18C200.87 11.86 201.22 11.48 201.52 11.05L201.96 11.37ZM199.21 8.28C199.76 8.28 200.03 7.99 200.02 7.43C199.98 6.92 199.8 6.48 199.5 6.1C199.2 5.72 198.76 5.54 198.18 5.54C197.87 5.54 197.59 5.62 197.34 5.76C197.09 5.9 196.87 6.09 196.7 6.33C196.52 6.57 196.39 6.83 196.3 7.13C196.21 7.43 196.17 7.74 196.17 8.06C196.17 8.22 196.32 8.3 196.61 8.3L199.21 8.27V8.28Z" fill="#EEBE74"/>
<path d="M211.39 12.45C211.2 13.16 210.66 13.51 209.8 13.52C209.04 13.52 208.56 13.1 208.35 12.23C207.4 13.1 206.38 13.54 205.3 13.55C204.59 13.55 204.07 13.41 203.74 13.11C203.41 12.81 203.24 12.34 203.23 11.68C203.22 10.04 204.86 8.91 208.17 8.29V7.51C208.16 6.2 207.64 5.55 206.62 5.56C206.18 5.56 205.8 5.64 205.47 5.79C205.15 5.94 204.99 6.22 204.99 6.63C205.07 6.68 205.13 6.77 205.17 6.88C205.21 6.99 205.23 7.11 205.23 7.23C205.23 7.74 204.93 7.99 204.31 8C204.08 8 203.89 7.93 203.73 7.78C203.57 7.63 203.49 7.41 203.49 7.1C203.49 6.79 203.58 6.5 203.77 6.22C203.96 5.94 204.2 5.69 204.5 5.48C204.8 5.27 205.15 5.1 205.54 4.97C205.93 4.84 206.34 4.77 206.75 4.77C207.86 4.77 208.65 4.96 209.12 5.37C209.59 5.78 209.83 6.47 209.84 7.43L209.87 11.77C209.87 12.26 210.1 12.51 210.56 12.51C210.77 12.51 210.98 12.43 211.18 12.29L211.4 12.45H211.39ZM208.25 8.97C207.83 9.01 207.43 9.09 207.02 9.19C206.62 9.29 206.26 9.44 205.95 9.62C205.64 9.8 205.38 10.03 205.19 10.32C205 10.61 204.9 10.95 204.91 11.36C204.91 12.23 205.34 12.66 206.19 12.65C206.57 12.65 206.88 12.59 207.12 12.47C207.37 12.35 207.57 12.2 207.72 12.02C207.87 11.84 207.99 11.62 208.08 11.4C208.17 11.17 208.23 10.95 208.27 10.72V8.98L208.25 8.97Z" fill="#EEBE74"/>
<path d="M217.42 11.22C217.34 11.57 217.24 11.88 217.12 12.17C217 12.46 216.84 12.71 216.64 12.91C216.44 13.12 216.19 13.28 215.89 13.39C215.59 13.5 215.23 13.56 214.82 13.56C214.17 13.56 213.65 13.41 213.27 13.1C212.89 12.79 212.7 12.29 212.69 11.59L212.67 5.89H211.37L211.45 5.3C212.06 5.18 212.55 4.83 212.93 4.24C213.3 3.66 213.57 2.99 213.72 2.23L214.34 2.15V5.11H215.93C216.12 5.11 216.29 5.09 216.44 5.06C216.59 5.03 216.73 5 216.85 4.96V5.88H214.35L214.37 11.14C214.37 11.3 214.37 11.46 214.39 11.61C214.4 11.76 214.44 11.91 214.5 12.04C214.56 12.17 214.66 12.28 214.79 12.36C214.92 12.44 215.11 12.48 215.35 12.48C215.74 12.48 216.08 12.34 216.39 12.08C216.7 11.81 216.88 11.47 216.95 11.06L217.41 11.22H217.42Z" fill="#EEBE74"/>
<path d="M218.01 13.26V12.66C218.93 12.66 219.39 12.25 219.39 11.44V7.46C219.38 6.41 218.97 5.88 218.16 5.88V5.34L221.06 4.71V11.51C221.08 12.27 221.58 12.65 222.6 12.65V13.25H218.02L218.01 13.26ZM220.07 2.52C219.36 2.52 219.01 2.12 219.01 1.3C219.01 0.54 219.39 0.16 220.15 0.16C220.87 0.16 221.23 0.54 221.23 1.3C221.23 2.11 220.85 2.52 220.07 2.52Z" fill="#EEBE74"/>
<path d="M227.89 13.63C227.26 13.63 226.69 13.51 226.17 13.28C225.65 13.05 225.21 12.73 224.84 12.34C224.47 11.95 224.19 11.49 223.99 10.96C223.79 10.43 223.69 9.88 223.69 9.29C223.69 8.6 223.81 7.97 224.03 7.4C224.25 6.83 224.56 6.35 224.95 5.95C225.34 5.55 225.79 5.24 226.31 5.03C226.83 4.82 227.38 4.71 227.97 4.71C228.57 4.71 229.12 4.83 229.63 5.06C230.14 5.29 230.57 5.61 230.94 6C231.31 6.39 231.59 6.85 231.79 7.38C231.99 7.91 232.09 8.46 232.09 9.05C232.09 9.76 231.97 10.39 231.75 10.96C231.53 11.53 231.21 12.01 230.83 12.4C230.45 12.79 230 13.1 229.49 13.31C228.98 13.52 228.45 13.63 227.89 13.63ZM227.97 12.93C228.49 12.93 228.9 12.82 229.2 12.58C229.5 12.34 229.73 12.07 229.89 11.75C230.05 11.43 230.15 11.1 230.2 10.75C230.25 10.41 230.27 10.12 230.27 9.89C230.27 9.45 230.24 8.97 230.19 8.44C230.14 7.91 230.03 7.43 229.86 6.98C229.69 6.53 229.45 6.16 229.14 5.85C228.83 5.54 228.41 5.39 227.89 5.39C227.36 5.39 226.94 5.51 226.63 5.74C226.32 5.97 226.09 6.25 225.93 6.57C225.77 6.89 225.67 7.22 225.62 7.57C225.57 7.92 225.55 8.2 225.55 8.43C225.55 8.87 225.57 9.35 225.63 9.88C225.68 10.41 225.79 10.89 225.96 11.34C226.13 11.79 226.37 12.16 226.69 12.47C227.01 12.78 227.44 12.93 227.97 12.93Z" fill="#EEBE74"/>
<path d="M238.66 13.28V12.68C239.53 12.68 239.96 12.41 239.97 11.85V8.57C239.99 6.74 239.34 5.83 238.03 5.82C236.7 5.82 236.03 6.63 236.02 8.25V11.83C236 12.39 236.48 12.67 237.44 12.68V13.28L233.2 13.26V12.66C233.95 12.66 234.32 12.36 234.33 11.74L234.35 6.64C234.35 6.17 233.99 5.94 233.27 5.94H232.99V5.42L235.87 4.73C235.92 4.78 235.95 4.92 235.95 5.13V6.33C236.05 6.13 236.19 5.93 236.36 5.74C236.53 5.55 236.73 5.38 236.98 5.23C237.23 5.08 237.52 4.97 237.85 4.87C238.18 4.77 238.56 4.73 238.99 4.73C239.23 4.73 239.5 4.78 239.81 4.88C240.12 4.98 240.41 5.14 240.69 5.36C240.97 5.58 241.2 5.87 241.39 6.21C241.58 6.55 241.67 6.98 241.67 7.47L241.65 11.89C241.65 12.41 242.08 12.67 242.95 12.68V13.28L238.67 13.26L238.66 13.28Z" fill="#EEBE74"/>
<path d="M264.65 11.3C264.61 11.58 264.51 11.87 264.35 12.16C264.19 12.45 263.99 12.71 263.73 12.93C263.47 13.15 263.17 13.34 262.8 13.48C262.44 13.62 262.03 13.69 261.58 13.69C260.38 13.68 259.31 13.15 258.38 12.1C257.33 13.13 256.08 13.64 254.64 13.62C251.69 13.59 250.23 12.36 250.26 9.93C250.26 9.06 250.51 8.26 250.98 7.51C251.45 6.76 252.24 6.11 253.35 5.55C253.1 5.13 252.89 4.7 252.72 4.24C252.55 3.78 252.47 3.38 252.47 3.02C252.49 0.989999 253.51 -0.0100013 255.54 0.0099987C257.58 0.0299987 258.59 0.879999 258.57 2.56C258.57 3.23 258.3 3.83 257.78 4.37C257.26 4.91 256.62 5.38 255.86 5.79C256.35 6.49 256.86 7.2 257.4 7.92C257.94 8.64 258.52 9.39 259.16 10.17C259.65 9.67 260.01 9.19 260.27 8.72C260.53 8.25 260.65 7.8 260.65 7.36C260.65 6.4 260.08 5.91 258.9 5.9V5.3L263.63 5.35V5.95C263.17 5.95 262.8 6.08 262.53 6.36C262.25 6.64 261.98 6.99 261.71 7.41C261.59 7.64 261.47 7.87 261.37 8.12C261.27 8.37 261.15 8.62 261.02 8.9C260.89 9.17 260.72 9.46 260.51 9.75C260.3 10.04 260.03 10.36 259.69 10.67C260.21 11.1 260.66 11.49 261.06 11.82C261.46 12.15 261.81 12.33 262.11 12.33C262.31 12.33 262.52 12.29 262.74 12.2C262.96 12.11 263.17 12 263.35 11.87C263.54 11.74 263.7 11.6 263.84 11.45C263.98 11.3 264.07 11.17 264.11 11.06L264.63 11.31L264.65 11.3ZM257.97 11.47C257.13 10.5 256.35 9.59 255.63 8.73C254.91 7.88 254.26 6.99 253.67 6.06C252.6 6.64 252.05 7.42 252.04 8.42C252.01 11.05 253.14 12.37 255.42 12.4C255.83 12.4 256.25 12.36 256.68 12.25C257.11 12.15 257.54 11.89 257.97 11.46V11.47ZM255.5 5.24C256.63 4.19 257.2 3.31 257.21 2.6C257.22 1.28 256.67 0.609999 255.55 0.599999C254.59 0.589999 254.1 1.19 254.09 2.4C254.09 3.03 254.55 3.97 255.5 5.23V5.24Z" fill="#EEBE74"/>
<path d="M271.6 13.61V13.01C272.88 13.03 273.52 12.58 273.53 11.66L273.68 2.75C273.7 1.58 273.05 0.979998 271.73 0.949998V0.349998L277.54 0.449998V1.05C276.3 1.03 275.68 1.61 275.66 2.78L275.51 11.69C275.49 12.61 276.13 13.08 277.41 13.1V13.7L271.6 13.6V13.61Z" fill="#EEBE74"/>
<path d="M284.43 13.84V13.24C285.31 13.26 285.75 12.99 285.76 12.43L285.83 9.15C285.87 7.32 285.23 6.4 283.93 6.37C282.6 6.34 281.91 7.14 281.88 8.77L281.81 12.35C281.8 12.91 282.27 13.2 283.23 13.22V13.82L278.98 13.73V13.13C279.74 13.15 280.12 12.85 280.13 12.23L280.23 7.13C280.23 6.66 279.88 6.42 279.16 6.41H278.88L278.89 5.88L281.78 5.24C281.83 5.29 281.86 5.43 281.85 5.64L281.83 6.84C281.94 6.64 282.08 6.45 282.25 6.26C282.42 6.07 282.63 5.9 282.88 5.76C283.13 5.62 283.42 5.5 283.76 5.42C284.09 5.33 284.48 5.3 284.9 5.3C285.14 5.3 285.41 5.36 285.72 5.47C286.03 5.58 286.31 5.74 286.59 5.97C286.87 6.2 287.09 6.48 287.27 6.83C287.45 7.18 287.53 7.6 287.52 8.1L287.43 12.52C287.42 13.04 287.85 13.31 288.71 13.33V13.93L284.42 13.84H284.43Z" fill="#EEBE74"/>
<path d="M295.47 14.09V13.49C296.35 13.51 296.79 13.24 296.8 12.68L296.88 9.4C296.92 7.57 296.29 6.65 294.99 6.61C293.66 6.58 292.97 7.37 292.93 9L292.84 12.58C292.83 13.14 293.3 13.43 294.26 13.45V14.05L290.01 13.95V13.35C290.77 13.37 291.15 13.07 291.17 12.46L291.29 7.36C291.3 6.89 290.95 6.65 290.23 6.63H289.95L289.96 6.1L292.86 5.47C292.91 5.52 292.94 5.66 292.93 5.87L292.9 7.07C293.01 6.87 293.15 6.68 293.32 6.49C293.49 6.3 293.7 6.14 293.95 5.99C294.2 5.85 294.49 5.74 294.83 5.65C295.16 5.57 295.55 5.53 295.97 5.54C296.21 5.54 296.48 5.6 296.79 5.71C297.09 5.82 297.38 5.98 297.66 6.21C297.94 6.44 298.16 6.73 298.34 7.08C298.52 7.43 298.6 7.85 298.59 8.35L298.48 12.77C298.47 13.29 298.89 13.56 299.76 13.58V14.18L295.47 14.08V14.09Z" fill="#EEBE74"/>
<path d="M305.05 14.72C304.42 14.7 303.85 14.57 303.34 14.32C302.83 14.07 302.39 13.75 302.04 13.34C301.69 12.93 301.41 12.47 301.23 11.94C301.05 11.41 300.96 10.85 300.98 10.26C301 9.57 301.13 8.94 301.37 8.38C301.61 7.82 301.93 7.34 302.33 6.96C302.73 6.57 303.19 6.28 303.71 6.08C304.24 5.88 304.79 5.79 305.38 5.81C305.98 5.83 306.53 5.96 307.03 6.21C307.53 6.46 307.96 6.78 308.31 7.19C308.66 7.6 308.94 8.06 309.12 8.59C309.3 9.12 309.39 9.68 309.37 10.27C309.35 10.98 309.22 11.61 308.98 12.17C308.74 12.73 308.42 13.2 308.02 13.58C307.62 13.96 307.17 14.25 306.65 14.45C306.14 14.65 305.6 14.74 305.04 14.73L305.05 14.72ZM305.15 14.02C305.67 14.03 306.08 13.93 306.39 13.71C306.7 13.49 306.93 13.22 307.1 12.9C307.27 12.58 307.38 12.26 307.44 11.91C307.5 11.57 307.53 11.28 307.53 11.05C307.54 10.61 307.53 10.13 307.49 9.6C307.45 9.07 307.36 8.59 307.2 8.14C307.04 7.69 306.82 7.31 306.51 6.99C306.2 6.67 305.79 6.51 305.27 6.5C304.74 6.48 304.31 6.59 304 6.81C303.69 7.03 303.45 7.3 303.28 7.62C303.11 7.94 303 8.26 302.94 8.61C302.88 8.95 302.85 9.24 302.85 9.46C302.84 9.9 302.85 10.38 302.89 10.91C302.93 11.44 303.02 11.92 303.18 12.37C303.34 12.82 303.57 13.2 303.88 13.52C304.19 13.84 304.61 14 305.15 14.01V14.02Z" fill="#EEBE74"/>
<path d="M313.81 14.98L310.7 7.48C310.59 7.29 310.45 7.15 310.28 7.07C310.11 6.99 309.9 6.94 309.63 6.93L309.65 6.33L313.93 6.46L313.91 7.06C313.1 7.03 312.68 7.2 312.67 7.54C312.67 7.67 312.67 7.76 312.67 7.81C312.67 7.86 312.69 7.9 312.72 7.94L314.63 12.8L316.53 8.44C316.57 8.29 316.61 8.17 316.65 8.05C316.69 7.94 316.71 7.84 316.71 7.74C316.72 7.34 316.34 7.13 315.57 7.1L315.59 6.5L318.87 6.6L318.85 7.2C318.5 7.19 318.23 7.28 318.03 7.48C317.83 7.68 317.66 7.98 317.51 8.37L314.49 14.82L313.8 14.96L313.81 14.98Z" fill="#EEBE74"/>
<path d="M327.3 14.21C327.08 14.91 326.53 15.24 325.66 15.21C324.9 15.18 324.44 14.73 324.27 13.86C323.28 14.69 322.25 15.09 321.17 15.05C320.46 15.03 319.95 14.86 319.63 14.55C319.31 14.24 319.16 13.76 319.18 13.1C319.24 11.46 320.93 10.4 324.25 9.91L324.28 9.13C324.32 7.82 323.84 7.15 322.82 7.12C322.38 7.11 321.99 7.16 321.67 7.3C321.34 7.44 321.17 7.71 321.16 8.12C321.24 8.18 321.29 8.26 321.33 8.38C321.37 8.5 321.38 8.61 321.38 8.73C321.36 9.24 321.05 9.48 320.43 9.46C320.2 9.46 320.01 9.37 319.86 9.22C319.71 9.07 319.63 8.84 319.64 8.53C319.65 8.22 319.75 7.93 319.95 7.66C320.15 7.39 320.4 7.15 320.71 6.96C321.02 6.77 321.37 6.61 321.77 6.5C322.17 6.39 322.58 6.34 322.99 6.35C324.1 6.39 324.88 6.62 325.33 7.05C325.78 7.48 325.99 8.17 325.96 9.13L325.81 13.47C325.79 13.96 326.01 14.22 326.46 14.23C326.67 14.23 326.88 14.17 327.09 14.03L327.3 14.2V14.21ZM324.3 10.6C323.88 10.63 323.47 10.68 323.07 10.77C322.66 10.86 322.3 10.98 321.98 11.15C321.66 11.32 321.4 11.54 321.19 11.81C320.99 12.08 320.88 12.43 320.86 12.84C320.83 13.71 321.24 14.15 322.08 14.18C322.46 14.19 322.77 14.15 323.02 14.04C323.27 13.93 323.48 13.79 323.64 13.61C323.8 13.43 323.93 13.23 324.02 13C324.12 12.78 324.19 12.55 324.23 12.33L324.29 10.59L324.3 10.6Z" fill="#EEBE74"/>
<path d="M333.38 13.23C333.29 13.57 333.17 13.89 333.05 14.17C332.92 14.45 332.75 14.69 332.54 14.89C332.33 15.09 332.08 15.24 331.77 15.34C331.47 15.44 331.11 15.49 330.69 15.47C330.04 15.45 329.53 15.27 329.16 14.94C328.79 14.61 328.62 14.1 328.65 13.41L328.86 7.71L327.56 7.66L327.66 7.06C328.28 6.96 328.78 6.63 329.18 6.07C329.58 5.51 329.87 4.84 330.05 4.09L330.67 4.03L330.56 6.99L332.14 7.05C332.33 7.05 332.5 7.05 332.65 7.03C332.8 7.01 332.94 6.98 333.06 6.95L333.03 7.87L330.53 7.78L330.33 13.04C330.33 13.2 330.33 13.36 330.33 13.51C330.33 13.66 330.37 13.81 330.42 13.94C330.47 14.07 330.57 14.19 330.7 14.27C330.83 14.35 331.02 14.4 331.26 14.41C331.65 14.42 332 14.3 332.31 14.05C332.62 13.8 332.83 13.46 332.91 13.05L333.36 13.23H333.38Z" fill="#EEBE74"/>
<path d="M333.86 15.29L333.88 14.69C334.8 14.73 335.27 14.34 335.31 13.53L335.47 9.55C335.51 8.5 335.13 7.96 334.31 7.92L334.33 7.38L337.25 6.87L336.98 13.66C336.95 14.42 337.44 14.82 338.45 14.86L338.43 15.46L333.85 15.28L333.86 15.29ZM336.36 4.64C335.65 4.61 335.32 4.19 335.35 3.38C335.38 2.62 335.77 2.26 336.53 2.29C337.25 2.32 337.59 2.71 337.56 3.47C337.53 4.28 337.13 4.67 336.35 4.64H336.36Z" fill="#EEBE74"/>
<path d="M343.74 16.08C343.11 16.05 342.55 15.91 342.04 15.66C341.53 15.41 341.1 15.07 340.75 14.66C340.4 14.25 340.14 13.78 339.96 13.24C339.78 12.71 339.71 12.15 339.73 11.56C339.76 10.87 339.9 10.24 340.15 9.69C340.4 9.13 340.73 8.66 341.13 8.28C341.53 7.9 342 7.61 342.53 7.42C343.06 7.23 343.62 7.15 344.2 7.17C344.8 7.2 345.35 7.34 345.84 7.59C346.34 7.84 346.76 8.18 347.11 8.59C347.46 9 347.72 9.47 347.9 10C348.08 10.54 348.15 11.1 348.13 11.68C348.1 12.39 347.96 13.02 347.71 13.57C347.46 14.13 347.13 14.59 346.73 14.97C346.33 15.35 345.87 15.63 345.35 15.82C344.83 16.01 344.3 16.1 343.74 16.07V16.08ZM343.85 15.38C344.37 15.4 344.78 15.3 345.09 15.08C345.4 14.86 345.64 14.59 345.81 14.28C345.98 13.97 346.1 13.64 346.16 13.3C346.22 12.96 346.26 12.67 346.27 12.45C346.29 12.01 346.28 11.53 346.25 11C346.22 10.47 346.13 9.98 345.98 9.53C345.83 9.08 345.61 8.69 345.31 8.37C345.01 8.05 344.6 7.88 344.08 7.86C343.55 7.84 343.12 7.94 342.81 8.16C342.49 8.38 342.25 8.65 342.08 8.96C341.91 9.27 341.79 9.6 341.73 9.94C341.67 10.28 341.63 10.57 341.62 10.79C341.6 11.23 341.61 11.71 341.64 12.24C341.67 12.77 341.76 13.26 341.91 13.71C342.06 14.16 342.28 14.55 342.59 14.87C342.9 15.19 343.32 15.36 343.85 15.38Z" fill="#EEBE74"/>
<path d="M354.51 16.17L354.54 15.57C355.41 15.61 355.85 15.35 355.88 14.79L356.03 11.51C356.11 9.68 355.5 8.74 354.2 8.68C352.87 8.62 352.16 9.4 352.09 11.02L351.92 14.6C351.89 15.16 352.36 15.46 353.32 15.51L353.29 16.11L349.05 15.91L349.08 15.31C349.83 15.35 350.21 15.06 350.24 14.44L350.48 9.35C350.5 8.88 350.15 8.63 349.43 8.6H349.15L349.17 8.07L352.08 7.5C352.13 7.56 352.15 7.69 352.14 7.9L352.09 9.1C352.21 8.9 352.35 8.71 352.53 8.53C352.7 8.35 352.92 8.19 353.17 8.05C353.42 7.92 353.72 7.81 354.06 7.73C354.4 7.65 354.78 7.62 355.21 7.64C355.45 7.65 355.72 7.71 356.02 7.83C356.32 7.94 356.61 8.12 356.88 8.35C357.15 8.58 357.37 8.88 357.54 9.23C357.71 9.59 357.78 10.01 357.76 10.5L357.56 14.92C357.54 15.44 357.96 15.72 358.82 15.76L358.79 16.36L354.51 16.16V16.17Z" fill="#EEBE74"/>
<path d="M377.7 17.65L375.07 8.57L371.78 17.24L371.02 17.28L367.46 5.39C367.12 4.52 366.64 4.06 366.01 4.03L366.04 3.43L371.05 3.7L371.02 4.3C370.42 4.27 370.01 4.3 369.8 4.42C369.59 4.54 369.47 4.72 369.46 4.97C369.46 5.04 369.46 5.11 369.5 5.2C369.54 5.29 369.56 5.39 369.59 5.5L372 14.2L374.76 7.24L374.09 5.14C374.02 4.91 373.88 4.73 373.66 4.6C373.44 4.47 373.12 4.4 372.69 4.38L372.72 3.78L377.89 4.06L377.86 4.66C376.87 4.61 376.37 4.85 376.34 5.4C376.34 5.45 376.34 5.53 376.37 5.64L378.79 14.56L381.63 6.93C381.71 6.75 381.76 6.58 381.78 6.42C381.8 6.26 381.82 6.1 381.83 5.94C381.87 5.23 381.33 4.85 380.23 4.79L380.26 4.19L384.59 4.43L384.56 5.03C383.75 4.99 383.11 5.61 382.63 6.91L378.46 17.6L377.7 17.64V17.65Z" fill="#EEBE74"/>
<path d="M389.98 16.08C389.59 16.8 389.09 17.36 388.48 17.73C387.87 18.1 387.17 18.27 386.37 18.23C385.7 18.19 385.13 18.04 384.63 17.79C384.14 17.53 383.73 17.2 383.42 16.8C383.11 16.4 382.87 15.92 382.73 15.38C382.59 14.84 382.54 14.27 382.57 13.67C382.61 13.07 382.73 12.5 382.95 11.97C383.17 11.44 383.46 10.97 383.83 10.56C384.19 10.15 384.62 9.84 385.12 9.61C385.62 9.38 386.15 9.29 386.74 9.32C387.1 9.34 387.47 9.41 387.86 9.52C388.25 9.63 388.61 9.82 388.94 10.1C389.27 10.37 389.55 10.75 389.77 11.24C389.99 11.73 390.12 12.36 390.16 13.14C390.16 13.3 390.12 13.44 390.07 13.58L384.76 13.27C384.51 13.26 384.37 13.35 384.36 13.55C384.33 14.03 384.37 14.49 384.48 14.92C384.59 15.35 384.75 15.74 384.97 16.07C385.19 16.4 385.47 16.67 385.8 16.87C386.13 17.07 386.52 17.18 386.94 17.21C387.5 17.24 387.99 17.11 388.42 16.82C388.84 16.53 389.22 16.17 389.55 15.77L389.97 16.12L389.98 16.08ZM387.45 12.8C388 12.83 388.28 12.57 388.32 12.01C388.32 11.5 388.17 11.05 387.89 10.65C387.61 10.25 387.19 10.04 386.62 10C386.31 9.98 386.03 10.04 385.77 10.16C385.51 10.28 385.28 10.46 385.09 10.68C384.9 10.9 384.74 11.16 384.63 11.45C384.52 11.74 384.45 12.05 384.44 12.37C384.44 12.53 384.57 12.62 384.86 12.64L387.46 12.79L387.45 12.8Z" fill="#EEBE74"/>
<path d="M400.22 18.55C400 18.59 399.66 18.62 399.18 18.63C398.7 18.65 398.1 18.69 397.38 18.75L397.24 17.44C396.97 17.86 396.6 18.19 396.14 18.42C395.67 18.65 395.14 18.75 394.56 18.71C394.07 18.68 393.6 18.57 393.17 18.37C392.74 18.17 392.36 17.9 392.05 17.54C391.74 17.18 391.5 16.73 391.33 16.19C391.16 15.65 391.1 15.02 391.15 14.3C391.19 13.63 391.34 13.02 391.59 12.45C391.84 11.88 392.16 11.4 392.56 11.01C392.96 10.61 393.42 10.31 393.95 10.11C394.48 9.91 395.04 9.82 395.64 9.86C396.12 9.89 396.53 10.01 396.87 10.23C397.21 10.45 397.47 10.67 397.66 10.91L397.93 6.58C397.96 6.13 397.46 5.87 396.44 5.8L396.48 5.18L399.71 4.86C399.71 5.35 399.69 5.93 399.66 6.58C399.63 7.23 399.6 7.93 399.55 8.66L399.08 16.19C399.01 17.31 399.43 17.92 400.35 18.03L400.24 18.54L400.22 18.55ZM395.22 17.75C395.66 17.78 396.02 17.72 396.29 17.58C396.56 17.44 396.79 17.21 396.95 16.91C397.12 16.61 397.24 16.23 397.32 15.79C397.4 15.35 397.46 14.84 397.5 14.27C397.65 11.94 396.96 10.73 395.44 10.63C395.05 10.61 394.71 10.68 394.41 10.86C394.11 11.04 393.86 11.27 393.65 11.57C393.44 11.87 393.28 12.21 393.16 12.59C393.04 12.97 392.97 13.35 392.95 13.74C392.92 14.21 392.94 14.67 392.99 15.12C393.05 15.58 393.16 16 393.33 16.38C393.5 16.76 393.74 17.08 394.04 17.33C394.35 17.58 394.73 17.71 395.2 17.74L395.22 17.75Z" fill="#EEBE74"/>
<path d="M403.38 22.57C402.57 22.52 401.91 22.33 401.41 22.01C400.91 21.69 400.68 21.24 400.72 20.65C400.77 19.89 401.38 19.37 402.55 19.09C401.71 18.83 401.32 18.3 401.37 17.48C401.38 17.27 401.44 17.06 401.53 16.87C401.62 16.67 401.75 16.5 401.91 16.35C402.07 16.2 402.24 16.08 402.44 16C402.64 15.92 402.85 15.89 403.08 15.9C402.1 15.3 401.66 14.41 401.74 13.23C401.77 12.83 401.86 12.46 402.04 12.11C402.21 11.76 402.45 11.46 402.75 11.21C403.05 10.96 403.43 10.76 403.86 10.63C404.29 10.5 404.8 10.45 405.36 10.49C406.25 10.55 407.02 10.89 407.66 11.51C407.91 11.18 408.18 10.95 408.47 10.83C408.76 10.71 409.06 10.66 409.38 10.68C409.94 10.72 410.2 10.98 410.17 11.46C410.13 11.98 409.91 12.22 409.49 12.2C409.21 12.18 409 12.07 408.86 11.86C408.55 11.88 408.3 12 408.1 12.21C408.27 12.43 408.39 12.68 408.45 12.96C408.51 13.23 408.54 13.48 408.52 13.71C408.45 14.75 408.1 15.49 407.48 15.95C406.86 16.4 405.88 16.58 404.55 16.5C404.4 16.5 404.25 16.47 404.1 16.43C403.95 16.39 403.79 16.35 403.62 16.3C402.97 16.3 402.62 16.54 402.59 17.03C402.57 17.32 402.67 17.53 402.89 17.66C403.11 17.79 403.48 17.87 404.02 17.91L406.29 18.06C406.68 18.09 407.04 18.15 407.37 18.26C407.7 18.37 407.99 18.53 408.23 18.73C408.47 18.93 408.65 19.18 408.78 19.48C408.91 19.78 408.96 20.12 408.93 20.52C408.91 20.89 408.8 21.22 408.61 21.51C408.42 21.8 408.17 22.04 407.86 22.23C407.55 22.42 407.18 22.56 406.76 22.65C406.34 22.74 405.88 22.76 405.39 22.73L403.39 22.6L403.38 22.57ZM405.02 22.08C406.68 22.19 407.54 21.71 407.61 20.65C407.66 19.94 406.89 19.54 405.3 19.43L403.64 19.32C403.19 19.37 402.85 19.47 402.59 19.63C402.33 19.79 402.2 20.04 402.18 20.38C402.15 20.87 402.33 21.26 402.74 21.54C403.14 21.82 403.71 21.99 404.45 22.04L405.03 22.08H405.02ZM404.86 15.71C406.08 15.79 406.73 15.21 406.81 13.96C406.93 12.12 406.41 11.17 405.23 11.09C404.07 11.01 403.44 11.68 403.34 13.09C403.23 14.77 403.73 15.64 404.86 15.72V15.71Z" fill="#EEBE74"/>
<path d="M418.32 20.34L416.57 15.1L414 19.95L413.48 19.99L411.02 12.66C410.84 12.13 410.46 11.84 409.86 11.79L409.9 11.19L413.87 11.47L413.83 12.07C413.22 12.03 412.9 12.2 412.87 12.6C412.87 12.73 412.89 12.94 412.96 13.23L414.41 17.68L416.33 14.15L415.99 12.74C415.79 12.38 415.4 12.18 414.81 12.13L414.85 11.53L418.88 11.82L418.84 12.42C418.12 12.37 417.75 12.5 417.73 12.8C417.73 12.93 417.75 13.22 417.83 13.65L419.18 18.02C419.86 16.58 420.36 15.49 420.69 14.73C421.02 13.97 421.22 13.54 421.29 13.44L421.31 13.2C421.34 12.8 420.95 12.57 420.14 12.51L420.18 11.91L423.43 12.14L423.39 12.74C422.87 12.7 422.5 12.94 422.28 13.44L418.88 20.27L418.34 20.31L418.32 20.34Z" fill="#EEBE74"/>
<path d="M427.04 20.99C426.42 20.94 425.85 20.78 425.35 20.51C424.85 20.24 424.43 19.89 424.1 19.47C423.76 19.05 423.52 18.57 423.36 18.03C423.2 17.49 423.14 16.93 423.19 16.34C423.24 15.65 423.4 15.03 423.67 14.48C423.94 13.93 424.28 13.47 424.7 13.1C425.12 12.73 425.59 12.46 426.13 12.29C426.67 12.12 427.22 12.05 427.81 12.1C428.41 12.15 428.95 12.3 429.44 12.58C429.93 12.86 430.34 13.2 430.67 13.62C431 14.04 431.25 14.52 431.41 15.06C431.57 15.6 431.63 16.16 431.58 16.75C431.53 17.45 431.36 18.08 431.1 18.63C430.83 19.18 430.49 19.63 430.07 20C429.65 20.36 429.19 20.63 428.66 20.8C428.13 20.97 427.6 21.04 427.04 21V20.99ZM427.17 20.3C427.69 20.34 428.11 20.25 428.42 20.05C428.74 19.84 428.99 19.58 429.17 19.28C429.35 18.98 429.48 18.65 429.55 18.31C429.62 17.97 429.67 17.69 429.69 17.46C429.72 17.02 429.73 16.54 429.72 16.01C429.71 15.48 429.63 14.99 429.5 14.53C429.37 14.07 429.16 13.68 428.87 13.35C428.58 13.02 428.18 12.84 427.66 12.8C427.13 12.76 426.7 12.84 426.38 13.05C426.06 13.26 425.8 13.52 425.62 13.82C425.44 14.12 425.31 14.45 425.24 14.79C425.17 15.13 425.12 15.41 425.1 15.64C425.07 16.08 425.06 16.56 425.07 17.09C425.08 17.62 425.16 18.11 425.29 18.57C425.42 19.03 425.64 19.42 425.93 19.75C426.22 20.08 426.64 20.26 427.17 20.31V20.3Z" fill="#EEBE74"/>
<path d="M436.31 21.72C435.69 21.67 435.12 21.51 434.62 21.23C434.12 20.96 433.7 20.61 433.37 20.19C433.04 19.77 432.79 19.29 432.63 18.75C432.47 18.21 432.42 17.65 432.46 17.06C432.52 16.37 432.68 15.75 432.95 15.2C433.22 14.65 433.57 14.2 433.98 13.83C434.4 13.46 434.87 13.19 435.41 13.02C435.95 12.85 436.51 12.79 437.09 12.83C437.69 12.88 438.23 13.04 438.72 13.31C439.21 13.58 439.62 13.93 439.95 14.35C440.28 14.77 440.53 15.25 440.69 15.79C440.85 16.33 440.9 16.89 440.86 17.48C440.8 18.19 440.64 18.81 440.37 19.36C440.1 19.91 439.75 20.36 439.34 20.72C438.92 21.08 438.45 21.35 437.93 21.52C437.41 21.69 436.87 21.76 436.31 21.71V21.72ZM436.45 21.03C436.97 21.07 437.39 20.99 437.7 20.78C438.02 20.57 438.27 20.32 438.45 20.01C438.64 19.71 438.76 19.38 438.84 19.04C438.92 18.7 438.96 18.42 438.98 18.19C439.02 17.75 439.03 17.27 439.02 16.74C439.01 16.21 438.94 15.72 438.81 15.26C438.68 14.8 438.47 14.41 438.18 14.08C437.89 13.75 437.49 13.56 436.97 13.52C436.44 13.48 436.01 13.56 435.69 13.77C435.36 13.98 435.11 14.23 434.93 14.54C434.75 14.85 434.62 15.17 434.54 15.51C434.46 15.85 434.42 16.13 434.4 16.36C434.36 16.8 434.35 17.28 434.36 17.81C434.37 18.34 434.44 18.83 434.57 19.29C434.7 19.75 434.91 20.14 435.21 20.47C435.5 20.8 435.92 20.99 436.45 21.03Z" fill="#EEBE74"/>
<path d="M450.76 22.38C450.54 22.42 450.2 22.44 449.72 22.44C449.24 22.44 448.64 22.47 447.92 22.52L447.81 21.21C447.53 21.63 447.16 21.95 446.68 22.17C446.2 22.39 445.68 22.48 445.09 22.43C444.6 22.39 444.14 22.27 443.71 22.06C443.28 21.86 442.91 21.57 442.61 21.2C442.31 20.83 442.08 20.38 441.92 19.84C441.76 19.3 441.72 18.67 441.78 17.95C441.84 17.29 442 16.67 442.26 16.11C442.52 15.55 442.86 15.08 443.26 14.69C443.67 14.3 444.14 14.01 444.67 13.82C445.2 13.62 445.77 13.55 446.36 13.6C446.84 13.64 447.24 13.77 447.58 13.99C447.92 14.21 448.17 14.45 448.35 14.69L448.72 10.37C448.76 9.92 448.27 9.65 447.24 9.56L447.29 8.94L450.52 8.69C450.5 9.18 450.48 9.76 450.43 10.41C450.39 11.06 450.34 11.75 450.27 12.48L449.63 19.99C449.54 21.11 449.94 21.73 450.86 21.86L450.74 22.37L450.76 22.38ZM445.78 21.47C446.22 21.51 446.58 21.46 446.86 21.32C447.14 21.18 447.36 20.97 447.54 20.67C447.72 20.37 447.84 20 447.94 19.56C448.04 19.12 448.1 18.61 448.15 18.04C448.35 15.71 447.69 14.49 446.17 14.36C445.79 14.33 445.44 14.4 445.14 14.56C444.84 14.73 444.58 14.96 444.37 15.26C444.16 15.56 443.99 15.89 443.86 16.27C443.73 16.65 443.65 17.03 443.62 17.41C443.58 17.87 443.58 18.34 443.63 18.8C443.68 19.26 443.78 19.68 443.94 20.07C444.1 20.46 444.33 20.78 444.63 21.03C444.93 21.28 445.31 21.43 445.78 21.47Z" fill="#EEBE74"/>
<path d="M458.46 23.53C457.44 23.44 456.52 23.18 455.73 22.75C454.93 22.32 454.27 21.77 453.74 21.1C453.21 20.43 452.83 19.67 452.59 18.82C452.35 17.97 452.28 17.06 452.36 16.11C452.45 15.14 452.71 14.25 453.14 13.45C453.57 12.65 454.11 11.96 454.77 11.4C455.43 10.84 456.19 10.42 457.04 10.15C457.89 9.88 458.78 9.79 459.71 9.87C460.68 9.96 461.56 10.21 462.35 10.61C463.14 11.02 463.8 11.55 464.35 12.21C464.89 12.87 465.29 13.63 465.55 14.51C465.81 15.38 465.89 16.33 465.8 17.33C465.71 18.29 465.48 19.16 465.09 19.97C464.7 20.77 464.19 21.45 463.55 22.01C462.91 22.57 462.16 22.98 461.3 23.26C460.44 23.54 459.5 23.63 458.48 23.54L458.46 23.53ZM458.57 22.88C459.61 22.97 460.51 22.86 461.27 22.53C462.04 22.2 462.68 21.76 463.19 21.19C463.7 20.62 464.1 19.99 464.37 19.29C464.64 18.59 464.81 17.91 464.87 17.25C464.97 16.16 464.87 15.21 464.56 14.4C464.25 13.59 463.84 12.91 463.31 12.36C462.78 11.81 462.2 11.39 461.55 11.09C460.9 10.8 460.28 10.62 459.7 10.57C458.9 10.5 458.14 10.57 457.42 10.81C456.7 11.05 456.05 11.41 455.47 11.91C454.9 12.41 454.43 13.02 454.06 13.74C453.69 14.46 453.47 15.28 453.38 16.2C453.28 17.32 453.38 18.28 453.68 19.1C453.98 19.92 454.39 20.6 454.92 21.14C455.45 21.68 456.04 22.1 456.7 22.38C457.36 22.66 457.98 22.83 458.58 22.88H458.57ZM462.9 19.76C462.9 19.87 462.85 19.98 462.79 20.1C462.72 20.22 462.64 20.34 462.54 20.44C462.44 20.55 462.31 20.64 462.16 20.71C462.01 20.78 461.84 20.8 461.67 20.79C461.27 20.75 460.96 20.64 460.75 20.44C460.53 20.24 460.37 20 460.26 19.72C460.15 19.44 460.07 19.14 460.02 18.82C459.97 18.5 459.9 18.2 459.83 17.93C459.75 17.66 459.64 17.42 459.5 17.23C459.36 17.04 459.14 16.93 458.84 16.9L458.5 16.87C458.29 16.85 458.17 16.87 458.15 16.96L457.96 19.06C457.92 19.53 458.23 19.8 458.91 19.86L458.86 20.4L455.73 20.12L455.78 19.58C456.43 19.64 456.78 19.43 456.82 18.95L457.26 14.15C457.3 13.69 456.98 13.42 456.29 13.36L456.34 12.82L457.71 12.94C457.98 12.96 458.21 12.98 458.42 12.99C458.63 13 458.82 13.02 458.99 13.03C459.16 13.04 459.32 13.06 459.48 13.06C459.63 13.06 459.8 13.08 459.97 13.1C460.66 13.16 461.2 13.39 461.58 13.77C461.96 14.15 462.13 14.6 462.08 15.1C462.03 15.6 461.82 15.99 461.44 16.25C461.06 16.51 460.58 16.71 460.01 16.84V16.88C460.26 16.98 460.48 17.14 460.64 17.34C460.8 17.54 460.93 17.76 461.03 17.99C461.13 18.22 461.21 18.46 461.28 18.71C461.35 18.96 461.41 19.18 461.47 19.39C461.53 19.59 461.61 19.76 461.69 19.9C461.78 20.03 461.9 20.11 462.06 20.12C462.23 20.14 462.37 19.97 462.47 19.63L462.92 19.75L462.9 19.76ZM459.05 16.32C459.29 16.34 459.51 16.34 459.72 16.32C459.93 16.3 460.12 16.24 460.29 16.16C460.46 16.07 460.6 15.95 460.71 15.77C460.82 15.6 460.89 15.37 460.91 15.09C460.95 14.66 460.79 14.34 460.45 14.11C460.11 13.88 459.64 13.74 459.05 13.69C458.65 13.65 458.43 13.84 458.4 14.26L458.23 16.09C458.25 16.2 458.33 16.26 458.47 16.27L459.05 16.32Z" fill="#EEBE74"/>
</g>
<defs>
<clipPath id="clip0_143_2901">
<rect width="465.82" height="23.57" fill="white"/>
</clipPath>
</defs>
</svg>
