<svg width="54" height="54" viewBox="0 0 54 54" fill="none" xmlns="http://www.w3.org/2000/svg">
<path d="M31.6168 45.63C31.0768 45.63 30.8068 45.36 30.8068 44.82C30.8068 44.604 30.8338 44.307 30.8878 43.929C30.9418 43.497 31.0498 43.119 31.2118 42.795C32.2378 42.741 32.9938 42.633 33.4798 42.471C33.9658 42.309 34.2088 41.985 34.2088 41.499C34.2088 41.013 33.9388 40.338 33.3988 39.474C32.3188 37.854 31.1848 36.234 29.9968 34.614C28.8628 32.94 27.7018 31.293 26.5138 29.673L19.6288 38.745C19.1428 39.393 18.7378 39.96 18.4138 40.446C18.1438 40.932 18.0088 41.31 18.0088 41.58C18.0088 42.012 18.2518 42.309 18.7378 42.471C19.2778 42.579 20.0608 42.687 21.0868 42.795C21.0868 43.443 21.0058 44.064 20.8438 44.658C20.7358 45.09 20.5468 45.36 20.2768 45.468C20.0608 45.576 19.8988 45.63 19.7908 45.63H8.77484C8.23484 45.63 7.96484 45.36 7.96484 44.82C7.96484 44.604 7.99184 44.307 8.04584 43.929C8.09984 43.497 8.23484 43.119 8.45084 42.795C9.96284 42.687 11.3128 42.255 12.5008 41.499C13.6888 40.743 14.9848 39.447 16.3888 37.611L24.6508 27.162C23.1388 25.164 21.6268 23.193 20.1148 21.249C18.6028 19.251 17.1448 17.307 15.7408 15.417C14.4448 13.689 13.3108 12.582 12.3388 12.096C11.4208 11.556 10.0708 11.259 8.28884 11.205C8.28884 10.395 8.39684 9.72 8.61284 9.18C8.77484 8.64 9.15284 8.37 9.74684 8.37H22.7068C23.2468 8.37 23.5168 8.64 23.5168 9.18C23.5168 9.396 23.4898 9.72 23.4358 10.152C23.3818 10.53 23.2738 10.881 23.1118 11.205C20.8438 11.259 19.7098 11.691 19.7098 12.501C19.7098 12.987 19.9798 13.662 20.5198 14.526L27.4858 23.922L33.9658 15.255C34.3978 14.661 34.6948 14.148 34.8568 13.716C35.0728 13.23 35.1808 12.852 35.1808 12.582C35.1808 12.096 34.8838 11.772 34.2898 11.61C33.7498 11.394 32.9398 11.259 31.8598 11.205C31.8598 10.557 31.9678 9.855 32.1838 9.099C32.3458 8.613 32.6428 8.37 33.0748 8.37H44.2528C44.7928 8.37 45.0628 8.64 45.0628 9.18C45.0628 9.396 45.0358 9.72 44.9818 10.152C44.9278 10.53 44.8198 10.881 44.6578 11.205C43.3078 11.259 42.0928 11.664 41.0128 12.42C39.9868 13.122 38.6908 14.445 37.1248 16.389L29.3488 26.514L38.3398 38.583C39.6358 40.365 40.7968 41.499 41.8228 41.985C42.8488 42.417 44.2528 42.687 46.0348 42.795C46.0348 43.119 45.9808 43.497 45.8728 43.929C45.8188 44.307 45.7378 44.604 45.6298 44.82C45.4138 45.36 45.0088 45.63 44.4148 45.63H31.6168Z" fill="#F5F1E6"/>
</svg>
