<svg width="297" height="243" viewBox="0 0 297 243" fill="none" xmlns="http://www.w3.org/2000/svg">
<mask id="path-1-inside-1_143_8112" fill="white">
<path d="M0 0H297V240H0V0Z"/>
</mask>
<path d="M0 0H297V240H0V0Z" fill="#EEBE74"/>
<path d="M297 238H0V242H297V238Z" fill="#F5F1E6" mask="url(#path-1-inside-1_143_8112)"/>
<path d="M98 212C98 184.386 120.386 162 148 162C175.614 162 198 184.386 198 212V240H98V212Z" fill="white"/>
<path d="M135.228 218.836C136.52 219.352 140.02 220.118 143.678 219.06" stroke="#EEBE74" stroke-width="2"/>
<path d="M138.962 200.908L135.59 209.811C135.312 210.959 136.3 212.899 142.477 211.479" stroke="#EEBE74" stroke-width="2"/>
<path d="M133.506 218.419C134.219 217.984 135.627 214.68 139.366 216.801C140.646 215.693 143.817 214.477 146.252 218.469" stroke="#EEBE74" stroke-width="2"/>
<path d="M144.804 196.855C145.986 195.319 149.731 193.067 155.254 196.349" stroke="#EEBE74" stroke-width="2"/>
<path d="M139.223 197.326C137.681 195.332 133.658 192.211 129.902 195.675" stroke="#EEBE74" stroke-width="2"/>
<path d="M119.958 206.632C121.146 205.907 123.898 204.913 125.4 206.735" stroke="#EEBE74" stroke-width="2"/>
<path d="M167.462 201.128C167.74 199.981 171.583 196.659 176.608 198.484" stroke="#EEBE74" stroke-width="2"/>
<path d="M159.496 188.871C159.155 194.458 159.51 206.371 163.656 209.319" stroke="#EEBE74" stroke-width="2"/>
<path d="M147.354 173.78C144.722 172.94 138.096 172.874 132.644 179.329C125.83 187.399 126.874 193.12 124.458 195.572C122.041 198.024 118.912 200.911 120.669 206.197C119.382 206.493 116.963 208.944 118.131 211.657C119.298 214.37 121.731 214.352 123.018 214.056C124.306 213.761 125.704 213.006 126.148 211.169" stroke="#EEBE74" stroke-width="2"/>
<path d="M143.131 183.692C139.109 181.908 130.657 181.521 129.031 194.249C129.096 193.779 128.261 202.366 127.835 206.718" stroke="#EEBE74" stroke-width="2"/>
<path d="M127.418 208.439C125.802 215.945 126.064 228.609 138 231.5C149.936 234.391 159.77 226.198 163.449 220.204" stroke="#EEBE74" stroke-width="2"/>
<path d="M162.718 218.205C162.724 219.016 163.108 220.608 164.596 220.482C166.457 220.325 168.022 218.882 169.151 216.725C170.281 214.569 169.533 210.135 165.812 210.449" stroke="#EEBE74" stroke-width="2"/>
<path d="M144.418 183.396C146.841 181.756 153.244 180.066 159.478 186.436" stroke="#EEBE74" stroke-width="2"/>
<path d="M147.93 173.919C151.019 172.034 162.815 172.664 168.885 180.209C174.955 187.755 177.547 196.281 176.035 198.344C177.855 199.19 180.901 201.832 178.523 205.63C180.053 206 182.891 207.66 182.002 211.333C180.89 215.923 174.281 213.108 174.281 213.108C173.14 213.641 170.508 214.138 169.117 211.857" stroke="#EEBE74" stroke-width="2"/>
<path d="M167.934 206.71C169.063 204.553 172.308 201.694 176.246 207.508" stroke="#EEBE74" stroke-width="2"/>
<circle cx="149.986" cy="200.54" r="1.77133" transform="rotate(13.6161 149.986 200.54)" fill="#EEBE74"/>
<circle cx="134.232" cy="200.369" r="1.77133" transform="rotate(13.6161 134.232 200.369)" fill="#EEBE74"/>
</svg>
