<svg width="116" height="32" viewBox="0 0 116 32" fill="none" xmlns="http://www.w3.org/2000/svg">
<mask id="path-1-outside-1_332_596" maskUnits="userSpaceOnUse" x="-1" y="-1" width="117" height="33" fill="black">
<rect fill="white" x="-1" y="-1" width="117" height="33"/>
<path d="M5.70381 0.0399981C5.73581 0.00799847 5.78381 -0.00800133 5.84781 -0.00800133C5.94381 -0.00800133 6.02381 0.0559988 6.08781 0.183999C6.15181 0.311999 6.13581 0.407999 6.03981 0.471998C3.89581 2.36 2.64781 4.376 2.29581 6.52C2.26381 6.68 2.24781 6.888 2.24781 7.144C2.24781 7.4 2.26381 7.576 2.29581 7.672C2.51981 7.448 2.90381 7.336 3.44781 7.336C4.24781 7.336 4.87181 7.592 5.31981 8.104C5.76781 8.616 5.99181 9.224 5.99181 9.928C5.99181 10.696 5.73581 11.352 5.22381 11.896C4.74381 12.44 4.02381 12.712 3.06381 12.712C2.07181 12.712 1.30381 12.408 0.759813 11.8C0.247813 11.192 -0.00818664 10.344 -0.00818664 9.256C-0.00818664 8.616 0.0558134 8.024 0.183813 7.48C0.439813 6.232 1.07981 4.92 2.10381 3.544C3.12781 2.168 4.32781 0.999999 5.70381 0.0399981ZM13.5278 0.0399981C13.5598 0.00799847 13.6078 -0.00800133 13.6718 -0.00800133C13.7678 -0.00800133 13.8478 0.0559988 13.9118 0.183999C13.9758 0.311999 13.9598 0.407999 13.8638 0.471998C11.7198 2.36 10.4718 4.376 10.1198 6.52C10.0878 6.68 10.0718 6.888 10.0718 7.144C10.0718 7.4 10.0878 7.576 10.1198 7.672C10.3438 7.448 10.7278 7.336 11.2718 7.336C12.0718 7.336 12.6958 7.592 13.1438 8.104C13.5918 8.616 13.8158 9.224 13.8158 9.928C13.8158 10.696 13.5598 11.352 13.0478 11.896C12.5678 12.44 11.8478 12.712 10.8878 12.712C9.89581 12.712 9.12781 12.408 8.58381 11.8C8.07181 11.192 7.81581 10.344 7.81581 9.256C7.81581 8.616 7.87981 8.024 8.00781 7.48C8.26381 6.232 8.90381 4.92 9.92781 3.544C10.9518 2.168 12.1518 0.999999 13.5278 0.0399981ZM12.9747 31C12.8787 31 12.8307 30.904 12.8307 30.712C12.8307 30.52 12.8787 30.424 12.9747 30.424C13.8387 30.424 14.4787 30.344 14.8947 30.184C15.3427 30.024 15.6787 29.72 15.9027 29.272C16.1267 28.824 16.3187 28.104 16.4787 27.112L20.4147 4.888C20.5427 4.344 20.6067 3.816 20.6067 3.304C20.6067 2.632 20.4147 2.184 20.0307 1.96C19.6467 1.704 18.9747 1.576 18.0147 1.576C17.9187 1.576 17.8707 1.48 17.8707 1.288C17.8707 1.096 17.9187 1 18.0147 1L20.2227 1.048C21.5027 1.112 22.5267 1.144 23.2947 1.144C24.2547 1.144 25.3747 1.112 26.6547 1.048L28.7187 1C28.8147 1 28.8627 1.096 28.8627 1.288C28.8627 1.48 28.8147 1.576 28.7187 1.576C27.8547 1.576 27.1987 1.672 26.7507 1.864C26.3027 2.056 25.9667 2.376 25.7427 2.824C25.5507 3.272 25.3747 3.992 25.2147 4.984L21.2787 27.112C21.1507 27.72 21.0867 28.264 21.0867 28.744C21.0867 29.416 21.2787 29.864 21.6627 30.088C22.0467 30.312 22.7187 30.424 23.6787 30.424C23.7427 30.424 23.7747 30.52 23.7747 30.712C23.7747 30.904 23.7427 31 23.6787 31C22.7827 31 22.0627 30.984 21.5187 30.952L18.3027 30.904L15.1827 30.952C14.6387 30.984 13.9027 31 12.9747 31ZM65.6937 30.424C65.8217 30.424 65.8857 30.52 65.8857 30.712C65.8857 30.904 65.8217 31 65.6937 31C65.1817 31 64.3817 30.968 63.2937 30.904C62.0777 30.84 61.1017 30.808 60.3657 30.808C59.6617 30.808 58.7337 30.84 57.5817 30.904C56.5577 30.968 55.7897 31 55.2777 31C55.1497 31 55.0857 30.904 55.0857 30.712C55.0857 30.52 55.1497 30.424 55.2777 30.424C56.2377 30.424 56.9257 30.28 57.3417 29.992C57.7577 29.704 57.9657 29.208 57.9657 28.504C57.9657 27.992 57.9017 27.48 57.7737 26.968L56.3817 20.008H47.0697L44.4297 24.808C43.5977 26.312 43.1817 27.48 43.1817 28.312C43.1817 29.048 43.4857 29.592 44.0937 29.944C44.7017 30.264 45.6297 30.424 46.8777 30.424C47.0057 30.424 47.0537 30.52 47.0217 30.712C47.0217 30.904 46.9577 31 46.8297 31C46.4137 31 45.5977 30.968 44.3817 30.904C42.9097 30.84 41.7737 30.808 40.9737 30.808C40.3017 30.808 39.5177 30.84 38.6217 30.904C37.7257 30.968 37.0377 31 36.5577 31C36.4297 31 36.3657 30.904 36.3657 30.712C36.3657 30.52 36.4297 30.424 36.5577 30.424C37.4537 30.424 38.5097 29.912 39.7257 28.888C40.9417 27.864 42.0777 26.392 43.1337 24.472L56.5257 0.568C56.5897 0.471999 56.7177 0.423999 56.9097 0.423999C57.0057 0.423999 57.1017 0.439999 57.1977 0.471998C57.2937 0.503998 57.3577 0.551998 57.3897 0.615999L62.6217 26.968C62.8137 28.024 62.9737 28.76 63.1017 29.176C63.2617 29.592 63.5337 29.912 63.9177 30.136C64.3017 30.328 64.8937 30.424 65.6937 30.424ZM47.7897 18.664H56.0937L53.8857 7.624L47.7897 18.664ZM98.2602 27.304C98.3242 27.24 98.3882 27.208 98.4522 27.208C98.5482 27.208 98.6282 27.272 98.6922 27.4C98.7562 27.496 98.7402 27.592 98.6442 27.688C97.5562 28.968 96.5962 29.912 95.7642 30.52C94.9322 31.128 94.0682 31.432 93.1722 31.432C91.6362 31.432 90.8682 30.52 90.8682 28.696C90.8682 28.056 90.9322 27.4 91.0602 26.728L92.5002 19.096C92.6602 18.136 92.7402 17.4 92.7402 16.888C92.7402 15.352 92.2762 14.584 91.3482 14.584C90.5802 14.584 89.7642 15.112 88.9002 16.168C88.0362 17.192 87.2042 18.744 86.4042 20.824C85.6042 22.904 84.9162 25.4 84.3402 28.312L83.9562 30.424C83.8922 30.712 83.6362 30.936 83.1882 31.096C82.7402 31.288 82.1002 31.384 81.2682 31.384C80.2122 31.384 79.6842 31.256 79.6842 31L79.8762 29.992C80.1962 28.488 80.3722 27.64 80.4042 27.448L81.9882 19C82.1482 18.104 82.2282 17.416 82.2282 16.936C82.2282 16.136 82.0842 15.544 81.7962 15.16C81.5402 14.776 81.1722 14.584 80.6922 14.584C79.8922 14.584 79.0442 15.16 78.1482 16.312C77.2522 17.432 76.4042 19.08 75.6042 21.256C74.8042 23.4 74.1322 25.928 73.5882 28.84L73.3002 30.424C73.1402 31.064 72.2442 31.384 70.6122 31.384C69.5562 31.384 69.0282 31.256 69.0282 31L69.2202 29.992C69.5402 28.488 69.7162 27.64 69.7482 27.448L71.7162 16.744C71.7802 16.456 71.8122 16.104 71.8122 15.688C71.8122 14.824 71.5402 14.392 70.9962 14.392C70.3242 14.392 69.3962 15.032 68.2122 16.312C68.1802 16.344 68.1322 16.36 68.0682 16.36C67.9722 16.36 67.8922 16.312 67.8282 16.216C67.7642 16.088 67.7642 15.976 67.8282 15.88C68.9802 14.536 70.0042 13.56 70.9002 12.952C71.8282 12.344 72.7562 12.04 73.6842 12.04C75.1882 12.04 75.9402 12.888 75.9402 14.584C75.9402 15.064 75.8922 15.592 75.7962 16.168L75.0762 20.2C76.1322 17.544 77.3642 15.496 78.7722 14.056C80.1802 12.584 81.6682 11.848 83.2362 11.848C84.2602 11.848 85.0442 12.184 85.5882 12.856C86.1322 13.496 86.4042 14.472 86.4042 15.784C86.4042 16.36 86.3242 17.128 86.1642 18.088L85.8282 20.056C86.8842 17.432 88.1002 15.416 89.4762 14.008C90.8842 12.568 92.3402 11.848 93.8442 11.848C95.8922 11.848 96.9162 13.144 96.9162 15.736C96.9162 16.6 96.8362 17.416 96.6762 18.184L95.1402 26.728C95.0442 27.208 94.9962 27.592 94.9962 27.88C94.9962 28.616 95.2522 28.984 95.7642 28.984C96.0842 28.984 96.4202 28.856 96.7722 28.6C97.1562 28.312 97.6522 27.88 98.2602 27.304ZM104.369 0.519998C105.361 0.519998 106.113 0.823997 106.625 1.432C107.169 2.04 107.441 2.888 107.441 3.976C107.441 4.616 107.377 5.208 107.249 5.752C106.993 7 106.353 8.312 105.329 9.688C104.305 11.064 103.105 12.232 101.729 13.192C101.697 13.224 101.649 13.24 101.585 13.24C101.489 13.24 101.409 13.176 101.345 13.048C101.281 12.92 101.297 12.824 101.393 12.76C103.537 10.872 104.785 8.856 105.137 6.712C105.201 6.392 105.233 6.168 105.233 6.04C105.233 5.912 105.201 5.752 105.137 5.56C104.913 5.784 104.529 5.896 103.985 5.896C103.185 5.896 102.561 5.64 102.113 5.128C101.665 4.616 101.441 4.008 101.441 3.304C101.441 2.536 101.681 1.88 102.161 1.336C102.673 0.791998 103.409 0.519998 104.369 0.519998ZM112.193 0.519998C113.185 0.519998 113.937 0.823997 114.449 1.432C114.993 2.04 115.265 2.888 115.265 3.976C115.265 4.616 115.201 5.208 115.073 5.752C114.817 7 114.177 8.312 113.153 9.688C112.129 11.064 110.929 12.232 109.553 13.192C109.521 13.224 109.473 13.24 109.409 13.24C109.313 13.24 109.233 13.176 109.169 13.048C109.105 12.92 109.121 12.824 109.217 12.76C111.361 10.872 112.609 8.856 112.961 6.712C113.025 6.392 113.057 6.168 113.057 6.04C113.057 5.912 113.025 5.752 112.961 5.56C112.737 5.784 112.353 5.896 111.809 5.896C111.009 5.896 110.385 5.64 109.937 5.128C109.489 4.616 109.265 4.008 109.265 3.304C109.265 2.536 109.505 1.88 109.985 1.336C110.497 0.791998 111.233 0.519998 112.193 0.519998Z"/>
</mask>
<path d="M5.70381 0.0399981C5.73581 0.00799847 5.78381 -0.00800133 5.84781 -0.00800133C5.94381 -0.00800133 6.02381 0.0559988 6.08781 0.183999C6.15181 0.311999 6.13581 0.407999 6.03981 0.471998C3.89581 2.36 2.64781 4.376 2.29581 6.52C2.26381 6.68 2.24781 6.888 2.24781 7.144C2.24781 7.4 2.26381 7.576 2.29581 7.672C2.51981 7.448 2.90381 7.336 3.44781 7.336C4.24781 7.336 4.87181 7.592 5.31981 8.104C5.76781 8.616 5.99181 9.224 5.99181 9.928C5.99181 10.696 5.73581 11.352 5.22381 11.896C4.74381 12.44 4.02381 12.712 3.06381 12.712C2.07181 12.712 1.30381 12.408 0.759813 11.8C0.247813 11.192 -0.00818664 10.344 -0.00818664 9.256C-0.00818664 8.616 0.0558134 8.024 0.183813 7.48C0.439813 6.232 1.07981 4.92 2.10381 3.544C3.12781 2.168 4.32781 0.999999 5.70381 0.0399981ZM13.5278 0.0399981C13.5598 0.00799847 13.6078 -0.00800133 13.6718 -0.00800133C13.7678 -0.00800133 13.8478 0.0559988 13.9118 0.183999C13.9758 0.311999 13.9598 0.407999 13.8638 0.471998C11.7198 2.36 10.4718 4.376 10.1198 6.52C10.0878 6.68 10.0718 6.888 10.0718 7.144C10.0718 7.4 10.0878 7.576 10.1198 7.672C10.3438 7.448 10.7278 7.336 11.2718 7.336C12.0718 7.336 12.6958 7.592 13.1438 8.104C13.5918 8.616 13.8158 9.224 13.8158 9.928C13.8158 10.696 13.5598 11.352 13.0478 11.896C12.5678 12.44 11.8478 12.712 10.8878 12.712C9.89581 12.712 9.12781 12.408 8.58381 11.8C8.07181 11.192 7.81581 10.344 7.81581 9.256C7.81581 8.616 7.87981 8.024 8.00781 7.48C8.26381 6.232 8.90381 4.92 9.92781 3.544C10.9518 2.168 12.1518 0.999999 13.5278 0.0399981ZM12.9747 31C12.8787 31 12.8307 30.904 12.8307 30.712C12.8307 30.52 12.8787 30.424 12.9747 30.424C13.8387 30.424 14.4787 30.344 14.8947 30.184C15.3427 30.024 15.6787 29.72 15.9027 29.272C16.1267 28.824 16.3187 28.104 16.4787 27.112L20.4147 4.888C20.5427 4.344 20.6067 3.816 20.6067 3.304C20.6067 2.632 20.4147 2.184 20.0307 1.96C19.6467 1.704 18.9747 1.576 18.0147 1.576C17.9187 1.576 17.8707 1.48 17.8707 1.288C17.8707 1.096 17.9187 1 18.0147 1L20.2227 1.048C21.5027 1.112 22.5267 1.144 23.2947 1.144C24.2547 1.144 25.3747 1.112 26.6547 1.048L28.7187 1C28.8147 1 28.8627 1.096 28.8627 1.288C28.8627 1.48 28.8147 1.576 28.7187 1.576C27.8547 1.576 27.1987 1.672 26.7507 1.864C26.3027 2.056 25.9667 2.376 25.7427 2.824C25.5507 3.272 25.3747 3.992 25.2147 4.984L21.2787 27.112C21.1507 27.72 21.0867 28.264 21.0867 28.744C21.0867 29.416 21.2787 29.864 21.6627 30.088C22.0467 30.312 22.7187 30.424 23.6787 30.424C23.7427 30.424 23.7747 30.52 23.7747 30.712C23.7747 30.904 23.7427 31 23.6787 31C22.7827 31 22.0627 30.984 21.5187 30.952L18.3027 30.904L15.1827 30.952C14.6387 30.984 13.9027 31 12.9747 31ZM65.6937 30.424C65.8217 30.424 65.8857 30.52 65.8857 30.712C65.8857 30.904 65.8217 31 65.6937 31C65.1817 31 64.3817 30.968 63.2937 30.904C62.0777 30.84 61.1017 30.808 60.3657 30.808C59.6617 30.808 58.7337 30.84 57.5817 30.904C56.5577 30.968 55.7897 31 55.2777 31C55.1497 31 55.0857 30.904 55.0857 30.712C55.0857 30.52 55.1497 30.424 55.2777 30.424C56.2377 30.424 56.9257 30.28 57.3417 29.992C57.7577 29.704 57.9657 29.208 57.9657 28.504C57.9657 27.992 57.9017 27.48 57.7737 26.968L56.3817 20.008H47.0697L44.4297 24.808C43.5977 26.312 43.1817 27.48 43.1817 28.312C43.1817 29.048 43.4857 29.592 44.0937 29.944C44.7017 30.264 45.6297 30.424 46.8777 30.424C47.0057 30.424 47.0537 30.52 47.0217 30.712C47.0217 30.904 46.9577 31 46.8297 31C46.4137 31 45.5977 30.968 44.3817 30.904C42.9097 30.84 41.7737 30.808 40.9737 30.808C40.3017 30.808 39.5177 30.84 38.6217 30.904C37.7257 30.968 37.0377 31 36.5577 31C36.4297 31 36.3657 30.904 36.3657 30.712C36.3657 30.52 36.4297 30.424 36.5577 30.424C37.4537 30.424 38.5097 29.912 39.7257 28.888C40.9417 27.864 42.0777 26.392 43.1337 24.472L56.5257 0.568C56.5897 0.471999 56.7177 0.423999 56.9097 0.423999C57.0057 0.423999 57.1017 0.439999 57.1977 0.471998C57.2937 0.503998 57.3577 0.551998 57.3897 0.615999L62.6217 26.968C62.8137 28.024 62.9737 28.76 63.1017 29.176C63.2617 29.592 63.5337 29.912 63.9177 30.136C64.3017 30.328 64.8937 30.424 65.6937 30.424ZM47.7897 18.664H56.0937L53.8857 7.624L47.7897 18.664ZM98.2602 27.304C98.3242 27.24 98.3882 27.208 98.4522 27.208C98.5482 27.208 98.6282 27.272 98.6922 27.4C98.7562 27.496 98.7402 27.592 98.6442 27.688C97.5562 28.968 96.5962 29.912 95.7642 30.52C94.9322 31.128 94.0682 31.432 93.1722 31.432C91.6362 31.432 90.8682 30.52 90.8682 28.696C90.8682 28.056 90.9322 27.4 91.0602 26.728L92.5002 19.096C92.6602 18.136 92.7402 17.4 92.7402 16.888C92.7402 15.352 92.2762 14.584 91.3482 14.584C90.5802 14.584 89.7642 15.112 88.9002 16.168C88.0362 17.192 87.2042 18.744 86.4042 20.824C85.6042 22.904 84.9162 25.4 84.3402 28.312L83.9562 30.424C83.8922 30.712 83.6362 30.936 83.1882 31.096C82.7402 31.288 82.1002 31.384 81.2682 31.384C80.2122 31.384 79.6842 31.256 79.6842 31L79.8762 29.992C80.1962 28.488 80.3722 27.64 80.4042 27.448L81.9882 19C82.1482 18.104 82.2282 17.416 82.2282 16.936C82.2282 16.136 82.0842 15.544 81.7962 15.16C81.5402 14.776 81.1722 14.584 80.6922 14.584C79.8922 14.584 79.0442 15.16 78.1482 16.312C77.2522 17.432 76.4042 19.08 75.6042 21.256C74.8042 23.4 74.1322 25.928 73.5882 28.84L73.3002 30.424C73.1402 31.064 72.2442 31.384 70.6122 31.384C69.5562 31.384 69.0282 31.256 69.0282 31L69.2202 29.992C69.5402 28.488 69.7162 27.64 69.7482 27.448L71.7162 16.744C71.7802 16.456 71.8122 16.104 71.8122 15.688C71.8122 14.824 71.5402 14.392 70.9962 14.392C70.3242 14.392 69.3962 15.032 68.2122 16.312C68.1802 16.344 68.1322 16.36 68.0682 16.36C67.9722 16.36 67.8922 16.312 67.8282 16.216C67.7642 16.088 67.7642 15.976 67.8282 15.88C68.9802 14.536 70.0042 13.56 70.9002 12.952C71.8282 12.344 72.7562 12.04 73.6842 12.04C75.1882 12.04 75.9402 12.888 75.9402 14.584C75.9402 15.064 75.8922 15.592 75.7962 16.168L75.0762 20.2C76.1322 17.544 77.3642 15.496 78.7722 14.056C80.1802 12.584 81.6682 11.848 83.2362 11.848C84.2602 11.848 85.0442 12.184 85.5882 12.856C86.1322 13.496 86.4042 14.472 86.4042 15.784C86.4042 16.36 86.3242 17.128 86.1642 18.088L85.8282 20.056C86.8842 17.432 88.1002 15.416 89.4762 14.008C90.8842 12.568 92.3402 11.848 93.8442 11.848C95.8922 11.848 96.9162 13.144 96.9162 15.736C96.9162 16.6 96.8362 17.416 96.6762 18.184L95.1402 26.728C95.0442 27.208 94.9962 27.592 94.9962 27.88C94.9962 28.616 95.2522 28.984 95.7642 28.984C96.0842 28.984 96.4202 28.856 96.7722 28.6C97.1562 28.312 97.6522 27.88 98.2602 27.304ZM104.369 0.519998C105.361 0.519998 106.113 0.823997 106.625 1.432C107.169 2.04 107.441 2.888 107.441 3.976C107.441 4.616 107.377 5.208 107.249 5.752C106.993 7 106.353 8.312 105.329 9.688C104.305 11.064 103.105 12.232 101.729 13.192C101.697 13.224 101.649 13.24 101.585 13.24C101.489 13.24 101.409 13.176 101.345 13.048C101.281 12.92 101.297 12.824 101.393 12.76C103.537 10.872 104.785 8.856 105.137 6.712C105.201 6.392 105.233 6.168 105.233 6.04C105.233 5.912 105.201 5.752 105.137 5.56C104.913 5.784 104.529 5.896 103.985 5.896C103.185 5.896 102.561 5.64 102.113 5.128C101.665 4.616 101.441 4.008 101.441 3.304C101.441 2.536 101.681 1.88 102.161 1.336C102.673 0.791998 103.409 0.519998 104.369 0.519998ZM112.193 0.519998C113.185 0.519998 113.937 0.823997 114.449 1.432C114.993 2.04 115.265 2.888 115.265 3.976C115.265 4.616 115.201 5.208 115.073 5.752C114.817 7 114.177 8.312 113.153 9.688C112.129 11.064 110.929 12.232 109.553 13.192C109.521 13.224 109.473 13.24 109.409 13.24C109.313 13.24 109.233 13.176 109.169 13.048C109.105 12.92 109.121 12.824 109.217 12.76C111.361 10.872 112.609 8.856 112.961 6.712C113.025 6.392 113.057 6.168 113.057 6.04C113.057 5.912 113.025 5.752 112.961 5.56C112.737 5.784 112.353 5.896 111.809 5.896C111.009 5.896 110.385 5.64 109.937 5.128C109.489 4.616 109.265 4.008 109.265 3.304C109.265 2.536 109.505 1.88 109.985 1.336C110.497 0.791998 111.233 0.519998 112.193 0.519998Z" fill="#6B99CF"/>
<path d="M5.70381 0.0399981L5.95357 0.397975L5.98519 0.375912L6.01246 0.348646L5.70381 0.0399981ZM6.08781 0.183999L5.6974 0.379202L5.6974 0.379203L6.08781 0.183999ZM6.03981 0.471998L5.79769 0.108815L5.77333 0.125061L5.75135 0.144416L6.03981 0.471998ZM2.29581 6.52L2.72383 6.6056L2.72531 6.59818L2.72654 6.59071L2.29581 6.52ZM2.29581 7.672L1.88172 7.81003L2.10506 8.48004L2.60446 7.98064L2.29581 7.672ZM5.31981 8.104L5.64831 7.81657L5.64831 7.81657L5.31981 8.104ZM5.22381 11.896L4.9058 11.5967L4.89652 11.6072L5.22381 11.896ZM0.759813 11.8L0.425787 12.0813L0.434523 12.091L0.759813 11.8ZM0.183813 7.48L0.608876 7.58001L0.6114 7.56771L0.183813 7.48ZM2.10381 3.544L2.45398 3.80459L2.45398 3.80459L2.10381 3.544ZM13.5278 0.0399981L13.7776 0.397975L13.8092 0.375913L13.8365 0.348648L13.5278 0.0399981ZM13.8638 0.471998L13.6217 0.108814L13.5973 0.12506L13.5753 0.144416L13.8638 0.471998ZM10.1198 6.52L10.5478 6.6056L10.5493 6.59818L10.5505 6.59071L10.1198 6.52ZM10.1198 7.672L9.70572 7.81003L9.92906 8.48004L10.4285 7.98064L10.1198 7.672ZM13.0478 11.896L12.7298 11.5967L12.7205 11.6072L13.0478 11.896ZM8.58381 11.8L8.24979 12.0813L8.25852 12.091L8.58381 11.8ZM8.00781 7.48L8.43288 7.58001L8.4354 7.56771L8.00781 7.48ZM6.01246 0.348646C5.93373 0.427373 5.85109 0.428489 5.84781 0.428489V-0.444492C5.71653 -0.444492 5.5379 -0.411376 5.39517 -0.268649L6.01246 0.348646ZM5.84781 0.428489C5.82224 0.428489 5.79467 0.424036 5.76765 0.414209C5.74097 0.404509 5.72078 0.39175 5.70714 0.38084C5.68231 0.360976 5.68316 0.350723 5.6974 0.379202L6.47822 -0.0112041C6.3809 -0.205856 6.18372 -0.444492 5.84781 -0.444492V0.428489ZM5.6974 0.379203C5.70667 0.397742 5.68047 0.356995 5.69326 0.280241C5.7 0.239803 5.71603 0.200833 5.73923 0.167688C5.76146 0.135929 5.78456 0.117573 5.79769 0.108815L6.28193 0.835181C6.41011 0.749734 6.52286 0.61278 6.55437 0.423757C6.58316 0.251003 6.53295 0.0982559 6.47822 -0.0112053L5.6974 0.379203ZM5.75135 0.144416C3.55572 2.07788 2.23795 4.17822 1.86509 6.44928L2.72654 6.59071C3.05768 4.57377 4.23591 2.64212 6.32828 0.79958L5.75135 0.144416ZM1.8678 6.4344C1.82793 6.63376 1.81132 6.8735 1.81132 7.144H2.6843C2.6843 6.9025 2.6997 6.72624 2.72383 6.6056L1.8678 6.4344ZM1.81132 7.144C1.81132 7.3966 1.82464 7.63877 1.88172 7.81003L2.7099 7.53397C2.71061 7.53608 2.70818 7.52909 2.70466 7.50914C2.70128 7.48996 2.69769 7.46348 2.69451 7.42848C2.6881 7.358 2.6843 7.26409 2.6843 7.144H1.81132ZM2.60446 7.98064C2.70456 7.88054 2.9421 7.77249 3.44781 7.77249V6.89951C2.86553 6.89951 2.33507 7.01545 1.98717 7.36335L2.60446 7.98064ZM3.44781 7.77249C4.14632 7.77249 4.64101 7.99107 4.99132 8.39143L5.64831 7.81657C5.10262 7.19292 4.34931 6.89951 3.44781 6.89951V7.77249ZM4.99132 8.39143C5.36709 8.82088 5.55532 9.3257 5.55532 9.928H6.4283C6.4283 9.1223 6.16854 8.41112 5.64831 7.81657L4.99132 8.39143ZM5.55532 9.928C5.55532 10.5883 5.33942 11.1363 4.90596 11.5968L5.54167 12.1952C6.13221 11.5677 6.4283 10.8037 6.4283 9.928H5.55532ZM4.89652 11.6072C4.52401 12.0294 3.94137 12.2755 3.06381 12.2755V13.1485C4.10626 13.1485 4.96362 12.8506 5.55111 12.1848L4.89652 11.6072ZM3.06381 12.2755C2.1669 12.2755 1.5287 12.0047 1.0851 11.509L0.434523 12.091C1.07893 12.8113 1.97673 13.1485 3.06381 13.1485V12.2755ZM1.09369 11.5188C0.668839 11.0143 0.428304 10.279 0.428304 9.256H-0.444677C-0.444677 10.409 -0.173212 11.3697 0.425937 12.0812L1.09369 11.5188ZM0.428304 9.256C0.428304 8.6449 0.489428 8.08688 0.6087 7.57997L-0.241074 7.38003C-0.377802 7.96112 -0.444677 8.5871 -0.444677 9.256H0.428304ZM0.6114 7.56771C0.850921 6.40005 1.4556 5.14616 2.45398 3.80459L1.75365 3.28341C0.704029 4.69383 0.0287058 6.06395 -0.243774 7.39229L0.6114 7.56771ZM2.45398 3.80459C3.4506 2.46539 4.61692 1.33052 5.95357 0.397975L5.45406 -0.317979C4.03871 0.669476 2.80503 1.87061 1.75365 3.28341L2.45398 3.80459ZM13.8365 0.348648C13.7577 0.427373 13.6751 0.428489 13.6718 0.428489V-0.444492C13.5405 -0.444492 13.3619 -0.411376 13.2192 -0.268652L13.8365 0.348648ZM13.6718 0.428489C13.6462 0.428489 13.6187 0.424036 13.5916 0.414209C13.565 0.404509 13.5448 0.391749 13.5311 0.38084C13.5063 0.360976 13.5072 0.350723 13.5214 0.379203L14.3022 -0.0112053C14.2049 -0.205856 14.0077 -0.444492 13.6718 -0.444492V0.428489ZM13.5214 0.379203C13.5307 0.397742 13.5045 0.356994 13.5173 0.280239C13.524 0.2398 13.54 0.200831 13.5632 0.167685C13.5855 0.135927 13.6086 0.117572 13.6217 0.108814L14.1059 0.835182C14.2341 0.749736 14.3469 0.612783 14.3784 0.423759C14.4072 0.251004 14.357 0.0982563 14.3022 -0.0112053L13.5214 0.379203ZM13.5753 0.144416C11.3797 2.07788 10.062 4.17822 9.68909 6.44928L10.5505 6.59071C10.8817 4.57377 12.0599 2.64212 14.1523 0.79958L13.5753 0.144416ZM9.6918 6.43439C9.65193 6.63376 9.63532 6.8735 9.63532 7.144H10.5083C10.5083 6.9025 10.5237 6.72624 10.5478 6.6056L9.6918 6.43439ZM9.63532 7.144C9.63532 7.3966 9.64864 7.63877 9.70572 7.81003L10.5339 7.53397C10.5346 7.53608 10.5322 7.52909 10.5287 7.50914C10.5253 7.48996 10.5217 7.46348 10.5185 7.42848C10.5121 7.358 10.5083 7.26409 10.5083 7.144H9.63532ZM10.4285 7.98064C10.5286 7.88054 10.7661 7.77249 11.2718 7.77249V6.89951C10.6895 6.89951 10.1591 7.01545 9.81117 7.36335L10.4285 7.98064ZM11.2718 7.77249C11.9703 7.77249 12.465 7.99107 12.8153 8.39143L13.4723 7.81657C12.9266 7.19292 12.1733 6.89951 11.2718 6.89951V7.77249ZM12.8153 8.39143C13.1911 8.82088 13.3793 9.3257 13.3793 9.928H14.2523C14.2523 9.1223 13.9925 8.41112 13.4723 7.81657L12.8153 8.39143ZM13.3793 9.928C13.3793 10.5883 13.1634 11.1363 12.73 11.5968L13.3657 12.1952C13.9562 11.5677 14.2523 10.8037 14.2523 9.928H13.3793ZM12.7205 11.6072C12.348 12.0294 11.7654 12.2755 10.8878 12.2755V13.1485C11.9303 13.1485 12.7876 12.8506 13.3751 12.1848L12.7205 11.6072ZM10.8878 12.2755C9.9909 12.2755 9.3527 12.0047 8.9091 11.509L8.25852 12.091C8.90293 12.8113 9.80073 13.1485 10.8878 13.1485V12.2755ZM8.91769 11.5188C8.49284 11.0143 8.2523 10.279 8.2523 9.256H7.37932C7.37932 10.409 7.65079 11.3697 8.24994 12.0812L8.91769 11.5188ZM8.2523 9.256C8.2523 8.6449 8.31343 8.08688 8.4327 7.57997L7.58293 7.38003C7.4462 7.96112 7.37932 8.5871 7.37932 9.256H8.2523ZM8.4354 7.56771C8.67492 6.40005 9.2796 5.14616 10.278 3.80459L9.57765 3.28341C8.52803 4.69383 7.85271 6.06395 7.58023 7.39229L8.4354 7.56771ZM10.278 3.80459C11.2746 2.46539 12.4409 1.33052 13.7776 0.397975L13.2781 -0.317979C11.8627 0.669476 10.629 1.87061 9.57765 3.28341L10.278 3.80459ZM14.8947 30.184L14.7478 29.7728L14.738 29.7766L14.8947 30.184ZM15.9027 29.272L15.5123 29.0768L15.5123 29.0768L15.9027 29.272ZM16.4787 27.112L16.0488 27.0359L16.0478 27.0425L16.4787 27.112ZM20.4147 4.888L19.9898 4.78803L19.987 4.79988L19.9849 4.81188L20.4147 4.888ZM20.0307 1.96L19.7886 2.32318L19.7995 2.33044L19.8108 2.33703L20.0307 1.96ZM18.0147 1L18.0242 0.56351H18.0147V1ZM20.2227 1.048L20.2445 0.61188L20.2322 0.611612L20.2227 1.048ZM26.6547 1.048L26.6445 0.611471L26.6329 0.612054L26.6547 1.048ZM28.7187 1V0.563392L28.7085 0.563628L28.7187 1ZM26.7507 1.864L26.5787 1.4628L26.5787 1.4628L26.7507 1.864ZM25.7427 2.824L25.3523 2.6288L25.3465 2.64027L25.3415 2.65206L25.7427 2.824ZM25.2147 4.984L25.6445 5.06045L25.6456 5.0535L25.2147 4.984ZM21.2787 27.112L21.706 27.202L21.7084 27.1884L21.2787 27.112ZM21.6627 30.088L21.8826 29.711L21.8826 29.711L21.6627 30.088ZM21.5187 30.952L21.5443 30.5163L21.5348 30.5157L21.5252 30.5156L21.5187 30.952ZM18.3027 30.904L18.3092 30.4674L18.296 30.4676L18.3027 30.904ZM15.1827 30.952L15.176 30.5156L15.1665 30.5157L15.1571 30.5163L15.1827 30.952ZM12.9747 30.5635C13.0271 30.5635 13.0924 30.5779 13.1538 30.6188C13.2125 30.658 13.2432 30.705 13.2571 30.7328C13.2701 30.7589 13.2715 30.7737 13.2702 30.7662C13.2692 30.76 13.2672 30.743 13.2672 30.712H12.3942C12.3942 30.8303 12.4067 30.984 12.4763 31.1232C12.5142 31.199 12.5749 31.282 12.6696 31.3452C12.767 31.4101 12.8743 31.4365 12.9747 31.4365V30.5635ZM13.2672 30.712C13.2672 30.681 13.2692 30.664 13.2702 30.6578C13.2715 30.6503 13.2701 30.6651 13.2571 30.6912C13.2432 30.719 13.2125 30.766 13.1538 30.8052C13.0924 30.8461 13.0271 30.8605 12.9747 30.8605V29.9875C12.8743 29.9875 12.767 30.0139 12.6696 30.0788C12.5749 30.142 12.5142 30.225 12.4763 30.3008C12.4067 30.44 12.3942 30.5937 12.3942 30.712H13.2672ZM12.9747 30.8605C13.8516 30.8605 14.5579 30.7812 15.0514 30.5914L14.738 29.7766C14.3995 29.9068 13.8257 29.9875 12.9747 29.9875V30.8605ZM15.0415 30.5951C15.6015 30.3951 16.0217 30.01 16.2931 29.4672L15.5123 29.0768C15.3357 29.43 15.0839 29.6529 14.7479 29.7729L15.0415 30.5951ZM16.2931 29.4672C16.5481 28.9572 16.7482 28.1825 16.9096 27.1815L16.0478 27.0425C15.8892 28.0255 15.7053 28.6908 15.5123 29.0768L16.2931 29.4672ZM16.9085 27.1881L20.8445 4.96412L19.9849 4.81188L16.0489 27.0359L16.9085 27.1881ZM20.8396 4.98797C20.9746 4.41417 21.0432 3.85257 21.0432 3.304H20.1702C20.1702 3.77943 20.1108 4.27383 19.9898 4.78803L20.8396 4.98797ZM21.0432 3.304C21.0432 2.56266 20.8293 1.9205 20.2506 1.58297L19.8108 2.33703C20.0001 2.4475 20.1702 2.70133 20.1702 3.304H21.0432ZM20.2728 1.59682C19.773 1.26363 18.9854 1.13951 18.0147 1.13951V2.01249C18.9639 2.01249 19.5203 2.14437 19.7886 2.32318L20.2728 1.59682ZM18.0147 1.13951C18.0671 1.13951 18.1324 1.15386 18.1938 1.19482C18.2525 1.23395 18.2832 1.28101 18.2971 1.30879C18.3101 1.33487 18.3115 1.34965 18.3102 1.34224C18.3092 1.336 18.3072 1.31898 18.3072 1.288H17.4342C17.4342 1.40629 17.4467 1.55999 17.5163 1.6992C17.5542 1.77498 17.6149 1.85804 17.7096 1.92118C17.807 1.98614 17.9143 2.01249 18.0147 2.01249V1.13951ZM18.3072 1.288C18.3072 1.25701 18.3092 1.23999 18.3102 1.23376C18.3115 1.22635 18.3101 1.24113 18.2971 1.2672C18.2832 1.29499 18.2525 1.34204 18.1938 1.38118C18.1324 1.42214 18.0671 1.43649 18.0147 1.43649V0.56351C17.9143 0.56351 17.807 0.589859 17.7096 0.654818C17.6149 0.717955 17.5542 0.801014 17.5163 0.876795C17.4467 1.016 17.4342 1.16971 17.4342 1.288H18.3072ZM18.0052 1.43639L20.2132 1.48439L20.2322 0.611612L18.0242 0.563613L18.0052 1.43639ZM20.2009 1.48395C21.4841 1.5481 22.5162 1.58049 23.2947 1.58049V0.707508C22.5371 0.707508 21.5213 0.675895 20.2445 0.612054L20.2009 1.48395ZM23.2947 1.58049C24.2639 1.58049 25.3915 1.5482 26.6765 1.48395L26.6329 0.612054C25.3579 0.675802 24.2455 0.707508 23.2947 0.707508V1.58049ZM26.6648 1.48437L28.7288 1.43637L28.7085 0.563628L26.6445 0.611627L26.6648 1.48437ZM28.7187 1.43649C28.6663 1.43649 28.601 1.42214 28.5396 1.38118C28.4809 1.34204 28.4502 1.29499 28.4363 1.2672C28.4232 1.24113 28.4219 1.22634 28.4231 1.23376C28.4242 1.23999 28.4262 1.25701 28.4262 1.288H29.2992C29.2992 1.16971 29.2867 1.01601 29.2171 0.876795C29.1792 0.801015 29.1185 0.717956 29.0238 0.654818C28.9264 0.589859 28.8191 0.56351 28.7187 0.56351V1.43649ZM28.4262 1.288C28.4262 1.31898 28.4242 1.336 28.4231 1.34224C28.4219 1.34965 28.4232 1.33487 28.4363 1.30879C28.4502 1.28101 28.4809 1.23395 28.5396 1.19482C28.601 1.15386 28.6663 1.13951 28.7187 1.13951V2.01249C28.8191 2.01249 28.9264 1.98614 29.0238 1.92118C29.1185 1.85804 29.1792 1.77498 29.2171 1.6992C29.2867 1.55999 29.2992 1.40629 29.2992 1.288H28.4262ZM28.7187 1.13951C27.8342 1.13951 27.1079 1.23601 26.5787 1.4628L26.9226 2.2652C27.2895 2.10799 27.8752 2.01249 28.7187 2.01249V1.13951ZM26.5787 1.4628C26.033 1.69668 25.6211 2.09124 25.3523 2.6288L26.1331 3.0192C26.3123 2.66076 26.5723 2.41532 26.9226 2.26519L26.5787 1.4628ZM25.3415 2.65206C25.1273 3.15186 24.9448 3.91623 24.7838 4.91449L25.6456 5.0535C25.8046 4.06777 25.9741 3.39214 26.1439 2.99594L25.3415 2.65206ZM24.7849 4.90756L20.8489 27.0356L21.7084 27.1884L25.6444 5.06044L24.7849 4.90756ZM20.8516 27.0221C20.7191 27.6515 20.6502 28.2265 20.6502 28.744H21.5232C21.5232 28.3015 21.5823 27.7885 21.7058 27.2019L20.8516 27.0221ZM20.6502 28.744C20.6502 29.4853 20.8641 30.1275 21.4428 30.465L21.8826 29.711C21.6933 29.6005 21.5232 29.3467 21.5232 28.744H20.6502ZM21.4428 30.465C21.9355 30.7525 22.7118 30.8605 23.6787 30.8605V29.9875C22.7256 29.9875 22.1579 29.8715 21.8826 29.711L21.4428 30.465ZM23.6787 30.8605C23.5714 30.8605 23.4764 30.815 23.412 30.7506C23.3584 30.697 23.3404 30.6454 23.3366 30.634C23.3299 30.6138 23.3382 30.6287 23.3382 30.712H24.2112C24.2112 30.6033 24.2035 30.4742 24.1648 30.358C24.1298 30.2529 24.0006 29.9875 23.6787 29.9875V30.8605ZM23.3382 30.712C23.3382 30.7953 23.3299 30.8102 23.3366 30.79C23.3404 30.7786 23.3584 30.727 23.412 30.6734C23.4764 30.609 23.5714 30.5635 23.6787 30.5635V31.4365C24.0006 31.4365 24.1298 31.1711 24.1648 31.066C24.2035 30.9498 24.2112 30.8207 24.2112 30.712H23.3382ZM23.6787 30.5635C22.7866 30.5635 22.0761 30.5475 21.5443 30.5163L21.4931 31.3877C22.0492 31.4205 22.7788 31.4365 23.6787 31.4365V30.5635ZM21.5252 30.5156L18.3092 30.4676L18.2962 31.3404L21.5122 31.3884L21.5252 30.5156ZM18.296 30.4676L15.176 30.5156L15.1894 31.3884L18.3094 31.3404L18.296 30.4676ZM15.1571 30.5163C14.6255 30.5475 13.8992 30.5635 12.9747 30.5635V31.4365C13.9062 31.4365 14.6519 31.4205 15.2083 31.3877L15.1571 30.5163ZM63.2937 30.904L63.3193 30.4683L63.3166 30.4681L63.2937 30.904ZM57.5817 30.904L57.5575 30.4682L57.5545 30.4684L57.5817 30.904ZM57.3417 29.992L57.0932 29.6331L57.0932 29.6331L57.3417 29.992ZM57.7737 26.968L57.3457 27.0536L57.3477 27.0638L57.3502 27.0739L57.7737 26.968ZM56.3817 20.008L56.8097 19.9224L56.7395 19.5715H56.3817V20.008ZM47.0697 20.008V19.5715H46.8116L46.6872 19.7976L47.0697 20.008ZM44.4297 24.808L44.8116 25.0193L44.8121 25.0184L44.4297 24.808ZM44.0937 29.944L43.875 30.3218L43.8826 30.3262L43.8904 30.3303L44.0937 29.944ZM47.0217 30.712L46.5911 30.6402L46.5852 30.6759V30.712H47.0217ZM44.3817 30.904L44.4046 30.4681L44.4006 30.4679L44.3817 30.904ZM38.6217 30.904L38.6528 31.3394L38.6217 30.904ZM39.7257 28.888L40.0068 29.2219L39.7257 28.888ZM43.1337 24.472L42.7529 24.2587L42.7512 24.2616L43.1337 24.472ZM56.5257 0.568L56.1625 0.325882L56.1531 0.33993L56.1449 0.354659L56.5257 0.568ZM57.1977 0.471998L57.3357 0.0579068L57.3357 0.0579064L57.1977 0.471998ZM57.3897 0.615999L57.8178 0.530996L57.8064 0.473359L57.7801 0.4208L57.3897 0.615999ZM62.6217 26.968L63.0512 26.8899L63.0498 26.883L62.6217 26.968ZM63.1017 29.176L62.6845 29.3044L62.6889 29.3187L62.6943 29.3327L63.1017 29.176ZM63.9177 30.136L63.6978 30.513L63.7099 30.5201L63.7225 30.5264L63.9177 30.136ZM47.7897 18.664L47.4076 18.453L47.0501 19.1005H47.7897V18.664ZM56.0937 18.664V19.1005H56.6261L56.5217 18.5784L56.0937 18.664ZM53.8857 7.624L54.3137 7.5384L54.0799 6.36931L53.5036 7.41301L53.8857 7.624ZM65.6937 30.8605C65.6709 30.8605 65.6297 30.856 65.5825 30.8324C65.5335 30.8079 65.4974 30.7724 65.4745 30.7381C65.4536 30.7067 65.4482 30.6833 65.4476 30.6807C65.447 30.6779 65.4492 30.6869 65.4492 30.712H66.3222C66.3222 30.5813 66.3029 30.4069 66.2009 30.2539C66.078 30.0696 65.8848 29.9875 65.6937 29.9875V30.8605ZM65.4492 30.712C65.4492 30.7371 65.447 30.7461 65.4476 30.7433C65.4482 30.7407 65.4536 30.7173 65.4745 30.6859C65.4974 30.6516 65.5335 30.6161 65.5825 30.5916C65.6297 30.568 65.6709 30.5635 65.6937 30.5635V31.4365C65.8848 31.4365 66.078 31.3544 66.2009 31.1701C66.3029 31.0171 66.3222 30.8427 66.3222 30.712H65.4492ZM65.6937 30.5635C65.1953 30.5635 64.4061 30.5322 63.3193 30.4683L63.2681 31.3397C64.3573 31.4038 65.1681 31.4365 65.6937 31.4365V30.5635ZM63.3166 30.4681C62.0972 30.4039 61.1127 30.3715 60.3657 30.3715V31.2445C61.0907 31.2445 62.0582 31.2761 63.2707 31.3399L63.3166 30.4681ZM60.3657 30.3715C59.6502 30.3715 58.7132 30.404 57.5575 30.4682L57.6059 31.3398C58.7542 31.276 59.6732 31.2445 60.3657 31.2445V30.3715ZM57.5545 30.4684C56.5325 30.5322 55.7755 30.5635 55.2777 30.5635V31.4365C55.8038 31.4365 56.5829 31.4038 57.6089 31.3396L57.5545 30.4684ZM55.2777 30.5635C55.3005 30.5635 55.3417 30.568 55.3889 30.5916C55.4379 30.6161 55.474 30.6516 55.4969 30.6859C55.5178 30.7173 55.5232 30.7407 55.5238 30.7433C55.5244 30.7461 55.5222 30.7371 55.5222 30.712H54.6492C54.6492 30.8427 54.6685 31.0171 54.7705 31.1701C54.8934 31.3544 55.0865 31.4365 55.2777 31.4365V30.5635ZM55.5222 30.712C55.5222 30.6869 55.5244 30.6779 55.5238 30.6807C55.5232 30.6833 55.5178 30.7067 55.4969 30.7381C55.474 30.7724 55.4379 30.8079 55.3889 30.8324C55.3417 30.856 55.3005 30.8605 55.2777 30.8605V29.9875C55.0865 29.9875 54.8934 30.0696 54.7705 30.2539C54.6685 30.4069 54.6492 30.5813 54.6492 30.712H55.5222ZM55.2777 30.8605C56.2587 30.8605 57.0603 30.7177 57.5901 30.3509L57.0932 29.6331C56.7911 29.8423 56.2167 29.9875 55.2777 29.9875V30.8605ZM57.5901 30.3509C58.1663 29.952 58.4022 29.2905 58.4022 28.504H57.5292C57.5292 29.1255 57.3491 29.456 57.0932 29.6331L57.5901 30.3509ZM58.4022 28.504C58.4022 27.9552 58.3335 27.4077 58.1971 26.8621L57.3502 27.0739C57.4698 27.5523 57.5292 28.0288 57.5292 28.504H58.4022ZM58.2017 26.8824L56.8097 19.9224L55.9537 20.0936L57.3457 27.0536L58.2017 26.8824ZM56.3817 19.5715H47.0697V20.4445H56.3817V19.5715ZM46.6872 19.7976L44.0472 24.5976L44.8121 25.0184L47.4521 20.2184L46.6872 19.7976ZM44.0477 24.5967C43.2105 26.1102 42.7452 27.3617 42.7452 28.312H43.6182C43.6182 27.5983 43.9849 26.5138 44.8116 25.0193L44.0477 24.5967ZM42.7452 28.312C42.7452 29.1946 43.1245 29.8873 43.875 30.3218L44.3124 29.5662C43.8469 29.2967 43.6182 28.9014 43.6182 28.312H42.7452ZM43.8904 30.3303C44.5935 30.7003 45.6079 30.8605 46.8777 30.8605V29.9875C45.6515 29.9875 44.8099 29.8277 44.297 29.5577L43.8904 30.3303ZM46.8777 30.8605C46.8564 30.8605 46.8071 30.8565 46.7497 30.8252C46.6878 30.7914 46.6442 30.741 46.6193 30.6912C46.5972 30.647 46.5951 30.6144 46.5949 30.6102C46.5946 30.6052 46.5956 30.6137 46.5911 30.6402L47.4522 30.7838C47.4726 30.6614 47.4873 30.4752 47.4001 30.3008C47.3512 30.203 47.2736 30.1166 47.1677 30.0588C47.0662 30.0035 46.963 29.9875 46.8777 29.9875V30.8605ZM46.5852 30.712C46.5852 30.7371 46.583 30.7461 46.5836 30.7433C46.5842 30.7407 46.5896 30.7173 46.6105 30.6859C46.6334 30.6516 46.6695 30.6161 46.7185 30.5916C46.7657 30.568 46.8069 30.5635 46.8297 30.5635V31.4365C47.0208 31.4365 47.214 31.3544 47.3369 31.1701C47.4389 31.0171 47.4582 30.8427 47.4582 30.712H46.5852ZM46.8297 30.5635C46.427 30.5635 45.6223 30.5322 44.4046 30.4681L44.3587 31.3399C45.573 31.4038 46.4004 31.4365 46.8297 31.4365V30.5635ZM44.4006 30.4679C42.9266 30.4038 41.7832 30.3715 40.9737 30.3715V31.2445C41.7642 31.2445 42.8927 31.2762 44.3627 31.3401L44.4006 30.4679ZM40.9737 30.3715C40.2885 30.3715 39.4937 30.4041 38.5906 30.4686L38.6528 31.3394C39.5416 31.2759 40.3148 31.2445 40.9737 31.2445V30.3715ZM38.5906 30.4686C37.6977 30.5324 37.022 30.5635 36.5577 30.5635V31.4365C37.0534 31.4365 37.7537 31.4036 38.6528 31.3394L38.5906 30.4686ZM36.5577 30.5635C36.5805 30.5635 36.6217 30.568 36.6689 30.5916C36.7179 30.6161 36.754 30.6516 36.7769 30.6859C36.7978 30.7173 36.8032 30.7407 36.8038 30.7433C36.8044 30.7461 36.8022 30.7371 36.8022 30.712H35.9292C35.9292 30.8427 35.9485 31.0171 36.0505 31.1701C36.1734 31.3544 36.3665 31.4365 36.5577 31.4365V30.5635ZM36.8022 30.712C36.8022 30.6869 36.8044 30.6779 36.8038 30.6807C36.8032 30.6833 36.7978 30.7067 36.7769 30.7381C36.754 30.7724 36.7179 30.8079 36.6689 30.8324C36.6217 30.856 36.5805 30.8605 36.5577 30.8605V29.9875C36.3665 29.9875 36.1734 30.0696 36.0505 30.2539C35.9485 30.4069 35.9292 30.5813 35.9292 30.712H36.8022ZM36.5577 30.8605C37.6106 30.8605 38.7669 30.2661 40.0068 29.2219L39.4445 28.5541C38.2525 29.5579 37.2968 29.9875 36.5577 29.9875V30.8605ZM40.0068 29.2219C41.2763 28.1529 42.4434 26.6328 43.5161 24.6824L42.7512 24.2616C41.712 26.1512 40.6071 27.5751 39.4445 28.5541L40.0068 29.2219ZM43.5145 24.6853L56.9065 0.78134L56.1449 0.354659L42.7529 24.2587L43.5145 24.6853ZM56.8889 0.810118C56.8763 0.828928 56.8616 0.843702 56.8476 0.85419C56.8341 0.864272 56.8245 0.868114 56.823 0.868697C56.8217 0.869172 56.8273 0.866927 56.8424 0.86466C56.8575 0.862403 56.8795 0.860489 56.9097 0.860489V-0.0124914C56.6699 -0.0124914 56.3499 0.0448305 56.1625 0.325882L56.8889 0.810118ZM56.9097 0.860489C56.9563 0.860489 57.0057 0.868118 57.0597 0.88609L57.3357 0.0579064C57.1976 0.0118789 57.0551 -0.0124914 56.9097 -0.0124914V0.860489ZM57.0597 0.88609C57.0744 0.890998 57.0698 0.891659 57.0558 0.881189C57.0401 0.869381 57.017 0.846648 56.9993 0.811199L57.7801 0.4208C57.6781 0.216734 57.4956 0.111184 57.3357 0.0579068L57.0597 0.88609ZM56.9616 0.701002L62.1936 27.053L63.0498 26.883L57.8178 0.530996L56.9616 0.701002ZM62.1922 27.0461C62.3842 28.1016 62.548 28.8608 62.6845 29.3044L63.5189 29.0476C63.3994 28.6592 63.2432 27.9464 63.0511 26.8899L62.1922 27.0461ZM62.6943 29.3327C62.8898 29.841 63.2278 30.2389 63.6978 30.513L64.1376 29.759C63.8396 29.5851 63.6336 29.343 63.5091 29.0193L62.6943 29.3327ZM63.7225 30.5264C64.1994 30.7648 64.8748 30.8605 65.6937 30.8605V29.9875C64.9126 29.9875 64.404 29.8912 64.1129 29.7456L63.7225 30.5264ZM47.7897 19.1005H56.0937V18.2275H47.7897V19.1005ZM56.5217 18.5784L54.3137 7.5384L53.4577 7.7096L55.6657 18.7496L56.5217 18.5784ZM53.5036 7.41301L47.4076 18.453L48.1718 18.875L54.2678 7.83499L53.5036 7.41301ZM98.2602 27.304L98.5605 27.621L98.5688 27.6126L98.2602 27.304ZM98.6922 27.4L98.3018 27.5952L98.3139 27.6195L98.329 27.6421L98.6922 27.4ZM98.6442 27.688L98.3355 27.3794L98.3231 27.3918L98.3116 27.4053L98.6442 27.688ZM95.7642 30.52L95.5067 30.1676L95.7642 30.52ZM91.0602 26.728L91.489 26.8097L91.4891 26.8089L91.0602 26.728ZM92.5002 19.096L92.9292 19.1769L92.9307 19.1678L92.5002 19.096ZM88.9002 16.168L89.2338 16.4495L89.238 16.4444L88.9002 16.168ZM86.4042 20.824L85.9968 20.6673L85.9968 20.6673L86.4042 20.824ZM84.3402 28.312L83.9119 28.2273L83.9107 28.2339L84.3402 28.312ZM83.9562 30.424L84.3823 30.5187L84.3841 30.5104L84.3856 30.5021L83.9562 30.424ZM83.1882 31.096L83.0414 30.6849L83.0287 30.6895L83.0162 30.6948L83.1882 31.096ZM79.6842 31L79.2554 30.9183L79.2477 30.9588V31H79.6842ZM79.8762 29.992L79.4492 29.9011L79.4474 29.9103L79.8762 29.992ZM80.4042 27.448L79.9751 27.3675L79.9736 27.3762L80.4042 27.448ZM81.9882 19L82.4172 19.0804L82.4179 19.0767L81.9882 19ZM81.7962 15.16L81.433 15.4021L81.4397 15.4122L81.447 15.4219L81.7962 15.16ZM78.1482 16.312L78.4891 16.5847L78.4927 16.58L78.1482 16.312ZM75.6042 21.256L76.0131 21.4086L76.0139 21.4066L75.6042 21.256ZM73.5882 28.84L73.1591 28.7598L73.1587 28.7619L73.5882 28.84ZM73.3002 30.424L73.7236 30.5299L73.7271 30.5161L73.7296 30.5021L73.3002 30.424ZM69.0282 31L68.5994 30.9183L68.5917 30.9588V31H69.0282ZM69.2202 29.992L68.7932 29.9011L68.7914 29.9103L69.2202 29.992ZM69.7482 27.448L69.3188 27.3691L69.3176 27.3762L69.7482 27.448ZM71.7162 16.744L71.2901 16.6493L71.2883 16.6572L71.2869 16.6651L71.7162 16.744ZM68.2122 16.312L68.5208 16.6206L68.5268 16.6146L68.5326 16.6084L68.2122 16.312ZM67.8282 16.216L67.4378 16.4112L67.4499 16.4355L67.465 16.4581L67.8282 16.216ZM67.8282 15.88L67.4968 15.5959L67.4796 15.6159L67.465 15.6379L67.8282 15.88ZM70.9002 12.952L70.6609 12.5868L70.6551 12.5908L70.9002 12.952ZM75.7962 16.168L76.2259 16.2447L76.2267 16.2398L75.7962 16.168ZM75.0762 20.2L74.6465 20.1233L75.4818 20.3613L75.0762 20.2ZM78.7722 14.056L79.0843 14.3612L79.0876 14.3577L78.7722 14.056ZM85.5882 12.856L85.2488 13.1307L85.2556 13.1387L85.5882 12.856ZM86.1642 18.088L86.5945 18.1615L86.5947 18.1598L86.1642 18.088ZM85.8282 20.056L85.3979 19.9825L86.2331 20.219L85.8282 20.056ZM89.4762 14.008L89.1641 13.7028L89.164 13.7029L89.4762 14.008ZM96.6762 18.184L96.2487 18.0949L96.2466 18.1068L96.6762 18.184ZM95.1402 26.728L95.5683 26.8136L95.5698 26.8052L95.1402 26.728ZM96.7722 28.6L97.0289 28.953L97.0341 28.9492L96.7722 28.6ZM98.5688 27.6126C98.5853 27.5962 98.5448 27.6445 98.4522 27.6445V26.7715C98.2316 26.7715 98.0631 26.8838 97.9515 26.9954L98.5688 27.6126ZM98.4522 27.6445C98.4266 27.6445 98.399 27.64 98.372 27.6302C98.3453 27.6205 98.3252 27.6078 98.3115 27.5968C98.2867 27.577 98.2875 27.5667 98.3018 27.5952L99.0826 27.2048C98.9853 27.0101 98.7881 26.7715 98.4522 26.7715V27.6445ZM98.329 27.6421C98.3116 27.6161 98.2841 27.5535 98.2976 27.4722C98.3095 27.4013 98.3439 27.371 98.3355 27.3794L98.9528 27.9966C99.0405 27.909 99.1309 27.7827 99.1587 27.6158C99.1883 27.4385 99.1367 27.2799 99.0554 27.1579L98.329 27.6421ZM98.3116 27.4053C97.2338 28.6734 96.2992 29.5884 95.5067 30.1676L96.0217 30.8724C96.8932 30.2356 97.8786 29.2626 98.9768 27.9707L98.3116 27.4053ZM95.5067 30.1676C94.7378 30.7295 93.9621 30.9955 93.1722 30.9955V31.8685C94.1742 31.8685 95.1266 31.5265 96.0217 30.8724L95.5067 30.1676ZM93.1722 30.9955C92.493 30.9955 92.0565 30.7974 91.7781 30.4668C91.4876 30.1219 91.3047 29.5573 91.3047 28.696H90.4317C90.4317 29.6587 90.6328 30.4621 91.1103 31.0292C91.5999 31.6106 92.3154 31.8685 93.1722 31.8685V30.9955ZM91.3047 28.696C91.3047 28.0852 91.3657 27.4566 91.489 26.8097L90.6314 26.6463C90.4986 27.3434 90.4317 28.0268 90.4317 28.696H91.3047ZM91.4891 26.8089L92.9291 19.1769L92.0713 19.0151L90.6313 26.6471L91.4891 26.8089ZM92.9307 19.1678C93.0918 18.2011 93.1767 17.4367 93.1767 16.888H92.3037C92.3037 17.3633 92.2285 18.0709 92.0696 19.0242L92.9307 19.1678ZM93.1767 16.888C93.1767 16.0903 93.0587 15.4192 92.7658 14.9343C92.4515 14.4141 91.9586 14.1475 91.3482 14.1475V15.0205C91.6657 15.0205 91.8689 15.1379 92.0186 15.3857C92.1896 15.6688 92.3037 16.1497 92.3037 16.888H93.1767ZM91.3482 14.1475C90.3764 14.1475 89.4482 14.8089 88.5624 15.8916L89.238 16.4444C90.0802 15.4151 90.7839 15.0205 91.3482 15.0205V14.1475ZM88.5666 15.8865C87.6572 16.9643 86.8043 18.5678 85.9968 20.6673L86.8116 20.9807C87.6041 18.9202 88.4151 17.4197 89.2338 16.4495L88.5666 15.8865ZM85.9968 20.6673C85.1854 22.7769 84.4914 25.2983 83.912 28.2273L84.7684 28.3967C85.341 25.5017 86.023 23.0311 86.8116 20.9807L85.9968 20.6673ZM83.9107 28.2339L83.5267 30.3459L84.3856 30.5021L84.7696 28.3901L83.9107 28.2339ZM83.5301 30.3293C83.515 30.3973 83.4379 30.5433 83.0414 30.6849L83.335 31.5071C83.8345 31.3287 84.2694 31.0267 84.3823 30.5187L83.5301 30.3293ZM83.0162 30.6948C82.648 30.8526 82.077 30.9475 81.2682 30.9475V31.8205C82.1233 31.8205 82.8324 31.7234 83.3601 31.4972L83.0162 30.6948ZM81.2682 30.9475C80.7488 30.9475 80.395 30.9152 80.183 30.8638C80.0745 30.8375 80.0391 30.8144 80.0399 30.815C80.0524 30.8241 80.1207 30.8866 80.1207 31H79.2477C79.2477 31.2414 79.3819 31.4159 79.5265 31.521C79.6593 31.6176 79.8219 31.6745 79.9774 31.7122C80.2933 31.7888 80.7316 31.8205 81.2682 31.8205V30.9475ZM80.113 31.0817L80.305 30.0737L79.4474 29.9103L79.2554 30.9183L80.113 31.0817ZM80.3031 30.0828C80.6216 28.5861 80.8007 27.7242 80.8347 27.5198L79.9736 27.3762C79.9437 27.5558 79.7708 28.3899 79.4493 29.9012L80.3031 30.0828ZM80.8332 27.5284L82.4172 19.0804L81.5592 18.9196L79.9752 27.3676L80.8332 27.5284ZM82.4179 19.0767C82.5792 18.1736 82.6647 17.4553 82.6647 16.936H81.7917C81.7917 17.3767 81.7172 18.0344 81.5585 18.9233L82.4179 19.0767ZM82.6647 16.936C82.6647 16.0989 82.5168 15.3933 82.1454 14.8981L81.447 15.4219C81.6516 15.6947 81.7917 16.1731 81.7917 16.936H82.6647ZM82.1594 14.9179C81.8186 14.4067 81.3111 14.1475 80.6922 14.1475V15.0205C81.0333 15.0205 81.2618 15.1453 81.433 15.4021L82.1594 14.9179ZM80.6922 14.1475C79.6792 14.1475 78.718 14.8685 77.8036 16.044L78.4927 16.58C79.3704 15.4515 80.1051 15.0205 80.6922 15.0205V14.1475ZM77.8073 16.0393C76.8695 17.2116 76.002 18.9089 75.1945 21.1054L76.0139 21.4066C76.8064 19.2511 77.6348 17.6524 78.489 16.5847L77.8073 16.0393ZM75.1952 21.1034C74.3843 23.2766 73.7065 25.8299 73.1591 28.7598L74.0173 28.9202C74.5579 26.0261 75.224 23.5234 76.0131 21.4086L75.1952 21.1034ZM73.1587 28.7619L72.8707 30.3459L73.7296 30.5021L74.0176 28.9181L73.1587 28.7619ZM72.8767 30.3181C72.8462 30.4404 72.7373 30.5987 72.3614 30.7329C71.9825 30.8682 71.4086 30.9475 70.6122 30.9475V31.8205C71.4477 31.8205 72.1379 31.7398 72.655 31.5551C73.1751 31.3693 73.5942 31.0476 73.7236 30.5299L72.8767 30.3181ZM70.6122 30.9475C70.0928 30.9475 69.739 30.9152 69.527 30.8638C69.4185 30.8375 69.3831 30.8144 69.3839 30.815C69.3964 30.8241 69.4647 30.8866 69.4647 31H68.5917C68.5917 31.2414 68.7259 31.4159 68.8705 31.521C69.0033 31.6176 69.1659 31.6745 69.3213 31.7122C69.6373 31.7888 70.0756 31.8205 70.6122 31.8205V30.9475ZM69.457 31.0817L69.649 30.0737L68.7914 29.9103L68.5994 30.9183L69.457 31.0817ZM69.6471 30.0828C69.9656 28.5861 70.1447 27.7242 70.1787 27.5198L69.3176 27.3762C69.2877 27.5558 69.1148 28.3899 68.7933 29.9012L69.6471 30.0828ZM70.1775 27.5269L72.1455 16.8229L71.2869 16.6651L69.3189 27.3691L70.1775 27.5269ZM72.1423 16.8387C72.2154 16.5098 72.2487 16.124 72.2487 15.688H71.3757C71.3757 16.084 71.345 16.4022 71.2901 16.6493L72.1423 16.8387ZM72.2487 15.688C72.2487 15.2243 72.1782 14.8021 71.9776 14.4834C71.7555 14.1308 71.4063 13.9555 70.9962 13.9555V14.8285C71.13 14.8285 71.1888 14.8692 71.2388 14.9486C71.3101 15.0619 71.3757 15.2877 71.3757 15.688H72.2487ZM70.9962 13.9555C70.5298 13.9555 70.0408 14.173 69.5484 14.5127C69.0477 14.858 68.4951 15.3633 67.8918 16.0156L68.5326 16.6084C69.1133 15.9807 69.6167 15.526 70.044 15.2313C70.4795 14.931 70.7905 14.8285 70.9962 14.8285V13.9555ZM67.9035 16.0034C67.9823 15.9246 68.0649 15.9235 68.0682 15.9235V16.7965C68.1995 16.7965 68.3781 16.7634 68.5208 16.6206L67.9035 16.0034ZM68.0682 15.9235C68.0969 15.9235 68.1309 15.9318 68.1608 15.9497C68.1877 15.9659 68.1958 15.9805 68.1914 15.9739L67.465 16.4581C67.5912 16.6474 67.7954 16.7965 68.0682 16.7965V15.9235ZM68.2186 16.0208C68.2087 16.0011 68.2167 16.0081 68.2167 16.036C68.2167 16.0502 68.2145 16.0666 68.2094 16.0834C68.2042 16.1001 68.1974 16.1131 68.1914 16.1221L67.465 15.6379C67.2922 15.8971 67.3234 16.1825 67.4378 16.4112L68.2186 16.0208ZM68.1596 16.1641C69.3002 14.8334 70.2951 13.8901 71.1453 13.3132L70.6551 12.5908C69.7133 13.2299 68.6602 14.2386 67.4968 15.5959L68.1596 16.1641ZM71.1394 13.3171C72.0104 12.7464 72.8566 12.4765 73.6842 12.4765V11.6035C72.6558 11.6035 71.646 11.9416 70.661 12.5869L71.1394 13.3171ZM73.6842 12.4765C74.3544 12.4765 74.7813 12.663 75.0496 12.9656C75.3268 13.2782 75.5037 13.7912 75.5037 14.584H76.3767C76.3767 13.6808 76.1776 12.9218 75.7028 12.3864C75.2191 11.841 74.518 11.6035 73.6842 11.6035V12.4765ZM75.5037 14.584C75.5037 15.0355 75.4585 15.5391 75.3656 16.0962L76.2267 16.2398C76.3259 15.6449 76.3767 15.0925 76.3767 14.584H75.5037ZM75.3665 16.0913L74.6465 20.1233L75.5059 20.2767L76.2259 16.2447L75.3665 16.0913ZM75.4818 20.3613C76.5247 17.7381 77.7298 15.7464 79.0843 14.3612L78.4601 13.7508C76.9985 15.2456 75.7396 17.3499 74.6706 20.0387L75.4818 20.3613ZM79.0876 14.3577C80.4391 12.9448 81.8202 12.2845 83.2362 12.2845V11.4115C81.5162 11.4115 79.9212 12.2232 78.4568 13.7543L79.0876 14.3577ZM83.2362 12.2845C84.1555 12.2845 84.8034 12.5803 85.2489 13.1306L85.9274 12.5814C85.2849 11.7877 84.3649 11.4115 83.2362 11.4115V12.2845ZM85.2556 13.1387C85.7038 13.666 85.9677 14.5203 85.9677 15.784H86.8407C86.8407 14.4237 86.5606 13.326 85.9208 12.5733L85.2556 13.1387ZM85.9677 15.784C85.9677 16.3252 85.892 17.0662 85.7336 18.0162L86.5947 18.1598C86.7564 17.1898 86.8407 16.3948 86.8407 15.784H85.9677ZM85.7339 18.0145L85.3979 19.9825L86.2585 20.1295L86.5945 18.1615L85.7339 18.0145ZM86.2331 20.219C87.2764 17.6267 88.4657 15.6665 89.7884 14.3131L89.164 13.7029C87.7347 15.1655 86.492 17.2373 85.4233 19.893L86.2331 20.219ZM89.7883 14.3132C91.143 12.9277 92.4933 12.2845 93.8442 12.2845V11.4115C92.1871 11.4115 90.6254 12.2083 89.1641 13.7028L89.7883 14.3132ZM93.8442 12.2845C94.77 12.2845 95.3961 12.5723 95.8057 13.0906C96.2307 13.6286 96.4797 14.4857 96.4797 15.736H97.3527C97.3527 14.3943 97.0896 13.3074 96.4907 12.5494C95.8762 11.7717 94.9664 11.4115 93.8442 11.4115V12.2845ZM96.4797 15.736C96.4797 16.5731 96.4022 17.359 96.2489 18.095L97.1035 18.273C97.2702 17.473 97.3527 16.6269 97.3527 15.736H96.4797ZM96.2466 18.1068L94.7106 26.6508L95.5698 26.8052L97.1058 18.2612L96.2466 18.1068ZM94.7122 26.6424C94.6139 27.134 94.5597 27.5502 94.5597 27.88H95.4327C95.4327 27.6338 95.4745 27.282 95.5682 26.8136L94.7122 26.6424ZM94.5597 27.88C94.5597 28.2852 94.6277 28.6667 94.8299 28.9573C95.052 29.2766 95.3888 29.4205 95.7642 29.4205V28.5475C95.6276 28.5475 95.5803 28.5074 95.5465 28.4587C95.4926 28.3813 95.4327 28.2108 95.4327 27.88H94.5597ZM95.7642 29.4205C96.2045 29.4205 96.6287 29.2441 97.0289 28.953L96.5155 28.247C96.2117 28.4679 95.9639 28.5475 95.7642 28.5475V29.4205ZM97.0341 28.9492C97.4377 28.6464 97.9477 28.2013 98.5604 27.6209L97.96 26.9871C97.3566 27.5587 96.8746 27.9776 96.5103 28.2508L97.0341 28.9492ZM106.625 1.432L106.291 1.71328L106.3 1.72305L106.625 1.432ZM107.249 5.752L106.824 5.65198L106.822 5.66429L107.249 5.752ZM105.329 9.688L104.979 9.42741L104.979 9.42741L105.329 9.688ZM101.729 13.192L101.48 12.834L101.448 12.8561L101.421 12.8834L101.729 13.192ZM101.345 13.048L100.955 13.2432L100.955 13.2432L101.345 13.048ZM101.393 12.76L101.635 13.1232L101.66 13.1069L101.682 13.0876L101.393 12.76ZM105.137 6.712L104.709 6.6264L104.708 6.63382L104.707 6.64128L105.137 6.712ZM105.137 5.56L105.551 5.42197L105.328 4.75195L104.829 5.25135L105.137 5.56ZM102.113 5.128L102.442 4.84057L102.442 4.84057L102.113 5.128ZM102.161 1.336L101.843 1.03669L101.834 1.04721L102.161 1.336ZM114.449 1.432L114.115 1.71328L114.124 1.72305L114.449 1.432ZM115.073 5.752L114.648 5.65198L114.646 5.66429L115.073 5.752ZM113.153 9.688L112.803 9.42741L112.803 9.42741L113.153 9.688ZM109.553 13.192L109.304 12.834L109.272 12.8561L109.245 12.8834L109.553 13.192ZM109.169 13.048L108.779 13.2432L108.779 13.2432L109.169 13.048ZM109.217 12.76L109.459 13.1232L109.484 13.1069L109.506 13.0876L109.217 12.76ZM112.961 6.712L112.533 6.62639L112.532 6.63382L112.531 6.64128L112.961 6.712ZM112.961 5.56L113.375 5.42197L113.152 4.75195L112.653 5.25135L112.961 5.56ZM109.937 5.128L110.266 4.84057L110.266 4.84057L109.937 5.128ZM109.985 1.336L109.667 1.03669L109.658 1.04721L109.985 1.336ZM104.369 0.956488C105.267 0.956488 105.882 1.22742 106.291 1.71316L106.959 1.15084C106.344 0.420572 105.455 0.0835074 104.369 0.0835074V0.956488ZM106.3 1.72305C106.751 2.2275 107.005 2.95899 107.005 3.976H107.878C107.878 2.81701 107.587 1.8525 106.951 1.14095L106.3 1.72305ZM107.005 3.976C107.005 4.5871 106.944 5.14512 106.824 5.65203L107.674 5.85197C107.811 5.27088 107.878 4.6449 107.878 3.976H107.005ZM106.822 5.66429C106.582 6.83195 105.978 8.08583 104.979 9.42741L105.679 9.94859C106.729 8.53817 107.404 7.16805 107.677 5.83971L106.822 5.66429ZM104.979 9.42741C103.983 10.7666 102.816 11.9015 101.48 12.834L101.979 13.55C103.394 12.5625 104.628 11.3614 105.679 9.94859L104.979 9.42741ZM101.421 12.8834C101.499 12.8046 101.582 12.8035 101.585 12.8035V13.6765C101.717 13.6765 101.895 13.6434 102.038 13.5006L101.421 12.8834ZM101.585 12.8035C101.611 12.8035 101.638 12.808 101.665 12.8178C101.692 12.8275 101.712 12.8402 101.726 12.8512C101.751 12.871 101.75 12.8813 101.736 12.8528L100.955 13.2432C101.052 13.4379 101.249 13.6765 101.585 13.6765V12.8035ZM101.736 12.8528C101.726 12.8343 101.753 12.875 101.74 12.9518C101.733 12.9922 101.717 13.0312 101.694 13.0643C101.672 13.0961 101.649 13.1144 101.635 13.1232L101.151 12.3968C101.023 12.4823 100.91 12.6192 100.879 12.8082C100.85 12.981 100.9 13.1337 100.955 13.2432L101.736 12.8528ZM101.682 13.0876C103.877 11.1541 105.195 9.05377 105.568 6.78271L104.707 6.64128C104.375 8.65822 103.197 10.5899 101.105 12.4324L101.682 13.0876ZM105.565 6.7976C105.629 6.47958 105.67 6.21649 105.67 6.04H104.797C104.797 6.11951 104.774 6.30441 104.709 6.6264L105.565 6.7976ZM105.67 6.04C105.67 5.84598 105.623 5.63575 105.551 5.42197L104.723 5.69803C104.78 5.86824 104.797 5.97802 104.797 6.04H105.67ZM104.829 5.25135C104.729 5.35145 104.491 5.45951 103.985 5.45951V6.33249C104.568 6.33249 105.098 6.21655 105.446 5.86864L104.829 5.25135ZM103.985 5.45951C103.287 5.45951 102.792 5.24092 102.442 4.84057L101.785 5.41543C102.331 6.03907 103.084 6.33249 103.985 6.33249V5.45951ZM102.442 4.84057C102.066 4.41112 101.878 3.9063 101.878 3.304H101.005C101.005 4.1097 101.265 4.82088 101.785 5.41543L102.442 4.84057ZM101.878 3.304C101.878 2.63556 102.083 2.08409 102.489 1.62479L101.834 1.04721C101.279 1.6759 101.005 2.43644 101.005 3.304H101.878ZM102.479 1.63515C102.887 1.20209 103.493 0.956488 104.369 0.956488V0.0835074C103.325 0.0835074 102.46 0.381902 101.843 1.03684L102.479 1.63515ZM112.193 0.956488C113.091 0.956488 113.706 1.22742 114.115 1.71316L114.783 1.15084C114.168 0.420572 113.279 0.0835074 112.193 0.0835074V0.956488ZM114.124 1.72305C114.575 2.2275 114.829 2.95899 114.829 3.976H115.702C115.702 2.81701 115.411 1.8525 114.775 1.14095L114.124 1.72305ZM114.829 3.976C114.829 4.5871 114.768 5.14512 114.648 5.65203L115.498 5.85197C115.635 5.27088 115.702 4.6449 115.702 3.976H114.829ZM114.646 5.66429C114.406 6.83195 113.802 8.08583 112.803 9.42741L113.503 9.94859C114.553 8.53817 115.228 7.16805 115.501 5.83971L114.646 5.66429ZM112.803 9.42741C111.807 10.7666 110.64 11.9015 109.304 12.834L109.803 13.55C111.218 12.5625 112.452 11.3614 113.503 9.94859L112.803 9.42741ZM109.245 12.8834C109.323 12.8046 109.406 12.8035 109.409 12.8035V13.6765C109.541 13.6765 109.719 13.6434 109.862 13.5006L109.245 12.8834ZM109.409 12.8035C109.435 12.8035 109.462 12.808 109.489 12.8178C109.516 12.8275 109.536 12.8402 109.55 12.8512C109.575 12.871 109.574 12.8813 109.56 12.8528L108.779 13.2432C108.876 13.4379 109.073 13.6765 109.409 13.6765V12.8035ZM109.56 12.8528C109.55 12.8343 109.577 12.875 109.564 12.9518C109.557 12.9922 109.541 13.0312 109.518 13.0643C109.496 13.0961 109.473 13.1144 109.459 13.1232L108.975 12.3968C108.847 12.4823 108.734 12.6192 108.703 12.8082C108.674 12.981 108.724 13.1337 108.779 13.2432L109.56 12.8528ZM109.506 13.0876C111.701 11.1541 113.019 9.05377 113.392 6.78271L112.531 6.64128C112.199 8.65822 111.021 10.5899 108.929 12.4324L109.506 13.0876ZM113.389 6.7976C113.453 6.47958 113.494 6.21649 113.494 6.04H112.621C112.621 6.11951 112.598 6.30441 112.533 6.62639L113.389 6.7976ZM113.494 6.04C113.494 5.84598 113.447 5.63575 113.375 5.42197L112.547 5.69803C112.604 5.86824 112.621 5.97802 112.621 6.04H113.494ZM112.653 5.25135C112.553 5.35145 112.315 5.45951 111.809 5.45951V6.33249C112.392 6.33249 112.922 6.21655 113.27 5.86864L112.653 5.25135ZM111.809 5.45951C111.111 5.45951 110.616 5.24092 110.266 4.84057L109.609 5.41543C110.155 6.03907 110.908 6.33249 111.809 6.33249V5.45951ZM110.266 4.84057C109.89 4.41112 109.702 3.9063 109.702 3.304H108.829C108.829 4.1097 109.089 4.82088 109.609 5.41543L110.266 4.84057ZM109.702 3.304C109.702 2.63556 109.907 2.08409 110.313 1.62479L109.658 1.04721C109.103 1.6759 108.829 2.43644 108.829 3.304H109.702ZM110.303 1.63515C110.711 1.20209 111.317 0.956488 112.193 0.956488V0.0835074C111.149 0.0835074 110.284 0.381902 109.667 1.03684L110.303 1.63515Z" fill="#6B99CF" mask="url(#path-1-outside-1_332_596)"/>
</svg>
