<svg width="124" height="124" viewBox="0 0 124 124" fill="none" xmlns="http://www.w3.org/2000/svg">
<path d="M94.0575 85.3369C92.0147 86.9404 86.1525 90.1553 79.0463 90.1869" stroke="#6B99CF" stroke-width="3.73209"/>
<path d="M77.9349 55.206L88.6576 69.3711C89.7594 71.2794 89.0119 75.2733 77.2074 75.9818" stroke="#6B99CF" stroke-width="3.73209"/>
<path d="M96.9198 83.6844C95.4147 83.2811 91.1552 78.1069 85.5777 83.8716C82.702 82.5633 76.3859 82.0539 74.1275 90.4823" stroke="#6B99CF" stroke-width="3.73209"/>
<path d="M65.3434 51.0257C62.4185 48.8976 54.5285 46.8373 46.3679 55.62" stroke="#6B99CF" stroke-width="3.73209"/>
<path d="M75.5828 48.9302C77.2943 44.5494 82.854 36.8443 91.4005 41.0701" stroke="#6B99CF" stroke-width="3.73209"/>
<path d="M114.971 55.4512C112.462 54.7791 107.013 54.448 105.281 58.5009" stroke="#6B99CF" stroke-width="3.73209"/>
<path d="M27.0281 70.6026C25.9263 68.6942 17.2991 64.7694 9.26242 70.6817" stroke="#6B99CF" stroke-width="3.73209"/>
<path d="M34.8379 44.465C38.3893 54.2889 44.0244 75.8017 38.1539 83.2622" stroke="#6B99CF" stroke-width="3.73209"/>
<path d="M48.6322 11.0566C52.9014 8.16773 64.7293 4.56186 77.8875 13.2496C94.3353 24.1093 95.4767 34.9006 101.094 38.0188C106.711 41.137 113.833 44.6585 113.469 55.0464C115.929 54.8985 121.549 58.0148 120.887 63.4859C120.225 68.957 115.861 70.2048 113.4 70.3532C110.939 70.5016 108.039 69.8859 106.276 66.8325" stroke="#6B99CF" stroke-width="3.73209"/>
<path d="M61.409 26.58C67.6718 21.2679 82.5997 16.1267 92.2091 38.0591C91.8452 37.2515 97.8608 52.1835 100.914 59.7504" stroke="#6B99CF" stroke-width="3.73209"/>
<path d="M102.566 62.613C109.41 75.2009 115.607 98.0095 95.76 109.468C75.9131 120.927 53.9955 111.435 44.2534 102.641" stroke="#6B99CF" stroke-width="3.73209"/>
<path d="M44.5099 98.6765C44.9264 100.132 45.0767 103.184 42.3459 103.743C38.9325 104.441 35.3714 102.68 32.2137 99.4146C29.0559 96.1488 28.0622 87.8168 34.889 86.4198" stroke="#6B99CF" stroke-width="3.73209"/>
<path d="M58.9496 26.728C53.7491 25.0657 41.3964 25.4122 33.59 40.0971" stroke="#6B99CF" stroke-width="3.73209"/>
<path d="M47.6735 11.6091C41.1515 9.8615 20.3658 17.1968 13.4707 33.9006C6.57547 50.6043 6.42159 67.232 10.2155 70.1305C7.40221 72.6031 3.33974 78.9351 9.59622 84.483C7.05174 85.9521 2.8442 90.4168 6.36994 96.5236C10.7771 104.157 21.1255 95.6379 21.1255 95.6379C23.4503 95.992 28.4226 95.4961 29.7131 90.6798" stroke="#6B99CF" stroke-width="3.73209"/>
<path d="M29.1223 80.8431C25.9645 77.5773 18.6516 74.166 14.662 86.6473" stroke="#6B99CF" stroke-width="3.73209"/>
<circle cx="3.30537" cy="3.30537" r="1.86604" transform="matrix(-0.866025 0.5 0.5 0.866025 59.2158 55.8359)" fill="#6B99CF" stroke="#6B99CF" stroke-width="2.87866"/>
<circle cx="3.30537" cy="3.30537" r="1.86604" transform="matrix(-0.866025 0.5 0.5 0.866025 87.3291 47.2379)" fill="#6B99CF" stroke="#6B99CF" stroke-width="2.87866"/>
</svg>
