<svg width="477" height="145" viewBox="0 0 477 145" fill="none" xmlns="http://www.w3.org/2000/svg">
<path d="M102.48 11.2C102.629 11.2 102.704 11.424 102.704 11.872C102.704 12.32 102.629 12.544 102.48 12.544C99.7173 12.544 97.104 13.7387 94.64 16.128C92.2507 18.4427 90.272 21.6533 88.704 25.76L67.984 81.088C67.9093 81.3867 67.4987 81.536 66.752 81.536C66.0053 81.536 65.5947 81.3867 65.52 81.088L51.184 50.736L39.872 81.088C39.7973 81.3867 39.3867 81.536 38.64 81.536C37.8933 81.536 37.4827 81.3867 37.408 81.088L8.848 20.496C7.728 18.1067 6.79467 16.3893 6.048 15.344C5.376 14.2987 4.592 13.5893 3.696 13.216C2.87467 12.768 1.75467 12.544 0.336 12.544C0.112 12.544 0 12.32 0 11.872C0 11.424 0.112 11.2 0.336 11.2C1.456 11.2 2.24 11.2373 2.688 11.312C4.18133 11.4613 6.12267 11.536 8.512 11.536C13.5147 11.536 17.7333 11.4613 21.168 11.312C22.1387 11.2373 23.3333 11.2 24.752 11.2C24.976 11.2 25.088 11.424 25.088 11.872C25.088 12.32 24.976 12.544 24.752 12.544C22.8853 12.544 21.5413 12.7307 20.72 13.104C19.9733 13.4773 19.6 14.1493 19.6 15.12C19.6 16.3893 20.4587 18.8533 22.176 22.512L42.336 65.296L49.392 46.816L36.96 20.496C35.6907 17.808 34.496 15.8293 33.376 14.56C32.256 13.216 31.0613 12.544 29.792 12.544C29.568 12.544 29.456 12.32 29.456 11.872C29.456 11.424 29.568 11.2 29.792 11.2C30.5387 11.2 31.3973 11.2747 32.368 11.424C33.4133 11.4987 34.8693 11.536 36.736 11.536C40.992 11.536 44.5387 11.4613 47.376 11.312C48.1227 11.2373 49.0933 11.2 50.288 11.2C50.512 11.2 50.624 11.424 50.624 11.872C50.624 12.32 50.512 12.544 50.288 12.544C49.2427 12.544 48.4587 12.6933 47.936 12.992C47.488 13.216 47.264 13.664 47.264 14.336C47.264 15.6053 48.272 18.3307 50.288 22.512L55.216 32.928L58.016 25.424C59.6587 21.168 60.48 17.9573 60.48 15.792C60.48 13.6267 59.5467 12.544 57.68 12.544C57.456 12.544 57.344 12.32 57.344 11.872C57.344 11.424 57.456 11.2 57.68 11.2C58.2773 11.2 58.912 11.2747 59.584 11.424C60.3307 11.4987 62.1227 11.536 64.96 11.536C66.2293 11.536 67.76 11.4613 69.552 11.312L73.696 11.2C73.8453 11.2 73.92 11.424 73.92 11.872C73.92 12.32 73.8453 12.544 73.696 12.544C68.6933 12.544 64.5493 16.9493 61.264 25.76L57.12 36.848L70.56 65.184L85.008 26.544C85.904 24.1547 86.352 21.9893 86.352 20.048C86.352 17.7333 85.7547 15.904 84.56 14.56C83.44 13.216 81.9093 12.544 79.968 12.544C79.744 12.544 79.632 12.32 79.632 11.872C79.632 11.424 79.744 11.2 79.968 11.2L85.12 11.312C87.808 11.4613 90.272 11.536 92.512 11.536C94.0053 11.536 95.7227 11.4613 97.664 11.312L102.48 11.2Z" fill="white"/>
<path d="M127.788 73.808C127.937 73.808 128.086 73.9573 128.236 74.256C128.46 74.5547 128.497 74.7787 128.348 74.928C125.585 77.616 122.785 79.5573 119.948 80.752C117.11 81.9467 114.012 82.544 110.652 82.544C105.948 82.544 101.878 81.5733 98.4436 79.632C95.009 77.616 92.3956 74.9653 90.6036 71.68C88.8116 68.32 87.9156 64.6987 87.9156 60.816C87.9156 56.4853 88.9983 52.4907 91.1636 48.832C93.329 45.1733 96.3156 42.2987 100.124 40.208C104.006 38.0427 108.374 36.96 113.228 36.96C117.857 36.96 121.441 38.0053 123.98 40.096C126.518 42.1867 127.788 45.4347 127.788 49.84C127.788 52.1547 127.377 53.312 126.556 53.312L99.3396 53.424C99.265 53.9467 99.2276 54.8053 99.2276 56C99.2276 62.5707 100.721 67.7227 103.708 71.456C106.769 75.1893 111.137 77.056 116.812 77.056C118.828 77.056 120.545 76.832 121.964 76.384C123.382 75.936 125.249 75.1147 127.564 73.92L127.788 73.808ZM108.972 39.2C106.508 39.2 104.454 40.2827 102.812 42.448C101.169 44.5387 100.086 47.4507 99.5636 51.184L115.804 50.96C115.729 47.152 115.169 44.24 114.124 42.224C113.078 40.208 111.361 39.2 108.972 39.2Z" fill="white"/>
<path d="M185.704 73.92C185.928 73.92 186.115 74.1067 186.264 74.48C186.488 74.8533 186.525 75.0773 186.376 75.152L170.92 82.656L170.36 82.768C169.688 82.768 169.053 82.0587 168.456 80.64C167.933 79.2213 167.597 77.28 167.448 74.816C161.923 80.0427 156.285 82.656 150.536 82.656C147.251 82.656 144.264 81.7973 141.576 80.08C138.963 78.3627 136.872 75.8613 135.304 72.576C133.736 69.216 132.952 65.296 132.952 60.816C132.952 55.1413 134.259 50.512 136.872 46.928C139.56 43.2693 142.845 40.6187 146.728 38.976C150.685 37.3333 154.643 36.512 158.6 36.512C161.363 36.512 164.275 36.96 167.336 37.856V15.232C167.336 12.6187 167.075 10.752 166.552 9.632C166.104 8.512 165.283 7.952 164.088 7.952C163.117 7.952 161.736 8.36267 159.944 9.184H159.832C159.533 9.184 159.272 8.99734 159.048 8.624C158.899 8.176 158.899 7.91466 159.048 7.84L175.512 0.111999L175.96 0C176.333 0 176.744 0.186666 177.192 0.559999C177.64 0.858667 177.864 1.15733 177.864 1.456V68.208C177.864 70.7467 178.088 72.5387 178.536 73.584C179.059 74.6293 179.88 75.152 181 75.152C181.971 75.152 183.501 74.7413 185.592 73.92H185.704ZM156.696 77.28C160.429 77.28 163.976 75.712 167.336 72.576V44.8C165.992 42.9333 164.461 41.5893 162.744 40.768C161.101 39.872 159.16 39.424 156.92 39.424C152.888 39.424 149.789 40.8427 147.624 43.68C145.533 46.4427 144.488 50.96 144.488 57.232C144.488 63.504 145.608 68.432 147.848 72.016C150.088 75.5253 153.037 77.28 156.696 77.28Z" fill="white"/>
<path d="M213.342 76.608C217.747 76.6827 221.331 76.944 224.094 77.392C226.931 77.84 229.283 78.96 231.15 80.752C233.091 82.4693 234.062 85.12 234.062 88.704C234.062 92.8853 232.755 96.8053 230.142 100.464C227.603 104.197 224.131 107.184 219.726 109.424C215.395 111.664 210.728 112.784 205.726 112.784C200.574 112.784 196.355 111.589 193.07 109.2C189.784 106.885 188.142 103.824 188.142 100.016C188.142 94.7893 191.912 89.712 199.454 84.784C194.078 83.7387 191.39 81.0507 191.39 76.72C191.39 72.0907 194.003 68.0213 199.23 64.512C196.392 63.168 194.152 61.3013 192.51 58.912C190.942 56.448 190.158 53.872 190.158 51.184C190.158 48.1973 191.128 45.6587 193.07 43.568C195.011 41.4773 197.475 39.9093 200.462 38.864C203.523 37.744 206.622 37.184 209.758 37.184C214.462 37.184 218.494 38.3787 221.854 40.768C225.736 38.1547 229.768 36.848 233.95 36.848C234.547 36.848 234.846 37.8933 234.846 39.984C234.846 41.104 234.696 42.2987 234.398 43.568C234.099 44.7627 233.8 45.248 233.502 45.024C230.44 43.7547 227.678 43.12 225.214 43.12H224.318C226.334 45.5093 227.342 48.1973 227.342 51.184C227.342 54.1707 226.371 56.8213 224.43 59.136C222.488 61.4507 219.987 63.2427 216.926 64.512C213.939 65.7067 210.84 66.304 207.63 66.304C205.315 66.304 203.187 65.968 201.246 65.296C200.051 66.5653 199.454 68.1707 199.454 70.112C199.454 72.128 199.976 73.584 201.022 74.48C202.142 75.376 203.598 75.936 205.39 76.16C207.182 76.384 209.832 76.5333 213.342 76.608ZM206.062 39.312C202.702 39.312 201.022 42.1493 201.022 47.824C201.022 50.96 201.47 53.7973 202.366 56.336C203.262 58.8 204.419 60.7413 205.838 62.16C207.331 63.5787 208.899 64.288 210.542 64.288C212.184 64.288 213.566 63.4667 214.686 61.824C215.806 60.1813 216.366 57.68 216.366 54.32C216.366 51.1093 215.843 48.384 214.798 46.144C213.752 43.8293 212.408 42.112 210.766 40.992C209.198 39.872 207.63 39.312 206.062 39.312ZM212.446 109.2C216.254 109.2 219.278 108.005 221.518 105.616C223.758 103.227 224.878 99.9787 224.878 95.872C224.878 92.6613 224.168 90.3093 222.75 88.816C221.406 87.3973 219.614 86.5013 217.374 86.128C215.208 85.8293 212.035 85.6427 207.854 85.568C207.182 85.568 206.248 85.5307 205.054 85.456C203.859 85.3813 202.851 85.3067 202.03 85.232C199.491 87.0987 198.222 90.0853 198.222 94.192C198.222 98.9707 199.603 102.667 202.366 105.28C205.203 107.893 208.563 109.2 212.446 109.2Z" fill="white"/>
<path d="M318.641 37.968C318.865 37.968 318.977 38.192 318.977 38.64C318.977 39.088 318.865 39.312 318.641 39.312C316.55 39.312 314.646 40.1333 312.929 41.776C311.286 43.344 309.718 45.8827 308.225 49.392L294.449 81.088C294.449 81.3867 294.076 81.536 293.329 81.536C292.508 81.536 292.06 81.3867 291.985 81.088L278.433 54.432L266.897 81.088C266.897 81.3867 266.524 81.536 265.777 81.536C265.105 81.536 264.657 81.3867 264.433 81.088L247.297 47.264C245.654 44.0533 244.236 41.9253 243.041 40.88C241.921 39.8347 240.502 39.312 238.785 39.312C238.561 39.312 238.449 39.088 238.449 38.64C238.449 38.192 238.561 37.968 238.785 37.968C240.129 37.968 241.249 38.0053 242.145 38.08L249.649 38.192L257.601 38.08C258.721 38.0053 260.252 37.968 262.193 37.968C262.417 37.968 262.529 38.192 262.529 38.64C262.529 39.088 262.417 39.312 262.193 39.312C258.385 39.312 256.481 40.1333 256.481 41.776C256.481 42.224 256.705 42.8587 257.153 43.68L270.145 67.088L276.753 51.072L274.849 47.264C273.132 43.9787 271.825 41.8507 270.929 40.88C270.033 39.8347 268.913 39.312 267.569 39.312C267.42 39.312 267.345 39.088 267.345 38.64C267.345 38.192 267.42 37.968 267.569 37.968C268.764 37.968 269.734 38.0053 270.481 38.08L277.201 38.192L285.153 38.08C286.273 38.0053 287.804 37.968 289.745 37.968C289.894 37.968 289.969 38.192 289.969 38.64C289.969 39.088 289.894 39.312 289.745 39.312C288.252 39.312 287.02 39.5733 286.049 40.096C285.153 40.544 284.705 41.1787 284.705 42C284.705 42.5973 284.854 43.1573 285.153 43.68L297.697 67.2L305.089 49.28C305.686 47.712 305.985 46.368 305.985 45.248C305.985 43.3813 305.313 41.9253 303.969 40.88C302.7 39.8347 300.982 39.312 298.817 39.312C298.593 39.312 298.481 39.088 298.481 38.64C298.481 38.192 298.593 37.968 298.817 37.968C300.833 37.968 302.326 38.0053 303.297 38.08L310.017 38.192L314.609 38.08C315.43 38.0053 316.774 37.968 318.641 37.968Z" fill="white"/>
<path d="M339.089 82.656C334.459 82.656 330.39 81.6107 326.881 79.52C323.446 77.3547 320.795 74.48 318.929 70.896C317.062 67.2373 316.129 63.28 316.129 59.024C316.129 54.1707 317.361 50.064 319.825 46.704C322.289 43.2693 325.425 40.7307 329.233 39.088C333.041 37.3707 336.961 36.512 340.993 36.512C345.622 36.512 349.654 37.5947 353.089 39.76C356.523 41.9253 359.137 44.8 360.929 48.384C362.795 51.8933 363.729 55.664 363.729 59.696C363.729 64.176 362.609 68.1707 360.369 71.68C358.129 75.1147 355.105 77.8027 351.297 79.744C347.563 81.6853 343.494 82.656 339.089 82.656ZM342.449 80.304C345.361 80.304 347.563 78.8853 349.057 76.048C350.625 73.136 351.409 68.992 351.409 63.616C351.409 58.3893 350.737 53.9093 349.393 50.176C348.049 46.4427 346.294 43.6427 344.129 41.776C341.963 39.8347 339.649 38.864 337.185 38.864C331.211 38.864 328.225 44.2027 328.225 54.88C328.225 59.8827 328.859 64.3253 330.129 68.208C331.398 72.016 333.115 75.0027 335.281 77.168C337.446 79.2587 339.835 80.304 342.449 80.304Z" fill="white"/>
<path d="M392.766 82.656C388.136 82.656 384.067 81.6107 380.558 79.52C377.123 77.3547 374.472 74.48 372.606 70.896C370.739 67.2373 369.806 63.28 369.806 59.024C369.806 54.1707 371.038 50.064 373.502 46.704C375.966 43.2693 379.102 40.7307 382.91 39.088C386.718 37.3707 390.638 36.512 394.67 36.512C399.299 36.512 403.331 37.5947 406.766 39.76C410.2 41.9253 412.814 44.8 414.606 48.384C416.472 51.8933 417.406 55.664 417.406 59.696C417.406 64.176 416.286 68.1707 414.046 71.68C411.806 75.1147 408.782 77.8027 404.974 79.744C401.24 81.6853 397.171 82.656 392.766 82.656ZM396.126 80.304C399.038 80.304 401.24 78.8853 402.734 76.048C404.302 73.136 405.086 68.992 405.086 63.616C405.086 58.3893 404.414 53.9093 403.07 50.176C401.726 46.4427 399.971 43.6427 397.806 41.776C395.64 39.8347 393.326 38.864 390.862 38.864C384.888 38.864 381.902 44.2027 381.902 54.88C381.902 59.8827 382.536 64.3253 383.806 68.208C385.075 72.016 386.792 75.0027 388.958 77.168C391.123 79.2587 393.512 80.304 396.126 80.304Z" fill="white"/>
<path d="M476.234 73.92C476.458 73.92 476.645 74.1067 476.794 74.48C477.018 74.8533 477.056 75.0773 476.906 75.152L461.451 82.656L460.891 82.768C460.219 82.768 459.584 82.0587 458.987 80.64C458.464 79.2213 458.128 77.28 457.978 74.816C452.453 80.0427 446.816 82.656 441.066 82.656C437.781 82.656 434.794 81.7973 432.107 80.08C429.493 78.3627 427.402 75.8613 425.835 72.576C424.267 69.216 423.482 65.296 423.482 60.816C423.482 55.1413 424.789 50.512 427.402 46.928C430.09 43.2693 433.376 40.6187 437.258 38.976C441.216 37.3333 445.173 36.512 449.13 36.512C451.893 36.512 454.805 36.96 457.866 37.856V15.232C457.866 12.6187 457.605 10.752 457.082 9.632C456.634 8.512 455.813 7.952 454.618 7.952C453.648 7.952 452.266 8.36267 450.474 9.184H450.362C450.064 9.184 449.802 8.99734 449.578 8.624C449.429 8.176 449.429 7.91466 449.578 7.84L466.043 0.111999L466.491 0C466.864 0 467.275 0.186666 467.723 0.559999C468.171 0.858667 468.395 1.15733 468.395 1.456V68.208C468.395 70.7467 468.618 72.5387 469.066 73.584C469.589 74.6293 470.41 75.152 471.53 75.152C472.501 75.152 474.032 74.7413 476.122 73.92H476.234ZM447.227 77.28C450.96 77.28 454.506 75.712 457.866 72.576V44.8C456.522 42.9333 454.992 41.5893 453.275 40.768C451.632 39.872 449.69 39.424 447.451 39.424C443.418 39.424 440.32 40.8427 438.155 43.68C436.064 46.4427 435.018 50.96 435.018 57.232C435.018 63.504 436.139 68.432 438.379 72.016C440.618 75.5253 443.568 77.28 447.227 77.28Z" fill="white"/>
<path d="M278.38 123.554C278.38 123.506 278.428 123.482 278.524 123.482C278.596 123.482 278.656 123.506 278.704 123.554C278.776 123.578 278.812 123.602 278.812 123.626C278.572 125.45 278.452 127.118 278.452 128.63C278.452 128.822 278.416 128.966 278.344 129.062C278.272 129.134 278.128 129.17 277.912 129.17H262.288C262.216 129.17 262.18 129.098 262.18 128.954C262.18 128.81 262.216 128.738 262.288 128.738C263.104 128.738 263.692 128.678 264.052 128.558C264.436 128.438 264.688 128.21 264.808 127.874C264.952 127.514 265.024 126.974 265.024 126.254V109.586C265.024 108.866 264.952 108.338 264.808 108.002C264.688 107.666 264.436 107.438 264.052 107.318C263.668 107.174 263.08 107.102 262.288 107.102C262.216 107.102 262.18 107.03 262.18 106.886C262.18 106.742 262.216 106.67 262.288 106.67H277.264C277.504 106.67 277.624 106.778 277.624 106.994L277.696 111.674C277.696 111.722 277.624 111.758 277.48 111.782C277.36 111.806 277.288 111.782 277.264 111.71C276.688 108.974 275.02 107.606 272.26 107.606H270.82C269.956 107.606 269.344 107.762 268.984 108.074C268.624 108.386 268.444 108.914 268.444 109.658V117.002H271.9C274.54 117.002 275.86 116.114 275.86 114.338C275.86 114.266 275.92 114.23 276.04 114.23C276.184 114.23 276.256 114.266 276.256 114.338L276.22 117.47L276.256 119.162C276.304 119.93 276.328 120.554 276.328 121.034C276.328 121.082 276.256 121.106 276.112 121.106C275.968 121.106 275.896 121.082 275.896 121.034C275.896 118.97 274.552 117.938 271.864 117.938H268.444V126.11C268.444 126.902 268.588 127.454 268.876 127.766C269.188 128.078 269.728 128.234 270.496 128.234H272.26C275.476 128.234 277.516 126.674 278.38 123.554Z" fill="white"/>
<path d="M298.427 128.738C298.499 128.738 298.535 128.81 298.535 128.954C298.535 129.098 298.499 129.17 298.427 129.17C297.827 129.17 297.359 129.158 297.023 129.134L294.935 129.098L292.884 129.134C292.524 129.158 292.044 129.17 291.444 129.17C291.372 129.17 291.336 129.098 291.336 128.954C291.336 128.81 291.372 128.738 291.444 128.738C292.26 128.738 292.799 128.57 293.064 128.234C293.328 127.898 293.46 127.238 293.46 126.254V120.854C293.46 119.51 293.207 118.526 292.703 117.902C292.223 117.254 291.456 116.93 290.4 116.93C289.776 116.93 289.139 117.074 288.491 117.362C287.843 117.65 287.256 118.034 286.728 118.514V126.254C286.728 127.238 286.859 127.898 287.124 128.234C287.388 128.57 287.927 128.738 288.743 128.738C288.815 128.738 288.852 128.81 288.852 128.954C288.852 129.098 288.815 129.17 288.743 129.17C288.143 129.17 287.676 129.158 287.34 129.134L285.251 129.098L283.164 129.134C282.828 129.158 282.359 129.17 281.759 129.17C281.688 129.17 281.651 129.098 281.651 128.954C281.651 128.81 281.688 128.738 281.759 128.738C282.576 128.738 283.115 128.57 283.379 128.234C283.643 127.898 283.776 127.238 283.776 126.254V119.378C283.776 118.61 283.679 118.046 283.487 117.686C283.319 117.326 283.031 117.146 282.624 117.146C282.264 117.146 281.663 117.326 280.823 117.686H280.788C280.691 117.686 280.62 117.626 280.572 117.506C280.523 117.386 280.536 117.314 280.608 117.29L285.323 114.986C285.467 114.938 285.552 114.914 285.576 114.914C285.815 114.914 286.056 115.19 286.296 115.742C286.56 116.27 286.704 116.966 286.728 117.83C288.408 115.838 290.232 114.842 292.199 114.842C293.52 114.842 294.552 115.25 295.296 116.066C296.039 116.858 296.411 117.938 296.411 119.306V126.254C296.411 127.238 296.543 127.898 296.807 128.234C297.072 128.57 297.611 128.738 298.427 128.738Z" fill="white"/>
<path d="M307.983 127.91C309.351 127.934 310.467 128.006 311.331 128.126C312.195 128.246 312.939 128.582 313.563 129.134C314.211 129.686 314.535 130.55 314.535 131.726C314.535 133.046 314.115 134.282 313.275 135.434C312.435 136.61 311.319 137.546 309.927 138.242C308.535 138.938 307.047 139.286 305.463 139.286C303.807 139.286 302.463 138.914 301.431 138.17C300.423 137.426 299.919 136.454 299.919 135.254C299.919 133.55 301.143 131.882 303.591 130.25C301.815 129.914 300.927 129.062 300.927 127.694C300.927 126.95 301.131 126.266 301.539 125.642C301.971 125.018 302.619 124.406 303.483 123.806C302.595 123.398 301.899 122.81 301.395 122.042C300.915 121.274 300.675 120.458 300.675 119.594C300.675 118.658 300.963 117.842 301.539 117.146C302.115 116.45 302.859 115.922 303.771 115.562C304.707 115.202 305.703 115.022 306.759 115.022C308.295 115.022 309.567 115.406 310.575 116.174C311.223 115.766 311.859 115.466 312.483 115.274C313.107 115.058 313.779 114.95 314.499 114.95C314.667 114.95 314.751 115.262 314.751 115.886C314.751 116.222 314.703 116.57 314.607 116.93C314.535 117.29 314.451 117.434 314.355 117.362C313.347 116.978 312.483 116.786 311.763 116.786C311.547 116.786 311.391 116.798 311.295 116.822C311.991 117.59 312.339 118.502 312.339 119.558C312.339 120.47 312.051 121.298 311.475 122.042C310.899 122.786 310.143 123.362 309.207 123.77C308.271 124.178 307.275 124.382 306.219 124.382C305.427 124.382 304.707 124.274 304.059 124.058C303.531 124.562 303.267 125.162 303.267 125.858C303.267 126.722 303.615 127.274 304.311 127.514C305.031 127.754 306.255 127.886 307.983 127.91ZM305.679 115.67C304.383 115.67 303.735 116.642 303.735 118.586C303.735 119.594 303.891 120.494 304.203 121.286C304.539 122.078 304.959 122.69 305.463 123.122C305.991 123.554 306.531 123.77 307.083 123.77C307.707 123.77 308.223 123.506 308.631 122.978C309.039 122.426 309.243 121.598 309.243 120.494C309.243 119.486 309.063 118.622 308.703 117.902C308.367 117.158 307.923 116.606 307.371 116.246C306.843 115.862 306.279 115.67 305.679 115.67ZM307.407 138.17C308.775 138.17 309.867 137.762 310.683 136.946C311.523 136.154 311.943 135.074 311.943 133.706C311.943 132.698 311.715 131.966 311.259 131.51C310.827 131.054 310.239 130.766 309.495 130.646C308.775 130.526 307.743 130.466 306.399 130.466C305.727 130.466 305.079 130.43 304.455 130.358C303.327 131.174 302.763 132.254 302.763 133.598C302.763 135.038 303.195 136.154 304.059 136.946C304.947 137.762 306.063 138.17 307.407 138.17Z" fill="white"/>
<path d="M316.271 129.17C316.199 129.17 316.163 129.098 316.163 128.954C316.163 128.81 316.199 128.738 316.271 128.738C317.063 128.738 317.603 128.57 317.891 128.234C318.179 127.874 318.323 127.214 318.323 126.254V107.858C318.323 107.018 318.239 106.418 318.071 106.058C317.927 105.674 317.651 105.482 317.243 105.482C316.883 105.482 316.403 105.626 315.803 105.914H315.767C315.671 105.914 315.599 105.854 315.551 105.734C315.503 105.614 315.503 105.53 315.551 105.482L320.627 103.106L320.771 103.07C320.867 103.07 320.975 103.118 321.095 103.214C321.239 103.31 321.311 103.394 321.311 103.466V126.254C321.311 127.238 321.443 127.898 321.707 128.234C321.971 128.57 322.511 128.738 323.327 128.738C323.399 128.738 323.435 128.81 323.435 128.954C323.435 129.098 323.399 129.17 323.327 129.17C322.751 129.17 322.283 129.158 321.923 129.134L319.799 129.098L317.711 129.134C317.351 129.158 316.871 129.17 316.271 129.17Z" fill="white"/>
<path d="M339.334 127.226C339.43 127.226 339.49 127.286 339.514 127.406C339.538 127.502 339.502 127.574 339.406 127.622L335.698 129.386C335.602 129.434 335.494 129.458 335.374 129.458C335.014 129.458 334.666 129.254 334.33 128.846C334.018 128.414 333.814 127.85 333.718 127.154L332.062 128.306C331.486 128.714 330.958 129.002 330.478 129.17C330.022 129.338 329.506 129.422 328.93 129.422C327.946 129.422 327.19 129.194 326.662 128.738C326.158 128.258 325.906 127.634 325.906 126.866C325.906 126.218 326.074 125.69 326.41 125.282C326.77 124.874 327.214 124.55 327.742 124.31C328.294 124.046 329.098 123.722 330.154 123.338L333.646 122.042V119.882C333.646 118.394 333.49 117.314 333.178 116.642C332.89 115.946 332.422 115.598 331.774 115.598C330.982 115.598 330.406 115.898 330.046 116.498C329.71 117.074 329.506 117.722 329.434 118.442C329.29 119.666 328.678 120.278 327.598 120.278C327.07 120.278 326.674 120.158 326.41 119.918C326.17 119.678 326.05 119.378 326.05 119.018C326.05 118.346 326.446 117.698 327.238 117.074C328.054 116.426 329.026 115.91 330.154 115.526C331.306 115.118 332.314 114.914 333.178 114.914C334.21 114.914 335.026 115.238 335.626 115.886C336.25 116.534 336.562 117.506 336.562 118.802V125.282C336.562 126.026 336.682 126.59 336.922 126.974C337.162 127.358 337.51 127.55 337.966 127.55C338.326 127.55 338.758 127.442 339.262 127.226H339.334ZM333.646 126.578V122.654L331.486 123.554C330.862 123.794 330.346 124.082 329.938 124.418C329.554 124.73 329.362 125.186 329.362 125.786C329.362 126.362 329.542 126.83 329.902 127.19C330.286 127.526 330.742 127.694 331.27 127.694C331.702 127.694 332.158 127.55 332.638 127.262L333.646 126.578Z" fill="white"/>
<path d="M357.368 128.738C357.44 128.738 357.476 128.81 357.476 128.954C357.476 129.098 357.44 129.17 357.368 129.17C356.768 129.17 356.3 129.158 355.964 129.134L353.876 129.098L351.824 129.134C351.464 129.158 350.984 129.17 350.384 129.17C350.312 129.17 350.276 129.098 350.276 128.954C350.276 128.81 350.312 128.738 350.384 128.738C351.2 128.738 351.74 128.57 352.004 128.234C352.268 127.898 352.4 127.238 352.4 126.254V120.854C352.4 119.51 352.148 118.526 351.644 117.902C351.164 117.254 350.396 116.93 349.34 116.93C348.716 116.93 348.08 117.074 347.432 117.362C346.784 117.65 346.196 118.034 345.668 118.514V126.254C345.668 127.238 345.8 127.898 346.064 128.234C346.328 128.57 346.868 128.738 347.684 128.738C347.756 128.738 347.792 128.81 347.792 128.954C347.792 129.098 347.756 129.17 347.684 129.17C347.084 129.17 346.616 129.158 346.28 129.134L344.192 129.098L342.104 129.134C341.768 129.158 341.3 129.17 340.7 129.17C340.628 129.17 340.592 129.098 340.592 128.954C340.592 128.81 340.628 128.738 340.7 128.738C341.516 128.738 342.056 128.57 342.32 128.234C342.584 127.898 342.716 127.238 342.716 126.254V119.378C342.716 118.61 342.62 118.046 342.428 117.686C342.26 117.326 341.972 117.146 341.564 117.146C341.204 117.146 340.604 117.326 339.764 117.686H339.728C339.632 117.686 339.56 117.626 339.512 117.506C339.464 117.386 339.476 117.314 339.548 117.29L344.264 114.986C344.408 114.938 344.492 114.914 344.516 114.914C344.756 114.914 344.996 115.19 345.236 115.742C345.5 116.27 345.644 116.966 345.668 117.83C347.348 115.838 349.172 114.842 351.14 114.842C352.46 114.842 353.492 115.25 354.236 116.066C354.98 116.858 355.352 117.938 355.352 119.306V126.254C355.352 127.238 355.484 127.898 355.748 128.234C356.012 128.57 356.552 128.738 357.368 128.738Z" fill="white"/>
<path d="M376.031 126.938C376.103 126.938 376.163 126.998 376.211 127.118C376.283 127.238 376.283 127.31 376.211 127.334L371.603 129.566L371.387 129.602C371.147 129.602 370.919 129.362 370.703 128.882C370.511 128.402 370.403 127.754 370.379 126.938C369.515 127.754 368.627 128.414 367.715 128.918C366.803 129.398 365.807 129.638 364.727 129.638C363.695 129.638 362.747 129.362 361.883 128.81C361.019 128.234 360.335 127.418 359.831 126.362C359.327 125.306 359.075 124.07 359.075 122.654C359.075 120.878 359.495 119.402 360.335 118.226C361.175 117.05 362.231 116.186 363.503 115.634C364.775 115.082 366.047 114.806 367.319 114.806C368.375 114.806 369.383 114.998 370.343 115.382V107.858C370.343 107.018 370.259 106.418 370.091 106.058C369.947 105.674 369.671 105.482 369.263 105.482C368.999 105.482 368.519 105.626 367.823 105.914H367.751C367.655 105.914 367.583 105.854 367.535 105.734C367.487 105.614 367.487 105.542 367.535 105.518L372.611 103.106L372.755 103.07C372.851 103.07 372.959 103.118 373.079 103.214C373.199 103.31 373.259 103.394 373.259 103.466V125.066C373.259 125.906 373.343 126.506 373.511 126.866C373.679 127.202 373.967 127.37 374.375 127.37C374.855 127.37 375.395 127.226 375.995 126.938H376.031ZM366.527 128.054C367.223 128.054 367.871 127.898 368.471 127.586C369.095 127.274 369.719 126.83 370.343 126.254V117.65C369.863 116.978 369.323 116.486 368.723 116.174C368.147 115.838 367.451 115.67 366.635 115.67C365.267 115.67 364.199 116.15 363.431 117.11C362.687 118.07 362.315 119.546 362.315 121.538C362.315 123.554 362.711 125.15 363.503 126.326C364.295 127.478 365.303 128.054 366.527 128.054Z" fill="white"/>
<path d="M390.276 114.34C390.276 113.265 390.172 112.485 389.964 112C389.791 111.515 389.427 111.185 388.872 111.012C388.317 110.839 387.399 110.752 386.116 110.752C386.047 110.752 386.012 110.648 386.012 110.44C386.012 110.232 386.047 110.128 386.116 110.128C387.225 110.128 388.092 110.145 388.716 110.18L392.408 110.232L396.048 110.18C396.707 110.145 397.591 110.128 398.7 110.128C398.804 110.128 398.856 110.232 398.856 110.44C398.856 110.648 398.804 110.752 398.7 110.752C397.487 110.752 396.585 110.839 395.996 111.012C395.441 111.185 395.06 111.532 394.852 112.052C394.644 112.537 394.54 113.3 394.54 114.34V125.988C394.54 127.063 394.627 127.843 394.8 128.328C395.008 128.813 395.389 129.143 395.944 129.316C396.499 129.489 397.417 129.576 398.7 129.576C398.804 129.576 398.856 129.68 398.856 129.888C398.856 130.096 398.804 130.2 398.7 130.2C397.591 130.2 396.724 130.183 396.1 130.148L392.408 130.096L388.768 130.148C388.109 130.183 387.225 130.2 386.116 130.2C386.047 130.2 386.012 130.096 386.012 129.888C386.012 129.68 386.047 129.576 386.116 129.576C387.329 129.576 388.213 129.489 388.768 129.316C389.357 129.143 389.756 128.813 389.964 128.328C390.172 127.808 390.276 127.028 390.276 125.988V114.34Z" fill="white"/>
<path d="M409.466 141.328C409.258 141.917 408.894 142.333 408.374 142.576L404.682 144.5H404.63C404.526 144.5 404.439 144.448 404.37 144.344C404.3 144.275 404.283 144.205 404.318 144.136L417.942 114.392C418.08 114.149 418.011 114.028 417.734 114.028C412.742 114.028 409.275 114.097 407.334 114.236C405.392 114.375 404.092 114.669 403.434 115.12C402.81 115.571 402.324 116.385 401.978 117.564C401.908 117.633 401.822 117.668 401.718 117.668C401.614 117.668 401.51 117.651 401.406 117.616C401.336 117.547 401.319 117.477 401.354 117.408L403.538 108.724C403.572 108.655 403.694 108.637 403.902 108.672C404.11 108.672 404.196 108.707 404.162 108.776C404.127 108.915 404.11 109.088 404.11 109.296C404.11 109.643 404.266 109.868 404.578 109.972C404.924 110.076 405.6 110.128 406.606 110.128H420.386C420.524 110.128 420.646 110.215 420.75 110.388C420.888 110.527 420.923 110.665 420.854 110.804L409.466 141.328Z" fill="white"/>
<path d="M426.819 120.008C431.637 120.043 435.173 120.927 437.427 122.66C439.715 124.393 440.859 126.751 440.859 129.732C440.859 131.708 440.339 133.493 439.299 135.088C438.293 136.717 436.699 138.277 434.515 139.768C432.331 141.293 429.436 142.871 425.831 144.5H425.779C425.64 144.5 425.519 144.413 425.415 144.24C425.345 144.101 425.38 143.997 425.519 143.928C429.436 141.813 432.175 139.681 433.735 137.532C435.329 135.383 436.127 133.077 436.127 130.616C436.127 127.739 435.243 125.503 433.475 123.908C431.707 122.313 429.159 121.516 425.831 121.516C425.657 121.516 425.519 121.464 425.415 121.36C425.311 121.221 425.276 121.065 425.311 120.892L426.975 111.636C427.009 111.393 427.061 111.255 427.131 111.22C427.2 111.151 427.373 111.099 427.651 111.064C432.019 110.544 434.948 110.18 436.439 109.972C437.929 109.764 438.883 109.556 439.299 109.348C439.749 109.105 440.061 108.724 440.235 108.204C440.269 108.1 440.373 108.065 440.547 108.1C440.755 108.1 440.841 108.169 440.807 108.308L439.767 113.404C439.663 113.82 439.507 114.08 439.299 114.184C439.125 114.288 438.796 114.34 438.311 114.34L428.431 114.548C427.98 114.548 427.72 114.808 427.651 115.328L426.819 120.008Z" fill="white"/>
<path d="M451.788 124.688C450.124 124.688 448.755 124.341 447.68 123.648C446.605 122.92 445.808 122.019 445.288 120.944C444.803 119.835 444.56 118.708 444.56 117.564C444.56 116.004 444.959 114.617 445.756 113.404C446.588 112.156 447.732 111.185 449.188 110.492C450.679 109.799 452.36 109.452 454.232 109.452C457.595 109.452 460.247 110.527 462.188 112.676C464.164 114.825 465.152 117.72 465.152 121.36C465.152 124.515 464.407 127.635 462.916 130.72C461.425 133.84 459.259 136.613 456.416 139.04C453.608 141.501 450.28 143.321 446.432 144.5C446.328 144.535 446.224 144.465 446.12 144.292C446.051 144.119 446.085 143.997 446.224 143.928C449.275 142.576 451.875 140.704 454.024 138.312C456.173 135.955 457.785 133.372 458.86 130.564C459.935 127.756 460.472 125.017 460.472 122.348C460.472 120.545 460.229 118.743 459.744 116.94C459.293 115.103 458.531 113.577 457.456 112.364C456.416 111.116 455.081 110.492 453.452 110.492C452.031 110.492 450.956 111.012 450.228 112.052C449.535 113.092 449.188 114.531 449.188 116.368C449.188 118.344 449.587 119.921 450.384 121.1C451.216 122.279 452.412 122.868 453.972 122.868C454.7 122.868 455.359 122.747 455.948 122.504C456.572 122.227 457.265 121.776 458.028 121.152C458.063 121.117 458.115 121.1 458.184 121.1C458.288 121.1 458.375 121.152 458.444 121.256C458.548 121.36 458.583 121.447 458.548 121.516C456.919 123.631 454.665 124.688 451.788 124.688Z" fill="white"/>
</svg>
