<svg width="67" height="68" viewBox="0 0 67 68" fill="none" xmlns="http://www.w3.org/2000/svg">
<path d="M20.323 10.8508L20.4356 10.7623L20.5392 10.6636C27.3044 4.21575 35.7541 2.40587 43.4314 3.70404C51.1943 5.01668 57.9088 9.45883 61.1789 15.1706C64.391 20.781 64.4621 28.4708 61.5024 35.956C58.5594 43.3993 52.7495 50.2577 44.8311 54.0697C36.53 58.0659 25.5509 60.8081 16.4913 62.553C11.9921 63.4195 8.02492 64.0293 5.18466 64.4222C4.70512 64.4885 4.25794 64.5487 3.84599 64.6027C3.82441 63.593 3.81224 62.3689 3.82436 60.9704C3.86101 56.7448 4.11934 50.9578 5.00084 44.6947C6.79461 31.95 11.0492 18.1386 20.323 10.8508Z" stroke="white" stroke-width="6"/>
</svg>
