<svg width="66" height="68" viewBox="0 0 66 68" fill="none" xmlns="http://www.w3.org/2000/svg">
<path d="M46.3391 10.8508L46.2266 10.7623L46.123 10.6636C39.3577 4.21575 30.908 2.40587 23.2307 3.70404C15.4678 5.01668 8.75334 9.45883 5.48318 15.1706C2.27109 20.781 2.20004 28.4708 5.15968 35.956C8.10273 43.3993 13.9126 50.2577 21.831 54.0697C30.1322 58.0659 41.1112 60.8081 50.1708 62.553C54.67 63.4195 58.6372 64.0293 61.4774 64.4222C61.957 64.4885 62.4042 64.5487 62.8161 64.6027C62.8377 63.593 62.8499 62.3689 62.8377 60.9704C62.8011 56.7448 62.5428 50.9578 61.6613 44.6947C59.8675 31.95 55.6129 18.1386 46.3391 10.8508Z" stroke="white" stroke-width="6"/>
</svg>
