<svg width="172" height="79" viewBox="0 0 172 79" fill="none" xmlns="http://www.w3.org/2000/svg">
<path d="M9.328 13.8861C9.328 11.5715 9.14133 9.89147 8.768 8.84614C8.39467 7.80081 7.61067 7.09147 6.416 6.71814C5.22133 6.34481 3.31733 6.15814 0.704 6.15814C0.554667 6.15814 0.48 5.93414 0.48 5.48614C0.48 5.03814 0.554667 4.81414 0.704 4.81414C3.168 4.81414 5.072 4.85147 6.416 4.92614L14.592 5.03814L22.656 4.92614C24.0747 4.85147 26.016 4.81414 28.48 4.81414C28.704 4.81414 28.816 5.03814 28.816 5.48614C28.816 5.93414 28.704 6.15814 28.48 6.15814C26.016 6.15814 24.1867 6.38214 22.992 6.83014C21.7973 7.20347 20.976 7.91281 20.528 8.95814C20.08 10.0035 19.856 11.6461 19.856 13.8861V38.9741C19.856 41.2888 20.0427 42.9688 20.416 44.0141C20.7893 45.0595 21.5733 45.7688 22.768 46.1421C23.9627 46.5155 25.8667 46.7021 28.48 46.7021C28.704 46.7021 28.816 46.9261 28.816 47.3741C28.816 47.8221 28.704 48.0461 28.48 48.0461C26.016 48.0461 24.112 48.0088 22.768 47.9341L14.592 47.8221L6.528 47.9341C5.10933 48.0088 3.168 48.0461 0.704 48.0461C0.554667 48.0461 0.48 47.8221 0.48 47.3741C0.48 46.9261 0.554667 46.7021 0.704 46.7021C3.168 46.7021 4.99733 46.5155 6.192 46.1421C7.38667 45.6941 8.208 44.9475 8.656 43.9021C9.104 42.8568 9.328 41.2141 9.328 38.9741V13.8861ZM51.8915 71.7901C51.3688 73.1341 50.5848 74.0301 49.5395 74.4781L40.3555 78.8461H40.2435C40.0195 78.8461 39.8328 78.7341 39.6835 78.5101C39.5342 78.3608 39.4968 78.2115 39.5715 78.0621L68.6915 15.4541C68.9902 14.9315 68.8408 14.6701 68.2435 14.6701C57.6408 14.6701 50.2862 14.8195 46.1795 15.1181C42.0728 15.4168 39.3102 16.0515 37.8915 17.0221C36.5475 17.9928 35.5395 19.7475 34.8675 22.2861C34.7182 22.4355 34.5315 22.5101 34.3075 22.5101C34.0835 22.5101 33.8595 22.4728 33.6355 22.3981C33.4862 22.2488 33.4488 22.0995 33.5235 21.9501L38.5635 1.79014C38.6382 1.64081 38.8995 1.60347 39.3475 1.67814C39.7955 1.67814 39.9822 1.75281 39.9075 1.90214C39.8328 2.20081 39.7955 2.57414 39.7955 3.02214C39.7955 3.76881 40.1315 4.25414 40.8035 4.47814C41.5502 4.70214 43.0062 4.81414 45.1715 4.81414H74.8515C75.1502 4.81414 75.4115 5.00081 75.6355 5.37414C75.9342 5.67281 76.0088 5.97147 75.8595 6.27014L51.8915 71.7901ZM88.9311 26.0941C99.3845 26.2435 107.038 28.1848 111.891 31.9181C116.819 35.5768 119.283 40.6168 119.283 47.0381C119.283 51.2941 118.163 55.1395 115.923 58.5741C113.683 62.0835 110.174 65.4435 105.395 68.6541C100.691 71.9395 94.4191 75.3368 86.5791 78.8461H86.4671C86.1685 78.8461 85.9071 78.6595 85.6831 78.2861C85.5338 77.9875 85.6085 77.7635 85.9071 77.6141C93.9711 73.0595 99.6085 68.4675 102.819 63.8381C106.104 59.2088 107.747 54.2435 107.747 48.9421C107.747 42.7448 105.918 37.9288 102.259 34.4941C98.6005 31.0595 93.3738 29.3421 86.5791 29.3421C86.2058 29.3421 85.9071 29.2301 85.6831 29.0061C85.4591 28.7075 85.3845 28.3715 85.4591 27.9981L89.0431 8.06214C89.1178 7.53947 89.2298 7.24081 89.3791 7.16614C89.5285 7.01681 89.9018 6.90481 90.4991 6.83014C99.9071 5.71014 106.216 4.92614 109.427 4.47814C112.638 4.03014 114.691 3.58214 115.587 3.13414C116.558 2.61147 117.23 1.79014 117.603 0.670142C117.678 0.44614 117.902 0.371473 118.275 0.446141C118.723 0.446141 118.91 0.595474 118.835 0.894139L116.595 13.3261C116.371 14.1475 116.035 14.7075 115.587 15.0061C115.139 15.2301 114.43 15.3421 113.459 15.3421L92.1791 15.7901C91.2085 15.7901 90.6485 16.3128 90.4991 17.3581L88.9311 26.0941ZM142.039 36.3981C138.53 36.3981 135.581 35.6141 133.191 34.0461C130.877 32.4781 129.197 30.5368 128.151 28.2221C127.106 25.8328 126.583 23.3688 126.583 20.8301C126.583 15.6781 128.525 11.4968 132.407 8.28614C136.29 5.00081 141.367 3.35814 147.639 3.35814C155.031 3.35814 160.855 5.63547 165.111 10.1901C169.442 14.7448 171.607 20.9421 171.607 28.7821C171.607 35.5021 169.965 42.2221 166.679 48.9421C163.469 55.6621 158.802 61.6728 152.679 66.9741C146.557 72.3501 139.314 76.3075 130.951 78.8461C130.727 78.9208 130.503 78.7715 130.279 78.3981C130.13 78.0248 130.205 77.7635 130.503 77.6141C136.85 74.7021 142.263 70.6328 146.743 65.4061C151.223 60.2541 154.583 54.6168 156.823 48.4941C159.063 42.4461 160.183 36.5475 160.183 30.7981C160.183 26.9901 159.698 23.1821 158.727 19.3741C157.831 15.4915 156.301 12.2435 154.135 9.63014C152.045 7.01681 149.357 5.71014 146.071 5.71014C140.621 5.71014 137.895 9.81681 137.895 18.0301C137.895 22.3608 138.679 25.7955 140.247 28.3341C141.815 30.7981 144.167 32.0301 147.303 32.0301C148.647 32.0301 149.917 31.7688 151.111 31.2461C152.381 30.7235 153.762 29.8275 155.255 28.5581C155.33 28.4835 155.442 28.4461 155.591 28.4461C155.815 28.4461 156.002 28.5581 156.151 28.7821C156.375 29.0061 156.45 29.1928 156.375 29.3421C154.658 31.6568 152.567 33.4115 150.103 34.6061C147.639 35.8008 144.951 36.3981 142.039 36.3981Z" fill="#6B99CF"/>
</svg>
