<svg width="256" height="81" viewBox="0 0 256 81" fill="none" xmlns="http://www.w3.org/2000/svg">
<path d="M36.68 45.28C36.68 45.1733 36.7867 45.12 37 45.12C37.16 45.12 37.2933 45.1733 37.4 45.28C37.56 45.3333 37.64 45.3867 37.64 45.44C37.1067 49.6 36.84 53.3867 36.84 56.8C36.84 57.2267 36.76 57.5467 36.6 57.76C36.44 57.92 36.12 58 35.64 58H0.28C0.12 58 0.0400002 57.84 0.0400002 57.52C0.0400002 57.2 0.12 57.04 0.28 57.04C1.98667 57.04 3.21333 56.9067 3.96 56.64C4.76 56.3733 5.29333 55.8667 5.56 55.12C5.82667 54.32 5.96 53.12 5.96 51.52V14.48C5.96 12.88 5.82667 11.7067 5.56 10.96C5.29333 10.2133 4.76 9.70666 3.96 9.44C3.16 9.12 1.93333 8.96 0.28 8.96C0.12 8.96 0.0400002 8.8 0.0400002 8.48C0.0400002 8.16 0.12 8 0.28 8H34.2C34.7333 8 35 8.24 35 8.72L35.16 19.36C35.16 19.4667 35 19.5467 34.68 19.6C34.4133 19.6533 34.2533 19.6 34.2 19.44C33.3467 16.3467 31.9067 14.0533 29.88 12.56C27.8533 11.0667 25.1867 10.32 21.88 10.32H19.48C17.88 10.32 16.7067 10.6667 15.96 11.36C15.2133 12.0533 14.84 13.12 14.84 14.56V30.88H21.48C24.5733 30.88 26.9467 30.3467 28.6 29.28C30.2533 28.2133 31.08 26.72 31.08 24.8C31.08 24.64 31.2133 24.56 31.48 24.56C31.8 24.56 31.96 24.64 31.96 24.8L31.88 32L31.96 35.84C32.0667 37.6533 32.12 39.0933 32.12 40.16C32.12 40.2667 31.96 40.32 31.64 40.32C31.32 40.32 31.16 40.2667 31.16 40.16C31.16 37.9733 30.3067 36.2667 28.6 35.04C26.9467 33.76 24.5467 33.12 21.4 33.12H14.84V51.2C14.84 52.7467 15.1333 53.8933 15.72 54.64C16.3067 55.3867 17.24 55.76 18.52 55.76H21.16C25.32 55.76 28.6533 54.9067 31.16 53.2C33.6667 51.4933 35.5067 48.8533 36.68 45.28ZM81.4606 57.04C81.6206 57.04 81.7006 57.2 81.7006 57.52C81.7006 57.84 81.6206 58 81.4606 58C80.074 58 78.9806 57.9733 78.1806 57.92L73.3806 57.84L68.7406 57.92C67.8873 57.9733 66.7673 58 65.3806 58C65.2206 58 65.1406 57.84 65.1406 57.52C65.1406 57.2 65.2206 57.04 65.3806 57.04C67.034 57.04 68.154 56.6667 68.7406 55.92C69.3273 55.12 69.6206 53.6533 69.6206 51.52V40C69.6206 37.12 69.0873 34.9867 68.0206 33.6C67.0073 32.2133 65.3806 31.52 63.1406 31.52C61.8606 31.52 60.5273 31.7867 59.1406 32.32C57.8073 32.8533 56.634 33.5733 55.6206 34.48V51.52C55.6206 53.6533 55.914 55.12 56.5006 55.92C57.1406 56.6667 58.2873 57.04 59.9406 57.04C60.1006 57.04 60.1806 57.2 60.1806 57.52C60.1806 57.84 60.1006 58 59.9406 58C58.554 58 57.4606 57.9733 56.6606 57.92L51.8606 57.84L47.1406 57.92C46.3406 57.9733 45.2473 58 43.8606 58C43.7006 58 43.6206 57.84 43.6206 57.52C43.6206 57.2 43.7006 57.04 43.8606 57.04C45.514 57.04 46.634 56.6667 47.2206 55.92C47.8073 55.12 48.1006 53.6533 48.1006 51.52V36.48C48.1006 34.8267 47.8873 33.6267 47.4606 32.88C47.0873 32.08 46.474 31.68 45.6206 31.68C44.714 31.68 43.434 32.0533 41.7806 32.8H41.6206C41.4606 32.8 41.3273 32.6667 41.2206 32.4C41.1673 32.1333 41.194 31.9733 41.3006 31.92L52.4206 26.48C52.7406 26.3733 52.9273 26.32 52.9806 26.32C53.5673 26.32 54.1273 26.9067 54.6606 28.08C55.194 29.2 55.514 30.7467 55.6206 32.72C59.3006 28.3467 63.354 26.16 67.7806 26.16C70.6606 26.16 72.9273 27.0933 74.5806 28.96C76.2873 30.7733 77.1406 33.1733 77.1406 36.16V51.52C77.1406 53.6533 77.434 55.12 78.0206 55.92C78.6606 56.6667 79.8073 57.04 81.4606 57.04ZM102.45 54.72C105.597 54.7733 108.157 54.96 110.13 55.28C112.157 55.6 113.837 56.4 115.17 57.68C116.557 58.9067 117.25 60.8 117.25 63.36C117.25 66.3467 116.317 69.1467 114.45 71.76C112.637 74.4267 110.157 76.56 107.01 78.16C103.917 79.76 100.583 80.56 97.01 80.56C93.33 80.56 90.3167 79.7067 87.97 78C85.6233 76.3467 84.45 74.16 84.45 71.44C84.45 67.7067 87.1433 64.08 92.53 60.56C88.69 59.8133 86.77 57.8933 86.77 54.8C86.77 51.4933 88.6367 48.5867 92.37 46.08C90.3433 45.12 88.7433 43.7867 87.57 42.08C86.45 40.32 85.89 38.48 85.89 36.56C85.89 34.4267 86.5833 32.6133 87.97 31.12C89.3567 29.6267 91.1167 28.5067 93.25 27.76C95.4367 26.96 97.65 26.56 99.89 26.56C103.25 26.56 106.13 27.4133 108.53 29.12C111.303 27.2533 114.183 26.32 117.17 26.32C117.597 26.32 117.81 27.0667 117.81 28.56C117.81 29.36 117.703 30.2133 117.49 31.12C117.277 31.9733 117.063 32.32 116.85 32.16C114.663 31.2533 112.69 30.8 110.93 30.8H110.29C111.73 32.5067 112.45 34.4267 112.45 36.56C112.45 38.6933 111.757 40.5867 110.37 42.24C108.983 43.8933 107.197 45.1733 105.01 46.08C102.877 46.9333 100.663 47.36 98.37 47.36C96.7167 47.36 95.1967 47.12 93.81 46.64C92.9567 47.5467 92.53 48.6933 92.53 50.08C92.53 51.52 92.9033 52.56 93.65 53.2C94.45 53.84 95.49 54.24 96.77 54.4C98.05 54.56 99.9433 54.6667 102.45 54.72ZM97.25 28.08C94.85 28.08 93.65 30.1067 93.65 34.16C93.65 36.4 93.97 38.4267 94.61 40.24C95.25 42 96.0767 43.3867 97.09 44.4C98.1567 45.4133 99.2767 45.92 100.45 45.92C101.623 45.92 102.61 45.3333 103.41 44.16C104.21 42.9867 104.61 41.2 104.61 38.8C104.61 36.5067 104.237 34.56 103.49 32.96C102.743 31.3067 101.783 30.08 100.61 29.28C99.49 28.48 98.37 28.08 97.25 28.08ZM101.81 78C104.53 78 106.69 77.1467 108.29 75.44C109.89 73.7333 110.69 71.4133 110.69 68.48C110.69 66.1867 110.183 64.5067 109.17 63.44C108.21 62.4267 106.93 61.7867 105.33 61.52C103.783 61.3067 101.517 61.1733 98.53 61.12C98.05 61.12 97.3833 61.0933 96.53 61.04C95.6767 60.9867 94.9567 60.9333 94.37 60.88C92.5567 62.2133 91.65 64.3467 91.65 67.28C91.65 70.6933 92.6367 73.3333 94.61 75.2C96.6367 77.0667 99.0367 78 101.81 78ZM120.944 58C120.837 58 120.784 57.84 120.784 57.52C120.784 57.2 120.837 57.04 120.944 57.04C122.597 57.04 123.717 56.6667 124.304 55.92C124.944 55.12 125.264 53.6533 125.264 51.52L125.344 10.88C125.344 9.01333 125.157 7.68 124.784 6.88C124.464 6.08 123.877 5.68 123.024 5.68C122.33 5.68 121.317 5.97333 119.984 6.56H119.904C119.744 6.56 119.584 6.42667 119.424 6.16C119.317 5.84 119.317 5.65333 119.424 5.6L131.184 0.0799971L131.504 -1.90735e-06C131.77 -1.90735e-06 132.064 0.133331 132.384 0.399998C132.704 0.613331 132.864 0.826665 132.864 1.04V51.52C132.864 53.6533 133.157 55.12 133.744 55.92C134.33 56.6667 135.45 57.04 137.104 57.04C137.317 57.04 137.424 57.2 137.424 57.52C137.424 57.84 137.317 58 137.104 58C135.77 58 134.704 57.9733 133.904 57.92L129.024 57.84L124.224 57.92C123.424 57.9733 122.33 58 120.944 58ZM172.67 53.68C172.883 53.68 173.017 53.8133 173.07 54.08C173.177 54.2933 173.123 54.4533 172.91 54.56L164.67 58.48C164.457 58.5867 164.19 58.64 163.87 58.64C163.017 58.64 162.19 58.1867 161.39 57.28C160.643 56.3733 160.11 55.1467 159.79 53.6L156.35 56C155.123 56.9067 153.977 57.5733 152.91 58C151.843 58.3733 150.643 58.56 149.31 58.56C147.017 58.56 145.283 58.0533 144.11 57.04C142.937 56.0267 142.35 54.6133 142.35 52.8C142.35 51.36 142.697 50.2133 143.39 49.36C144.083 48.4533 144.937 47.76 145.95 47.28C147.017 46.7467 148.483 46.16 150.35 45.52L152.35 44.8L159.55 42.16V37.6C159.55 34.1867 159.257 31.7067 158.67 30.16C158.137 28.6133 157.203 27.84 155.87 27.84C153.043 27.84 151.443 30.0267 151.07 34.4C150.91 36 150.43 37.1467 149.63 37.84C148.883 38.5333 147.817 38.88 146.43 38.88C145.097 38.88 144.11 38.6133 143.47 38.08C142.883 37.4933 142.59 36.7467 142.59 35.84C142.59 34.24 143.523 32.72 145.39 31.28C147.257 29.7867 149.497 28.5867 152.11 27.68C154.777 26.7733 157.123 26.32 159.15 26.32C161.497 26.32 163.39 27.0667 164.83 28.56C166.323 30 167.07 32.2133 167.07 35.2V49.36C167.07 50.9067 167.337 52.1067 167.87 52.96C168.457 53.8133 169.257 54.24 170.27 54.24C171.017 54.24 171.79 54.0533 172.59 53.68H172.67ZM159.63 52.24C159.577 52.0267 159.55 51.68 159.55 51.2V43.52L156.11 45.12C155.95 45.1733 155.417 45.3867 154.51 45.76C153.603 46.08 152.803 46.64 152.11 47.44C151.47 48.24 151.15 49.1733 151.15 50.24C151.15 51.52 151.55 52.5333 152.35 53.28C153.203 53.9733 154.163 54.32 155.23 54.32C156.083 54.32 156.963 54.0267 157.87 53.44L159.63 52.24ZM213.142 57.04C213.302 57.04 213.382 57.2 213.382 57.52C213.382 57.84 213.302 58 213.142 58C211.755 58 210.662 57.9733 209.862 57.92L205.062 57.84L200.422 57.92C199.569 57.9733 198.449 58 197.062 58C196.902 58 196.822 57.84 196.822 57.52C196.822 57.2 196.902 57.04 197.062 57.04C198.715 57.04 199.835 56.6667 200.422 55.92C201.009 55.12 201.302 53.6533 201.302 51.52V40C201.302 37.12 200.769 34.9867 199.702 33.6C198.689 32.2133 197.062 31.52 194.822 31.52C193.542 31.52 192.209 31.7867 190.822 32.32C189.489 32.8533 188.315 33.5733 187.302 34.48V51.52C187.302 53.6533 187.595 55.12 188.182 55.92C188.822 56.6667 189.969 57.04 191.622 57.04C191.782 57.04 191.862 57.2 191.862 57.52C191.862 57.84 191.782 58 191.622 58C190.235 58 189.142 57.9733 188.342 57.92L183.542 57.84L178.822 57.92C178.022 57.9733 176.929 58 175.542 58C175.382 58 175.302 57.84 175.302 57.52C175.302 57.2 175.382 57.04 175.542 57.04C177.195 57.04 178.315 56.6667 178.902 55.92C179.489 55.12 179.782 53.6533 179.782 51.52V36.48C179.782 34.8267 179.569 33.6267 179.142 32.88C178.769 32.08 178.155 31.68 177.302 31.68C176.395 31.68 175.115 32.0533 173.462 32.8H173.302C173.142 32.8 173.009 32.6667 172.902 32.4C172.849 32.1333 172.875 31.9733 172.982 31.92L184.102 26.48C184.422 26.3733 184.609 26.32 184.662 26.32C185.249 26.32 185.809 26.9067 186.342 28.08C186.875 29.2 187.195 30.7467 187.302 32.72C190.982 28.3467 195.035 26.16 199.462 26.16C202.342 26.16 204.609 27.0933 206.262 28.96C207.969 30.7733 208.822 33.1733 208.822 36.16V51.52C208.822 53.6533 209.115 55.12 209.702 55.92C210.342 56.6667 211.489 57.04 213.142 57.04ZM254.371 52.8C254.531 52.8 254.665 52.9333 254.771 53.2C254.931 53.4667 254.958 53.6267 254.851 53.68L243.811 59.04L243.411 59.12C242.931 59.12 242.478 58.6133 242.051 57.6C241.678 56.5867 241.438 55.2 241.331 53.44C237.385 57.1733 233.358 59.04 229.251 59.04C226.905 59.04 224.771 58.4267 222.851 57.2C220.985 55.9733 219.491 54.1867 218.371 51.84C217.251 49.44 216.691 46.64 216.691 43.44C216.691 39.3867 217.625 36.08 219.491 33.52C221.411 30.9067 223.758 29.0133 226.531 27.84C229.358 26.6667 232.185 26.08 235.011 26.08C236.985 26.08 239.065 26.4 241.251 27.04V10.88C241.251 9.01333 241.065 7.68 240.691 6.88C240.371 6.08 239.785 5.68 238.931 5.68C238.238 5.68 237.251 5.97333 235.971 6.56H235.891C235.678 6.56 235.491 6.42667 235.331 6.16C235.225 5.84 235.225 5.65333 235.331 5.6L247.091 0.0799971L247.411 -1.90735e-06C247.678 -1.90735e-06 247.971 0.133331 248.291 0.399998C248.611 0.613331 248.771 0.826665 248.771 1.04V48.72C248.771 50.5333 248.931 51.8133 249.251 52.56C249.625 53.3067 250.211 53.68 251.011 53.68C251.705 53.68 252.798 53.3867 254.291 52.8H254.371ZM233.651 55.2C236.318 55.2 238.851 54.08 241.251 51.84V51.44V32C240.291 30.6667 239.198 29.7067 237.971 29.12C236.798 28.48 235.411 28.16 233.811 28.16C230.931 28.16 228.718 29.1733 227.171 31.2C225.678 33.1733 224.931 36.4 224.931 40.88C224.931 45.36 225.731 48.88 227.331 51.44C228.931 53.9467 231.038 55.2 233.651 55.2Z" fill="#6B99CF"/>
</svg>
