<svg width="220" height="87" viewBox="0 0 220 87" fill="none" xmlns="http://www.w3.org/2000/svg">
<path d="M1.94 16.16C3.16667 15.4667 4.29333 14.6733 5.32 13.78C6.34667 12.8733 7.16 11.94 7.76 10.98C8.37333 10.02 8.68 9.11333 8.68 8.26C8.68 7.52667 8.46 6.94667 8.02 6.52C7.58 6.08 6.95333 5.86 6.14 5.86C5.38 5.86 4.72667 6.01333 4.18 6.32C3.63333 6.61333 3.12667 6.98 2.66 7.42L2.02 6.52C2.48667 5.97333 3.15333 5.48 4.02 5.04C4.88667 4.58667 5.81333 4.36 6.8 4.36C7.73333 4.36 8.52 4.53333 9.16 4.88C9.8 5.21333 10.2733 5.65333 10.58 6.2C10.8867 6.74667 11.04 7.34667 11.04 8C11.04 9.32 10.4067 10.68 9.14 12.08C7.87333 13.4667 6.28667 14.7133 4.38 15.82L10.58 15.36L11.28 13.64L12.3 13.84L11.78 17H2.24L1.94 16.16ZM19.6531 17.22C18.5731 17.22 17.6398 16.9533 16.8531 16.42C16.0798 15.8733 15.4865 15.14 15.0731 14.22C14.6731 13.2867 14.4731 12.2533 14.4731 11.12C14.4731 9.44 14.8798 7.89333 15.6931 6.48C16.5065 5.05333 17.5465 3.88667 18.8131 2.98C20.0931 2.06 21.3998 1.49333 22.7331 1.28L23.1931 2.14C21.6331 2.63333 20.3198 3.46 19.2531 4.62C18.1865 5.76667 17.4598 7.07333 17.0731 8.54C17.4065 8.15333 17.8665 7.82667 18.4531 7.56C19.0398 7.28 19.7198 7.14 20.4931 7.14C21.8798 7.14 22.9398 7.54667 23.6731 8.36C24.4198 9.17333 24.7931 10.3 24.7931 11.74C24.7931 12.7133 24.5865 13.62 24.1731 14.46C23.7731 15.2867 23.1798 15.9533 22.3931 16.46C21.6198 16.9667 20.7065 17.22 19.6531 17.22ZM19.8931 8.38C19.1731 8.38 18.5331 8.54667 17.9731 8.88C17.4131 9.2 17.0265 9.54667 16.8131 9.92C16.7865 10.24 16.7731 10.5 16.7731 10.7C16.7331 12.3133 16.9465 13.6333 17.4131 14.66C17.8798 15.6867 18.6665 16.2 19.7731 16.2C20.3865 16.2 20.9065 16.0133 21.3331 15.64C21.7598 15.2533 22.0731 14.7533 22.2731 14.14C22.4865 13.5267 22.5931 12.88 22.5931 12.2C22.5931 10.88 22.3465 9.91333 21.8531 9.3C21.3731 8.68667 20.7198 8.38 19.8931 8.38ZM32.5744 17.18C30.8677 17.18 29.5877 16.5933 28.7344 15.42C27.8944 14.2333 27.4744 12.7067 27.4744 10.84C27.4744 9.53333 27.7144 8.39333 28.1944 7.42C28.6744 6.43333 29.3277 5.68 30.1544 5.16C30.981 4.64 31.8877 4.38 32.8744 4.38C34.6077 4.38 35.8744 4.94 36.6744 6.06C37.4744 7.16667 37.8744 8.68667 37.8744 10.62C37.8744 11.9133 37.641 13.06 37.1744 14.06C36.721 15.0467 36.0877 15.8133 35.2744 16.36C34.4744 16.9067 33.5744 17.18 32.5744 17.18ZM32.6544 16.16C34.641 16.16 35.6344 14.38 35.6344 10.82C35.6344 9.08667 35.4077 7.75333 34.9544 6.82C34.5144 5.88667 33.7677 5.42 32.7144 5.42C31.6877 5.42 30.9277 5.86667 30.4344 6.76C29.941 7.64 29.6944 8.90667 29.6944 10.56C29.6944 12.2533 29.9277 13.6133 30.3944 14.64C30.8744 15.6533 31.6277 16.16 32.6544 16.16ZM49.292 11.22L44.792 3.4L43.592 3.14V2.14H48.812V3.14L47.232 3.38L50.052 8.74L50.692 10.26L51.412 8.74L54.072 3.38L52.432 3.14V2.14H56.992V3.14L55.692 3.38L51.512 11.2V15.8L53.752 16.02V17H47.112V16.02L49.292 15.82V11.22ZM62.5231 17.22C60.9098 17.22 59.6765 16.6933 58.8231 15.64C57.9831 14.5867 57.5631 13.18 57.5631 11.42C57.5631 10.26 57.7831 9.24 58.2231 8.36C58.6631 7.48 59.2765 6.8 60.0631 6.32C60.8631 5.84 61.7698 5.6 62.7831 5.6C64.0231 5.6 64.9831 5.94667 65.6631 6.64C66.3565 7.32 66.7231 8.3 66.7631 9.58C66.7631 10.3933 66.7165 11.0133 66.6231 11.44H59.7431C59.7698 12.76 60.0765 13.8267 60.6631 14.64C61.2498 15.44 62.0831 15.84 63.1631 15.84C63.6965 15.84 64.2498 15.7467 64.8231 15.56C65.4098 15.36 65.8631 15.1267 66.1831 14.86L66.5631 15.74C66.1765 16.14 65.6031 16.4867 64.8431 16.78C64.0831 17.0733 63.3098 17.22 62.5231 17.22ZM64.5631 10.38C64.6031 10.1 64.6231 9.81333 64.6231 9.52C64.6098 8.65333 64.4231 7.97333 64.0631 7.48C63.7165 6.97333 63.1631 6.72 62.4031 6.72C61.6298 6.72 61.0098 7 60.5431 7.56C60.0898 8.12 59.8298 9.06 59.7631 10.38H64.5631ZM68.482 14C68.482 12.7467 69.1087 11.8267 70.362 11.24C71.6154 10.64 73.202 10.32 75.122 10.28V9.72C75.122 9.09333 75.0554 8.6 74.922 8.24C74.7887 7.88 74.5554 7.62 74.222 7.46C73.902 7.28667 73.442 7.2 72.842 7.2C72.162 7.2 71.5487 7.3 71.002 7.5C70.4687 7.68667 69.9354 7.92 69.402 8.2L68.902 7.16C69.0754 7.01333 69.3954 6.82 69.862 6.58C70.3287 6.34 70.8687 6.12667 71.482 5.94C72.0954 5.75333 72.7087 5.66 73.322 5.66C74.2687 5.66 75.0154 5.79333 75.562 6.06C76.122 6.31333 76.522 6.72667 76.762 7.3C77.002 7.87333 77.122 8.64 77.122 9.6V16.02H78.302V16.9C78.0354 16.9667 77.6954 17.0333 77.282 17.1C76.882 17.1667 76.5287 17.2 76.222 17.2C75.8487 17.2 75.5954 17.14 75.462 17.02C75.3287 16.9133 75.262 16.6667 75.262 16.28V15.62C74.862 16.02 74.3687 16.3867 73.782 16.72C73.2087 17.0533 72.5554 17.22 71.822 17.22C70.862 17.22 70.062 16.9467 69.422 16.4C68.7954 15.84 68.482 15.04 68.482 14ZM72.682 15.86C73.0287 15.86 73.4287 15.7533 73.882 15.54C74.3354 15.3267 74.7487 15.0733 75.122 14.78V11.34C73.6687 11.34 72.5687 11.5667 71.822 12.02C71.0887 12.46 70.722 13.04 70.722 13.76C70.722 14.48 70.8954 15.0133 71.242 15.36C71.602 15.6933 72.082 15.86 72.682 15.86ZM79.733 16.02L81.233 15.9V7.44L79.793 7.08V6L82.553 5.64H82.593L83.033 6V6.36L82.973 7.92H83.033C83.1663 7.69333 83.4063 7.4 83.753 7.04C84.0996 6.68 84.5463 6.35333 85.093 6.06C85.6396 5.75333 86.233 5.6 86.873 5.6C87.1396 5.6 87.3596 5.63333 87.533 5.7V7.94C87.4396 7.87333 87.2863 7.81333 87.073 7.76C86.873 7.69333 86.6463 7.66 86.393 7.66C85.2863 7.66 84.2596 8 83.313 8.68V15.88L85.853 16.04V17H79.733V16.02ZM90.7131 15.4C90.8465 15.6 91.1265 15.78 91.5531 15.94C91.9931 16.1 92.4531 16.18 92.9331 16.18C93.6931 16.18 94.2531 16.0333 94.6131 15.74C94.9731 15.4467 95.1531 15.04 95.1531 14.52C95.1531 14.16 95.0398 13.8467 94.8131 13.58C94.5865 13.3133 94.2665 13.08 93.8531 12.88C93.4531 12.6667 92.8731 12.4133 92.1131 12.12C91.0865 11.7333 90.3331 11.2733 89.8531 10.74C89.3865 10.1933 89.1531 9.48 89.1531 8.6C89.1531 8.01333 89.3265 7.5 89.6731 7.06C90.0331 6.62 90.5198 6.28 91.1331 6.04C91.7598 5.78667 92.4531 5.66 93.2131 5.66C93.8265 5.66 94.3598 5.70667 94.8131 5.8C95.2798 5.89333 95.6531 5.98667 95.9331 6.08C96.2131 6.17333 96.3998 6.23333 96.4931 6.26V8.74H95.2731L94.8731 7.26C94.7931 7.1 94.5798 6.96667 94.2331 6.86C93.8865 6.74 93.4998 6.68 93.0731 6.68C92.4731 6.68 91.9865 6.81333 91.6131 7.08C91.2531 7.34667 91.0731 7.70667 91.0731 8.16C91.0731 8.56 91.1665 8.89333 91.3531 9.16C91.5531 9.41333 91.7998 9.62 92.0931 9.78C92.3865 9.94 92.7865 10.1267 93.2931 10.34L93.6931 10.5C94.4398 10.7933 95.0465 11.0733 95.5131 11.34C95.9798 11.6067 96.3665 11.96 96.6731 12.4C96.9931 12.8267 97.1531 13.3533 97.1531 13.98C97.1531 14.9667 96.7665 15.7533 95.9931 16.34C95.2331 16.9267 94.1865 17.22 92.8531 17.22C92.1998 17.22 91.5131 17.1333 90.7931 16.96C90.0865 16.7733 89.5065 16.5867 89.0531 16.4V13.84H90.3531L90.7131 15.4ZM103.697 11.42C103.697 10.22 103.944 9.18 104.437 8.3C104.93 7.42 105.577 6.75333 106.377 6.3C107.19 5.83333 108.057 5.6 108.977 5.6C110.657 5.6 111.917 6.13333 112.757 7.2C113.61 8.26667 114.037 9.66667 114.037 11.4C114.037 12.6133 113.79 13.66 113.297 14.54C112.804 15.42 112.15 16.0867 111.337 16.54C110.537 16.9933 109.677 17.22 108.757 17.22C107.077 17.22 105.81 16.6867 104.957 15.62C104.117 14.5533 103.697 13.1533 103.697 11.42ZM108.877 16.08C109.797 16.08 110.504 15.7 110.997 14.94C111.49 14.18 111.737 13.0533 111.737 11.56C111.737 10.08 111.51 8.90667 111.057 8.04C110.604 7.17333 109.877 6.74 108.877 6.74C107.957 6.74 107.244 7.12 106.737 7.88C106.244 8.64 105.997 9.76667 105.997 11.26C105.997 12.74 106.23 13.9133 106.697 14.78C107.164 15.6467 107.89 16.08 108.877 16.08ZM117.465 7.22H115.585V6.3L117.465 5.92V4.98C117.465 4.15333 117.678 3.39333 118.105 2.7C118.545 2.00667 119.112 1.46 119.805 1.06C120.512 0.646665 121.258 0.439999 122.045 0.439999C122.498 0.439999 122.892 0.499999 123.225 0.619999V2.62C123.105 2.51333 122.865 2.41333 122.505 2.32C122.158 2.21333 121.772 2.16 121.345 2.16C120.718 2.16 120.258 2.32667 119.965 2.66C119.685 2.98 119.545 3.54 119.545 4.34V5.92H122.305V7.22H119.545V15.86L121.765 16.02V17H115.765V16.02L117.465 15.84V7.22ZM130.299 3.38L128.739 3.14V2.14H131.359C131.772 2.14 132.365 2.11333 133.139 2.06C133.912 2.00667 134.492 1.98 134.879 1.98C137.359 1.98 139.199 2.60667 140.399 3.86C141.612 5.1 142.219 6.84667 142.219 9.1C142.219 10.6733 141.905 12.0733 141.279 13.3C140.665 14.5133 139.799 15.46 138.679 16.14C137.559 16.82 136.272 17.16 134.819 17.16C134.499 17.16 133.952 17.1333 133.179 17.08C132.379 17.0267 131.779 17 131.379 17H128.639V16.02L130.299 15.82V3.38ZM132.419 15.88C132.885 15.9867 133.485 16.04 134.219 16.04H134.819C135.819 16.0267 136.699 15.7733 137.459 15.28C138.232 14.7867 138.832 14.0533 139.259 13.08C139.685 12.0933 139.899 10.9 139.899 9.5C139.899 7.39333 139.439 5.79333 138.519 4.7C137.612 3.60667 136.239 3.06 134.399 3.06C134.012 3.06 133.552 3.08667 133.019 3.14C132.792 3.18 132.592 3.2 132.419 3.2V15.88ZM148.695 17.22C147.082 17.22 145.848 16.6933 144.995 15.64C144.155 14.5867 143.735 13.18 143.735 11.42C143.735 10.26 143.955 9.24 144.395 8.36C144.835 7.48 145.448 6.8 146.235 6.32C147.035 5.84 147.942 5.6 148.955 5.6C150.195 5.6 151.155 5.94667 151.835 6.64C152.528 7.32 152.895 8.3 152.935 9.58C152.935 10.3933 152.888 11.0133 152.795 11.44H145.915C145.942 12.76 146.248 13.8267 146.835 14.64C147.422 15.44 148.255 15.84 149.335 15.84C149.868 15.84 150.422 15.7467 150.995 15.56C151.582 15.36 152.035 15.1267 152.355 14.86L152.735 15.74C152.348 16.14 151.775 16.4867 151.015 16.78C150.255 17.0733 149.482 17.22 148.695 17.22ZM150.735 10.38C150.775 10.1 150.795 9.81333 150.795 9.52C150.782 8.65333 150.595 7.97333 150.235 7.48C149.888 6.97333 149.335 6.72 148.575 6.72C147.802 6.72 147.182 7 146.715 7.56C146.262 8.12 146.002 9.06 145.935 10.38H150.735ZM156.514 15.4C156.647 15.6 156.927 15.78 157.354 15.94C157.794 16.1 158.254 16.18 158.734 16.18C159.494 16.18 160.054 16.0333 160.414 15.74C160.774 15.4467 160.954 15.04 160.954 14.52C160.954 14.16 160.841 13.8467 160.614 13.58C160.387 13.3133 160.067 13.08 159.654 12.88C159.254 12.6667 158.674 12.4133 157.914 12.12C156.887 11.7333 156.134 11.2733 155.654 10.74C155.187 10.1933 154.954 9.48 154.954 8.6C154.954 8.01333 155.127 7.5 155.474 7.06C155.834 6.62 156.321 6.28 156.934 6.04C157.561 5.78667 158.254 5.66 159.014 5.66C159.627 5.66 160.161 5.70667 160.614 5.8C161.081 5.89333 161.454 5.98667 161.734 6.08C162.014 6.17333 162.201 6.23333 162.294 6.26V8.74H161.074L160.674 7.26C160.594 7.1 160.381 6.96667 160.034 6.86C159.687 6.74 159.301 6.68 158.874 6.68C158.274 6.68 157.787 6.81333 157.414 7.08C157.054 7.34667 156.874 7.70667 156.874 8.16C156.874 8.56 156.967 8.89333 157.154 9.16C157.354 9.41333 157.601 9.62 157.894 9.78C158.187 9.94 158.587 10.1267 159.094 10.34L159.494 10.5C160.241 10.7933 160.847 11.0733 161.314 11.34C161.781 11.6067 162.167 11.96 162.474 12.4C162.794 12.8267 162.954 13.3533 162.954 13.98C162.954 14.9667 162.567 15.7533 161.794 16.34C161.034 16.9267 159.987 17.22 158.654 17.22C158.001 17.22 157.314 17.1333 156.594 16.96C155.887 16.7733 155.307 16.5867 154.854 16.4V13.84H156.154L156.514 15.4ZM167.112 3.9C166.685 3.9 166.365 3.78 166.152 3.54C165.938 3.3 165.832 2.99333 165.832 2.62C165.832 2.19333 165.958 1.84 166.212 1.56C166.478 1.28 166.838 1.14 167.292 1.14C167.745 1.14 168.078 1.26 168.292 1.5C168.505 1.74 168.612 2.04667 168.612 2.42C168.612 2.87333 168.478 3.23333 168.212 3.5C167.958 3.76667 167.598 3.9 167.132 3.9H167.112ZM166.312 7.44L164.792 7.08V6.02L167.892 5.64H167.932L168.392 6V15.86L169.992 16.02V17H164.692V16.02L166.312 15.84V7.44ZM176.192 22.4C174.485 22.4 173.245 22.1267 172.472 21.58C171.712 21.0467 171.332 20.3067 171.332 19.36C171.332 18.7733 171.512 18.2333 171.872 17.74C172.245 17.2467 172.685 16.8733 173.192 16.62C172.578 16.2733 172.272 15.7133 172.272 14.94C172.272 14.46 172.412 14.0067 172.692 13.58C172.972 13.1533 173.338 12.8267 173.792 12.6C173.125 12.3067 172.612 11.8867 172.252 11.34C171.905 10.7933 171.732 10.1467 171.732 9.4C171.732 8.62667 171.945 7.95333 172.372 7.38C172.812 6.80667 173.385 6.36667 174.092 6.06C174.812 5.75333 175.572 5.6 176.372 5.6C177.718 5.6 178.772 5.88 179.532 6.44C179.732 6.24 180.038 6.04667 180.452 5.86C180.865 5.67333 181.305 5.58 181.772 5.58H182.452V7.34H180.252C180.572 7.83333 180.732 8.40667 180.732 9.06C180.732 9.84667 180.532 10.5467 180.132 11.16C179.745 11.76 179.198 12.2267 178.492 12.56C177.798 12.8933 177.012 13.06 176.132 13.06C175.558 13.06 175.045 13 174.592 12.88C174.405 13.0667 174.252 13.2733 174.132 13.5C174.012 13.7267 173.952 13.9467 173.952 14.16C173.952 14.64 174.112 14.9733 174.432 15.16C174.752 15.3333 175.325 15.42 176.152 15.42H178.412C179.705 15.42 180.665 15.6667 181.292 16.16C181.918 16.6533 182.232 17.3533 182.232 18.26C182.232 19.02 181.958 19.7133 181.412 20.34C180.865 20.98 180.125 21.48 179.192 21.84C178.272 22.2133 177.272 22.4 176.192 22.4ZM176.332 11.96C177.852 11.96 178.612 11.06 178.612 9.26C178.612 8.36667 178.412 7.71333 178.012 7.3C177.625 6.87333 177.038 6.66 176.252 6.66C175.518 6.66 174.938 6.86667 174.512 7.28C174.085 7.68 173.872 8.32667 173.872 9.22C173.872 10.06 174.072 10.7267 174.472 11.22C174.885 11.7133 175.505 11.96 176.332 11.96ZM176.372 21.24C177.025 21.24 177.638 21.14 178.212 20.94C178.798 20.7533 179.272 20.4667 179.632 20.08C179.992 19.7067 180.172 19.2667 180.172 18.76C180.172 18.16 180.012 17.72 179.692 17.44C179.372 17.1733 178.752 17.04 177.832 17.04H175.472C174.938 17.04 174.518 17.0067 174.212 16.94C173.665 17.54 173.392 18.2133 173.392 18.96C173.392 19.7067 173.618 20.2733 174.072 20.66C174.525 21.0467 175.292 21.24 176.372 21.24ZM184.76 7.44L183.32 7.08V6L186.18 5.64H186.24L186.66 6V6.84L186.64 7.32C187.12 6.89333 187.753 6.50667 188.54 6.16C189.327 5.81333 190.08 5.64 190.8 5.64C191.64 5.64 192.287 5.8 192.74 6.12C193.207 6.44 193.533 6.93333 193.72 7.6C193.907 8.25333 194 9.14 194 10.26V15.86L195.4 16V17H190.66V16.02L191.9 15.86V10.24C191.9 9.45333 191.847 8.84 191.74 8.4C191.633 7.94667 191.433 7.61333 191.14 7.4C190.847 7.17333 190.42 7.06 189.86 7.06C189.38 7.06 188.867 7.18 188.32 7.42C187.773 7.66 187.287 7.94 186.86 8.26V15.84L188.22 16.02V17H183.5V16.02L184.76 15.84V7.44ZM199.381 14C199.835 14 200.208 14.22 200.501 14.66C200.795 15.0867 200.941 15.6733 200.941 16.42C200.941 17.18 200.821 17.9133 200.581 18.62C200.341 19.3267 200.041 19.9267 199.681 20.42C199.321 20.9267 198.968 21.28 198.621 21.48H198.601L197.921 21V20.78C198.188 20.5667 198.455 20.1 198.721 19.38C199.001 18.6733 199.141 18 199.141 17.36C199.141 17.16 199.101 17 199.021 16.88C198.955 16.7467 198.841 16.5933 198.681 16.42C198.495 16.22 198.355 16.0333 198.261 15.86C198.168 15.6867 198.121 15.4533 198.121 15.16C198.121 14.8133 198.228 14.5333 198.441 14.32C198.668 14.1067 198.948 14 199.281 14H199.381ZM8.56 49.22C7.09333 49.22 5.84 48.9067 4.8 48.28C3.77333 47.64 2.99333 46.7467 2.46 45.6C1.92667 44.4533 1.66 43.1067 1.66 41.56C1.66 40.0667 1.97333 38.7467 2.6 37.6C3.22667 36.4533 4.08667 35.5667 5.18 34.94C6.27333 34.3 7.5 33.98 8.86 33.98C9.88667 33.98 11.12 34.14 12.56 34.46L13.22 34.58L13.02 38.18H11.68L11.18 35.64C10.9933 35.48 10.6667 35.3467 10.2 35.24C9.74667 35.12 9.18667 35.06 8.52 35.06C7.66667 35.06 6.90667 35.3067 6.24 35.8C5.57333 36.28 5.04667 36.9933 4.66 37.94C4.28667 38.8867 4.1 40.02 4.1 41.34C4.1 42.5933 4.26667 43.7333 4.6 44.76C4.93333 45.7867 5.44 46.6067 6.12 47.22C6.8 47.82 7.64 48.12 8.64 48.12C9.34667 48.12 9.88667 48.06 10.26 47.94C10.6467 47.82 10.9733 47.6467 11.24 47.42L12.08 45.46L13.34 45.62L12.86 48.46C12.58 48.4733 12.1667 48.5667 11.62 48.74C11.14 48.8867 10.6733 49 10.22 49.08C9.78 49.1733 9.22667 49.22 8.56 49.22ZM15.0064 48.02L16.5064 47.9V39.44L15.0664 39.08V38L17.8264 37.64H17.8664L18.3064 38V38.36L18.2464 39.92H18.3064C18.4397 39.6933 18.6797 39.4 19.0264 39.04C19.3731 38.68 19.8197 38.3533 20.3664 38.06C20.9131 37.7533 21.5064 37.6 22.1464 37.6C22.4131 37.6 22.6331 37.6333 22.8064 37.7V39.94C22.7131 39.8733 22.5597 39.8133 22.3464 39.76C22.1464 39.6933 21.9197 39.66 21.6664 39.66C20.5597 39.66 19.5331 40 18.5864 40.68V47.88L21.1264 48.04V49H15.0064V48.02ZM29.0466 49.22C27.4332 49.22 26.1999 48.6933 25.3466 47.64C24.5066 46.5867 24.0866 45.18 24.0866 43.42C24.0866 42.26 24.3066 41.24 24.7466 40.36C25.1866 39.48 25.7999 38.8 26.5866 38.32C27.3866 37.84 28.2932 37.6 29.3066 37.6C30.5466 37.6 31.5066 37.9467 32.1866 38.64C32.8799 39.32 33.2466 40.3 33.2866 41.58C33.2866 42.3933 33.2399 43.0133 33.1466 43.44H26.2666C26.2932 44.76 26.5999 45.8267 27.1866 46.64C27.7732 47.44 28.6066 47.84 29.6866 47.84C30.2199 47.84 30.7732 47.7467 31.3466 47.56C31.9332 47.36 32.3866 47.1267 32.7066 46.86L33.0866 47.74C32.6999 48.14 32.1266 48.4867 31.3666 48.78C30.6066 49.0733 29.8332 49.22 29.0466 49.22ZM31.0866 42.38C31.1266 42.1 31.1466 41.8133 31.1466 41.52C31.1332 40.6533 30.9466 39.9733 30.5866 39.48C30.2399 38.9733 29.6866 38.72 28.9266 38.72C28.1532 38.72 27.5332 39 27.0666 39.56C26.6132 40.12 26.3532 41.06 26.2866 42.38H31.0866ZM35.0055 46C35.0055 44.7467 35.6321 43.8267 36.8855 43.24C38.1388 42.64 39.7255 42.32 41.6455 42.28V41.72C41.6455 41.0933 41.5788 40.6 41.4455 40.24C41.3121 39.88 41.0788 39.62 40.7455 39.46C40.4255 39.2867 39.9655 39.2 39.3655 39.2C38.6855 39.2 38.0721 39.3 37.5255 39.5C36.9921 39.6867 36.4588 39.92 35.9255 40.2L35.4255 39.16C35.5988 39.0133 35.9188 38.82 36.3855 38.58C36.8521 38.34 37.3921 38.1267 38.0055 37.94C38.6188 37.7533 39.2321 37.66 39.8455 37.66C40.7921 37.66 41.5388 37.7933 42.0855 38.06C42.6455 38.3133 43.0455 38.7267 43.2855 39.3C43.5255 39.8733 43.6455 40.64 43.6455 41.6V48.02H44.8255V48.9C44.5588 48.9667 44.2188 49.0333 43.8055 49.1C43.4055 49.1667 43.0521 49.2 42.7455 49.2C42.3721 49.2 42.1188 49.14 41.9855 49.02C41.8521 48.9133 41.7855 48.6667 41.7855 48.28V47.62C41.3855 48.02 40.8921 48.3867 40.3055 48.72C39.7321 49.0533 39.0788 49.22 38.3455 49.22C37.3855 49.22 36.5855 48.9467 35.9455 48.4C35.3188 47.84 35.0055 47.04 35.0055 46ZM39.2055 47.86C39.5521 47.86 39.9521 47.7533 40.4055 47.54C40.8588 47.3267 41.2721 47.0733 41.6455 46.78V43.34C40.1921 43.34 39.0921 43.5667 38.3455 44.02C37.6121 44.46 37.2455 45.04 37.2455 45.76C37.2455 46.48 37.4188 47.0133 37.7655 47.36C38.1255 47.6933 38.6055 47.86 39.2055 47.86ZM49.6364 49.2C48.8764 49.2 48.3097 49.0267 47.9364 48.68C47.5631 48.3333 47.3764 47.74 47.3764 46.9V39.22H45.9364V38.32C46.0031 38.3067 46.1897 38.26 46.4964 38.18C46.8031 38.1 47.0097 38.0267 47.1164 37.96C47.3297 37.84 47.4964 37.6 47.6164 37.24C47.7231 36.9867 47.8497 36.58 47.9964 36.02C48.1431 35.46 48.2297 35.1267 48.2564 35.02H49.4364L49.4764 37.9H52.8164V39.22H49.4764V45.36C49.4764 46.12 49.4964 46.6533 49.5364 46.96C49.5897 47.2667 49.6897 47.4667 49.8364 47.56C49.9964 47.6533 50.2631 47.7 50.6364 47.7C50.9964 47.7 51.3897 47.6533 51.8164 47.56C52.2564 47.4667 52.5964 47.3667 52.8364 47.26L53.1364 48.16C52.8164 48.4 52.2964 48.6333 51.5764 48.86C50.8697 49.0867 50.2231 49.2 49.6364 49.2ZM56.7209 35.9C56.2943 35.9 55.9743 35.78 55.7609 35.54C55.5476 35.3 55.4409 34.9933 55.4409 34.62C55.4409 34.1933 55.5676 33.84 55.8209 33.56C56.0876 33.28 56.4476 33.14 56.9009 33.14C57.3543 33.14 57.6876 33.26 57.9009 33.5C58.1143 33.74 58.2209 34.0467 58.2209 34.42C58.2209 34.8733 58.0876 35.2333 57.8209 35.5C57.5676 35.7667 57.2076 35.9 56.7409 35.9H56.7209ZM55.9209 39.44L54.4009 39.08V38.02L57.5009 37.64H57.5409L58.0009 38V47.86L59.6009 48.02V49H54.3009V48.02L55.9209 47.84V39.44ZM61.0211 43.42C61.0211 42.22 61.2678 41.18 61.7611 40.3C62.2544 39.42 62.9011 38.7533 63.7011 38.3C64.5144 37.8333 65.3811 37.6 66.3011 37.6C67.9811 37.6 69.2411 38.1333 70.0811 39.2C70.9344 40.2667 71.3611 41.6667 71.3611 43.4C71.3611 44.6133 71.1144 45.66 70.6211 46.54C70.1278 47.42 69.4744 48.0867 68.6611 48.54C67.8611 48.9933 67.0011 49.22 66.0811 49.22C64.4011 49.22 63.1344 48.6867 62.2811 47.62C61.4411 46.5533 61.0211 45.1533 61.0211 43.42ZM66.2011 48.08C67.1211 48.08 67.8278 47.7 68.3211 46.94C68.8144 46.18 69.0611 45.0533 69.0611 43.56C69.0611 42.08 68.8344 40.9067 68.3811 40.04C67.9278 39.1733 67.2011 38.74 66.2011 38.74C65.2811 38.74 64.5678 39.12 64.0611 39.88C63.5678 40.64 63.3211 41.7667 63.3211 43.26C63.3211 44.74 63.5544 45.9133 64.0211 46.78C64.4878 47.6467 65.2144 48.08 66.2011 48.08ZM74.3891 39.44L72.9491 39.08V38L75.8091 37.64H75.8691L76.2891 38V38.84L76.2691 39.32C76.7491 38.8933 77.3824 38.5067 78.1691 38.16C78.9557 37.8133 79.7091 37.64 80.4291 37.64C81.2691 37.64 81.9157 37.8 82.3691 38.12C82.8357 38.44 83.1624 38.9333 83.3491 39.6C83.5357 40.2533 83.6291 41.14 83.6291 42.26V47.86L85.0291 48V49H80.2891V48.02L81.5291 47.86V42.24C81.5291 41.4533 81.4757 40.84 81.3691 40.4C81.2624 39.9467 81.0624 39.6133 80.7691 39.4C80.4757 39.1733 80.0491 39.06 79.4891 39.06C79.0091 39.06 78.4957 39.18 77.9491 39.42C77.4024 39.66 76.9157 39.94 76.4891 40.26V47.84L77.8491 48.02V49H73.1291V48.02L74.3891 47.84V39.44ZM105.096 41.96L103.476 42.18C103.49 43.0867 103.356 43.9467 103.076 44.76C102.796 45.5733 102.41 46.24 101.916 46.76C102.37 47.1733 102.79 47.48 103.176 47.68C103.563 47.88 104.01 47.9933 104.516 48.02V48.9C104.396 48.9667 104.176 49.02 103.856 49.06C103.55 49.1 103.29 49.12 103.076 49.12C102.61 49.12 102.183 49.0333 101.796 48.86C101.423 48.6867 100.99 48.3933 100.496 47.98C99.9897 48.3933 99.4097 48.7 98.7564 48.9C98.1031 49.0867 97.4564 49.18 96.8164 49.18C95.1897 49.18 93.8964 48.8333 92.9364 48.14C91.9897 47.4467 91.5164 46.4867 91.5164 45.26C91.5164 44.4067 91.7897 43.6733 92.3364 43.06C92.8964 42.4467 93.6231 41.9533 94.5164 41.58C93.3564 40.1133 92.7764 38.74 92.7764 37.46C92.7764 36.8333 92.9497 36.2533 93.2964 35.72C93.6431 35.1867 94.1164 34.76 94.7164 34.44C95.3297 34.12 96.0097 33.96 96.7564 33.96C97.5297 33.96 98.1831 34.0933 98.7164 34.36C99.2631 34.6267 99.6697 34.9733 99.9364 35.4C100.203 35.8267 100.336 36.2667 100.336 36.72C100.336 37.48 100.196 38.1267 99.9164 38.66C99.6364 39.1933 99.2697 39.6467 98.8164 40.02C98.3631 40.3933 97.7231 40.8467 96.8964 41.38C97.3631 41.94 97.9697 42.64 98.7164 43.48C99.4764 44.32 100.096 44.9867 100.576 45.48L101.076 45.96C101.41 45.5333 101.65 45.04 101.796 44.48C101.943 43.9067 102.016 43.3267 102.016 42.74C102.016 42.4867 102.01 42.3 101.996 42.18L100.376 41.96V40.86H105.096V41.96ZM94.7564 37.2C94.7564 37.88 94.8964 38.4933 95.1764 39.04C95.4697 39.5733 95.8431 40.1 96.2964 40.62C97.1231 39.9533 97.7031 39.3533 98.0364 38.82C98.3697 38.2867 98.5364 37.62 98.5364 36.82C98.5364 36.3267 98.4031 35.88 98.1364 35.48C97.8697 35.0667 97.4031 34.86 96.7364 34.86C96.1764 34.86 95.7031 35.08 95.3164 35.52C94.9431 35.96 94.7564 36.52 94.7564 37.2ZM96.9764 48.06C97.4431 48.06 97.9097 47.9933 98.3764 47.86C98.8431 47.7133 99.2564 47.5067 99.6164 47.24C99.0831 46.76 98.4964 46.1733 97.8564 45.48C97.2297 44.7733 96.4431 43.8667 95.4964 42.76L95.1564 42.36C94.0231 43.24 93.4564 44.16 93.4564 45.12C93.4564 45.9733 93.7631 46.68 94.3764 47.24C94.9897 47.7867 95.8564 48.06 96.9764 48.06ZM113.12 35.38L111.26 35.14V34.14H117.14V35.14L115.28 35.38V47.82L117.14 48.04V49H111.28V48.02L113.12 47.82V35.38ZM120.346 39.44L118.906 39.08V38L121.766 37.64H121.826L122.246 38V38.84L122.226 39.32C122.706 38.8933 123.339 38.5067 124.126 38.16C124.913 37.8133 125.666 37.64 126.386 37.64C127.226 37.64 127.873 37.8 128.326 38.12C128.793 38.44 129.119 38.9333 129.306 39.6C129.493 40.2533 129.586 41.14 129.586 42.26V47.86L130.986 48V49H126.246V48.02L127.486 47.86V42.24C127.486 41.4533 127.433 40.84 127.326 40.4C127.219 39.9467 127.019 39.6133 126.726 39.4C126.433 39.1733 126.006 39.06 125.446 39.06C124.966 39.06 124.453 39.18 123.906 39.42C123.359 39.66 122.873 39.94 122.446 40.26V47.84L123.806 48.02V49H119.086V48.02L120.346 47.84V39.44ZM133.627 39.44L132.187 39.08V38L135.047 37.64H135.107L135.527 38V38.84L135.507 39.32C135.987 38.8933 136.621 38.5067 137.407 38.16C138.194 37.8133 138.947 37.64 139.667 37.64C140.507 37.64 141.154 37.8 141.607 38.12C142.074 38.44 142.401 38.9333 142.587 39.6C142.774 40.2533 142.867 41.14 142.867 42.26V47.86L144.267 48V49H139.527V48.02L140.767 47.86V42.24C140.767 41.4533 140.714 40.84 140.607 40.4C140.501 39.9467 140.301 39.6133 140.007 39.4C139.714 39.1733 139.287 39.06 138.727 39.06C138.247 39.06 137.734 39.18 137.187 39.42C136.641 39.66 136.154 39.94 135.727 40.26V47.84L137.087 48.02V49H132.367V48.02L133.627 47.84V39.44ZM145.709 43.42C145.709 42.22 145.955 41.18 146.449 40.3C146.942 39.42 147.589 38.7533 148.389 38.3C149.202 37.8333 150.069 37.6 150.989 37.6C152.669 37.6 153.929 38.1333 154.769 39.2C155.622 40.2667 156.049 41.6667 156.049 43.4C156.049 44.6133 155.802 45.66 155.309 46.54C154.815 47.42 154.162 48.0867 153.349 48.54C152.549 48.9933 151.689 49.22 150.769 49.22C149.089 49.22 147.822 48.6867 146.969 47.62C146.129 46.5533 145.709 45.1533 145.709 43.42ZM150.889 48.08C151.809 48.08 152.515 47.7 153.009 46.94C153.502 46.18 153.749 45.0533 153.749 43.56C153.749 42.08 153.522 40.9067 153.069 40.04C152.615 39.1733 151.889 38.74 150.889 38.74C149.969 38.74 149.255 39.12 148.749 39.88C148.255 40.64 148.009 41.7667 148.009 43.26C148.009 44.74 148.242 45.9133 148.709 46.78C149.175 47.6467 149.902 48.08 150.889 48.08ZM156.957 37.9H161.597V38.84L160.177 39.1L162.197 44.86L163.037 47.4L163.757 44.94L165.777 39.1L164.417 38.84V37.9H168.477V38.84L167.437 39.1L163.577 49.16H161.877L157.857 39.1L156.957 38.84V37.9ZM169.244 46C169.244 44.7467 169.87 43.8267 171.124 43.24C172.377 42.64 173.964 42.32 175.884 42.28V41.72C175.884 41.0933 175.817 40.6 175.684 40.24C175.55 39.88 175.317 39.62 174.984 39.46C174.664 39.2867 174.204 39.2 173.604 39.2C172.924 39.2 172.31 39.3 171.764 39.5C171.23 39.6867 170.697 39.92 170.164 40.2L169.664 39.16C169.837 39.0133 170.157 38.82 170.624 38.58C171.09 38.34 171.63 38.1267 172.244 37.94C172.857 37.7533 173.47 37.66 174.084 37.66C175.03 37.66 175.777 37.7933 176.324 38.06C176.884 38.3133 177.284 38.7267 177.524 39.3C177.764 39.8733 177.884 40.64 177.884 41.6V48.02H179.064V48.9C178.797 48.9667 178.457 49.0333 178.044 49.1C177.644 49.1667 177.29 49.2 176.984 49.2C176.61 49.2 176.357 49.14 176.224 49.02C176.09 48.9133 176.024 48.6667 176.024 48.28V47.62C175.624 48.02 175.13 48.3867 174.544 48.72C173.97 49.0533 173.317 49.22 172.584 49.22C171.624 49.22 170.824 48.9467 170.184 48.4C169.557 47.84 169.244 47.04 169.244 46ZM173.444 47.86C173.79 47.86 174.19 47.7533 174.644 47.54C175.097 47.3267 175.51 47.0733 175.884 46.78V43.34C174.43 43.34 173.33 43.5667 172.584 44.02C171.85 44.46 171.484 45.04 171.484 45.76C171.484 46.48 171.657 47.0133 172.004 47.36C172.364 47.6933 172.844 47.86 173.444 47.86ZM183.875 49.2C183.115 49.2 182.548 49.0267 182.175 48.68C181.801 48.3333 181.615 47.74 181.615 46.9V39.22H180.175V38.32C180.241 38.3067 180.428 38.26 180.735 38.18C181.041 38.1 181.248 38.0267 181.355 37.96C181.568 37.84 181.735 37.6 181.855 37.24C181.961 36.9867 182.088 36.58 182.235 36.02C182.381 35.46 182.468 35.1267 182.495 35.02H183.675L183.715 37.9H187.055V39.22H183.715V45.36C183.715 46.12 183.735 46.6533 183.775 46.96C183.828 47.2667 183.928 47.4667 184.075 47.56C184.235 47.6533 184.501 47.7 184.875 47.7C185.235 47.7 185.628 47.6533 186.055 47.56C186.495 47.4667 186.835 47.3667 187.075 47.26L187.375 48.16C187.055 48.4 186.535 48.6333 185.815 48.86C185.108 49.0867 184.461 49.2 183.875 49.2ZM190.959 35.9C190.533 35.9 190.213 35.78 189.999 35.54C189.786 35.3 189.679 34.9933 189.679 34.62C189.679 34.1933 189.806 33.84 190.059 33.56C190.326 33.28 190.686 33.14 191.139 33.14C191.593 33.14 191.926 33.26 192.139 33.5C192.353 33.74 192.459 34.0467 192.459 34.42C192.459 34.8733 192.326 35.2333 192.059 35.5C191.806 35.7667 191.446 35.9 190.979 35.9H190.959ZM190.159 39.44L188.639 39.08V38.02L191.739 37.64H191.779L192.239 38V47.86L193.839 48.02V49H188.539V48.02L190.159 47.84V39.44ZM195.259 43.42C195.259 42.22 195.506 41.18 195.999 40.3C196.493 39.42 197.139 38.7533 197.939 38.3C198.753 37.8333 199.619 37.6 200.539 37.6C202.219 37.6 203.479 38.1333 204.319 39.2C205.173 40.2667 205.599 41.6667 205.599 43.4C205.599 44.6133 205.353 45.66 204.859 46.54C204.366 47.42 203.713 48.0867 202.899 48.54C202.099 48.9933 201.239 49.22 200.319 49.22C198.639 49.22 197.373 48.6867 196.519 47.62C195.679 46.5533 195.259 45.1533 195.259 43.42ZM200.439 48.08C201.359 48.08 202.066 47.7 202.559 46.94C203.053 46.18 203.299 45.0533 203.299 43.56C203.299 42.08 203.073 40.9067 202.619 40.04C202.166 39.1733 201.439 38.74 200.439 38.74C199.519 38.74 198.806 39.12 198.299 39.88C197.806 40.64 197.559 41.7667 197.559 43.26C197.559 44.74 197.793 45.9133 198.259 46.78C198.726 47.6467 199.453 48.08 200.439 48.08ZM208.627 39.44L207.187 39.08V38L210.047 37.64H210.107L210.527 38V38.84L210.507 39.32C210.987 38.8933 211.621 38.5067 212.407 38.16C213.194 37.8133 213.947 37.64 214.667 37.64C215.507 37.64 216.154 37.8 216.607 38.12C217.074 38.44 217.401 38.9333 217.587 39.6C217.774 40.2533 217.867 41.14 217.867 42.26V47.86L219.267 48V49H214.527V48.02L215.767 47.86V42.24C215.767 41.4533 215.714 40.84 215.607 40.4C215.501 39.9467 215.301 39.6133 215.007 39.4C214.714 39.1733 214.287 39.06 213.727 39.06C213.247 39.06 212.734 39.18 212.187 39.42C211.641 39.66 211.154 39.94 210.727 40.26V47.84L212.087 48.02V49H207.367V48.02L208.627 47.84V39.44ZM0.62 66.14H6.04V67.14L4.16 67.38L6.9 76.7L7.48 79.48L8.14 76.7L10.44 69.08L9.9 67.38L8.48 67.14V66.14H14.1V67.14L12.14 67.38L14.84 76.7L15.52 79.7L16.08 76.7L18.6 67.38L16.62 67.14V66.14H21.38V67.14L20.06 67.38L16.08 81.1H14.12L11.06 71.08L8.1 81.1H6.2L1.94 67.4L0.62 67.14V66.14ZM26.82 81.22C25.2067 81.22 23.9733 80.6933 23.12 79.64C22.28 78.5867 21.86 77.18 21.86 75.42C21.86 74.26 22.08 73.24 22.52 72.36C22.96 71.48 23.5733 70.8 24.36 70.32C25.16 69.84 26.0667 69.6 27.08 69.6C28.32 69.6 29.28 69.9467 29.96 70.64C30.6533 71.32 31.02 72.3 31.06 73.58C31.06 74.3933 31.0133 75.0133 30.92 75.44H24.04C24.0667 76.76 24.3733 77.8267 24.96 78.64C25.5467 79.44 26.38 79.84 27.46 79.84C27.9933 79.84 28.5467 79.7467 29.12 79.56C29.7067 79.36 30.16 79.1267 30.48 78.86L30.86 79.74C30.4733 80.14 29.9 80.4867 29.14 80.78C28.38 81.0733 27.6067 81.22 26.82 81.22ZM28.86 74.38C28.9 74.1 28.92 73.8133 28.92 73.52C28.9067 72.6533 28.72 71.9733 28.36 71.48C28.0133 70.9733 27.46 70.72 26.7 70.72C25.9267 70.72 25.3067 71 24.84 71.56C24.3867 72.12 24.1267 73.06 24.06 74.38H28.86ZM37.0989 81.22C36.2989 81.22 35.5656 81.02 34.8989 80.62C34.2322 80.22 33.6989 79.6067 33.2989 78.78C32.9122 77.9533 32.7189 76.9333 32.7189 75.72C32.7189 74.5867 32.9522 73.5533 33.4189 72.62C33.8856 71.6867 34.5522 70.9533 35.4189 70.42C36.2989 69.8733 37.3322 69.6 38.5189 69.6C39.1989 69.6 39.8189 69.6733 40.3789 69.82V66.08L38.3389 65.84V64.98L41.9389 64.62H41.9989L42.4389 64.94V79.98H43.5989V80.9C43.1722 80.9933 42.7989 81.0667 42.4789 81.12C42.1722 81.1733 41.8456 81.2 41.4989 81.2C41.1522 81.2 40.9056 81.14 40.7589 81.02C40.6122 80.9 40.5389 80.6467 40.5389 80.26V79.62C40.1656 80.0733 39.6722 80.4533 39.0589 80.76C38.4589 81.0667 37.8056 81.22 37.0989 81.22ZM37.8989 79.8C38.4189 79.8 38.9056 79.6867 39.3589 79.46C39.8122 79.22 40.1522 78.9467 40.3789 78.64V71.32C40.2722 71.16 40.0189 71.02 39.6189 70.9C39.2322 70.7667 38.8189 70.7 38.3789 70.7C37.3389 70.7 36.5056 71.1 35.8789 71.9C35.2656 72.6867 34.9589 73.9067 34.9589 75.56C34.9589 77 35.2322 78.0667 35.7789 78.76C36.3256 79.4533 37.0322 79.8 37.8989 79.8ZM49.9808 86.4C48.2741 86.4 47.0341 86.1267 46.2608 85.58C45.5008 85.0467 45.1208 84.3067 45.1208 83.36C45.1208 82.7733 45.3008 82.2333 45.6608 81.74C46.0341 81.2467 46.4741 80.8733 46.9808 80.62C46.3674 80.2733 46.0608 79.7133 46.0608 78.94C46.0608 78.46 46.2008 78.0067 46.4808 77.58C46.7608 77.1533 47.1274 76.8267 47.5808 76.6C46.9141 76.3067 46.4008 75.8867 46.0408 75.34C45.6941 74.7933 45.5208 74.1467 45.5208 73.4C45.5208 72.6267 45.7341 71.9533 46.1608 71.38C46.6008 70.8067 47.1741 70.3667 47.8808 70.06C48.6008 69.7533 49.3608 69.6 50.1608 69.6C51.5074 69.6 52.5608 69.88 53.3208 70.44C53.5208 70.24 53.8274 70.0467 54.2408 69.86C54.6541 69.6733 55.0941 69.58 55.5608 69.58H56.2408V71.34H54.0408C54.3608 71.8333 54.5208 72.4067 54.5208 73.06C54.5208 73.8467 54.3208 74.5467 53.9208 75.16C53.5341 75.76 52.9874 76.2267 52.2808 76.56C51.5874 76.8933 50.8008 77.06 49.9208 77.06C49.3474 77.06 48.8341 77 48.3808 76.88C48.1941 77.0667 48.0408 77.2733 47.9208 77.5C47.8008 77.7267 47.7408 77.9467 47.7408 78.16C47.7408 78.64 47.9008 78.9733 48.2208 79.16C48.5408 79.3333 49.1141 79.42 49.9408 79.42H52.2008C53.4941 79.42 54.4541 79.6667 55.0808 80.16C55.7074 80.6533 56.0208 81.3533 56.0208 82.26C56.0208 83.02 55.7474 83.7133 55.2008 84.34C54.6541 84.98 53.9141 85.48 52.9808 85.84C52.0608 86.2133 51.0608 86.4 49.9808 86.4ZM50.1208 75.96C51.6408 75.96 52.4008 75.06 52.4008 73.26C52.4008 72.3667 52.2008 71.7133 51.8008 71.3C51.4141 70.8733 50.8274 70.66 50.0408 70.66C49.3074 70.66 48.7274 70.8667 48.3008 71.28C47.8741 71.68 47.6608 72.3267 47.6608 73.22C47.6608 74.06 47.8608 74.7267 48.2608 75.22C48.6741 75.7133 49.2941 75.96 50.1208 75.96ZM50.1608 85.24C50.8141 85.24 51.4274 85.14 52.0008 84.94C52.5874 84.7533 53.0608 84.4667 53.4208 84.08C53.7808 83.7067 53.9608 83.2667 53.9608 82.76C53.9608 82.16 53.8008 81.72 53.4808 81.44C53.1608 81.1733 52.5408 81.04 51.6208 81.04H49.2608C48.7274 81.04 48.3074 81.0067 48.0008 80.94C47.4541 81.54 47.1808 82.2133 47.1808 82.96C47.1808 83.7067 47.4074 84.2733 47.8608 84.66C48.3141 85.0467 49.0808 85.24 50.1608 85.24ZM56.3092 69.9H60.9692V70.84L59.4492 71.08L61.1092 76.96L61.6892 79.5L62.2692 76.94L64.1892 69.9H66.1492L68.1292 76.94L68.7092 79.52L69.3492 76.96L70.9692 71.1L69.4492 70.84V69.9H73.5092V70.84L72.4492 71.1L69.3492 81.16H67.4692L65.3492 74.1L64.8292 71.62L64.4092 74.1L62.3892 81.16H60.5292L57.3292 71.08L56.3092 70.84V69.9ZM74.1266 75.42C74.1266 74.22 74.3732 73.18 74.8666 72.3C75.3599 71.42 76.0066 70.7533 76.8066 70.3C77.6199 69.8333 78.4866 69.6 79.4066 69.6C81.0866 69.6 82.3466 70.1333 83.1866 71.2C84.0399 72.2667 84.4666 73.6667 84.4666 75.4C84.4666 76.6133 84.2199 77.66 83.7266 78.54C83.2332 79.42 82.5799 80.0867 81.7666 80.54C80.9666 80.9933 80.1066 81.22 79.1866 81.22C77.5066 81.22 76.2399 80.6867 75.3866 79.62C74.5466 78.5533 74.1266 77.1533 74.1266 75.42ZM79.3066 80.08C80.2266 80.08 80.9332 79.7 81.4266 78.94C81.9199 78.18 82.1666 77.0533 82.1666 75.56C82.1666 74.08 81.9399 72.9067 81.4866 72.04C81.0332 71.1733 80.3066 70.74 79.3066 70.74C78.3866 70.74 77.6732 71.12 77.1666 71.88C76.6732 72.64 76.4266 73.7667 76.4266 75.26C76.4266 76.74 76.6599 77.9133 77.1266 78.78C77.5932 79.6467 78.3199 80.08 79.3066 80.08ZM86.2945 75.42C86.2945 74.22 86.5412 73.18 87.0345 72.3C87.5279 71.42 88.1745 70.7533 88.9745 70.3C89.7879 69.8333 90.6545 69.6 91.5745 69.6C93.2545 69.6 94.5145 70.1333 95.3545 71.2C96.2079 72.2667 96.6345 73.6667 96.6345 75.4C96.6345 76.6133 96.3879 77.66 95.8945 78.54C95.4012 79.42 94.7479 80.0867 93.9345 80.54C93.1345 80.9933 92.2745 81.22 91.3545 81.22C89.6745 81.22 88.4079 80.6867 87.5545 79.62C86.7145 78.5533 86.2945 77.1533 86.2945 75.42ZM91.4745 80.08C92.3945 80.08 93.1012 79.7 93.5945 78.94C94.0879 78.18 94.3345 77.0533 94.3345 75.56C94.3345 74.08 94.1079 72.9067 93.6545 72.04C93.2012 71.1733 92.4745 70.74 91.4745 70.74C90.5545 70.74 89.8412 71.12 89.3345 71.88C88.8412 72.64 88.5945 73.7667 88.5945 75.26C88.5945 76.74 88.8279 77.9133 89.2945 78.78C89.7612 79.6467 90.4879 80.08 91.4745 80.08ZM102.783 81.22C101.983 81.22 101.249 81.02 100.583 80.62C99.9158 80.22 99.3825 79.6067 98.9825 78.78C98.5958 77.9533 98.4025 76.9333 98.4025 75.72C98.4025 74.5867 98.6358 73.5533 99.1025 72.62C99.5692 71.6867 100.236 70.9533 101.103 70.42C101.983 69.8733 103.016 69.6 104.203 69.6C104.883 69.6 105.503 69.6733 106.063 69.82V66.08L104.023 65.84V64.98L107.623 64.62H107.683L108.122 64.94V79.98H109.283V80.9C108.856 80.9933 108.483 81.0667 108.163 81.12C107.856 81.1733 107.529 81.2 107.183 81.2C106.836 81.2 106.589 81.14 106.443 81.02C106.296 80.9 106.223 80.6467 106.223 80.26V79.62C105.849 80.0733 105.356 80.4533 104.743 80.76C104.143 81.0667 103.489 81.22 102.783 81.22ZM103.583 79.8C104.103 79.8 104.589 79.6867 105.043 79.46C105.496 79.22 105.836 78.9467 106.063 78.64V71.32C105.956 71.16 105.703 71.02 105.303 70.9C104.916 70.7667 104.503 70.7 104.063 70.7C103.023 70.7 102.189 71.1 101.563 71.9C100.949 72.6867 100.643 73.9067 100.643 75.56C100.643 77 100.916 78.0667 101.463 78.76C102.009 79.4533 102.716 79.8 103.583 79.8ZM111.884 71.2C111.884 69.64 112.258 68.2067 113.004 66.9C113.764 65.5933 114.791 64.56 116.084 63.8C117.391 63.04 118.824 62.66 120.384 62.66C121.944 62.66 123.371 63.04 124.664 63.8C125.971 64.56 126.998 65.5933 127.744 66.9C128.504 68.2067 128.884 69.64 128.884 71.2C128.884 72.76 128.504 74.2 127.744 75.52C126.998 76.8267 125.971 77.8667 124.664 78.64C123.371 79.4 121.944 79.78 120.384 79.78C118.824 79.78 117.391 79.4 116.084 78.64C114.791 77.8667 113.764 76.8267 113.004 75.52C112.258 74.2 111.884 72.76 111.884 71.2ZM113.064 71.2C113.064 72.56 113.384 73.82 114.024 74.98C114.678 76.1267 115.564 77.04 116.684 77.72C117.804 78.4 119.038 78.74 120.384 78.74C121.731 78.74 122.964 78.4 124.084 77.72C125.204 77.04 126.084 76.1267 126.724 74.98C127.364 73.82 127.684 72.56 127.684 71.2C127.684 69.8533 127.364 68.6067 126.724 67.46C126.084 66.3 125.204 65.38 124.084 64.7C122.964 64.02 121.731 63.68 120.384 63.68C119.024 63.68 117.784 64.02 116.664 64.7C115.544 65.38 114.664 66.3 114.024 67.46C113.384 68.6067 113.064 69.8533 113.064 71.2ZM117.404 67.62L116.504 67.42V66.54H118.084L119.504 66.52C119.931 66.4933 120.284 66.48 120.564 66.48C121.738 66.48 122.631 66.7 123.244 67.14C123.858 67.5667 124.164 68.1667 124.164 68.94C124.164 69.6733 123.971 70.2933 123.584 70.8C123.211 71.3067 122.684 71.6333 122.004 71.78C122.418 71.9667 122.724 72.2067 122.924 72.5C123.124 72.7933 123.324 73.18 123.524 73.66C123.711 74.1133 123.884 74.4467 124.044 74.66C124.218 74.8733 124.491 74.9933 124.864 75.02V75.94H123.364C122.964 75.94 122.671 75.8 122.484 75.52C122.311 75.24 122.138 74.8133 121.964 74.24C121.804 73.6667 121.624 73.2067 121.424 72.86C121.238 72.5133 120.944 72.2667 120.544 72.12L118.984 72.1V74.94L120.004 75.14V75.94H116.504V75.14L117.404 74.9V67.62ZM118.984 71C119.198 71.04 119.738 71.06 120.604 71.06C121.098 71.06 121.518 70.88 121.864 70.52C122.211 70.1467 122.384 69.7067 122.384 69.2C122.384 68.5733 122.211 68.1267 121.864 67.86C121.531 67.5933 121.011 67.46 120.304 67.46C119.864 67.46 119.424 67.4933 118.984 67.56V71Z" fill="#EEBE74"/>
</svg>
