<svg width="483" height="114" viewBox="0 0 483 114" fill="none" xmlns="http://www.w3.org/2000/svg">
<path d="M102.704 12.0461C102.853 12.0461 102.928 12.2701 102.928 12.7181C102.928 13.1661 102.853 13.3901 102.704 13.3901C99.9413 13.3901 97.328 14.5848 94.864 16.9741C92.4747 19.2888 90.496 22.4995 88.928 26.6061L68.208 81.9341C68.1333 82.2328 67.7227 82.3821 66.976 82.3821C66.2293 82.3821 65.8187 82.2328 65.744 81.9341L51.408 51.5821L40.096 81.9341C40.0213 82.2328 39.6107 82.3821 38.864 82.3821C38.1173 82.3821 37.7067 82.2328 37.632 81.9341L9.072 21.3421C7.952 18.9528 7.01867 17.2355 6.272 16.1901C5.6 15.1448 4.816 14.4355 3.92 14.0621C3.09867 13.6141 1.97867 13.3901 0.56 13.3901C0.336 13.3901 0.224 13.1661 0.224 12.7181C0.224 12.2701 0.336 12.0461 0.56 12.0461C1.68 12.0461 2.464 12.0835 2.912 12.1581C4.40533 12.3075 6.34667 12.3821 8.736 12.3821C13.7387 12.3821 17.9573 12.3075 21.392 12.1581C22.3627 12.0835 23.5573 12.0461 24.976 12.0461C25.2 12.0461 25.312 12.2701 25.312 12.7181C25.312 13.1661 25.2 13.3901 24.976 13.3901C23.1093 13.3901 21.7653 13.5768 20.944 13.9501C20.1973 14.3235 19.824 14.9955 19.824 15.9661C19.824 17.2355 20.6827 19.6995 22.4 23.3581L42.56 66.1421L49.616 47.6621L37.184 21.3421C35.9147 18.6541 34.72 16.6755 33.6 15.4061C32.48 14.0621 31.2853 13.3901 30.016 13.3901C29.792 13.3901 29.68 13.1661 29.68 12.7181C29.68 12.2701 29.792 12.0461 30.016 12.0461C30.7627 12.0461 31.6213 12.1208 32.592 12.2701C33.6373 12.3448 35.0933 12.3821 36.96 12.3821C41.216 12.3821 44.7627 12.3075 47.6 12.1581C48.3467 12.0835 49.3173 12.0461 50.512 12.0461C50.736 12.0461 50.848 12.2701 50.848 12.7181C50.848 13.1661 50.736 13.3901 50.512 13.3901C49.4667 13.3901 48.6827 13.5395 48.16 13.8381C47.712 14.0621 47.488 14.5101 47.488 15.1821C47.488 16.4515 48.496 19.1768 50.512 23.3581L55.44 33.7741L58.24 26.2701C59.8827 22.0141 60.704 18.8035 60.704 16.6381C60.704 14.4728 59.7707 13.3901 57.904 13.3901C57.68 13.3901 57.568 13.1661 57.568 12.7181C57.568 12.2701 57.68 12.0461 57.904 12.0461C58.5013 12.0461 59.136 12.1208 59.808 12.2701C60.5547 12.3448 62.3467 12.3821 65.184 12.3821C66.4533 12.3821 67.984 12.3075 69.776 12.1581L73.92 12.0461C74.0693 12.0461 74.144 12.2701 74.144 12.7181C74.144 13.1661 74.0693 13.3901 73.92 13.3901C68.9173 13.3901 64.7733 17.7955 61.488 26.6061L57.344 37.6941L70.784 66.0301L85.232 27.3901C86.128 25.0008 86.576 22.8355 86.576 20.8941C86.576 18.5795 85.9787 16.7501 84.784 15.4061C83.664 14.0621 82.1333 13.3901 80.192 13.3901C79.968 13.3901 79.856 13.1661 79.856 12.7181C79.856 12.2701 79.968 12.0461 80.192 12.0461L85.344 12.1581C88.032 12.3075 90.496 12.3821 92.736 12.3821C94.2293 12.3821 95.9467 12.3075 97.888 12.1581L102.704 12.0461ZM135.852 74.6541C136.001 74.6541 136.15 74.8035 136.3 75.1021C136.524 75.4008 136.561 75.6248 136.412 75.7741C133.649 78.4621 130.849 80.4035 128.012 81.5981C125.174 82.7928 122.076 83.3901 118.716 83.3901C114.012 83.3901 109.942 82.4195 106.508 80.4781C103.073 78.4621 100.46 75.8115 98.6676 72.5261C96.8756 69.1661 95.9796 65.5448 95.9796 61.6621C95.9796 57.3315 97.0623 53.3368 99.2276 49.6781C101.393 46.0195 104.38 43.1448 108.188 41.0541C112.07 38.8888 116.438 37.8061 121.292 37.8061C125.921 37.8061 129.505 38.8515 132.044 40.9421C134.582 43.0328 135.852 46.2808 135.852 50.6861C135.852 53.0008 135.441 54.1581 134.62 54.1581L107.404 54.2701C107.329 54.7928 107.292 55.6515 107.292 56.8461C107.292 63.4168 108.785 68.5688 111.772 72.3021C114.833 76.0355 119.201 77.9021 124.876 77.9021C126.892 77.9021 128.609 77.6781 130.028 77.2301C131.446 76.7821 133.313 75.9608 135.628 74.7661L135.852 74.6541ZM117.036 40.0461C114.572 40.0461 112.518 41.1288 110.876 43.2941C109.233 45.3848 108.15 48.2968 107.628 52.0301L123.868 51.8061C123.793 47.9981 123.233 45.0861 122.188 43.0701C121.142 41.0541 119.425 40.0461 117.036 40.0461ZM193.768 74.7661C193.992 74.7661 194.179 74.9528 194.328 75.3261C194.552 75.6995 194.589 75.9235 194.44 75.9981L178.984 83.5021L178.424 83.6141C177.752 83.6141 177.117 82.9048 176.52 81.4861C175.997 80.0675 175.661 78.1261 175.512 75.6621C169.987 80.8888 164.349 83.5021 158.6 83.5021C155.315 83.5021 152.328 82.6435 149.64 80.9261C147.027 79.2088 144.936 76.7075 143.368 73.4221C141.8 70.0621 141.016 66.1421 141.016 61.6621C141.016 55.9875 142.323 51.3581 144.936 47.7741C147.624 44.1155 150.909 41.4648 154.792 39.8221C158.749 38.1795 162.707 37.3581 166.664 37.3581C169.427 37.3581 172.339 37.8061 175.4 38.7021V16.0781C175.4 13.4648 175.139 11.5981 174.616 10.4781C174.168 9.35814 173.347 8.79814 172.152 8.79814C171.181 8.79814 169.8 9.20881 168.008 10.0301H167.896C167.597 10.0301 167.336 9.84348 167.112 9.47014C166.963 9.02214 166.963 8.7608 167.112 8.68614L183.576 0.958138L184.024 0.84614C184.397 0.84614 184.808 1.03281 185.256 1.40614C185.704 1.70481 185.928 2.00347 185.928 2.30214V69.0541C185.928 71.5928 186.152 73.3848 186.6 74.4301C187.123 75.4755 187.944 75.9981 189.064 75.9981C190.035 75.9981 191.565 75.5875 193.656 74.7661H193.768ZM164.76 78.1261C168.493 78.1261 172.04 76.5581 175.4 73.4221V72.8621V45.6461C174.056 43.7795 172.525 42.4355 170.808 41.6141C169.165 40.7181 167.224 40.2701 164.984 40.2701C160.952 40.2701 157.853 41.6888 155.688 44.5261C153.597 47.2888 152.552 51.8061 152.552 58.0781C152.552 64.3501 153.672 69.2781 155.912 72.8621C158.152 76.3715 161.101 78.1261 164.76 78.1261ZM221.406 77.4541C225.811 77.5288 229.395 77.7901 232.158 78.2381C234.995 78.6861 237.347 79.8061 239.214 81.5981C241.155 83.3155 242.126 85.9661 242.126 89.5501C242.126 93.7315 240.819 97.6515 238.206 101.31C235.667 105.043 232.195 108.03 227.79 110.27C223.459 112.51 218.792 113.63 213.79 113.63C208.638 113.63 204.419 112.435 201.134 110.046C197.848 107.731 196.206 104.67 196.206 100.862C196.206 95.6355 199.976 90.5581 207.518 85.6301C202.142 84.5848 199.454 81.8968 199.454 77.5661C199.454 72.9368 202.067 68.8675 207.294 65.3581C204.456 64.0141 202.216 62.1475 200.574 59.7581C199.006 57.2941 198.222 54.7181 198.222 52.0301C198.222 49.0435 199.192 46.5048 201.134 44.4141C203.075 42.3235 205.539 40.7555 208.526 39.7101C211.587 38.5901 214.686 38.0301 217.822 38.0301C222.526 38.0301 226.558 39.2248 229.918 41.6141C233.8 39.0008 237.832 37.6941 242.014 37.6941C242.611 37.6941 242.91 38.7395 242.91 40.8301C242.91 41.9501 242.76 43.1448 242.462 44.4141C242.163 45.6088 241.864 46.0941 241.566 45.8701C238.504 44.6008 235.742 43.9661 233.278 43.9661H232.382C234.398 46.3555 235.406 49.0435 235.406 52.0301C235.406 55.0168 234.435 57.6675 232.494 59.9821C230.552 62.2968 228.051 64.0888 224.99 65.3581C222.003 66.5528 218.904 67.1501 215.694 67.1501C213.379 67.1501 211.251 66.8141 209.31 66.1421C208.115 67.4115 207.518 69.0168 207.518 70.9581C207.518 72.9741 208.04 74.4301 209.086 75.3261C210.206 76.2221 211.662 76.7821 213.454 77.0061C215.246 77.2301 217.896 77.3795 221.406 77.4541ZM214.126 40.1581C210.766 40.1581 209.086 42.9955 209.086 48.6701C209.086 51.8061 209.534 54.6435 210.43 57.1821C211.326 59.6461 212.483 61.5875 213.902 63.0061C215.395 64.4248 216.963 65.1341 218.606 65.1341C220.248 65.1341 221.63 64.3128 222.75 62.6701C223.87 61.0275 224.43 58.5261 224.43 55.1661C224.43 51.9555 223.907 49.2301 222.862 46.9901C221.816 44.6755 220.472 42.9581 218.83 41.8381C217.262 40.7181 215.694 40.1581 214.126 40.1581ZM220.51 110.046C224.318 110.046 227.342 108.851 229.582 106.462C231.822 104.073 232.942 100.825 232.942 96.7181C232.942 93.5075 232.232 91.1555 230.814 89.6621C229.47 88.2435 227.678 87.3475 225.438 86.9741C223.272 86.6755 220.099 86.4888 215.918 86.4141C215.246 86.4141 214.312 86.3768 213.118 86.3021C211.923 86.2275 210.915 86.1528 210.094 86.0781C207.555 87.9448 206.286 90.9315 206.286 95.0381C206.286 99.8168 207.667 103.513 210.43 106.126C213.267 108.739 216.627 110.046 220.51 110.046ZM321.105 38.8141C321.329 38.8141 321.441 39.0381 321.441 39.4861C321.441 39.9341 321.329 40.1581 321.105 40.1581C319.014 40.1581 317.11 40.9795 315.393 42.6221C313.75 44.1901 312.182 46.7288 310.689 50.2381L296.913 81.9341C296.913 82.2328 296.54 82.3821 295.793 82.3821C294.972 82.3821 294.524 82.2328 294.449 81.9341L280.897 55.2781L269.361 81.9341C269.361 82.2328 268.988 82.3821 268.241 82.3821C267.569 82.3821 267.121 82.2328 266.897 81.9341L249.761 48.1101C248.118 44.8995 246.7 42.7715 245.505 41.7261C244.385 40.6808 242.966 40.1581 241.249 40.1581C241.025 40.1581 240.913 39.9341 240.913 39.4861C240.913 39.0381 241.025 38.8141 241.249 38.8141C242.593 38.8141 243.713 38.8515 244.609 38.9261L252.113 39.0381L260.065 38.9261C261.185 38.8515 262.716 38.8141 264.657 38.8141C264.881 38.8141 264.993 39.0381 264.993 39.4861C264.993 39.9341 264.881 40.1581 264.657 40.1581C260.849 40.1581 258.945 40.9795 258.945 42.6221C258.945 43.0701 259.169 43.7048 259.617 44.5261L272.609 67.9341L279.217 51.9181L277.313 48.1101C275.596 44.8248 274.289 42.6968 273.393 41.7261C272.497 40.6808 271.377 40.1581 270.033 40.1581C269.884 40.1581 269.809 39.9341 269.809 39.4861C269.809 39.0381 269.884 38.8141 270.033 38.8141C271.228 38.8141 272.198 38.8515 272.945 38.9261L279.665 39.0381L287.617 38.9261C288.737 38.8515 290.268 38.8141 292.209 38.8141C292.358 38.8141 292.433 39.0381 292.433 39.4861C292.433 39.9341 292.358 40.1581 292.209 40.1581C290.716 40.1581 289.484 40.4195 288.513 40.9421C287.617 41.3901 287.169 42.0248 287.169 42.8461C287.169 43.4435 287.318 44.0035 287.617 44.5261L300.161 68.0461L307.553 50.1261C308.15 48.5581 308.449 47.2141 308.449 46.0941C308.449 44.2275 307.777 42.7715 306.433 41.7261C305.164 40.6808 303.446 40.1581 301.281 40.1581C301.057 40.1581 300.945 39.9341 300.945 39.4861C300.945 39.0381 301.057 38.8141 301.281 38.8141C303.297 38.8141 304.79 38.8515 305.761 38.9261L312.481 39.0381L317.073 38.9261C317.894 38.8515 319.238 38.8141 321.105 38.8141ZM344.913 83.5021C340.283 83.5021 336.214 82.4568 332.705 80.3661C329.27 78.2008 326.619 75.3261 324.753 71.7421C322.886 68.0835 321.953 64.1261 321.953 59.8701C321.953 55.0168 323.185 50.9101 325.649 47.5501C328.113 44.1155 331.249 41.5768 335.057 39.9341C338.865 38.2168 342.785 37.3581 346.817 37.3581C351.446 37.3581 355.478 38.4408 358.913 40.6061C362.347 42.7715 364.961 45.6461 366.753 49.2301C368.619 52.7395 369.553 56.5101 369.553 60.5421C369.553 65.0221 368.433 69.0168 366.193 72.5261C363.953 75.9608 360.929 78.6488 357.121 80.5901C353.387 82.5315 349.318 83.5021 344.913 83.5021ZM348.273 81.1501C351.185 81.1501 353.387 79.7315 354.881 76.8941C356.449 73.9821 357.233 69.8381 357.233 64.4621C357.233 59.2355 356.561 54.7555 355.217 51.0221C353.873 47.2888 352.118 44.4888 349.953 42.6221C347.787 40.6808 345.473 39.7101 343.009 39.7101C337.035 39.7101 334.049 45.0488 334.049 55.7261C334.049 60.7288 334.683 65.1715 335.953 69.0541C337.222 72.8621 338.939 75.8488 341.105 78.0141C343.27 80.1048 345.659 81.1501 348.273 81.1501ZM398.59 83.5021C393.96 83.5021 389.891 82.4568 386.382 80.3661C382.947 78.2008 380.296 75.3261 378.43 71.7421C376.563 68.0835 375.63 64.1261 375.63 59.8701C375.63 55.0168 376.862 50.9101 379.326 47.5501C381.79 44.1155 384.926 41.5768 388.734 39.9341C392.542 38.2168 396.462 37.3581 400.494 37.3581C405.123 37.3581 409.155 38.4408 412.59 40.6061C416.024 42.7715 418.638 45.6461 420.43 49.2301C422.296 52.7395 423.23 56.5101 423.23 60.5421C423.23 65.0221 422.11 69.0168 419.87 72.5261C417.63 75.9608 414.606 78.6488 410.798 80.5901C407.064 82.5315 402.995 83.5021 398.59 83.5021ZM401.95 81.1501C404.862 81.1501 407.064 79.7315 408.558 76.8941C410.126 73.9821 410.91 69.8381 410.91 64.4621C410.91 59.2355 410.238 54.7555 408.894 51.0221C407.55 47.2888 405.795 44.4888 403.63 42.6221C401.464 40.6808 399.15 39.7101 396.686 39.7101C390.712 39.7101 387.726 45.0488 387.726 55.7261C387.726 60.7288 388.36 65.1715 389.63 69.0541C390.899 72.8621 392.616 75.8488 394.782 78.0141C396.947 80.1048 399.336 81.1501 401.95 81.1501ZM482.059 74.7661C482.283 74.7661 482.469 74.9528 482.619 75.3261C482.843 75.6995 482.88 75.9235 482.731 75.9981L467.275 83.5021L466.715 83.6141C466.043 83.6141 465.408 82.9048 464.811 81.4861C464.288 80.0675 463.952 78.1261 463.803 75.6621C458.277 80.8888 452.64 83.5021 446.891 83.5021C443.605 83.5021 440.619 82.6435 437.931 80.9261C435.317 79.2088 433.227 76.7075 431.659 73.4221C430.091 70.0621 429.307 66.1421 429.307 61.6621C429.307 55.9875 430.613 51.3581 433.227 47.7741C435.915 44.1155 439.2 41.4648 443.083 39.8221C447.04 38.1795 450.997 37.3581 454.955 37.3581C457.717 37.3581 460.629 37.8061 463.691 38.7021V16.0781C463.691 13.4648 463.429 11.5981 462.907 10.4781C462.459 9.35814 461.637 8.79814 460.443 8.79814C459.472 8.79814 458.091 9.20881 456.299 10.0301H456.187C455.888 10.0301 455.627 9.84348 455.403 9.47014C455.253 9.02214 455.253 8.7608 455.403 8.68614L471.867 0.958138L472.315 0.84614C472.688 0.84614 473.099 1.03281 473.547 1.40614C473.995 1.70481 474.219 2.00347 474.219 2.30214V69.0541C474.219 71.5928 474.443 73.3848 474.891 74.4301C475.413 75.4755 476.235 75.9981 477.355 75.9981C478.325 75.9981 479.856 75.5875 481.947 74.7661H482.059ZM453.051 78.1261C456.784 78.1261 460.331 76.5581 463.691 73.4221V72.8621V45.6461C462.347 43.7795 460.816 42.4355 459.099 41.6141C457.456 40.7181 455.515 40.2701 453.275 40.2701C449.243 40.2701 446.144 41.6888 443.979 44.5261C441.888 47.2888 440.843 51.8061 440.843 58.0781C440.843 64.3501 441.963 69.2781 444.203 72.8621C446.443 76.3715 449.392 78.1261 453.051 78.1261Z" fill="#6B99CF"/>
</svg>
