<svg width="490" height="98" viewBox="0 0 490 98" fill="none" xmlns="http://www.w3.org/2000/svg">
<mask id="path-1-outside-1_143_6329" maskUnits="userSpaceOnUse" x="-1" y="-1" width="492" height="101" fill="black">
<rect fill="white" x="-1" y="-1" width="492" height="101"/>
<path d="M35.0682 97.716C23.1882 97.716 14.4762 94.504 8.93219 88.08C3.38819 81.568 0.616194 73.472 0.616194 63.792C0.616194 61.152 0.924194 57.984 1.54019 54.288C3.03619 45.928 6.24819 38.536 11.1762 32.112C16.1922 25.688 22.1762 20.76 29.1282 17.328C36.0802 13.808 43.1642 12.048 50.3802 12.048C53.9882 12.048 57.5962 12.444 61.2042 13.236C64.9002 14.028 67.7602 15.084 69.7842 16.404C70.3122 16.756 70.6202 17.152 70.7082 17.592C70.8842 17.944 70.9282 18.604 70.8402 19.572L69.2562 35.148C69.1682 35.5 68.9042 35.676 68.4642 35.676C68.0242 35.676 67.8042 35.5 67.8042 35.148C66.9242 28.46 64.5042 23.488 60.5442 20.232C56.6722 16.888 51.6122 15.216 45.3642 15.216C39.9082 15.216 34.8922 16.668 30.3162 19.572C25.7402 22.388 21.9122 26.436 18.8322 31.716C15.8402 36.996 13.8162 43.2 12.7602 50.328C12.1442 53.936 11.8362 57.632 11.8362 61.416C11.8362 67.928 12.8042 73.78 14.7402 78.972C16.6762 84.164 19.4482 88.256 23.0562 91.248C26.7522 94.152 31.0202 95.604 35.8602 95.604C40.7002 95.604 45.4522 93.976 50.1162 90.72C54.8682 87.376 59.3562 82.36 63.5802 75.672C63.7562 75.496 63.9322 75.408 64.1082 75.408C64.3722 75.408 64.5922 75.496 64.7682 75.672C64.9442 75.848 64.9882 76.024 64.9002 76.2L61.0722 90.72C60.8082 91.776 60.5442 92.524 60.2802 92.964C60.0162 93.316 59.4882 93.58 58.6962 93.756C51.0402 96.396 43.1642 97.716 35.0682 97.716ZM89.5759 97.848C84.1199 97.848 79.8959 96 76.9039 92.304C73.9999 88.52 72.5479 83.636 72.5479 77.652C72.5479 75.716 72.7679 73.34 73.2079 70.524C74.1759 65.332 76.0239 60.668 78.7519 56.532C81.5679 52.396 84.9559 49.184 88.9159 46.896C92.8759 44.52 97.0559 43.332 101.456 43.332C107.088 43.332 111.4 45.18 114.392 48.876C117.472 52.484 119.012 57.28 119.012 63.264C119.012 65.552 118.748 67.972 118.22 70.524C117.076 76.068 115.008 80.908 112.016 85.044C109.112 89.18 105.68 92.348 101.72 94.548C97.7599 96.748 93.7119 97.848 89.5759 97.848ZM94.1959 94.548C97.6279 94.548 100.664 92.92 103.304 89.664C106.032 86.408 107.924 81.964 108.98 76.332C109.508 73.516 109.772 70.744 109.772 68.016C109.772 62.032 108.672 56.972 106.472 52.836C104.36 48.612 101.324 46.5 97.3639 46.5C94.0199 46.5 90.9839 48.128 88.2559 51.384C85.5279 54.64 83.6359 59.128 82.5799 64.848C81.9639 68.192 81.6559 71.14 81.6559 73.692C81.6559 79.588 82.7559 84.56 84.9559 88.608C87.2439 92.568 90.3239 94.548 94.1959 94.548ZM132.92 97.188C131.16 97.188 129.84 96.66 128.96 95.604C128.08 94.548 127.64 92.92 127.64 90.72C127.64 89.048 127.904 86.892 128.432 84.252L141.104 15.48C141.368 14.16 141.5 13.06 141.5 12.18C141.5 9.892 140.62 8.748 138.86 8.748C137.452 8.748 135.428 9.408 132.788 10.728H132.656C132.216 10.728 131.908 10.508 131.732 10.068C131.644 9.54 131.776 9.232 132.128 9.14399L150.344 0.299997H150.608C150.96 0.299997 151.268 0.431995 151.532 0.695992C151.796 0.959994 151.884 1.18 151.796 1.356L136.616 84.252C136.352 85.572 136.22 86.716 136.22 87.684C136.22 90.236 137.012 91.512 138.596 91.512C139.476 91.512 140.576 91.028 141.896 90.06C143.216 89.092 144.844 87.684 146.78 85.836C146.956 85.66 147.132 85.572 147.308 85.572C147.572 85.572 147.792 85.748 147.968 86.1C148.144 86.364 148.1 86.628 147.836 86.892C144.844 90.412 142.16 93.008 139.784 94.68C137.496 96.352 135.208 97.188 132.92 97.188ZM163.311 97.188C161.551 97.188 160.231 96.66 159.351 95.604C158.471 94.548 158.031 92.92 158.031 90.72C158.031 89.048 158.295 86.892 158.823 84.252L171.495 15.48C171.759 14.16 171.891 13.06 171.891 12.18C171.891 9.892 171.011 8.748 169.251 8.748C167.843 8.748 165.819 9.408 163.179 10.728H163.047C162.607 10.728 162.299 10.508 162.123 10.068C162.035 9.54 162.167 9.232 162.519 9.14399L180.735 0.299997H180.999C181.351 0.299997 181.659 0.431995 181.923 0.695992C182.187 0.959994 182.275 1.18 182.187 1.356L167.007 84.252C166.743 85.572 166.611 86.716 166.611 87.684C166.611 90.236 167.403 91.512 168.987 91.512C169.867 91.512 170.967 91.028 172.287 90.06C173.607 89.092 175.235 87.684 177.171 85.836C177.347 85.66 177.523 85.572 177.699 85.572C177.963 85.572 178.183 85.748 178.359 86.1C178.535 86.364 178.491 86.628 178.227 86.892C175.235 90.412 172.551 93.008 170.175 94.68C167.887 96.352 165.599 97.188 163.311 97.188ZM216.274 43.332C219.354 43.332 221.73 43.904 223.402 45.048C225.074 46.104 225.91 47.556 225.91 49.404C225.91 53.54 222.874 57.324 216.802 60.756C210.818 64.1 203.558 66.52 195.022 68.016C194.67 70.128 194.494 72.416 194.494 74.88C194.494 80.248 195.638 84.56 197.926 87.816C200.302 91.072 203.734 92.7 208.222 92.7C213.062 92.7 217.33 91.248 221.026 88.344H221.158C221.422 88.344 221.642 88.476 221.818 88.74C222.082 89.004 222.126 89.268 221.95 89.532C215.702 94.9 209.146 97.584 202.282 97.584C196.474 97.584 192.118 95.78 189.214 92.172C186.31 88.564 184.858 83.9 184.858 78.18C184.858 76.244 185.078 74.044 185.518 71.58C186.398 67.004 188.29 62.56 191.194 58.248C194.186 53.848 197.882 50.284 202.282 47.556C206.682 44.74 211.346 43.332 216.274 43.332ZM215.482 53.232C215.658 52.352 215.746 51.78 215.746 51.516C215.746 50.02 215.174 48.876 214.03 48.084C212.974 47.292 211.654 46.896 210.07 46.896C206.462 46.896 203.382 48.7 200.83 52.308C198.278 55.828 196.43 60.448 195.286 66.168C207.43 63.88 214.162 59.568 215.482 53.232ZM246.856 97.716C241.048 97.716 236.692 95.736 233.788 91.776C230.972 87.816 229.564 82.888 229.564 76.992C229.564 74.352 229.828 71.8 230.356 69.336C231.324 64.144 233.304 59.568 236.296 55.608C239.376 51.648 242.94 48.612 246.988 46.5C251.036 44.388 255.04 43.332 259 43.332C262.168 43.332 264.896 44.036 267.184 45.444C269.56 46.764 270.748 48.568 270.748 50.856C270.748 52.352 270.308 53.628 269.428 54.684C268.548 55.74 267.272 56.268 265.6 56.268C262.872 56.268 261.112 54.684 260.32 51.516C259.352 48.172 257.24 46.5 253.984 46.5C250.288 46.5 247.252 48.216 244.876 51.648C242.5 54.992 240.828 59.48 239.86 65.112C239.244 68.632 238.936 71.536 238.936 73.824C238.936 79.456 240.124 83.988 242.5 87.42C244.876 90.852 248.44 92.568 253.192 92.568C257.504 92.568 261.904 90.764 266.392 87.156L266.656 87.024C266.92 87.024 267.14 87.2 267.316 87.552C267.58 87.904 267.624 88.168 267.448 88.344C260.672 94.592 253.808 97.716 246.856 97.716ZM309.253 45.312C309.605 45.312 309.869 45.444 310.045 45.708C310.221 45.972 310.265 46.28 310.177 46.632C309.913 47.512 309.341 48.48 308.461 49.536C307.581 50.592 306.701 51.12 305.821 51.12C305.381 51.12 303.709 50.9 300.805 50.46C297.989 50.02 295.085 49.756 292.093 49.668L286.285 82.008C286.021 83.328 285.889 84.516 285.889 85.572C285.889 87.772 286.417 89.4 287.473 90.456C288.529 91.424 290.201 91.908 292.489 91.908C294.601 91.908 296.581 91.468 298.429 90.588C300.365 89.62 302.477 88.212 304.765 86.364H304.897C305.161 86.364 305.425 86.496 305.689 86.76C305.953 87.024 305.997 87.244 305.821 87.42C301.861 91.028 298.341 93.624 295.261 95.208C292.269 96.792 289.365 97.584 286.549 97.584C283.733 97.584 281.445 96.924 279.685 95.604C277.925 94.196 277.045 91.864 277.045 88.608C277.045 88.08 277.133 87.024 277.309 85.44L282.853 55.608C283.205 54.112 283.381 52.748 283.381 51.516C283.381 50.284 283.029 49.492 282.325 49.14C281.621 48.7 280.301 48.48 278.365 48.48C278.101 48.48 277.969 48.26 277.969 47.82C277.969 47.556 278.013 47.292 278.101 47.028C278.277 46.764 278.409 46.632 278.497 46.632C281.753 46.632 284.569 45.664 286.945 43.728C289.409 41.704 291.169 39.152 292.225 36.072C292.225 35.808 292.533 35.676 293.149 35.676C293.501 35.676 293.809 35.764 294.073 35.94C294.425 36.028 294.557 36.116 294.469 36.204L292.621 46.368C294.733 46.28 296.757 46.192 298.693 46.104C300.629 45.928 302.389 45.796 303.973 45.708C306.525 45.444 308.285 45.312 309.253 45.312ZM330.884 28.812C328.948 28.812 327.408 28.284 326.264 27.228C325.208 26.084 324.68 24.544 324.68 22.608C324.68 20.76 325.208 19.308 326.264 18.252C327.408 17.196 328.948 16.668 330.884 16.668C332.82 16.668 334.316 17.196 335.372 18.252C336.516 19.308 337.088 20.76 337.088 22.608C337.088 24.544 336.56 26.084 335.504 27.228C334.448 28.284 332.908 28.812 330.884 28.812ZM322.436 97.188C318.916 97.188 317.156 95.032 317.156 90.72C317.156 88.872 317.42 86.716 317.948 84.252L323.36 56.796C323.624 55.476 323.756 54.332 323.756 53.364C323.756 50.724 322.92 49.404 321.248 49.404C320.28 49.404 319.048 49.932 317.552 50.988C316.056 51.956 314.428 53.364 312.668 55.212C312.58 55.3 312.448 55.344 312.272 55.344C312.008 55.344 311.744 55.212 311.48 54.948C311.304 54.596 311.348 54.332 311.612 54.156C317.42 47.292 322.568 43.86 327.056 43.86C328.816 43.86 330.092 44.388 330.884 45.444C331.764 46.412 332.204 47.952 332.204 50.064C332.204 52.088 331.984 54.112 331.544 56.136L326.132 84.252C325.868 85.572 325.736 86.716 325.736 87.684C325.736 90.236 326.528 91.512 328.112 91.512C330.136 91.512 332.908 89.664 336.428 85.968C336.516 85.88 336.648 85.836 336.824 85.836C337.176 85.836 337.44 86.012 337.616 86.364C337.792 86.628 337.748 86.848 337.484 87.024C334.58 90.456 331.896 93.008 329.432 94.68C327.056 96.352 324.724 97.188 322.436 97.188ZM359.934 97.848C354.478 97.848 350.254 96 347.262 92.304C344.358 88.52 342.906 83.636 342.906 77.652C342.906 75.716 343.126 73.34 343.566 70.524C344.534 65.332 346.382 60.668 349.11 56.532C351.926 52.396 355.314 49.184 359.274 46.896C363.234 44.52 367.414 43.332 371.814 43.332C377.446 43.332 381.758 45.18 384.75 48.876C387.83 52.484 389.37 57.28 389.37 63.264C389.37 65.552 389.106 67.972 388.578 70.524C387.434 76.068 385.366 80.908 382.374 85.044C379.47 89.18 376.038 92.348 372.078 94.548C368.118 96.748 364.07 97.848 359.934 97.848ZM364.554 94.548C367.986 94.548 371.022 92.92 373.662 89.664C376.39 86.408 378.282 81.964 379.338 76.332C379.866 73.516 380.13 70.744 380.13 68.016C380.13 62.032 379.03 56.972 376.83 52.836C374.718 48.612 371.682 46.5 367.722 46.5C364.378 46.5 361.342 48.128 358.614 51.384C355.886 54.64 353.994 59.128 352.938 64.848C352.322 68.192 352.014 71.14 352.014 73.692C352.014 79.588 353.114 84.56 355.314 88.608C357.602 92.568 360.682 94.548 364.554 94.548ZM449.61 85.836C449.786 85.66 449.918 85.572 450.006 85.572C450.27 85.572 450.49 85.748 450.666 86.1C450.842 86.364 450.842 86.628 450.666 86.892C447.674 90.412 444.99 93.008 442.614 94.68C440.238 96.352 437.906 97.188 435.618 97.188C433.858 97.188 432.582 96.704 431.79 95.736C430.998 94.68 430.602 93.008 430.602 90.72C430.602 89.224 430.822 87.068 431.262 84.252L435.09 63.264C435.618 60.624 435.882 58.336 435.882 56.4C435.882 51.648 434.166 49.272 430.734 49.272C427.918 49.272 425.014 51.076 422.022 54.684C419.03 58.292 416.214 63.528 413.574 70.392C410.934 77.256 408.778 85.396 407.106 94.812C406.93 95.516 406.402 96.044 405.522 96.396C404.642 96.836 403.454 97.056 401.958 97.056C399.582 97.056 398.394 96.748 398.394 96.132L398.922 93.492C399.714 89.708 400.198 87.288 400.374 86.232L405.786 56.796C406.05 55.476 406.182 54.376 406.182 53.496C406.182 50.768 405.346 49.404 403.674 49.404C401.562 49.404 398.658 51.34 394.962 55.212C394.874 55.3 394.742 55.344 394.566 55.344C394.302 55.344 394.082 55.212 393.906 54.948C393.73 54.596 393.73 54.332 393.906 54.156C396.898 50.636 399.67 48.04 402.222 46.368C404.774 44.696 407.238 43.86 409.614 43.86C411.374 43.86 412.65 44.388 413.442 45.444C414.234 46.412 414.63 47.996 414.63 50.196C414.63 51.516 414.41 53.496 413.97 56.136L411.33 70.656C414.498 62.032 418.194 55.344 422.418 50.592C426.642 45.752 431.086 43.332 435.75 43.332C438.654 43.332 440.81 44.168 442.218 45.84C443.714 47.512 444.462 50.064 444.462 53.496C444.462 55.52 444.198 57.94 443.67 60.756L439.314 84.252C439.05 85.572 438.918 86.672 438.918 87.552C438.918 90.192 439.754 91.512 441.426 91.512C442.306 91.512 443.406 91.028 444.726 90.06C446.046 89.092 447.674 87.684 449.61 85.836ZM465.156 97.452C461.812 97.452 458.864 96.704 456.312 95.208C453.848 93.624 452.616 91.776 452.616 89.664C452.616 88.08 453.056 86.848 453.936 85.968C454.904 85.088 456.048 84.648 457.368 84.648C458.336 84.648 459.128 84.956 459.744 85.572C460.36 86.1 461.108 87.068 461.988 88.476C462.956 90.236 464.012 91.6 465.156 92.568C466.3 93.536 467.884 94.02 469.908 94.02C474.132 94.02 476.552 91.644 477.168 86.892C477.256 86.54 477.3 85.968 477.3 85.176C477.3 82.624 476.552 80.424 475.056 78.576C473.648 76.728 471.448 74.572 468.456 72.108C465.552 69.732 463.352 67.62 461.856 65.772C460.36 63.924 459.612 61.724 459.612 59.172C459.612 56.356 460.448 53.76 462.12 51.384C463.88 49.008 466.168 47.16 468.984 45.84C471.888 44.432 474.924 43.728 478.092 43.728C481.524 43.728 484.34 44.388 486.54 45.708C488.74 47.028 489.708 48.7 489.444 50.724C489.18 52.044 488.608 53.1 487.728 53.892C486.848 54.596 485.88 54.948 484.824 54.948C483.504 54.948 482.492 54.64 481.788 54.024C481.084 53.408 480.336 52.484 479.544 51.252C478.664 49.844 477.74 48.788 476.772 48.084C475.892 47.292 474.616 46.896 472.944 46.896C471.272 46.896 469.864 47.336 468.72 48.216C467.664 49.096 467.048 50.284 466.872 51.78C466.784 52.132 466.74 52.704 466.74 53.496C466.74 55.872 467.444 57.984 468.852 59.832C470.348 61.68 472.504 63.792 475.32 66.168C478.4 68.808 480.688 71.14 482.184 73.164C483.768 75.1 484.56 77.388 484.56 80.028C484.56 82.668 483.68 85.352 481.92 88.08C480.248 90.808 477.916 93.052 474.924 94.812C472.02 96.572 468.764 97.452 465.156 97.452Z"/>
</mask>
<path d="M35.0682 97.716C23.1882 97.716 14.4762 94.504 8.93219 88.08C3.38819 81.568 0.616194 73.472 0.616194 63.792C0.616194 61.152 0.924194 57.984 1.54019 54.288C3.03619 45.928 6.24819 38.536 11.1762 32.112C16.1922 25.688 22.1762 20.76 29.1282 17.328C36.0802 13.808 43.1642 12.048 50.3802 12.048C53.9882 12.048 57.5962 12.444 61.2042 13.236C64.9002 14.028 67.7602 15.084 69.7842 16.404C70.3122 16.756 70.6202 17.152 70.7082 17.592C70.8842 17.944 70.9282 18.604 70.8402 19.572L69.2562 35.148C69.1682 35.5 68.9042 35.676 68.4642 35.676C68.0242 35.676 67.8042 35.5 67.8042 35.148C66.9242 28.46 64.5042 23.488 60.5442 20.232C56.6722 16.888 51.6122 15.216 45.3642 15.216C39.9082 15.216 34.8922 16.668 30.3162 19.572C25.7402 22.388 21.9122 26.436 18.8322 31.716C15.8402 36.996 13.8162 43.2 12.7602 50.328C12.1442 53.936 11.8362 57.632 11.8362 61.416C11.8362 67.928 12.8042 73.78 14.7402 78.972C16.6762 84.164 19.4482 88.256 23.0562 91.248C26.7522 94.152 31.0202 95.604 35.8602 95.604C40.7002 95.604 45.4522 93.976 50.1162 90.72C54.8682 87.376 59.3562 82.36 63.5802 75.672C63.7562 75.496 63.9322 75.408 64.1082 75.408C64.3722 75.408 64.5922 75.496 64.7682 75.672C64.9442 75.848 64.9882 76.024 64.9002 76.2L61.0722 90.72C60.8082 91.776 60.5442 92.524 60.2802 92.964C60.0162 93.316 59.4882 93.58 58.6962 93.756C51.0402 96.396 43.1642 97.716 35.0682 97.716ZM89.5759 97.848C84.1199 97.848 79.8959 96 76.9039 92.304C73.9999 88.52 72.5479 83.636 72.5479 77.652C72.5479 75.716 72.7679 73.34 73.2079 70.524C74.1759 65.332 76.0239 60.668 78.7519 56.532C81.5679 52.396 84.9559 49.184 88.9159 46.896C92.8759 44.52 97.0559 43.332 101.456 43.332C107.088 43.332 111.4 45.18 114.392 48.876C117.472 52.484 119.012 57.28 119.012 63.264C119.012 65.552 118.748 67.972 118.22 70.524C117.076 76.068 115.008 80.908 112.016 85.044C109.112 89.18 105.68 92.348 101.72 94.548C97.7599 96.748 93.7119 97.848 89.5759 97.848ZM94.1959 94.548C97.6279 94.548 100.664 92.92 103.304 89.664C106.032 86.408 107.924 81.964 108.98 76.332C109.508 73.516 109.772 70.744 109.772 68.016C109.772 62.032 108.672 56.972 106.472 52.836C104.36 48.612 101.324 46.5 97.3639 46.5C94.0199 46.5 90.9839 48.128 88.2559 51.384C85.5279 54.64 83.6359 59.128 82.5799 64.848C81.9639 68.192 81.6559 71.14 81.6559 73.692C81.6559 79.588 82.7559 84.56 84.9559 88.608C87.2439 92.568 90.3239 94.548 94.1959 94.548ZM132.92 97.188C131.16 97.188 129.84 96.66 128.96 95.604C128.08 94.548 127.64 92.92 127.64 90.72C127.64 89.048 127.904 86.892 128.432 84.252L141.104 15.48C141.368 14.16 141.5 13.06 141.5 12.18C141.5 9.892 140.62 8.748 138.86 8.748C137.452 8.748 135.428 9.408 132.788 10.728H132.656C132.216 10.728 131.908 10.508 131.732 10.068C131.644 9.54 131.776 9.232 132.128 9.14399L150.344 0.299997H150.608C150.96 0.299997 151.268 0.431995 151.532 0.695992C151.796 0.959994 151.884 1.18 151.796 1.356L136.616 84.252C136.352 85.572 136.22 86.716 136.22 87.684C136.22 90.236 137.012 91.512 138.596 91.512C139.476 91.512 140.576 91.028 141.896 90.06C143.216 89.092 144.844 87.684 146.78 85.836C146.956 85.66 147.132 85.572 147.308 85.572C147.572 85.572 147.792 85.748 147.968 86.1C148.144 86.364 148.1 86.628 147.836 86.892C144.844 90.412 142.16 93.008 139.784 94.68C137.496 96.352 135.208 97.188 132.92 97.188ZM163.311 97.188C161.551 97.188 160.231 96.66 159.351 95.604C158.471 94.548 158.031 92.92 158.031 90.72C158.031 89.048 158.295 86.892 158.823 84.252L171.495 15.48C171.759 14.16 171.891 13.06 171.891 12.18C171.891 9.892 171.011 8.748 169.251 8.748C167.843 8.748 165.819 9.408 163.179 10.728H163.047C162.607 10.728 162.299 10.508 162.123 10.068C162.035 9.54 162.167 9.232 162.519 9.14399L180.735 0.299997H180.999C181.351 0.299997 181.659 0.431995 181.923 0.695992C182.187 0.959994 182.275 1.18 182.187 1.356L167.007 84.252C166.743 85.572 166.611 86.716 166.611 87.684C166.611 90.236 167.403 91.512 168.987 91.512C169.867 91.512 170.967 91.028 172.287 90.06C173.607 89.092 175.235 87.684 177.171 85.836C177.347 85.66 177.523 85.572 177.699 85.572C177.963 85.572 178.183 85.748 178.359 86.1C178.535 86.364 178.491 86.628 178.227 86.892C175.235 90.412 172.551 93.008 170.175 94.68C167.887 96.352 165.599 97.188 163.311 97.188ZM216.274 43.332C219.354 43.332 221.73 43.904 223.402 45.048C225.074 46.104 225.91 47.556 225.91 49.404C225.91 53.54 222.874 57.324 216.802 60.756C210.818 64.1 203.558 66.52 195.022 68.016C194.67 70.128 194.494 72.416 194.494 74.88C194.494 80.248 195.638 84.56 197.926 87.816C200.302 91.072 203.734 92.7 208.222 92.7C213.062 92.7 217.33 91.248 221.026 88.344H221.158C221.422 88.344 221.642 88.476 221.818 88.74C222.082 89.004 222.126 89.268 221.95 89.532C215.702 94.9 209.146 97.584 202.282 97.584C196.474 97.584 192.118 95.78 189.214 92.172C186.31 88.564 184.858 83.9 184.858 78.18C184.858 76.244 185.078 74.044 185.518 71.58C186.398 67.004 188.29 62.56 191.194 58.248C194.186 53.848 197.882 50.284 202.282 47.556C206.682 44.74 211.346 43.332 216.274 43.332ZM215.482 53.232C215.658 52.352 215.746 51.78 215.746 51.516C215.746 50.02 215.174 48.876 214.03 48.084C212.974 47.292 211.654 46.896 210.07 46.896C206.462 46.896 203.382 48.7 200.83 52.308C198.278 55.828 196.43 60.448 195.286 66.168C207.43 63.88 214.162 59.568 215.482 53.232ZM246.856 97.716C241.048 97.716 236.692 95.736 233.788 91.776C230.972 87.816 229.564 82.888 229.564 76.992C229.564 74.352 229.828 71.8 230.356 69.336C231.324 64.144 233.304 59.568 236.296 55.608C239.376 51.648 242.94 48.612 246.988 46.5C251.036 44.388 255.04 43.332 259 43.332C262.168 43.332 264.896 44.036 267.184 45.444C269.56 46.764 270.748 48.568 270.748 50.856C270.748 52.352 270.308 53.628 269.428 54.684C268.548 55.74 267.272 56.268 265.6 56.268C262.872 56.268 261.112 54.684 260.32 51.516C259.352 48.172 257.24 46.5 253.984 46.5C250.288 46.5 247.252 48.216 244.876 51.648C242.5 54.992 240.828 59.48 239.86 65.112C239.244 68.632 238.936 71.536 238.936 73.824C238.936 79.456 240.124 83.988 242.5 87.42C244.876 90.852 248.44 92.568 253.192 92.568C257.504 92.568 261.904 90.764 266.392 87.156L266.656 87.024C266.92 87.024 267.14 87.2 267.316 87.552C267.58 87.904 267.624 88.168 267.448 88.344C260.672 94.592 253.808 97.716 246.856 97.716ZM309.253 45.312C309.605 45.312 309.869 45.444 310.045 45.708C310.221 45.972 310.265 46.28 310.177 46.632C309.913 47.512 309.341 48.48 308.461 49.536C307.581 50.592 306.701 51.12 305.821 51.12C305.381 51.12 303.709 50.9 300.805 50.46C297.989 50.02 295.085 49.756 292.093 49.668L286.285 82.008C286.021 83.328 285.889 84.516 285.889 85.572C285.889 87.772 286.417 89.4 287.473 90.456C288.529 91.424 290.201 91.908 292.489 91.908C294.601 91.908 296.581 91.468 298.429 90.588C300.365 89.62 302.477 88.212 304.765 86.364H304.897C305.161 86.364 305.425 86.496 305.689 86.76C305.953 87.024 305.997 87.244 305.821 87.42C301.861 91.028 298.341 93.624 295.261 95.208C292.269 96.792 289.365 97.584 286.549 97.584C283.733 97.584 281.445 96.924 279.685 95.604C277.925 94.196 277.045 91.864 277.045 88.608C277.045 88.08 277.133 87.024 277.309 85.44L282.853 55.608C283.205 54.112 283.381 52.748 283.381 51.516C283.381 50.284 283.029 49.492 282.325 49.14C281.621 48.7 280.301 48.48 278.365 48.48C278.101 48.48 277.969 48.26 277.969 47.82C277.969 47.556 278.013 47.292 278.101 47.028C278.277 46.764 278.409 46.632 278.497 46.632C281.753 46.632 284.569 45.664 286.945 43.728C289.409 41.704 291.169 39.152 292.225 36.072C292.225 35.808 292.533 35.676 293.149 35.676C293.501 35.676 293.809 35.764 294.073 35.94C294.425 36.028 294.557 36.116 294.469 36.204L292.621 46.368C294.733 46.28 296.757 46.192 298.693 46.104C300.629 45.928 302.389 45.796 303.973 45.708C306.525 45.444 308.285 45.312 309.253 45.312ZM330.884 28.812C328.948 28.812 327.408 28.284 326.264 27.228C325.208 26.084 324.68 24.544 324.68 22.608C324.68 20.76 325.208 19.308 326.264 18.252C327.408 17.196 328.948 16.668 330.884 16.668C332.82 16.668 334.316 17.196 335.372 18.252C336.516 19.308 337.088 20.76 337.088 22.608C337.088 24.544 336.56 26.084 335.504 27.228C334.448 28.284 332.908 28.812 330.884 28.812ZM322.436 97.188C318.916 97.188 317.156 95.032 317.156 90.72C317.156 88.872 317.42 86.716 317.948 84.252L323.36 56.796C323.624 55.476 323.756 54.332 323.756 53.364C323.756 50.724 322.92 49.404 321.248 49.404C320.28 49.404 319.048 49.932 317.552 50.988C316.056 51.956 314.428 53.364 312.668 55.212C312.58 55.3 312.448 55.344 312.272 55.344C312.008 55.344 311.744 55.212 311.48 54.948C311.304 54.596 311.348 54.332 311.612 54.156C317.42 47.292 322.568 43.86 327.056 43.86C328.816 43.86 330.092 44.388 330.884 45.444C331.764 46.412 332.204 47.952 332.204 50.064C332.204 52.088 331.984 54.112 331.544 56.136L326.132 84.252C325.868 85.572 325.736 86.716 325.736 87.684C325.736 90.236 326.528 91.512 328.112 91.512C330.136 91.512 332.908 89.664 336.428 85.968C336.516 85.88 336.648 85.836 336.824 85.836C337.176 85.836 337.44 86.012 337.616 86.364C337.792 86.628 337.748 86.848 337.484 87.024C334.58 90.456 331.896 93.008 329.432 94.68C327.056 96.352 324.724 97.188 322.436 97.188ZM359.934 97.848C354.478 97.848 350.254 96 347.262 92.304C344.358 88.52 342.906 83.636 342.906 77.652C342.906 75.716 343.126 73.34 343.566 70.524C344.534 65.332 346.382 60.668 349.11 56.532C351.926 52.396 355.314 49.184 359.274 46.896C363.234 44.52 367.414 43.332 371.814 43.332C377.446 43.332 381.758 45.18 384.75 48.876C387.83 52.484 389.37 57.28 389.37 63.264C389.37 65.552 389.106 67.972 388.578 70.524C387.434 76.068 385.366 80.908 382.374 85.044C379.47 89.18 376.038 92.348 372.078 94.548C368.118 96.748 364.07 97.848 359.934 97.848ZM364.554 94.548C367.986 94.548 371.022 92.92 373.662 89.664C376.39 86.408 378.282 81.964 379.338 76.332C379.866 73.516 380.13 70.744 380.13 68.016C380.13 62.032 379.03 56.972 376.83 52.836C374.718 48.612 371.682 46.5 367.722 46.5C364.378 46.5 361.342 48.128 358.614 51.384C355.886 54.64 353.994 59.128 352.938 64.848C352.322 68.192 352.014 71.14 352.014 73.692C352.014 79.588 353.114 84.56 355.314 88.608C357.602 92.568 360.682 94.548 364.554 94.548ZM449.61 85.836C449.786 85.66 449.918 85.572 450.006 85.572C450.27 85.572 450.49 85.748 450.666 86.1C450.842 86.364 450.842 86.628 450.666 86.892C447.674 90.412 444.99 93.008 442.614 94.68C440.238 96.352 437.906 97.188 435.618 97.188C433.858 97.188 432.582 96.704 431.79 95.736C430.998 94.68 430.602 93.008 430.602 90.72C430.602 89.224 430.822 87.068 431.262 84.252L435.09 63.264C435.618 60.624 435.882 58.336 435.882 56.4C435.882 51.648 434.166 49.272 430.734 49.272C427.918 49.272 425.014 51.076 422.022 54.684C419.03 58.292 416.214 63.528 413.574 70.392C410.934 77.256 408.778 85.396 407.106 94.812C406.93 95.516 406.402 96.044 405.522 96.396C404.642 96.836 403.454 97.056 401.958 97.056C399.582 97.056 398.394 96.748 398.394 96.132L398.922 93.492C399.714 89.708 400.198 87.288 400.374 86.232L405.786 56.796C406.05 55.476 406.182 54.376 406.182 53.496C406.182 50.768 405.346 49.404 403.674 49.404C401.562 49.404 398.658 51.34 394.962 55.212C394.874 55.3 394.742 55.344 394.566 55.344C394.302 55.344 394.082 55.212 393.906 54.948C393.73 54.596 393.73 54.332 393.906 54.156C396.898 50.636 399.67 48.04 402.222 46.368C404.774 44.696 407.238 43.86 409.614 43.86C411.374 43.86 412.65 44.388 413.442 45.444C414.234 46.412 414.63 47.996 414.63 50.196C414.63 51.516 414.41 53.496 413.97 56.136L411.33 70.656C414.498 62.032 418.194 55.344 422.418 50.592C426.642 45.752 431.086 43.332 435.75 43.332C438.654 43.332 440.81 44.168 442.218 45.84C443.714 47.512 444.462 50.064 444.462 53.496C444.462 55.52 444.198 57.94 443.67 60.756L439.314 84.252C439.05 85.572 438.918 86.672 438.918 87.552C438.918 90.192 439.754 91.512 441.426 91.512C442.306 91.512 443.406 91.028 444.726 90.06C446.046 89.092 447.674 87.684 449.61 85.836ZM465.156 97.452C461.812 97.452 458.864 96.704 456.312 95.208C453.848 93.624 452.616 91.776 452.616 89.664C452.616 88.08 453.056 86.848 453.936 85.968C454.904 85.088 456.048 84.648 457.368 84.648C458.336 84.648 459.128 84.956 459.744 85.572C460.36 86.1 461.108 87.068 461.988 88.476C462.956 90.236 464.012 91.6 465.156 92.568C466.3 93.536 467.884 94.02 469.908 94.02C474.132 94.02 476.552 91.644 477.168 86.892C477.256 86.54 477.3 85.968 477.3 85.176C477.3 82.624 476.552 80.424 475.056 78.576C473.648 76.728 471.448 74.572 468.456 72.108C465.552 69.732 463.352 67.62 461.856 65.772C460.36 63.924 459.612 61.724 459.612 59.172C459.612 56.356 460.448 53.76 462.12 51.384C463.88 49.008 466.168 47.16 468.984 45.84C471.888 44.432 474.924 43.728 478.092 43.728C481.524 43.728 484.34 44.388 486.54 45.708C488.74 47.028 489.708 48.7 489.444 50.724C489.18 52.044 488.608 53.1 487.728 53.892C486.848 54.596 485.88 54.948 484.824 54.948C483.504 54.948 482.492 54.64 481.788 54.024C481.084 53.408 480.336 52.484 479.544 51.252C478.664 49.844 477.74 48.788 476.772 48.084C475.892 47.292 474.616 46.896 472.944 46.896C471.272 46.896 469.864 47.336 468.72 48.216C467.664 49.096 467.048 50.284 466.872 51.78C466.784 52.132 466.74 52.704 466.74 53.496C466.74 55.872 467.444 57.984 468.852 59.832C470.348 61.68 472.504 63.792 475.32 66.168C478.4 68.808 480.688 71.14 482.184 73.164C483.768 75.1 484.56 77.388 484.56 80.028C484.56 82.668 483.68 85.352 481.92 88.08C480.248 90.808 477.916 93.052 474.924 94.812C472.02 96.572 468.764 97.452 465.156 97.452Z" fill="#6B99CF"/>
<path d="M8.93219 88.08L7.97221 88.8973L7.97775 88.9037L8.93219 88.08ZM1.54019 54.288L0.299171 54.0659L0.297847 54.0733L0.296611 54.0807L1.54019 54.288ZM11.1762 32.112L10.1825 31.3361L10.1759 31.3446L11.1762 32.112ZM29.1282 17.328L29.6863 18.4585L29.6977 18.4528L29.1282 17.328ZM61.2042 13.236L60.9339 14.4674L60.94 14.4687L61.2042 13.236ZM69.7842 16.404L70.4836 15.3549L70.4729 15.348L69.7842 16.404ZM70.7082 17.592L69.4719 17.8392L69.5051 18.0048L69.5806 18.1558L70.7082 17.592ZM70.8402 19.572L72.0945 19.6996L72.0958 19.6861L70.8402 19.572ZM69.2562 35.148L70.4793 35.4538L70.5013 35.3658L70.5105 35.2756L69.2562 35.148ZM67.8042 35.148H69.0649V35.0654L69.0542 34.9835L67.8042 35.148ZM60.5442 20.232L59.7202 21.1862L59.7317 21.1961L59.7435 21.2058L60.5442 20.232ZM30.3162 19.572L30.9769 20.6457L30.9844 20.6411L30.9917 20.6365L30.3162 19.572ZM18.8322 31.716L17.7432 31.0807L17.7392 31.0876L17.7353 31.0944L18.8322 31.716ZM12.7602 50.328L14.0029 50.5402L14.0053 50.5265L14.0073 50.5128L12.7602 50.328ZM14.7402 78.972L15.9215 78.5315L14.7402 78.972ZM23.0562 91.248L22.2514 92.2185L22.2642 92.2291L22.2773 92.2393L23.0562 91.248ZM50.1162 90.72L50.8379 91.7538L50.8417 91.751L50.1162 90.72ZM63.5802 75.672L62.6887 74.7805L62.5893 74.8799L62.5143 74.9988L63.5802 75.672ZM64.7682 75.672L65.6597 74.7805L65.6597 74.7805L64.7682 75.672ZM64.9002 76.2L63.7726 75.6362L63.7143 75.7527L63.6811 75.8786L64.9002 76.2ZM61.0722 90.72L59.8531 90.3986L59.8511 90.4064L59.8491 90.4142L61.0722 90.72ZM60.2802 92.964L61.2888 93.7204L61.3278 93.6684L61.3613 93.6126L60.2802 92.964ZM58.6962 93.756L58.4227 92.5253L58.3529 92.5408L58.2852 92.5641L58.6962 93.756ZM35.0682 96.4553C23.4023 96.4553 15.1069 93.3051 9.88664 87.2563L7.97775 88.9037C13.8455 95.7029 22.974 98.9767 35.0682 98.9767V96.4553ZM9.89216 87.2627C4.56791 81.0089 1.87693 73.2145 1.87693 63.792H-0.644542C-0.644542 73.7295 2.20847 82.1271 7.97223 88.8973L9.89216 87.2627ZM1.87693 63.792C1.87693 61.2435 2.17487 58.1487 2.78378 54.4953L0.296611 54.0807C-0.326483 57.8193 -0.644542 61.0605 -0.644542 63.792H1.87693ZM2.78122 54.5101C4.24351 46.3384 7.37722 39.1356 12.1765 32.8794L10.1759 31.3446C5.11917 37.9364 1.82888 45.5175 0.299171 54.0659L2.78122 54.5101ZM12.1699 32.8879C17.0753 26.6055 22.913 21.8022 29.6863 18.4585L28.5701 16.1975C21.4394 19.7177 15.3091 24.7705 10.1825 31.3361L12.1699 32.8879ZM29.6977 18.4528C36.4876 15.0149 43.3776 13.3087 50.3802 13.3087V10.7873C42.9508 10.7873 35.6728 12.6011 28.5587 16.2032L29.6977 18.4528ZM50.3802 13.3087C53.8952 13.3087 57.4126 13.6944 60.9339 14.4674L61.4745 12.0046C57.7798 11.1936 54.0812 10.7873 50.3802 10.7873V13.3087ZM60.94 14.4687C64.5606 15.2446 67.253 16.2583 69.0955 17.46L70.4729 15.348C68.2674 13.9096 65.2398 12.8114 61.4684 12.0032L60.94 14.4687ZM69.0849 17.453C69.2646 17.5728 69.3639 17.672 69.416 17.739C69.4642 17.8009 69.4707 17.8328 69.4719 17.8392L71.9445 17.3447C71.7677 16.4612 71.1732 15.8148 70.4835 15.355L69.0849 17.453ZM69.5806 18.1558C69.5595 18.1137 69.5978 18.1735 69.6153 18.4349C69.6313 18.6761 69.6252 19.0122 69.5846 19.4579L72.0958 19.6861C72.1432 19.1638 72.1591 18.6859 72.1311 18.2671C72.1046 17.8685 72.0329 17.4222 71.8358 17.0282L69.5806 18.1558ZM69.5859 19.4444L68.0019 35.0204L70.5105 35.2756L72.0945 19.6995L69.5859 19.4444ZM68.0331 34.8422C68.0412 34.8099 68.0614 34.7498 68.1082 34.6797C68.1565 34.6072 68.2204 34.5433 68.2929 34.495C68.4338 34.4011 68.5283 34.4153 68.4642 34.4153V36.9367C68.8401 36.9367 69.2866 36.8629 69.6915 36.593C70.122 36.306 70.3709 35.8873 70.4793 35.4538L68.0331 34.8422ZM68.4642 34.4153C68.3789 34.4153 68.5482 34.3927 68.7568 34.5595C68.8697 34.6499 68.9566 34.7677 69.0092 34.8941C69.0587 35.0128 69.0649 35.1068 69.0649 35.148H66.5435C66.5435 35.6022 66.6994 36.1427 67.1816 36.5285C67.6102 36.8713 68.1095 36.9367 68.4642 36.9367V34.4153ZM69.0542 34.9835C68.146 28.0814 65.6218 22.7747 61.3449 19.2582L59.7435 21.2058C63.3866 24.2013 65.7024 28.8386 66.5542 35.3125L69.0542 34.9835ZM61.3682 19.2778C57.2195 15.6948 51.845 13.9553 45.3642 13.9553V16.4767C51.3793 16.4767 56.1249 18.0812 59.7202 21.1862L61.3682 19.2778ZM45.3642 13.9553C39.6707 13.9553 34.4201 15.4744 29.6407 18.5075L30.9917 20.6365C35.3643 17.8616 40.1457 16.4767 45.3642 16.4767V13.9553ZM29.6554 18.4983C24.8798 21.4372 20.9132 25.6465 17.7432 31.0807L19.9212 32.3512C22.9112 27.2255 26.6006 23.3388 30.9769 20.6457L29.6554 18.4983ZM17.7353 31.0944C14.6539 36.5323 12.5877 42.8898 11.5131 50.1432L14.0073 50.5128C15.0447 43.5102 17.0265 37.4597 19.9291 32.3376L17.7353 31.0944ZM11.5174 50.1158C10.8891 53.7962 10.5755 57.5633 10.5755 61.416H13.0969C13.0969 57.7007 13.3993 54.0758 14.0029 50.5402L11.5174 50.1158ZM10.5755 61.416C10.5755 68.0526 11.562 74.0573 13.5589 79.4125L15.9215 78.5315C14.0463 73.5027 13.0969 67.8034 13.0969 61.416H10.5755ZM13.5589 79.4125C15.5578 84.7732 18.4452 89.062 22.2514 92.2185L23.861 90.2775C20.4512 87.45 17.7946 83.5548 15.9215 78.5315L13.5589 79.4125ZM22.2773 92.2393C26.2024 95.3234 30.7468 96.8647 35.8602 96.8647V94.3433C31.2936 94.3433 27.302 92.9806 23.8351 90.2567L22.2773 92.2393ZM35.8602 96.8647C41.0012 96.8647 46.0003 95.1309 50.8379 91.7538L49.3945 89.6862C44.9041 92.8211 40.3992 94.3433 35.8602 94.3433V96.8647ZM50.8417 91.751C55.7692 88.2835 60.3635 83.1261 64.6461 76.3452L62.5143 74.9988C58.3489 81.5939 53.9672 86.4685 49.3907 89.689L50.8417 91.751ZM64.4717 76.5635C64.5103 76.5249 64.3845 76.6687 64.1082 76.6687V74.1473C63.4799 74.1473 63.0021 74.4671 62.6887 74.7805L64.4717 76.5635ZM64.1082 76.6687C64.0981 76.6687 64.058 76.6666 64.003 76.6446C63.9465 76.622 63.9033 76.59 63.8767 76.5635L65.6597 74.7805C65.2318 74.3526 64.6841 74.1473 64.1082 74.1473V76.6687ZM63.8767 76.5635C63.8609 76.5476 63.7604 76.4431 63.7101 76.2418C63.6527 76.0122 63.6943 75.7928 63.7726 75.6362L66.0278 76.7638C66.1941 76.4312 66.2577 76.0358 66.1563 75.6302C66.062 75.2529 65.8515 74.9724 65.6597 74.7805L63.8767 76.5635ZM63.6811 75.8786L59.8531 90.3986L62.2913 91.0414L66.1193 76.5214L63.6811 75.8786ZM59.8491 90.4142C59.5893 91.4534 59.3608 92.0458 59.1991 92.3154L61.3613 93.6126C61.7276 93.0022 62.0271 92.0986 62.2953 91.0258L59.8491 90.4142ZM59.2716 92.2076C59.2901 92.1829 59.2684 92.2254 59.1224 92.2984C58.9777 92.3707 58.7527 92.452 58.4227 92.5253L58.9697 94.9867C59.8363 94.7941 60.7442 94.4465 61.2888 93.7204L59.2716 92.2076ZM58.2852 92.5641C50.7614 95.1586 43.0243 96.4553 35.0682 96.4553V98.9767C43.3041 98.9767 51.319 97.6334 59.1072 94.9479L58.2852 92.5641ZM76.9039 92.304L75.9038 93.0716L75.9137 93.0845L75.924 93.0973L76.9039 92.304ZM73.2079 70.524L71.9686 70.2929L71.9652 70.3111L71.9623 70.3294L73.2079 70.524ZM78.7519 56.532L77.7098 55.8225L77.7046 55.8301L77.6995 55.8378L78.7519 56.532ZM88.9159 46.896L89.5467 47.9876L89.5557 47.9824L89.5646 47.9771L88.9159 46.896ZM114.392 48.876L113.412 49.6693L113.422 49.682L113.433 49.6945L114.392 48.876ZM118.22 70.524L116.985 70.2686L116.985 70.2692L118.22 70.524ZM112.016 85.044L110.994 84.3051L110.989 84.3123L110.984 84.3195L112.016 85.044ZM101.72 94.548L101.108 93.4459H101.108L101.72 94.548ZM103.304 89.664L102.338 88.8543L102.331 88.8621L102.325 88.87L103.304 89.664ZM108.98 76.332L107.741 76.0997L108.98 76.332ZM106.472 52.836L105.344 53.3998L105.351 53.414L105.359 53.4281L106.472 52.836ZM82.5799 64.848L81.3402 64.6191L81.3401 64.6196L82.5799 64.848ZM84.9559 88.608L83.8482 89.21L83.8561 89.2245L83.8643 89.2387L84.9559 88.608ZM89.5759 96.5873C84.4373 96.5873 80.5994 94.8653 77.8838 91.5107L75.924 93.0973C79.1924 97.1347 83.8025 99.1087 89.5759 99.1087V96.5873ZM77.9041 91.5364C75.2081 88.0235 73.8087 83.4303 73.8087 77.652H71.2872C71.2872 83.8417 72.7917 89.0165 75.9038 93.0716L77.9041 91.5364ZM73.8087 77.652C73.8087 75.8038 74.0194 73.4973 74.4536 70.7186L71.9623 70.3294C71.5165 73.1827 71.2872 75.6282 71.2872 77.652H73.8087ZM74.4473 70.7551C75.3866 65.7173 77.1749 61.2127 79.8044 57.2262L77.6995 55.8378C74.8729 60.1233 72.9653 64.9467 71.9686 70.2929L74.4473 70.7551ZM79.7941 57.2415C82.5136 53.2472 85.7657 50.1722 89.5467 47.9876L88.2852 45.8044C84.1461 48.1958 80.6223 51.5447 77.7098 55.8225L79.7941 57.2415ZM89.5646 47.9771C93.3388 45.7125 97.296 44.5927 101.456 44.5927V42.0713C96.8159 42.0713 92.4131 43.3274 88.2673 45.8149L89.5646 47.9771ZM101.456 44.5927C106.786 44.5927 110.705 46.3247 113.412 49.6693L115.372 48.0827C112.095 44.0353 107.39 42.0713 101.456 42.0713V44.5927ZM113.433 49.6945C116.272 53.0196 117.751 57.4994 117.751 63.264H120.273C120.273 57.0606 118.672 51.9484 115.351 48.0574L113.433 49.6945ZM117.751 63.264C117.751 65.4553 117.498 67.7892 116.985 70.2686L119.455 70.7794C119.998 68.1548 120.273 65.6487 120.273 63.264H117.751ZM116.985 70.2692C115.873 75.6577 113.871 80.3286 110.994 84.3051L113.037 85.7829C116.145 81.4874 118.279 76.4783 119.455 70.7788L116.985 70.2692ZM110.984 84.3195C108.177 88.3178 104.883 91.3487 101.108 93.4459L102.332 95.6501C106.477 93.3473 110.047 90.0422 113.048 85.7685L110.984 84.3195ZM101.108 93.4459C97.3167 95.552 93.4777 96.5873 89.5759 96.5873V99.1087C93.9462 99.1087 98.2032 97.944 102.332 95.6501L101.108 93.4459ZM94.1959 95.8087C98.092 95.8087 101.462 93.9372 104.283 90.458L102.325 88.87C99.8656 91.9028 97.1639 93.2873 94.1959 93.2873V95.8087ZM104.27 90.4737C107.177 87.0039 109.137 82.3377 110.219 76.5643L107.741 76.0997C106.711 81.5903 104.886 85.8121 102.338 88.8543L104.27 90.4737ZM110.219 76.5643C110.761 73.6756 111.033 70.8257 111.033 68.016H108.511C108.511 70.6623 108.255 73.3564 107.741 76.0997L110.219 76.5643ZM111.033 68.016C111.033 61.8813 109.905 56.6058 107.585 52.2439L105.359 53.4281C107.439 57.3382 108.511 62.1827 108.511 68.016H111.033ZM107.6 52.2722C106.475 50.0225 105.064 48.2544 103.331 47.0491C101.586 45.8355 99.5822 45.2393 97.3639 45.2393V47.7607C99.1057 47.7607 100.6 48.2205 101.891 49.1189C103.194 50.0256 104.357 51.4255 105.344 53.3998L107.6 52.2722ZM97.3639 45.2393C93.5502 45.2393 90.1871 47.116 87.2896 50.5743L89.2223 52.1937C91.7808 49.14 94.4897 47.7607 97.3639 47.7607V45.2393ZM87.2896 50.5743C84.3796 54.0475 82.4217 58.7607 81.3402 64.6191L83.8197 65.0769C84.8502 59.4953 86.6763 55.2325 89.2223 52.1937L87.2896 50.5743ZM81.3401 64.6196C80.7145 68.0158 80.3952 71.043 80.3952 73.692H82.9167C82.9167 71.237 83.2134 68.3682 83.8198 65.0764L81.3401 64.6196ZM80.3952 73.692C80.3952 79.7409 81.5236 84.9327 83.8482 89.21L86.0637 88.006C83.9883 84.1873 82.9167 79.4351 82.9167 73.692H80.3952ZM83.8643 89.2387C86.3292 93.5048 89.7846 95.8087 94.1959 95.8087V93.2873C90.8633 93.2873 88.1587 91.6312 86.0476 87.9773L83.8643 89.2387ZM128.432 84.252L129.669 84.4993L129.671 84.4899L129.672 84.4805L128.432 84.252ZM141.104 15.48L139.868 15.2327L139.866 15.2421L139.865 15.2515L141.104 15.48ZM132.788 10.728V11.9887H133.086L133.352 11.8556L132.788 10.728ZM131.732 10.068L130.489 10.2753L130.511 10.4097L130.562 10.5362L131.732 10.068ZM132.128 9.14399L132.434 10.3671L132.561 10.3353L132.679 10.2781L132.128 9.14399ZM150.344 0.299997V-0.960739H150.055L149.794 -0.834138L150.344 0.299997ZM151.532 0.695992L152.424 -0.195481V-0.19549L151.532 0.695992ZM151.796 1.356L150.669 0.792188L150.589 0.95255L150.556 1.12891L151.796 1.356ZM136.616 84.252L137.853 84.4993L137.855 84.4892L137.857 84.4791L136.616 84.252ZM146.78 85.836L147.651 86.748L147.662 86.7378L147.672 86.7275L146.78 85.836ZM147.968 86.1L146.841 86.6638L146.876 86.734L146.919 86.7993L147.968 86.1ZM147.836 86.892L146.945 86.0005L146.909 86.0366L146.876 86.0755L147.836 86.892ZM139.784 94.68L139.059 93.649L139.05 93.6554L139.041 93.6621L139.784 94.68ZM132.92 95.9273C131.421 95.9273 130.505 95.4885 129.929 94.7969L127.992 96.4111C129.176 97.8315 130.9 98.4487 132.92 98.4487V95.9273ZM129.929 94.7969C129.322 94.0687 128.901 92.7912 128.901 90.72H126.38C126.38 93.0488 126.839 95.0273 127.992 96.4111L129.929 94.7969ZM128.901 90.72C128.901 89.1655 129.148 87.1007 129.669 84.4993L127.196 84.0047C126.66 86.6833 126.38 88.9305 126.38 90.72H128.901ZM129.672 84.4805L142.344 15.7085L139.865 15.2515L127.193 84.0235L129.672 84.4805ZM142.341 15.7272C142.613 14.3638 142.761 13.1744 142.761 12.18H140.24C140.24 12.9456 140.123 13.9562 139.868 15.2327L142.341 15.7272ZM142.761 12.18C142.761 10.9097 142.523 9.72553 141.84 8.83731C141.108 7.88642 140.036 7.48726 138.86 7.48726V10.0087C139.445 10.0087 139.693 10.1816 139.841 10.3747C140.038 10.6305 140.24 11.1623 140.24 12.18H142.761ZM138.86 7.48726C137.138 7.48726 134.888 8.26854 132.225 9.60036L133.352 11.8556C135.969 10.5475 137.767 10.0087 138.86 10.0087V7.48726ZM132.788 9.46726H132.656V11.9887H132.788V9.46726ZM132.656 9.46726C132.652 9.46726 132.671 9.46672 132.707 9.47724C132.744 9.48825 132.787 9.50782 132.828 9.53709C132.915 9.59878 132.924 9.65211 132.903 9.59977L130.562 10.5362C130.717 10.9239 130.968 11.3072 131.363 11.5889C131.764 11.8754 132.218 11.9887 132.656 11.9887V9.46726ZM132.976 9.86073C132.95 9.70513 132.994 9.77412 132.924 9.93762C132.883 10.0333 132.812 10.139 132.704 10.227C132.599 10.3127 132.498 10.3512 132.434 10.3671L131.823 7.9209C131.301 8.05132 130.842 8.39491 130.607 8.94437C130.405 9.41588 130.427 9.90287 130.489 10.2753L132.976 9.86073ZM132.679 10.2781L150.895 1.43413L149.794 -0.834138L131.578 8.00986L132.679 10.2781ZM150.344 1.56073H150.608V-0.960739H150.344V1.56073ZM150.608 1.56073C150.617 1.56073 150.619 1.56151 150.617 1.561C150.614 1.56046 150.61 1.55933 150.607 1.5578C150.603 1.55631 150.604 1.55603 150.609 1.55932C150.614 1.56276 150.625 1.57108 150.641 1.58747L152.424 -0.19549C151.939 -0.68 151.317 -0.960739 150.608 -0.960739V1.56073ZM150.641 1.58746C150.714 1.66055 150.671 1.6406 150.626 1.52722C150.6 1.46193 150.569 1.35483 150.569 1.21575C150.569 1.0708 150.603 0.924376 150.669 0.792188L152.924 1.91981C153.162 1.44439 153.115 0.960736 152.967 0.590773C152.834 0.257384 152.615 -0.00456905 152.424 -0.195481L150.641 1.58746ZM150.556 1.12891L135.376 84.0249L137.857 84.4791L153.037 1.58309L150.556 1.12891ZM135.38 84.0047C135.106 85.3772 134.96 86.6079 134.96 87.684H137.481C137.481 86.8241 137.599 85.7668 137.853 84.4993L135.38 84.0047ZM134.96 87.684C134.96 89.0495 135.164 90.287 135.743 91.2199C136.384 92.2523 137.397 92.7727 138.596 92.7727V90.2513C138.212 90.2513 138.037 90.1337 137.886 89.8901C137.673 89.547 137.481 88.8705 137.481 87.684H134.96ZM138.596 92.7727C139.892 92.7727 141.266 92.0854 142.642 91.0767L141.151 89.0433C139.886 89.9706 139.061 90.2513 138.596 90.2513V92.7727ZM142.642 91.0767C144.024 90.0628 145.697 88.6132 147.651 86.748L145.91 84.924C143.992 86.7548 142.408 88.1212 141.151 89.0433L142.642 91.0767ZM147.672 86.7275C147.71 86.6889 147.585 86.8327 147.308 86.8327V84.3113C146.68 84.3113 146.202 84.6311 145.889 84.9445L147.672 86.7275ZM147.308 86.8327C147.231 86.8327 147.148 86.8193 147.067 86.7898C146.987 86.7607 146.926 86.7222 146.884 86.6885C146.807 86.6267 146.804 86.5904 146.841 86.6638L149.096 85.5362C148.824 84.9917 148.265 84.3113 147.308 84.3113V86.8327ZM146.919 86.7993C146.865 86.7174 146.784 86.53 146.824 86.2887C146.859 86.0772 146.962 85.983 146.945 86.0005L148.728 87.7835C148.974 87.537 149.232 87.1788 149.311 86.7033C149.395 86.198 149.248 85.7466 149.017 85.4007L146.919 86.7993ZM146.876 86.0755C143.917 89.556 141.312 92.0633 139.059 93.649L140.51 95.711C143.009 93.9527 145.771 91.268 148.797 87.7085L146.876 86.0755ZM139.041 93.6621C136.916 95.2145 134.883 95.9273 132.92 95.9273V98.4487C135.534 98.4487 138.077 97.4895 140.528 95.6979L139.041 93.6621ZM158.823 84.252L160.06 84.4993L160.061 84.4899L160.063 84.4805L158.823 84.252ZM171.495 15.48L170.259 15.2327L170.257 15.2421L170.255 15.2515L171.495 15.48ZM163.179 10.728V11.9887H163.477L163.743 11.8556L163.179 10.728ZM162.123 10.068L160.88 10.2753L160.902 10.4097L160.953 10.5362L162.123 10.068ZM162.519 9.14399L162.825 10.3671L162.952 10.3353L163.07 10.2781L162.519 9.14399ZM180.735 0.299997V-0.960739H180.445L180.185 -0.834138L180.735 0.299997ZM181.923 0.695992L182.815 -0.195481V-0.19549L181.923 0.695992ZM182.187 1.356L181.06 0.792188L180.98 0.95255L180.947 1.12891L182.187 1.356ZM167.007 84.252L168.244 84.4993L168.246 84.4892L168.247 84.4791L167.007 84.252ZM177.171 85.836L178.042 86.748L178.052 86.7378L178.063 86.7275L177.171 85.836ZM178.359 86.1L177.232 86.6638L177.267 86.734L177.31 86.7993L178.359 86.1ZM178.227 86.892L177.336 86.0005L177.3 86.0366L177.267 86.0755L178.227 86.892ZM170.175 94.68L169.45 93.649L169.441 93.6554L169.431 93.6621L170.175 94.68ZM163.311 95.9273C161.812 95.9273 160.896 95.4885 160.32 94.7969L158.383 96.4111C159.566 97.8315 161.29 98.4487 163.311 98.4487V95.9273ZM160.32 94.7969C159.713 94.0687 159.292 92.7912 159.292 90.72H156.771C156.771 93.0488 157.23 95.0273 158.383 96.4111L160.32 94.7969ZM159.292 90.72C159.292 89.1655 159.539 87.1007 160.06 84.4993L157.587 84.0047C157.051 86.6833 156.771 88.9305 156.771 90.72H159.292ZM160.063 84.4805L172.735 15.7085L170.255 15.2515L157.583 84.0235L160.063 84.4805ZM172.732 15.7272C173.004 14.3638 173.152 13.1744 173.152 12.18H170.631C170.631 12.9456 170.514 13.9562 170.259 15.2327L172.732 15.7272ZM173.152 12.18C173.152 10.9097 172.914 9.72553 172.231 8.83731C171.499 7.88642 170.427 7.48726 169.251 7.48726V10.0087C169.836 10.0087 170.084 10.1816 170.232 10.3747C170.429 10.6305 170.631 11.1623 170.631 12.18H173.152ZM169.251 7.48726C167.529 7.48726 165.279 8.26854 162.616 9.60036L163.743 11.8556C166.36 10.5475 168.158 10.0087 169.251 10.0087V7.48726ZM163.179 9.46726H163.047V11.9887H163.179V9.46726ZM163.047 9.46726C163.043 9.46726 163.062 9.46672 163.098 9.47724C163.135 9.48825 163.178 9.50782 163.219 9.53709C163.305 9.59878 163.315 9.65211 163.294 9.59977L160.953 10.5362C161.108 10.9239 161.359 11.3072 161.754 11.5889C162.155 11.8754 162.609 11.9887 163.047 11.9887V9.46726ZM163.367 9.86073C163.341 9.70513 163.385 9.77412 163.315 9.93762C163.274 10.0333 163.203 10.139 163.095 10.227C162.99 10.3127 162.889 10.3512 162.825 10.3671L162.214 7.9209C161.692 8.05132 161.233 8.39491 160.998 8.94437C160.795 9.41588 160.818 9.90287 160.88 10.2753L163.367 9.86073ZM163.07 10.2781L181.286 1.43413L180.185 -0.834138L161.969 8.00986L163.07 10.2781ZM180.735 1.56073H180.999V-0.960739H180.735V1.56073ZM180.999 1.56073C181.008 1.56073 181.01 1.56151 181.008 1.561C181.005 1.56046 181.001 1.55933 180.998 1.5578C180.994 1.55631 180.995 1.55603 180.999 1.55932C181.004 1.56276 181.015 1.57108 181.032 1.58747L182.815 -0.19549C182.33 -0.68 181.708 -0.960739 180.999 -0.960739V1.56073ZM181.032 1.58746C181.105 1.66055 181.062 1.6406 181.017 1.52722C180.991 1.46193 180.96 1.35483 180.96 1.21575C180.96 1.0708 180.994 0.924376 181.06 0.792188L183.315 1.91981C183.553 1.44439 183.506 0.960736 183.358 0.590773C183.225 0.257384 183.006 -0.00456905 182.815 -0.195481L181.032 1.58746ZM180.947 1.12891L165.767 84.0249L168.247 84.4791L183.427 1.58309L180.947 1.12891ZM165.771 84.0047C165.497 85.3772 165.351 86.6079 165.351 87.684H167.872C167.872 86.8241 167.99 85.7668 168.244 84.4993L165.771 84.0047ZM165.351 87.684C165.351 89.0495 165.555 90.287 166.134 91.2199C166.775 92.2523 167.788 92.7727 168.987 92.7727V90.2513C168.603 90.2513 168.428 90.1337 168.277 89.8901C168.064 89.547 167.872 88.8705 167.872 87.684H165.351ZM168.987 92.7727C170.283 92.7727 171.657 92.0854 173.033 91.0767L171.542 89.0433C170.277 89.9706 169.452 90.2513 168.987 90.2513V92.7727ZM173.033 91.0767C174.415 90.0628 176.088 88.6132 178.042 86.748L176.301 84.924C174.383 86.7548 172.799 88.1212 171.542 89.0433L173.033 91.0767ZM178.063 86.7275C178.101 86.6889 177.976 86.8327 177.699 86.8327V84.3113C177.071 84.3113 176.593 84.6311 176.28 84.9445L178.063 86.7275ZM177.699 86.8327C177.622 86.8327 177.539 86.8193 177.458 86.7898C177.378 86.7607 177.317 86.7222 177.275 86.6885C177.198 86.6267 177.195 86.5904 177.232 86.6638L179.487 85.5362C179.215 84.9917 178.656 84.3113 177.699 84.3113V86.8327ZM177.31 86.7993C177.256 86.7174 177.175 86.53 177.215 86.2887C177.25 86.0772 177.353 85.983 177.336 86.0005L179.119 87.7835C179.365 87.537 179.623 87.1788 179.702 86.7033C179.786 86.198 179.639 85.7466 179.408 85.4007L177.31 86.7993ZM177.267 86.0755C174.308 89.556 171.703 92.0633 169.45 93.649L170.901 95.711C173.4 93.9527 176.162 91.268 179.188 87.7085L177.267 86.0755ZM169.431 93.6621C167.307 95.2145 165.274 95.9273 163.311 95.9273V98.4487C165.925 98.4487 168.468 97.4895 170.919 95.6979L169.431 93.6621ZM223.402 45.048L222.69 46.0885L222.709 46.1016L222.729 46.1139L223.402 45.048ZM216.802 60.756L217.417 61.8566L217.423 61.8535L216.802 60.756ZM195.022 68.016L194.805 66.7742L193.925 66.9283L193.779 67.8087L195.022 68.016ZM197.926 87.816L196.895 88.5409L196.901 88.5501L196.908 88.5592L197.926 87.816ZM221.026 88.344V87.0833H220.59L220.247 87.3527L221.026 88.344ZM221.818 88.74L220.769 89.4393L220.839 89.5432L220.927 89.6315L221.818 88.74ZM221.95 89.532L222.772 90.4883L222.903 90.3754L222.999 90.2313L221.95 89.532ZM189.214 92.172L188.232 92.9625L189.214 92.172ZM185.518 71.58L184.28 71.3419L184.279 71.3501L184.277 71.3584L185.518 71.58ZM191.194 58.248L190.152 57.5391L190.149 57.5437L191.194 58.248ZM202.282 47.556L202.947 48.6275L202.954 48.6227L202.962 48.6179L202.282 47.556ZM215.482 53.232L216.717 53.4891L216.719 53.4792L215.482 53.232ZM214.03 48.084L213.274 49.0926L213.293 49.1069L213.313 49.1206L214.03 48.084ZM200.83 52.308L201.851 53.048L201.855 53.042L201.86 53.036L200.83 52.308ZM195.286 66.168L194.05 65.9207L193.684 67.7529L195.52 67.4069L195.286 66.168ZM216.274 44.5927C219.224 44.5927 221.311 45.1448 222.69 46.0885L224.114 44.0075C222.15 42.6632 219.485 42.0713 216.274 42.0713V44.5927ZM222.729 46.1139C224.066 46.9584 224.65 48.0238 224.65 49.404H227.171C227.171 47.0882 226.082 45.2496 224.076 43.9821L222.729 46.1139ZM224.65 49.404C224.65 52.835 222.14 56.291 216.182 59.6584L217.423 61.8535C223.609 58.357 227.171 54.245 227.171 49.404H224.65ZM216.187 59.6554C210.355 62.9149 203.236 65.2965 194.805 66.7742L195.24 69.2578C203.88 67.7435 211.282 65.2851 217.417 61.8566L216.187 59.6554ZM193.779 67.8087C193.414 69.9986 193.234 72.3567 193.234 74.88H195.755C195.755 72.4753 195.927 70.2574 196.266 68.2233L193.779 67.8087ZM193.234 74.88C193.234 80.4186 194.414 85.0099 196.895 88.5409L198.958 87.0911C196.863 84.1101 195.755 80.0774 195.755 74.88H193.234ZM196.908 88.5592C199.551 92.1808 203.384 93.9607 208.222 93.9607V91.4393C204.084 91.4393 201.054 89.9632 198.945 87.0728L196.908 88.5592ZM208.222 93.9607C213.336 93.9607 217.88 92.4194 221.805 89.3353L220.247 87.3527C216.781 90.0766 212.789 91.4393 208.222 91.4393V93.9607ZM221.026 89.6047H221.158V87.0833H221.026V89.6047ZM221.158 89.6047C221.069 89.6047 220.964 89.5792 220.873 89.5241C220.789 89.4741 220.761 89.4267 220.769 89.4393L222.867 88.0407C222.512 87.5072 221.933 87.0833 221.158 87.0833V89.6047ZM220.927 89.6315C220.944 89.649 220.841 89.5548 220.806 89.3433C220.766 89.102 220.847 88.9146 220.901 88.8327L222.999 90.2313C223.23 89.8854 223.377 89.434 223.293 88.9287C223.214 88.4532 222.956 88.095 222.71 87.8485L220.927 89.6315ZM221.129 88.5757C215.061 93.7884 208.787 96.3233 202.282 96.3233V98.8447C209.505 98.8447 216.343 96.0116 222.772 90.4883L221.129 88.5757ZM202.282 96.3233C196.75 96.3233 192.802 94.6184 190.196 91.3815L188.232 92.9625C191.435 96.9417 196.199 98.8447 202.282 98.8447V96.3233ZM190.196 91.3815C187.512 88.0462 186.119 83.6819 186.119 78.18H183.598C183.598 84.1181 185.109 89.0818 188.232 92.9625L190.196 91.3815ZM186.119 78.18C186.119 76.3362 186.329 74.2125 186.759 71.8016L184.277 71.3584C183.828 73.8755 183.598 76.1518 183.598 78.18H186.119ZM186.756 71.8181C187.601 67.4271 189.42 63.1397 192.24 58.9522L190.149 57.5437C187.161 61.9803 185.196 66.5809 184.28 71.3419L186.756 71.8181ZM192.237 58.9569C195.132 54.6988 198.701 51.2598 202.947 48.6275L201.618 46.4845C197.064 49.3082 193.24 52.9972 190.152 57.5391L192.237 58.9569ZM202.962 48.6179C207.172 45.9236 211.602 44.5927 216.274 44.5927V42.0713C211.091 42.0713 206.193 43.5564 201.603 46.4941L202.962 48.6179ZM216.719 53.4792C216.888 52.6315 217.007 51.9293 217.007 51.516H214.486C214.486 51.5154 214.486 51.5253 214.484 51.5483C214.483 51.5706 214.48 51.6008 214.476 51.6398C214.468 51.7185 214.454 51.8213 214.434 51.9513C214.394 52.2115 214.332 52.5544 214.246 52.9847L216.719 53.4792ZM217.007 51.516C217.007 49.643 216.261 48.095 214.748 47.0474L213.313 49.1206C214.087 49.657 214.486 50.397 214.486 51.516H217.007ZM214.787 47.0754C213.472 46.089 211.871 45.6353 210.07 45.6353V48.1567C211.438 48.1567 212.477 48.495 213.274 49.0926L214.787 47.0754ZM210.07 45.6353C205.959 45.6353 202.529 47.7227 199.801 51.58L201.86 53.036C204.235 49.6773 206.965 48.1567 210.07 48.1567V45.6353ZM199.81 51.568C197.121 55.2759 195.218 60.0805 194.05 65.9207L196.523 66.4153C197.643 60.8155 199.435 56.3801 201.851 53.048L199.81 51.568ZM195.52 67.4069C201.673 66.2476 206.568 64.5571 210.123 62.2796C213.703 59.9866 215.972 57.0636 216.717 53.4891L214.248 52.9749C213.673 55.7364 211.915 58.1374 208.763 60.1564C205.587 62.1909 201.043 63.8004 195.053 64.9291L195.52 67.4069ZM233.788 91.776L232.761 92.5066L232.766 92.5141L232.771 92.5216L233.788 91.776ZM230.356 69.336L231.589 69.6002L231.592 69.5837L231.595 69.5671L230.356 69.336ZM236.296 55.608L235.301 54.834L235.295 54.8409L235.29 54.848L236.296 55.608ZM246.988 46.5L246.405 45.3822L246.988 46.5ZM267.184 45.444L266.523 46.5177L266.547 46.5324L266.572 46.5461L267.184 45.444ZM269.428 54.684L270.397 55.4911L269.428 54.684ZM260.32 51.516L261.543 51.2102L261.537 51.1877L261.531 51.1654L260.32 51.516ZM244.876 51.648L245.904 52.3782L245.908 52.3719L245.913 52.3656L244.876 51.648ZM239.86 65.112L241.102 65.3293L241.103 65.3256L239.86 65.112ZM242.5 87.42L241.463 88.1376L242.5 87.42ZM266.392 87.156L265.828 86.0284L265.707 86.0888L265.602 86.1734L266.392 87.156ZM266.656 87.024V85.7633H266.358L266.092 85.8964L266.656 87.024ZM267.316 87.552L266.188 88.1158L266.239 88.2175L266.307 88.3084L267.316 87.552ZM267.448 88.344L268.303 89.2709L268.321 89.2535L268.339 89.2355L267.448 88.344ZM246.856 96.4553C241.366 96.4553 237.426 94.6049 234.805 91.0304L232.771 92.5216C235.958 96.8671 240.73 98.9767 246.856 98.9767V96.4553ZM234.815 91.0454C232.181 87.3409 230.825 82.683 230.825 76.992H228.303C228.303 83.0929 229.763 88.2911 232.761 92.5066L234.815 91.0454ZM230.825 76.992C230.825 74.4366 231.08 71.9733 231.589 69.6002L229.123 69.0718C228.576 71.6267 228.303 74.2674 228.303 76.992H230.825ZM231.595 69.5671C232.53 64.5545 234.435 60.1622 237.302 56.368L235.29 54.848C232.173 58.9738 230.118 63.7335 229.117 69.1049L231.595 69.5671ZM237.291 56.382C240.271 52.5506 243.699 49.6381 247.571 47.6177L246.405 45.3822C242.181 47.5859 238.481 50.7454 235.301 54.834L237.291 56.382ZM247.571 47.6177C251.467 45.5852 255.272 44.5927 259 44.5927V42.0713C254.808 42.0713 250.605 43.1908 246.405 45.3822L247.571 47.6177ZM259 44.5927C261.977 44.5927 264.467 45.2524 266.523 46.5177L267.845 44.3703C265.325 42.8196 262.359 42.0713 259 42.0713V44.5927ZM266.572 46.5461C268.637 47.6936 269.487 49.1201 269.487 50.856H272.009C272.009 48.0159 270.483 45.8344 267.796 44.3419L266.572 46.5461ZM269.487 50.856C269.487 52.085 269.134 53.068 268.459 53.8769L270.397 55.4911C271.482 54.188 272.009 52.619 272.009 50.856H269.487ZM268.459 53.8769C267.871 54.5835 266.987 55.0073 265.6 55.0073V57.5287C267.557 57.5287 269.225 56.8965 270.397 55.4911L268.459 53.8769ZM265.6 55.0073C264.497 55.0073 263.691 54.695 263.077 54.1429C262.442 53.5715 261.901 52.6402 261.543 51.2102L259.097 51.8218C259.531 53.5598 260.266 55.0045 261.391 56.0171C262.537 57.049 263.975 57.5287 265.6 57.5287V55.0073ZM261.531 51.1654C260.995 49.3149 260.107 47.8062 258.793 46.7655C257.47 45.7186 255.835 45.2393 253.984 45.2393V47.7607C255.389 47.7607 256.438 48.1174 257.227 48.7425C258.025 49.3738 258.677 50.3731 259.109 51.8666L261.531 51.1654ZM253.984 45.2393C249.816 45.2393 246.415 47.2094 243.839 50.9304L245.913 52.3656C248.089 49.2226 250.76 47.7607 253.984 47.7607V45.2393ZM243.848 50.9178C241.329 54.4639 239.606 59.149 238.617 64.8984L241.103 65.3256C242.05 59.811 243.671 55.5201 245.904 52.3782L243.848 50.9178ZM238.618 64.8947C237.996 68.4513 237.675 71.4345 237.675 73.824H240.197C240.197 71.6375 240.492 68.8127 241.102 65.3293L238.618 64.8947ZM237.675 73.824C237.675 79.6247 238.898 84.4326 241.463 88.1376L243.537 86.7024C241.35 83.5434 240.197 79.2873 240.197 73.824H237.675ZM241.463 88.1376C244.11 91.9609 248.093 93.8287 253.192 93.8287V91.3073C248.787 91.3073 245.642 89.7431 243.537 86.7024L241.463 88.1376ZM253.192 93.8287C257.875 93.8287 262.545 91.8661 267.182 88.1386L265.602 86.1734C261.263 89.6618 257.133 91.3073 253.192 91.3073V93.8287ZM266.956 88.2836L267.22 88.1516L266.092 85.8964L265.828 86.0284L266.956 88.2836ZM266.656 88.2847C266.579 88.2847 266.496 88.2713 266.415 88.2418C266.335 88.2127 266.274 88.1742 266.231 88.1405C266.154 88.0787 266.152 88.0424 266.188 88.1158L268.444 86.9882C268.171 86.4437 267.613 85.7633 266.656 85.7633V88.2847ZM266.307 88.3084C266.387 88.4149 266.329 88.3774 266.303 88.2213C266.288 88.1285 266.284 87.991 266.331 87.8332C266.38 87.6719 266.466 87.5434 266.557 87.4525L268.339 89.2355C268.74 88.8351 268.874 88.3049 268.791 87.8067C268.721 87.3866 268.509 87.0411 268.325 86.7956L266.307 88.3084ZM266.593 87.4171C259.973 93.522 253.4 96.4553 246.856 96.4553V98.9767C254.216 98.9767 261.371 95.662 268.303 89.2709L266.593 87.4171ZM310.045 45.708L311.094 45.0087V45.0087L310.045 45.708ZM310.177 46.632L311.384 46.9943L311.393 46.9662L311.4 46.9378L310.177 46.632ZM308.461 49.536L307.492 48.7289L308.461 49.536ZM300.805 50.46L300.61 51.7056L300.616 51.7065L300.805 50.46ZM292.093 49.668L292.13 48.4078L291.044 48.3759L290.852 49.4451L292.093 49.668ZM286.285 82.008L287.521 82.2552L287.523 82.2431L287.526 82.2309L286.285 82.008ZM287.473 90.456L286.581 91.3475L286.601 91.3668L286.621 91.3854L287.473 90.456ZM298.429 90.588L298.971 91.7263L298.982 91.7211L298.993 91.7156L298.429 90.588ZM304.765 86.364V85.1033H304.319L303.973 85.3832L304.765 86.364ZM305.689 86.76L304.797 87.6515V87.6515L305.689 86.76ZM305.821 87.42L306.67 88.3519L306.692 88.3322L306.712 88.3115L305.821 87.42ZM295.261 95.208L294.684 94.0868L294.678 94.0903L294.671 94.0938L295.261 95.208ZM279.685 95.604L278.897 96.5885L278.913 96.6008L278.928 96.6126L279.685 95.604ZM277.309 85.44L276.069 85.2096L276.061 85.255L276.056 85.3008L277.309 85.44ZM282.853 55.608L281.626 55.3192L281.619 55.3483L281.613 55.3776L282.853 55.608ZM282.325 49.14L281.657 50.2091L281.707 50.2408L281.761 50.2676L282.325 49.14ZM278.101 47.028L277.052 46.3287L276.958 46.4691L276.905 46.6293L278.101 47.028ZM286.945 43.728L287.741 44.7054L287.745 44.7022L286.945 43.728ZM292.225 36.072L293.417 36.4809L293.486 36.2821V36.072H292.225ZM294.073 35.94L293.373 36.989L293.555 37.1101L293.767 37.1631L294.073 35.94ZM294.469 36.204L293.577 35.3125L293.299 35.591L293.228 35.9785L294.469 36.204ZM292.621 46.368L291.38 46.1425L291.098 47.6933L292.673 47.6276L292.621 46.368ZM298.693 46.104L298.75 47.3634L298.779 47.3621L298.807 47.3596L298.693 46.104ZM303.973 45.708L304.043 46.9668L304.073 46.9651L304.103 46.962L303.973 45.708ZM309.253 46.5727C309.27 46.5727 309.225 46.5755 309.151 46.5386C309.072 46.4992 309.02 46.4438 308.996 46.4073L311.094 45.0087C310.655 44.3511 309.972 44.0513 309.253 44.0513V46.5727ZM308.996 46.4073C308.99 46.3988 308.982 46.385 308.975 46.3668C308.968 46.3485 308.964 46.3307 308.962 46.3153C308.957 46.2833 308.965 46.2825 308.954 46.3262L311.4 46.9378C311.56 46.2957 311.496 45.612 311.094 45.0087L308.996 46.4073ZM308.969 46.2697C308.772 46.9268 308.312 47.7447 307.492 48.7289L309.429 50.3431C310.369 49.2153 311.053 48.0972 311.384 46.9943L308.969 46.2697ZM307.492 48.7289C306.717 49.6592 306.158 49.8593 305.821 49.8593V52.3807C307.244 52.3807 308.445 51.5248 309.429 50.3431L307.492 48.7289ZM305.821 49.8593C305.702 49.8593 305.266 49.8188 304.401 49.705C303.577 49.5966 302.443 49.433 300.994 49.2135L300.616 51.7065C302.071 51.927 303.224 52.0934 304.072 52.205C304.88 52.3112 305.5 52.3807 305.821 52.3807V49.8593ZM300.999 49.2144C298.129 48.7658 295.172 48.4973 292.13 48.4078L292.056 50.9282C294.998 51.0147 297.849 51.2742 300.61 51.7056L300.999 49.2144ZM290.852 49.4451L285.044 81.7851L287.526 82.2309L293.334 49.8909L290.852 49.4451ZM285.049 81.7607C284.772 83.1412 284.628 84.414 284.628 85.572H287.15C287.15 84.618 287.269 83.5148 287.521 82.2552L285.049 81.7607ZM284.628 85.572C284.628 87.9489 285.197 89.9631 286.581 91.3475L288.364 89.5645C287.637 88.8369 287.15 87.5951 287.15 85.572H284.628ZM286.621 91.3854C288.014 92.6626 290.064 93.1687 292.489 93.1687V90.6473C290.337 90.6473 289.043 90.1854 288.325 89.5266L286.621 91.3854ZM292.489 93.1687C294.782 93.1687 296.948 92.6895 298.971 91.7263L297.887 89.4497C296.214 90.2465 294.419 90.6473 292.489 90.6473V93.1687ZM298.993 91.7156C301.033 90.6955 303.222 89.231 305.557 87.3448L303.973 85.3832C301.732 87.193 299.697 88.5445 297.865 89.4604L298.993 91.7156ZM304.765 87.6247H304.897V85.1033H304.765V87.6247ZM304.897 87.6247C304.857 87.6247 304.82 87.6196 304.789 87.6118C304.759 87.6042 304.738 87.5953 304.729 87.5906C304.713 87.5824 304.737 87.5911 304.797 87.6515L306.58 85.8685C306.179 85.4671 305.613 85.1033 304.897 85.1033V87.6247ZM304.797 87.6515C304.858 87.7126 304.733 87.6178 304.684 87.3703C304.655 87.2268 304.657 87.0553 304.716 86.8811C304.772 86.7124 304.861 86.5965 304.929 86.5285L306.712 88.3115C307.06 87.9638 307.271 87.4496 307.156 86.8757C307.063 86.4082 306.783 86.0714 306.58 85.8685L304.797 87.6515ZM304.972 86.4881C301.054 90.0573 297.627 92.5734 294.684 94.0868L295.837 96.3292C299.055 94.6746 302.667 91.9987 306.67 88.3519L304.972 86.4881ZM294.671 94.0938C291.824 95.6009 289.121 96.3233 286.549 96.3233V98.8447C289.608 98.8447 292.713 97.9831 295.851 96.3222L294.671 94.0938ZM286.549 96.3233C283.929 96.3233 281.929 95.7109 280.441 94.5954L278.928 96.6126C280.961 98.1371 283.537 98.8447 286.549 98.8447V96.3233ZM280.472 94.6195C279.127 93.543 278.306 91.6582 278.306 88.608H275.784C275.784 92.0698 276.723 94.849 278.897 96.5885L280.472 94.6195ZM278.306 88.608C278.306 88.1616 278.384 87.1752 278.562 85.5792L276.056 85.3008C275.881 86.8728 275.784 87.9984 275.784 88.608H278.306ZM278.548 85.6703L284.092 55.8383L281.613 55.3776L276.069 85.2096L278.548 85.6703ZM284.08 55.8968C284.449 54.3283 284.642 52.8657 284.642 51.516H282.12C282.12 52.6303 281.961 53.8957 281.626 55.3192L284.08 55.8968ZM284.642 51.516C284.642 50.1024 284.232 48.6841 282.889 48.0124L281.761 50.2676C281.826 50.2999 282.12 50.4656 282.12 51.516H284.642ZM282.993 48.0709C282.44 47.7256 281.75 47.524 281.014 47.4014C280.263 47.2762 279.374 47.2193 278.365 47.2193V49.7407C279.291 49.7407 280.031 49.7938 280.6 49.8886C281.184 49.986 281.505 50.1144 281.657 50.2091L282.993 48.0709ZM278.365 47.2193C278.477 47.2193 278.637 47.2441 278.804 47.3367C278.972 47.4302 279.083 47.5573 279.149 47.6664C279.257 47.8468 279.23 47.9551 279.23 47.82H276.708C276.708 48.1249 276.746 48.5632 276.987 48.9636C277.289 49.4667 277.806 49.7407 278.365 49.7407V47.2193ZM279.23 47.82C279.23 47.6987 279.249 47.5691 279.297 47.4267L276.905 46.6293C276.776 47.0149 276.708 47.4133 276.708 47.82H279.23ZM279.15 47.7273C279.219 47.6237 279.243 47.6031 279.223 47.6225C279.213 47.6325 279.162 47.6832 279.071 47.7378C278.987 47.7883 278.785 47.8927 278.497 47.8927V45.3713C278.165 45.3713 277.913 45.4921 277.774 45.5757C277.628 45.6632 277.516 45.7635 277.44 45.8395C277.289 45.9909 277.159 46.1683 277.052 46.3287L279.15 47.7273ZM278.497 47.8927C282.023 47.8927 285.126 46.8366 287.741 44.7054L286.148 42.7506C284.012 44.4914 281.482 45.3713 278.497 45.3713V47.8927ZM287.745 44.7022C290.394 42.5265 292.287 39.7771 293.417 36.4809L291.032 35.6631C290.05 38.5269 288.424 40.8815 286.145 42.7538L287.745 44.7022ZM293.486 36.072C293.486 36.2706 293.421 36.4888 293.278 36.6728C293.149 36.8388 293.008 36.9099 292.952 36.9338C292.897 36.9577 292.878 36.9553 292.923 36.9488C292.964 36.9429 293.037 36.9367 293.149 36.9367V34.4153C292.789 34.4153 292.351 34.4481 291.959 34.6162C291.75 34.7061 291.493 34.8597 291.287 35.1247C291.067 35.4077 290.964 35.7414 290.964 36.072H293.486ZM293.149 36.9367C293.28 36.9367 293.339 36.966 293.373 36.989L294.772 34.891C294.279 34.562 293.721 34.4153 293.149 34.4153V36.9367ZM293.767 37.1631C293.937 37.2055 293.868 37.2087 293.736 37.121C293.687 37.088 293.381 36.8843 293.27 36.4438C293.13 35.8834 293.416 35.4734 293.577 35.3125L295.36 37.0955C295.565 36.8906 295.868 36.4366 295.717 35.8322C295.596 35.3477 295.251 35.1 295.135 35.023C294.872 34.8473 294.561 34.7625 294.379 34.7169L293.767 37.1631ZM293.228 35.9785L291.38 46.1425L293.861 46.5935L295.709 36.4295L293.228 35.9785ZM292.673 47.6276C294.787 47.5396 296.812 47.4515 298.75 47.3634L298.636 44.8446C296.701 44.9325 294.679 45.0204 292.568 45.1084L292.673 47.6276ZM298.807 47.3596C300.731 47.1846 302.476 47.0538 304.043 46.9668L303.903 44.4492C302.301 44.5382 300.526 44.6714 298.579 44.8484L298.807 47.3596ZM304.103 46.962C306.659 46.6976 308.359 46.5727 309.253 46.5727V44.0513C308.211 44.0513 306.39 44.1904 303.843 44.454L304.103 46.962ZM326.264 27.228L325.338 28.0831L325.372 28.1202L325.409 28.1544L326.264 27.228ZM326.264 18.252L325.409 17.3256L325.391 17.3427L325.373 17.3605L326.264 18.252ZM335.372 18.252L334.481 19.1435L334.499 19.1613L334.517 19.1784L335.372 18.252ZM335.504 27.228L336.396 28.1195L336.414 28.1017L336.431 28.0831L335.504 27.228ZM317.948 84.252L319.181 84.5162L319.183 84.506L319.185 84.4958L317.948 84.252ZM323.36 56.796L322.124 56.5487L322.123 56.5522L323.36 56.796ZM317.552 50.988L318.237 52.0465L318.259 52.0327L318.279 52.018L317.552 50.988ZM312.668 55.212L313.56 56.1035L313.571 56.0926L313.581 56.0815L312.668 55.212ZM311.48 54.948L310.353 55.5118L310.444 55.6948L310.589 55.8395L311.48 54.948ZM311.612 54.156L312.312 55.205L312.46 55.1063L312.575 54.9704L311.612 54.156ZM330.884 45.444L329.876 46.2004L329.911 46.248L329.951 46.2921L330.884 45.444ZM331.544 56.136L330.312 55.8682L330.309 55.8829L330.306 55.8977L331.544 56.136ZM326.132 84.252L327.369 84.4993L327.37 84.4903L326.132 84.252ZM336.428 85.968L335.537 85.0765L335.526 85.0874L335.515 85.0985L336.428 85.968ZM337.616 86.364L336.489 86.9278L336.524 86.998L336.567 87.0633L337.616 86.364ZM337.484 87.024L336.785 85.975L336.637 86.0737L336.522 86.2096L337.484 87.024ZM329.432 94.68L328.724 93.6368L328.716 93.6428L328.707 93.649L329.432 94.68ZM330.884 27.5513C329.185 27.5513 327.977 27.0935 327.119 26.3016L325.409 28.1544C326.839 29.4745 328.712 30.0727 330.884 30.0727V27.5513ZM327.191 26.3729C326.399 25.5149 325.941 24.3077 325.941 22.608H323.42C323.42 24.7803 324.018 26.6531 325.338 28.0831L327.191 26.3729ZM325.941 22.608C325.941 21.0102 326.39 19.9095 327.156 19.1435L325.373 17.3605C324.027 18.7065 323.42 20.5098 323.42 22.608H325.941ZM327.119 19.1784C327.977 18.3865 329.185 17.9287 330.884 17.9287V15.4073C328.712 15.4073 326.839 16.0055 325.409 17.3256L327.119 19.1784ZM330.884 17.9287C332.589 17.9287 333.726 18.3882 334.481 19.1435L336.264 17.3605C334.907 16.0038 333.051 15.4073 330.884 15.4073V17.9287ZM334.517 19.1784C335.354 19.9512 335.828 21.0403 335.828 22.608H338.349C338.349 20.4797 337.678 18.6648 336.227 17.3256L334.517 19.1784ZM335.828 22.608C335.828 24.3077 335.37 25.5149 334.578 26.3729L336.431 28.0831C337.751 26.6531 338.349 24.7803 338.349 22.608H335.828ZM334.613 26.3365C333.867 27.0819 332.696 27.5513 330.884 27.5513V30.0727C333.121 30.0727 335.029 29.4861 336.396 28.1195L334.613 26.3365ZM322.436 95.9273C320.946 95.9273 320.032 95.4833 319.453 94.7737C318.834 94.0153 318.417 92.7368 318.417 90.72H315.896C315.896 93.0152 316.359 94.9707 317.5 96.3683C318.68 97.8147 320.407 98.4487 322.436 98.4487V95.9273ZM318.417 90.72C318.417 88.9862 318.665 86.9223 319.181 84.5162L316.716 83.9878C316.175 86.5097 315.896 88.7578 315.896 90.72H318.417ZM319.185 84.4958L324.597 57.0398L322.123 56.5522L316.711 84.0082L319.185 84.4958ZM324.597 57.0433C324.871 55.6708 325.017 54.4401 325.017 53.364H322.496C322.496 54.2239 322.378 55.2812 322.124 56.5487L324.597 57.0433ZM325.017 53.364C325.017 51.9516 324.801 50.6768 324.194 49.7194C323.526 48.6648 322.48 48.1433 321.248 48.1433V50.6647C321.689 50.6647 321.896 50.8032 322.064 51.0686C322.294 51.4312 322.496 52.1364 322.496 53.364H325.017ZM321.248 48.1433C319.875 48.1433 318.372 48.8662 316.825 49.958L318.279 52.018C319.725 50.9978 320.686 50.6647 321.248 50.6647V48.1433ZM316.867 49.9295C315.261 50.969 313.557 52.4508 311.755 54.3425L313.581 56.0815C315.3 54.2772 316.852 52.943 318.237 52.0465L316.867 49.9295ZM311.777 54.3205C312.009 54.0887 312.254 54.0833 312.272 54.0833V56.6047C312.643 56.6047 313.152 56.5113 313.56 56.1035L311.777 54.3205ZM312.272 54.0833C312.313 54.0833 312.349 54.0884 312.38 54.0962C312.41 54.1038 312.431 54.1127 312.44 54.1174C312.457 54.1256 312.432 54.1169 312.372 54.0565L310.589 55.8395C310.99 56.2409 311.556 56.6047 312.272 56.6047V54.0833ZM312.608 54.3842C312.586 54.3395 312.663 54.4649 312.625 54.6933C312.605 54.8134 312.557 54.929 312.488 55.0275C312.422 55.122 312.353 55.1775 312.312 55.205L310.913 53.107C310.549 53.3494 310.228 53.7394 310.138 54.2787C310.056 54.7711 310.199 55.2045 310.353 55.5118L312.608 54.3842ZM312.575 54.9704C318.357 48.1369 323.176 45.1207 327.056 45.1207V42.5993C321.961 42.5993 316.484 46.4471 310.65 53.3416L312.575 54.9704ZM327.056 45.1207C328.563 45.1207 329.396 45.5614 329.876 46.2004L331.893 44.6876C330.788 43.2146 329.07 42.5993 327.056 42.5993V45.1207ZM329.951 46.2921C330.524 46.9215 330.944 48.0834 330.944 50.064H333.465C333.465 47.8206 333.005 45.9025 331.817 44.5959L329.951 46.2921ZM330.944 50.064C330.944 51.9959 330.734 53.9301 330.312 55.8682L332.776 56.4038C333.235 54.2939 333.465 52.1801 333.465 50.064H330.944ZM330.306 55.8977L324.894 84.0137L327.37 84.4903L332.782 56.3743L330.306 55.8977ZM324.896 84.0047C324.622 85.3772 324.476 86.6079 324.476 87.684H326.997C326.997 86.8241 327.115 85.7668 327.369 84.4993L324.896 84.0047ZM324.476 87.684C324.476 89.0495 324.68 90.287 325.259 91.2199C325.9 92.2523 326.913 92.7727 328.112 92.7727V90.2513C327.728 90.2513 327.553 90.1337 327.401 89.8901C327.189 89.547 326.997 88.8705 326.997 87.684H324.476ZM328.112 92.7727C329.487 92.7727 330.936 92.1565 332.409 91.175C333.902 90.1796 335.547 88.7214 337.341 86.8375L335.515 85.0985C333.79 86.9106 332.289 88.2244 331.01 89.077C329.71 89.9435 328.762 90.2513 328.112 90.2513V92.7727ZM337.32 86.8595C337.088 87.0913 336.843 87.0967 336.824 87.0967V84.5753C336.454 84.5753 335.945 84.6687 335.537 85.0765L337.32 86.8595ZM336.824 87.0967C336.78 87.0967 336.684 87.082 336.587 87.017C336.497 86.9573 336.475 86.9014 336.489 86.9278L338.744 85.8002C338.581 85.4746 338.339 85.1547 337.986 84.919C337.624 84.678 337.221 84.5753 336.824 84.5753V87.0967ZM336.567 87.0633C336.548 87.0336 336.412 86.8133 336.479 86.4798C336.546 86.1462 336.755 85.9948 336.785 85.975L338.184 88.073C338.477 87.8772 338.841 87.5278 338.952 86.9743C339.062 86.4207 338.861 85.9584 338.665 85.6647L336.567 87.0633ZM336.522 86.2096C333.658 89.5938 331.058 92.0529 328.724 93.6368L330.14 95.7232C332.734 93.9631 335.502 91.3182 338.447 87.8384L336.522 86.2096ZM328.707 93.649C326.486 95.2119 324.402 95.9273 322.436 95.9273V98.4487C325.046 98.4487 327.627 97.4921 330.158 95.711L328.707 93.649ZM347.262 92.304L346.261 93.0716L346.271 93.0845L346.282 93.0973L347.262 92.304ZM343.566 70.524L342.326 70.2929L342.323 70.3111L342.32 70.3294L343.566 70.524ZM349.11 56.532L348.067 55.8225L348.062 55.8301L348.057 55.8378L349.11 56.532ZM359.274 46.896L359.904 47.9876L359.913 47.9824L359.922 47.9771L359.274 46.896ZM384.75 48.876L383.77 49.6693L383.78 49.682L383.791 49.6945L384.75 48.876ZM388.578 70.524L387.343 70.2686L387.343 70.2692L388.578 70.524ZM382.374 85.044L381.352 84.3051L381.347 84.3123L381.342 84.3195L382.374 85.044ZM372.078 94.548L371.465 93.4459L372.078 94.548ZM373.662 89.664L372.695 88.8543L372.689 88.8621L372.682 88.87L373.662 89.664ZM379.338 76.332L378.098 76.0997L379.338 76.332ZM376.83 52.836L375.702 53.3998L375.709 53.414L375.717 53.4281L376.83 52.836ZM352.938 64.848L351.698 64.6191L351.698 64.6196L352.938 64.848ZM355.314 88.608L354.206 89.21L354.214 89.2245L354.222 89.2387L355.314 88.608ZM359.934 96.5873C354.795 96.5873 350.957 94.8653 348.242 91.5107L346.282 93.0973C349.55 97.1347 354.16 99.1087 359.934 99.1087V96.5873ZM348.262 91.5364C345.566 88.0235 344.166 83.4303 344.166 77.652H341.645C341.645 83.8417 343.149 89.0165 346.261 93.0716L348.262 91.5364ZM344.166 77.652C344.166 75.8038 344.377 73.4973 344.811 70.7186L342.32 70.3294C341.874 73.1827 341.645 75.6282 341.645 77.652H344.166ZM344.805 70.7551C345.744 65.7173 347.533 61.2127 350.162 57.2262L348.057 55.8378C345.231 60.1233 343.323 64.9467 342.326 70.2929L344.805 70.7551ZM350.152 57.2415C352.871 53.2472 356.123 50.1722 359.904 47.9876L358.643 45.8044C354.504 48.1958 350.98 51.5447 348.067 55.8225L350.152 57.2415ZM359.922 47.9771C363.696 45.7125 367.654 44.5927 371.814 44.5927V42.0713C367.174 42.0713 362.771 43.3274 358.625 45.8149L359.922 47.9771ZM371.814 44.5927C377.143 44.5927 381.062 46.3247 383.77 49.6693L385.729 48.0827C382.453 44.0353 377.748 42.0713 371.814 42.0713V44.5927ZM383.791 49.6945C386.629 53.0196 388.109 57.4994 388.109 63.264H390.63C390.63 57.0606 389.03 51.9484 385.708 48.0574L383.791 49.6945ZM388.109 63.264C388.109 65.4553 387.856 67.7892 387.343 70.2686L389.812 70.7794C390.355 68.1548 390.63 65.6487 390.63 63.264H388.109ZM387.343 70.2692C386.231 75.6577 384.229 80.3286 381.352 84.3051L383.395 85.7829C386.503 81.4874 388.636 76.4783 389.812 70.7788L387.343 70.2692ZM381.342 84.3195C378.535 88.3178 375.24 91.3487 371.465 93.4459L372.69 95.6501C376.835 93.3473 380.405 90.0422 383.405 85.7685L381.342 84.3195ZM371.465 93.4459C367.674 95.552 363.835 96.5873 359.934 96.5873V99.1087C364.304 99.1087 368.561 97.944 372.69 95.6501L371.465 93.4459ZM364.554 95.8087C368.45 95.8087 371.82 93.9372 374.641 90.458L372.682 88.87C370.223 91.9028 367.522 93.2873 364.554 93.2873V95.8087ZM374.628 90.4737C377.535 87.0039 379.494 82.3377 380.577 76.5643L378.098 76.0997C377.069 81.5903 375.244 85.8121 372.695 88.8543L374.628 90.4737ZM380.577 76.5643C381.118 73.6756 381.39 70.8257 381.39 68.016H378.869C378.869 70.6623 378.613 73.3564 378.098 76.0997L380.577 76.5643ZM381.39 68.016C381.39 61.8813 380.263 56.6058 377.943 52.2439L375.717 53.4281C377.796 57.3382 378.869 62.1827 378.869 68.016H381.39ZM377.957 52.2722C376.832 50.0225 375.421 48.2544 373.689 47.0491C371.944 45.8355 369.94 45.2393 367.722 45.2393V47.7607C369.463 47.7607 370.957 48.2205 372.249 49.1189C373.552 50.0256 374.715 51.4255 375.702 53.3998L377.957 52.2722ZM367.722 45.2393C363.908 45.2393 360.545 47.116 357.647 50.5743L359.58 52.1937C362.138 49.14 364.847 47.7607 367.722 47.7607V45.2393ZM357.647 50.5743C354.737 54.0475 352.779 58.7607 351.698 64.6191L354.177 65.0769C355.208 59.4953 357.034 55.2325 359.58 52.1937L357.647 50.5743ZM351.698 64.6196C351.072 68.0158 350.753 71.043 350.753 73.692H353.274C353.274 71.237 353.571 68.3682 354.177 65.0764L351.698 64.6196ZM350.753 73.692C350.753 79.7409 351.881 84.9327 354.206 89.21L356.421 88.006C354.346 84.1873 353.274 79.4351 353.274 73.692H350.753ZM354.222 89.2387C356.687 93.5048 360.142 95.8087 364.554 95.8087V93.2873C361.221 93.2873 358.516 91.6312 356.405 87.9773L354.222 89.2387ZM449.61 85.836L450.481 86.748L450.491 86.7378L450.502 86.7275L449.61 85.836ZM450.666 86.1L449.538 86.6638L449.574 86.734L449.617 86.7993L450.666 86.1ZM450.666 86.892L451.627 87.7085L451.674 87.6525L451.715 87.5913L450.666 86.892ZM442.614 94.68L441.889 93.649L442.614 94.68ZM431.79 95.736L430.781 96.4924L430.797 96.5137L430.814 96.5343L431.79 95.736ZM431.262 84.252L430.022 84.0258L430.019 84.0415L430.016 84.0574L431.262 84.252ZM435.09 63.264L433.854 63.0167L433.852 63.0273L433.85 63.0378L435.09 63.264ZM422.022 54.684L421.052 53.8792L422.022 54.684ZM413.574 70.392L414.751 70.8446L413.574 70.392ZM407.106 94.812L408.329 95.1178L408.34 95.0754L408.347 95.0324L407.106 94.812ZM405.522 96.396L405.054 95.2254L405.005 95.2449L404.958 95.2684L405.522 96.396ZM398.394 96.132L397.158 95.8848L397.133 96.0072V96.132H398.394ZM398.922 93.492L397.688 93.2337L397.686 93.2448L398.922 93.492ZM400.374 86.232L399.134 86.004L399.132 86.0144L399.13 86.0247L400.374 86.232ZM405.786 56.796L404.55 56.5487L404.548 56.5584L404.546 56.568L405.786 56.796ZM394.962 55.212L395.854 56.1035L395.864 56.0931L395.874 56.0825L394.962 55.212ZM393.906 54.948L392.778 55.5118L392.814 55.582L392.857 55.6473L393.906 54.948ZM393.906 54.156L394.798 55.0475L394.834 55.0114L394.867 54.9725L393.906 54.156ZM402.222 46.368L402.913 47.4226L402.222 46.368ZM413.442 45.444L412.433 46.2004L412.449 46.2217L412.466 46.2423L413.442 45.444ZM413.97 56.136L415.21 56.3615L415.212 56.3524L415.214 56.3433L413.97 56.136ZM411.33 70.656L410.09 70.4305L412.513 71.0907L411.33 70.656ZM422.418 50.592L423.36 51.4296L423.368 51.421L422.418 50.592ZM442.218 45.84L441.254 46.6521L441.266 46.6666L441.279 46.6806L442.218 45.84ZM443.67 60.756L442.431 60.5237L442.43 60.5262L443.67 60.756ZM439.314 84.252L440.55 84.4993L440.552 84.4905L440.554 84.4818L439.314 84.252ZM444.726 90.06L443.98 89.0433L444.726 90.06ZM450.502 86.7275C450.56 86.6691 450.571 86.6667 450.54 86.687C450.524 86.6982 450.476 86.7289 450.4 86.7591C450.327 86.7882 450.19 86.8327 450.006 86.8327V84.3113C449.583 84.3113 449.271 84.5031 449.142 84.589C448.979 84.6973 448.836 84.8269 448.719 84.9445L450.502 86.7275ZM450.006 86.8327C449.929 86.8327 449.846 86.8193 449.765 86.7898C449.685 86.7607 449.624 86.7222 449.581 86.6885C449.504 86.6267 449.502 86.5904 449.538 86.6638L451.794 85.5362C451.521 84.9917 450.963 84.3113 450.006 84.3113V86.8327ZM449.617 86.7993C449.595 86.7666 449.537 86.6594 449.537 86.496C449.537 86.3326 449.595 86.2254 449.617 86.1927L451.715 87.5913C451.913 87.2946 452.059 86.9234 452.059 86.496C452.059 86.0686 451.913 85.6974 451.715 85.4007L449.617 86.7993ZM449.705 86.0755C446.747 89.556 444.142 92.0633 441.889 93.649L443.34 95.711C445.838 93.9527 448.601 91.268 451.627 87.7085L449.705 86.0755ZM441.889 93.649C439.667 95.2119 437.584 95.9273 435.618 95.9273V98.4487C438.228 98.4487 440.809 97.4921 443.34 95.711L441.889 93.649ZM435.618 95.9273C434.075 95.9273 433.232 95.5077 432.766 94.9377L430.814 96.5343C431.932 97.9003 433.641 98.4487 435.618 98.4487V95.9273ZM432.799 94.9796C432.252 94.2512 431.863 92.9142 431.863 90.72H429.341C429.341 93.1018 429.744 95.1088 430.781 96.4924L432.799 94.9796ZM431.863 90.72C431.863 89.3236 432.07 87.2448 432.508 84.4466L430.016 84.0574C429.574 86.8912 429.341 89.1244 429.341 90.72H431.863ZM432.502 84.4782L436.33 63.4902L433.85 63.0378L430.022 84.0258L432.502 84.4782ZM436.326 63.5113C436.865 60.8188 437.143 58.4441 437.143 56.4H434.621C434.621 58.2279 434.371 60.4292 433.854 63.0167L436.326 63.5113ZM437.143 56.4C437.143 53.91 436.7 51.8152 435.617 50.3158C434.479 48.7405 432.776 48.0113 430.734 48.0113V50.5327C432.124 50.5327 432.995 50.9915 433.573 51.7921C434.206 52.6688 434.621 54.138 434.621 56.4H437.143ZM430.734 48.0113C427.354 48.0113 424.128 50.1694 421.052 53.8792L422.993 55.4888C425.9 51.9826 428.483 50.5327 430.734 50.5327V48.0113ZM421.052 53.8792C417.937 57.635 415.062 63.0117 412.397 69.9394L414.751 70.8446C417.366 64.0443 420.123 58.949 422.993 55.4888L421.052 53.8792ZM412.397 69.9394C409.721 76.897 407.547 85.1185 405.865 94.5916L408.347 95.0324C410.009 85.6735 412.147 77.615 414.751 70.8446L412.397 69.9394ZM405.883 94.5062C405.834 94.7017 405.685 94.9732 405.054 95.2254L405.99 97.5666C407.12 97.1148 408.026 96.3303 408.329 95.1178L405.883 94.5062ZM404.958 95.2684C404.321 95.5871 403.351 95.7953 401.958 95.7953V98.3167C403.557 98.3167 404.963 98.0849 406.086 97.5236L404.958 95.2684ZM401.958 95.7953C400.797 95.7953 400.036 95.7173 399.601 95.6046C399.379 95.5469 399.345 95.5052 399.391 95.5411C399.474 95.6057 399.655 95.8103 399.655 96.132H397.133C397.133 96.7617 397.463 97.2358 397.843 97.5314C398.186 97.7983 398.597 97.9491 398.969 98.0454C399.722 98.2407 400.743 98.3167 401.958 98.3167V95.7953ZM399.63 96.3792L400.158 93.7393L397.686 93.2448L397.158 95.8848L399.63 96.3792ZM400.156 93.7503C400.946 89.974 401.436 87.5262 401.618 86.4393L399.13 86.0247C398.96 87.0498 398.482 89.442 397.688 93.2337L400.156 93.7503ZM401.614 86.46L407.026 57.024L404.546 56.568L399.134 86.004L401.614 86.46ZM407.022 57.0433C407.295 55.6798 407.443 54.4904 407.443 53.496H404.921C404.921 54.2616 404.805 55.2722 404.55 56.5487L407.022 57.0433ZM407.443 53.496C407.443 52.0442 407.228 50.7434 406.63 49.7682C405.97 48.6922 404.925 48.1433 403.674 48.1433V50.6647C404.096 50.6647 404.304 50.7978 404.48 51.0858C404.718 51.4746 404.921 52.2198 404.921 53.496H407.443ZM403.674 48.1433C402.255 48.1433 400.75 48.7822 399.213 49.807C397.654 50.8461 395.932 52.3699 394.05 54.3415L395.874 56.0825C397.688 54.1821 399.266 52.8019 400.611 51.905C401.978 50.9938 402.981 50.6647 403.674 50.6647V48.1433ZM394.071 54.3205C394.302 54.0887 394.548 54.0833 394.566 54.0833V56.6047C394.936 56.6047 395.446 56.5113 395.854 56.1035L394.071 54.3205ZM394.566 54.0833C394.656 54.0833 394.76 54.1088 394.852 54.1639C394.935 54.2139 394.963 54.2613 394.955 54.2487L392.857 55.6473C393.213 56.1808 393.791 56.6047 394.566 56.6047V54.0833ZM395.034 54.3842C394.994 54.3044 395.035 54.3499 395.035 54.486C395.035 54.5621 395.022 54.6627 394.978 54.7727C394.933 54.8842 394.868 54.977 394.798 55.0475L393.015 53.2645C392.246 54.0327 392.525 55.0045 392.778 55.5118L395.034 54.3842ZM394.867 54.9725C397.816 51.5023 400.499 49.0039 402.913 47.4226L401.531 45.3134C398.841 47.0761 395.98 49.7697 392.945 53.3395L394.867 54.9725ZM402.913 47.4226C405.317 45.8472 407.545 45.1207 409.614 45.1207V42.5993C406.932 42.5993 404.231 43.5448 401.531 45.3134L402.913 47.4226ZM409.614 45.1207C411.121 45.1207 411.954 45.5614 412.433 46.2004L414.451 44.6876C413.346 43.2146 411.627 42.5993 409.614 42.5993V45.1207ZM412.466 46.2423C412.979 46.8686 413.369 48.0887 413.369 50.196H415.891C415.891 47.9033 415.489 45.9554 414.418 44.6457L412.466 46.2423ZM413.369 50.196C413.369 51.4072 413.164 53.3026 412.726 55.9287L415.214 56.3433C415.656 53.6894 415.891 51.6248 415.891 50.196H413.369ZM412.73 55.9105L410.09 70.4305L412.57 70.8815L415.21 56.3615L412.73 55.9105ZM412.513 71.0907C415.649 62.5545 419.277 56.0235 423.36 51.4296L421.476 49.7544C417.111 54.6645 413.347 61.5095 410.147 70.2213L412.513 71.0907ZM423.368 51.421C427.447 46.7473 431.573 44.5927 435.75 44.5927V42.0713C430.6 42.0713 425.837 44.7567 421.468 49.763L423.368 51.421ZM435.75 44.5927C438.412 44.5927 440.158 45.3509 441.254 46.6521L443.182 45.0279C441.462 42.9851 438.896 42.0713 435.75 42.0713V44.5927ZM441.279 46.6806C442.482 48.0257 443.201 50.2157 443.201 53.496H445.723C445.723 49.9123 444.946 46.9983 443.158 44.9993L441.279 46.6806ZM443.201 53.496C443.201 55.4174 442.95 57.7555 442.431 60.5237L444.909 60.9883C445.446 58.1245 445.723 55.6226 445.723 53.496H443.201ZM442.43 60.5262L438.074 84.0222L440.554 84.4818L444.91 60.9858L442.43 60.5262ZM438.078 84.0048C437.805 85.3682 437.657 86.5576 437.657 87.552H440.179C440.179 86.7864 440.295 85.7758 440.55 84.4993L438.078 84.0048ZM437.657 87.552C437.657 88.9644 437.874 90.2392 438.48 91.1966C439.148 92.2512 440.194 92.7727 441.426 92.7727V90.2513C440.986 90.2513 440.778 90.1128 440.61 89.8474C440.381 89.4848 440.179 88.7796 440.179 87.552H437.657ZM441.426 92.7727C442.722 92.7727 444.096 92.0854 445.472 91.0767L443.98 89.0433C442.716 89.9706 441.891 90.2513 441.426 90.2513V92.7727ZM445.472 91.0767C446.854 90.0628 448.527 88.6132 450.481 86.748L448.74 84.924C446.822 86.7548 445.238 88.1212 443.98 89.0433L445.472 91.0767ZM456.312 95.208L455.63 96.2685L455.652 96.2825L455.675 96.2956L456.312 95.208ZM453.936 85.968L453.088 85.0351L453.066 85.0553L453.045 85.0765L453.936 85.968ZM459.744 85.572L458.853 86.4635L458.887 86.4977L458.924 86.5292L459.744 85.572ZM461.988 88.476L463.093 87.8684L463.076 87.8376L463.057 87.8078L461.988 88.476ZM465.156 92.568L465.971 91.6056L465.156 92.568ZM477.168 86.892L475.945 86.5862L475.927 86.6573L475.918 86.7299L477.168 86.892ZM475.056 78.576L474.053 79.3401L474.065 79.3548L474.076 79.3693L475.056 78.576ZM468.456 72.108L469.258 71.1348L469.254 71.1322L468.456 72.108ZM461.856 65.772L462.836 64.9787L461.856 65.772ZM462.12 51.384L461.107 50.6336L461.098 50.6459L461.089 50.6585L462.12 51.384ZM468.984 45.84L469.519 46.9815L469.527 46.978L469.534 46.9744L468.984 45.84ZM486.54 45.708L485.892 46.7891L486.54 45.708ZM489.444 50.724L490.68 50.9712L490.689 50.9294L490.694 50.8871L489.444 50.724ZM487.728 53.892L488.516 54.8765L488.544 54.8536L488.572 54.8291L487.728 53.892ZM479.544 51.252L478.475 51.9202L478.479 51.927L478.484 51.9338L479.544 51.252ZM476.772 48.084L475.929 49.0211L475.978 49.065L476.031 49.1036L476.772 48.084ZM468.72 48.216L467.951 47.2167L467.932 47.2317L467.913 47.2475L468.72 48.216ZM466.872 51.78L468.095 52.0858L468.115 52.0075L468.124 51.9273L466.872 51.78ZM468.852 59.832L467.849 60.5961L467.861 60.6108L467.872 60.6253L468.852 59.832ZM475.32 66.168L476.141 65.2107L476.133 65.2044L475.32 66.168ZM482.184 73.164L481.17 73.9134L481.189 73.9383L481.208 73.9623L482.184 73.164ZM481.92 88.08L480.861 87.3965L480.853 87.4088L480.845 87.4212L481.92 88.08ZM474.924 94.812L474.285 93.7253L474.278 93.7295L474.271 93.7338L474.924 94.812ZM465.156 96.1913C462.006 96.1913 459.284 95.4888 456.95 94.1204L455.675 96.2956C458.444 97.9192 461.618 98.7127 465.156 98.7127V96.1913ZM456.994 94.1475C454.737 92.6968 453.877 91.1918 453.877 89.664H451.355C451.355 92.3602 452.959 94.5512 455.63 96.2685L456.994 94.1475ZM453.877 89.664C453.877 88.3186 454.244 87.443 454.828 86.8595L453.045 85.0765C451.868 86.253 451.355 87.8414 451.355 89.664H453.877ZM454.784 86.9009C455.518 86.2339 456.359 85.9087 457.368 85.9087V83.3873C455.738 83.3873 454.29 83.9421 453.088 85.0351L454.784 86.9009ZM457.368 85.9087C458.043 85.9087 458.5 86.1112 458.853 86.4635L460.636 84.6805C459.756 83.8008 458.63 83.3873 457.368 83.3873V85.9087ZM458.924 86.5292C459.387 86.9259 460.051 87.7559 460.919 89.1442L463.057 87.8078C462.165 86.3801 461.334 85.2741 460.565 84.6148L458.924 86.5292ZM460.883 89.0836C461.902 90.9354 463.048 92.4354 464.342 93.5304L465.971 91.6056C464.977 90.7646 464.01 89.5366 463.093 87.8684L460.883 89.0836ZM464.342 93.5304C465.782 94.7494 467.691 95.2807 469.908 95.2807V92.7593C468.077 92.7593 466.818 92.3226 465.971 91.6056L464.342 93.5304ZM469.908 95.2807C472.265 95.2807 474.274 94.6108 475.774 93.1376C477.254 91.6845 478.089 89.597 478.418 87.0541L475.918 86.7299C475.632 88.939 474.948 90.4155 474.008 91.3384C473.088 92.2412 471.775 92.7593 469.908 92.7593V95.2807ZM478.391 87.1978C478.52 86.6846 478.561 85.9793 478.561 85.176H476.039C476.039 85.9567 475.993 86.3954 475.945 86.5862L478.391 87.1978ZM478.561 85.176C478.561 82.3579 477.728 79.8722 476.036 77.7827L474.076 79.3693C475.377 80.9758 476.039 82.8901 476.039 85.176H478.561ZM476.059 77.8119C474.566 75.8525 472.282 73.6254 469.258 71.1348L467.655 73.0812C470.614 75.5186 472.73 77.6035 474.053 79.3401L476.059 77.8119ZM469.254 71.1322C466.384 68.7833 464.256 66.733 462.836 64.9787L460.876 66.5653C462.448 68.507 464.721 70.6807 467.658 73.0838L469.254 71.1322ZM462.836 64.9787C461.536 63.3722 460.873 61.4579 460.873 59.172H458.351C458.351 61.9901 459.185 64.4758 460.876 66.5653L462.836 64.9787ZM460.873 59.172C460.873 56.6244 461.624 54.2803 463.151 52.1095L461.089 50.6585C459.273 53.2397 458.351 56.0876 458.351 59.172H460.873ZM463.133 52.1344C464.762 49.9352 466.882 48.2176 469.519 46.9815L468.449 44.6985C465.454 46.1024 462.998 48.0808 461.107 50.6336L463.133 52.1344ZM469.534 46.9744C472.27 45.6479 475.118 44.9887 478.092 44.9887V42.4673C474.73 42.4673 471.506 43.2161 468.434 44.7056L469.534 46.9744ZM478.092 44.9887C481.37 44.9887 483.943 45.6199 485.892 46.7891L487.189 44.6269C484.737 43.1561 481.678 42.4673 478.092 42.4673V44.9887ZM485.892 46.7891C486.866 47.3739 487.478 47.9833 487.825 48.5837C488.162 49.1654 488.292 49.8075 488.194 50.5609L490.694 50.8871C490.86 49.6165 490.638 48.4106 490.007 47.3203C489.387 46.2487 488.414 45.3621 487.189 44.6269L485.892 46.7891ZM488.208 50.4767C487.99 51.5686 487.536 52.3689 486.885 52.9549L488.572 54.8291C489.68 53.8311 490.371 52.5194 490.68 50.9712L488.208 50.4767ZM486.941 52.9075C486.268 53.4456 485.574 53.6873 484.824 53.6873V56.2087C486.186 56.2087 487.428 55.7464 488.516 54.8765L486.941 52.9075ZM484.824 53.6873C483.685 53.6873 483.013 53.4209 482.618 53.0752L480.958 54.9728C481.971 55.8591 483.323 56.2087 484.824 56.2087V53.6873ZM482.618 53.0752C482.039 52.5679 481.365 51.7522 480.605 50.5702L478.484 51.9338C479.308 53.2158 480.13 54.248 480.958 54.9728L482.618 53.0752ZM480.613 50.5838C479.678 49.0882 478.652 47.8926 477.514 47.0644L476.031 49.1036C476.828 49.6834 477.65 50.5998 478.475 51.9202L480.613 50.5838ZM477.616 47.1469C476.424 46.0745 474.8 45.6353 472.944 45.6353V48.1567C474.433 48.1567 475.36 48.5095 475.929 49.0211L477.616 47.1469ZM472.944 45.6353C471.04 45.6353 469.35 46.1412 467.951 47.2167L469.489 49.2153C470.379 48.5308 471.504 48.1567 472.944 48.1567V45.6353ZM467.913 47.2475C466.584 48.3548 465.83 49.8496 465.62 51.6327L468.124 51.9273C468.266 50.7184 468.744 49.8372 469.527 49.1845L467.913 47.2475ZM465.649 51.4742C465.521 51.9874 465.479 52.6927 465.479 53.496H468.001C468.001 52.7153 468.048 52.2766 468.095 52.0858L465.649 51.4742ZM465.479 53.496C465.479 56.1413 466.27 58.5232 467.849 60.5961L469.855 59.0679C468.618 57.4448 468.001 55.6027 468.001 53.496H465.479ZM467.872 60.6253C469.438 62.5591 471.66 64.7289 474.507 67.1316L476.133 65.2044C473.349 62.8551 471.259 60.8008 469.832 59.0387L467.872 60.6253ZM474.5 67.1252C477.546 69.7361 479.754 71.9976 481.17 73.9134L483.198 72.4146C481.622 70.2824 479.255 67.8799 476.141 65.2108L474.5 67.1252ZM481.208 73.9623C482.597 75.66 483.299 77.6616 483.299 80.028H485.821C485.821 77.1144 484.939 74.54 483.16 72.3657L481.208 73.9623ZM483.299 80.028C483.299 82.3751 482.52 84.8253 480.861 87.3965L482.98 88.7635C484.841 85.8787 485.821 82.9609 485.821 80.028H483.299ZM480.845 87.4212C479.29 89.9583 477.114 92.061 474.285 93.7253L475.563 95.8987C478.718 94.043 481.206 91.6577 482.995 88.7388L480.845 87.4212ZM474.271 93.7338C471.576 95.3669 468.549 96.1913 465.156 96.1913V98.7127C468.98 98.7127 472.464 97.7771 475.578 95.8902L474.271 93.7338Z" fill="#F5F1E6" mask="url(#path-1-outside-1_143_6329)"/>
</svg>
