<svg width="345" height="121" viewBox="0 0 345 121" fill="none" xmlns="http://www.w3.org/2000/svg">
<mask id="path-1-outside-1_143_6328" maskUnits="userSpaceOnUse" x="-1" y="-1" width="348" height="123" fill="black">
<rect fill="white" x="-1" y="-1" width="348" height="123"/>
<path d="M91.7448 0.5C92.0088 0.5 92.1408 0.763999 92.1408 1.292C92.1408 1.82 92.0088 2.084 91.7448 2.084C89.1048 2.084 87.1248 2.34799 85.8048 2.87599C84.4848 3.31599 83.4728 4.15199 82.7688 5.384C82.1528 6.616 81.5808 8.552 81.0528 11.192L70.2288 72.308C69.9648 73.98 69.8328 75.344 69.8328 76.4C69.8328 78.424 70.4048 79.788 71.5488 80.492C72.6928 81.108 74.8048 81.416 77.8848 81.416C78.1488 81.416 78.2808 81.68 78.2808 82.208C78.2808 82.736 78.1488 83 77.8848 83C75.5968 83 73.7928 82.956 72.4728 82.868L64.2888 82.736L56.1048 82.868C54.6968 82.956 52.7168 83 50.1648 83C49.9888 83 49.9008 82.736 49.9008 82.208C49.9008 81.68 49.9888 81.416 50.1648 81.416C52.9808 81.416 55.0488 81.196 56.3688 80.756C57.6888 80.316 58.6568 79.48 59.2728 78.248C59.9768 77.016 60.5488 75.036 60.9888 72.308L66.4008 41.552H26.4048L20.9928 72.308C20.6408 74.596 20.4648 76.048 20.4648 76.664C20.4648 78.512 21.0368 79.788 22.1808 80.492C23.3248 81.108 25.4368 81.416 28.5168 81.416C28.7808 81.416 28.9128 81.68 28.9128 82.208C28.9128 82.736 28.7808 83 28.5168 83C26.1408 83 24.2488 82.956 22.8408 82.868L14.3928 82.736L6.47277 82.868C5.15277 82.956 3.30477 83 0.928772 83C0.664772 83 0.532772 82.736 0.532772 82.208C0.532772 81.68 0.664772 81.416 0.928772 81.416C3.65677 81.416 5.68077 81.196 7.00077 80.756C8.32077 80.316 9.33277 79.48 10.0368 78.248C10.7408 76.928 11.3128 74.948 11.7528 72.308L22.5768 11.192C22.9288 8.90399 23.1048 7.49599 23.1048 6.968C23.1048 5.03199 22.5328 3.75599 21.3888 3.14C20.2448 2.436 18.1328 2.084 15.0528 2.084C14.8768 2.084 14.7888 1.82 14.7888 1.292C14.7888 0.763999 14.8768 0.5 15.0528 0.5L20.7288 0.631998C23.8968 0.807996 26.4928 0.895995 28.5168 0.895995C30.5408 0.895995 33.3128 0.807996 36.8328 0.631998L42.6408 0.5C42.8168 0.5 42.9048 0.763999 42.9048 1.292C42.9048 1.82 42.8168 2.084 42.6408 2.084C40.0008 2.084 37.9768 2.34799 36.5688 2.87599C35.2488 3.404 34.2368 4.328 33.5328 5.648C32.9168 6.88 32.3448 8.816 31.8168 11.456L27.0648 38.516H66.9288L71.6808 11.456C72.0328 9.168 72.2088 7.672 72.2088 6.968C72.2088 5.03199 71.6368 3.75599 70.4928 3.14C69.3488 2.436 67.2808 2.084 64.2888 2.084C64.0248 2.084 63.8928 1.82 63.8928 1.292C63.8928 0.763999 64.0248 0.5 64.2888 0.5L69.9648 0.631998C73.3088 0.807996 75.9928 0.895995 78.0168 0.895995C79.9528 0.895995 82.6808 0.807996 86.2008 0.631998L91.7448 0.5ZM109.416 15.812C107.48 15.812 105.94 15.284 104.796 14.228C103.74 13.084 103.212 11.544 103.212 9.60799C103.212 7.76 103.74 6.308 104.796 5.25199C105.94 4.196 107.48 3.668 109.416 3.668C111.352 3.668 112.848 4.196 113.904 5.25199C115.048 6.308 115.62 7.76 115.62 9.60799C115.62 11.544 115.092 13.084 114.036 14.228C112.98 15.284 111.44 15.812 109.416 15.812ZM100.968 84.188C97.4483 84.188 95.6883 82.032 95.6883 77.72C95.6883 75.872 95.9523 73.716 96.4803 71.252L101.892 43.796C102.156 42.476 102.288 41.332 102.288 40.364C102.288 37.724 101.452 36.404 99.7803 36.404C98.8123 36.404 97.5803 36.932 96.0843 37.988C94.5883 38.956 92.9603 40.364 91.2003 42.212C91.1123 42.3 90.9803 42.344 90.8043 42.344C90.5403 42.344 90.2763 42.212 90.0123 41.948C89.8363 41.596 89.8803 41.332 90.1443 41.156C95.9523 34.292 101.1 30.86 105.588 30.86C107.348 30.86 108.624 31.388 109.416 32.444C110.296 33.412 110.736 34.952 110.736 37.064C110.736 39.088 110.516 41.112 110.076 43.136L104.664 71.252C104.4 72.572 104.268 73.716 104.268 74.684C104.268 77.236 105.06 78.512 106.644 78.512C108.668 78.512 111.44 76.664 114.96 72.968C115.048 72.88 115.18 72.836 115.356 72.836C115.708 72.836 115.972 73.012 116.148 73.364C116.324 73.628 116.28 73.848 116.016 74.024C113.112 77.456 110.428 80.008 107.964 81.68C105.588 83.352 103.256 84.188 100.968 84.188ZM131.602 84.452C128.258 84.452 125.31 83.704 122.758 82.208C120.294 80.624 119.062 78.776 119.062 76.664C119.062 75.08 119.502 73.848 120.382 72.968C121.35 72.088 122.494 71.648 123.814 71.648C124.782 71.648 125.574 71.956 126.19 72.572C126.806 73.1 127.554 74.068 128.434 75.476C129.402 77.236 130.458 78.6 131.602 79.568C132.746 80.536 134.33 81.02 136.354 81.02C140.578 81.02 142.998 78.644 143.614 73.892C143.702 73.54 143.746 72.968 143.746 72.176C143.746 69.624 142.998 67.424 141.502 65.576C140.094 63.728 137.894 61.572 134.902 59.108C131.998 56.732 129.798 54.62 128.302 52.772C126.806 50.924 126.058 48.724 126.058 46.172C126.058 43.356 126.894 40.76 128.566 38.384C130.326 36.008 132.614 34.16 135.43 32.84C138.334 31.432 141.37 30.728 144.538 30.728C147.97 30.728 150.786 31.388 152.986 32.708C155.186 34.028 156.154 35.7 155.89 37.724C155.626 39.044 155.054 40.1 154.174 40.892C153.294 41.596 152.326 41.948 151.27 41.948C149.95 41.948 148.938 41.64 148.234 41.024C147.53 40.408 146.782 39.484 145.99 38.252C145.11 36.844 144.186 35.788 143.218 35.084C142.338 34.292 141.062 33.896 139.39 33.896C137.718 33.896 136.31 34.336 135.166 35.216C134.11 36.096 133.494 37.284 133.318 38.78C133.23 39.132 133.186 39.704 133.186 40.496C133.186 42.872 133.89 44.984 135.298 46.832C136.794 48.68 138.95 50.792 141.766 53.168C144.846 55.808 147.134 58.14 148.63 60.164C150.214 62.1 151.006 64.388 151.006 67.028C151.006 69.668 150.126 72.352 148.366 75.08C146.694 77.808 144.362 80.052 141.37 81.812C138.466 83.572 135.21 84.452 131.602 84.452ZM195.973 32.312C196.325 32.312 196.589 32.444 196.765 32.708C196.941 32.972 196.985 33.28 196.897 33.632C196.633 34.512 196.061 35.48 195.181 36.536C194.301 37.592 193.421 38.12 192.541 38.12C192.101 38.12 190.429 37.9 187.525 37.46C184.709 37.02 181.805 36.756 178.813 36.668L173.005 69.008C172.741 70.328 172.609 71.516 172.609 72.572C172.609 74.772 173.137 76.4 174.193 77.456C175.249 78.424 176.921 78.908 179.209 78.908C181.321 78.908 183.301 78.468 185.149 77.588C187.085 76.62 189.197 75.212 191.485 73.364H191.617C191.881 73.364 192.145 73.496 192.409 73.76C192.673 74.024 192.717 74.244 192.541 74.42C188.581 78.028 185.061 80.624 181.981 82.208C178.989 83.792 176.085 84.584 173.269 84.584C170.453 84.584 168.165 83.924 166.405 82.604C164.645 81.196 163.765 78.864 163.765 75.608C163.765 75.08 163.853 74.024 164.029 72.44L169.573 42.608C169.925 41.112 170.101 39.748 170.101 38.516C170.101 37.284 169.749 36.492 169.045 36.14C168.341 35.7 167.021 35.48 165.085 35.48C164.821 35.48 164.689 35.26 164.689 34.82C164.689 34.556 164.733 34.292 164.821 34.028C164.997 33.764 165.129 33.632 165.217 33.632C168.473 33.632 171.289 32.664 173.665 30.728C176.129 28.704 177.889 26.152 178.945 23.072C178.945 22.808 179.253 22.676 179.869 22.676C180.221 22.676 180.529 22.764 180.793 22.94C181.145 23.028 181.277 23.116 181.189 23.204L179.341 33.368C181.453 33.28 183.477 33.192 185.413 33.104C187.349 32.928 189.109 32.796 190.693 32.708C193.245 32.444 195.005 32.312 195.973 32.312ZM215.361 84.848C209.905 84.848 205.681 83 202.689 79.304C199.785 75.52 198.333 70.636 198.333 64.652C198.333 62.716 198.553 60.34 198.993 57.524C199.961 52.332 201.809 47.668 204.537 43.532C207.353 39.396 210.741 36.184 214.701 33.896C218.661 31.52 222.841 30.332 227.241 30.332C232.873 30.332 237.185 32.18 240.177 35.876C243.257 39.484 244.797 44.28 244.797 50.264C244.797 52.552 244.533 54.972 244.005 57.524C242.861 63.068 240.793 67.908 237.801 72.044C234.897 76.18 231.465 79.348 227.505 81.548C223.545 83.748 219.497 84.848 215.361 84.848ZM219.981 81.548C223.413 81.548 226.449 79.92 229.089 76.664C231.817 73.408 233.709 68.964 234.765 63.332C235.293 60.516 235.557 57.744 235.557 55.016C235.557 49.032 234.457 43.972 232.257 39.836C230.145 35.612 227.109 33.5 223.149 33.5C219.805 33.5 216.769 35.128 214.041 38.384C211.313 41.64 209.421 46.128 208.365 51.848C207.749 55.192 207.441 58.14 207.441 60.692C207.441 66.588 208.541 71.56 210.741 75.608C213.029 79.568 216.109 81.548 219.981 81.548ZM285.105 30.86C286.953 30.86 288.713 31.52 290.385 32.84C292.057 34.16 292.893 35.7 292.893 37.46C292.893 38.78 292.409 39.968 291.441 41.024C290.561 41.992 289.417 42.476 288.009 42.476C287.041 42.476 286.249 42.3 285.633 41.948C285.017 41.508 284.357 40.892 283.653 40.1C283.213 39.66 282.729 39.264 282.201 38.912C281.761 38.472 281.233 38.252 280.617 38.252C278.857 38.252 276.701 40.76 274.149 45.776C271.685 50.704 269.309 56.644 267.021 63.596C264.821 70.46 263.193 76.532 262.137 81.812C261.961 82.516 261.433 83.044 260.553 83.396C259.673 83.836 258.485 84.056 256.989 84.056C254.701 84.056 253.557 83.748 253.557 83.132C253.645 82.604 253.909 81.24 254.349 79.04C254.877 76.84 255.273 74.904 255.537 73.232L260.289 47.228C260.641 45.204 260.817 43.356 260.817 41.684C260.817 38.164 259.849 36.404 257.913 36.404C256.065 36.404 253.469 38.076 250.125 41.42C250.037 41.508 249.905 41.552 249.729 41.552C249.465 41.552 249.245 41.42 249.069 41.156C248.893 40.804 248.893 40.54 249.069 40.364C251.885 37.108 254.481 34.732 256.857 33.236C259.233 31.652 261.565 30.86 263.853 30.86C265.701 30.86 267.065 31.432 267.945 32.576C268.825 33.72 269.265 35.656 269.265 38.384C269.265 40.496 269.001 43.224 268.473 46.568L265.701 62.012C268.517 52.948 271.597 45.512 274.941 39.704C278.373 33.808 281.761 30.86 285.105 30.86ZM339.321 30.728C341.169 30.728 342.577 31.432 343.545 32.84C344.513 34.248 344.997 36.184 344.997 38.648C344.997 45.6 341.521 55.72 334.569 69.008C327.705 82.296 319.785 94.132 310.809 104.516C301.833 114.9 294.397 120.092 288.501 120.092C286.653 120.092 285.157 119.652 284.013 118.772C282.869 117.98 282.297 116.704 282.297 114.944L282.429 113.756C283.133 110.852 285.157 109.4 288.501 109.4C289.381 109.4 290.789 109.488 292.725 109.664C294.485 109.84 295.805 109.928 296.685 109.928C299.589 109.928 302.009 109.18 303.945 107.684C306.497 106.012 309.841 102.36 313.977 96.728L314.109 89.864C314.109 73.144 312.789 60.208 310.149 51.056C307.597 41.816 304.077 37.196 299.589 37.196C298.445 37.196 297.301 37.592 296.157 38.384C295.013 39.176 294.045 40.32 293.253 41.816C293.165 42.08 292.901 42.212 292.461 42.212C291.845 42.212 291.581 41.948 291.669 41.42C293.253 38.076 295.233 35.48 297.609 33.632C299.985 31.784 302.405 30.86 304.869 30.86C308.477 30.86 311.557 32.928 314.109 37.064C316.749 41.2 318.729 46.876 320.049 54.092C321.457 61.22 322.161 69.228 322.161 78.116C322.161 81.196 322.117 83.528 322.029 85.112C325.637 79.48 328.805 73.936 331.533 68.48C334.349 63.024 336.153 58.844 336.945 55.94C337.385 53.74 337.605 51.98 337.605 50.66C337.605 48.812 337.385 47.14 336.945 45.644C336.505 44.148 335.889 42.52 335.097 40.76C334.745 39.88 334.393 39.044 334.041 38.252C333.777 37.372 333.645 36.58 333.645 35.876C333.645 34.38 334.173 33.148 335.229 32.18C336.285 31.212 337.649 30.728 339.321 30.728Z"/>
</mask>
<path d="M91.7448 0.5C92.0088 0.5 92.1408 0.763999 92.1408 1.292C92.1408 1.82 92.0088 2.084 91.7448 2.084C89.1048 2.084 87.1248 2.34799 85.8048 2.87599C84.4848 3.31599 83.4728 4.15199 82.7688 5.384C82.1528 6.616 81.5808 8.552 81.0528 11.192L70.2288 72.308C69.9648 73.98 69.8328 75.344 69.8328 76.4C69.8328 78.424 70.4048 79.788 71.5488 80.492C72.6928 81.108 74.8048 81.416 77.8848 81.416C78.1488 81.416 78.2808 81.68 78.2808 82.208C78.2808 82.736 78.1488 83 77.8848 83C75.5968 83 73.7928 82.956 72.4728 82.868L64.2888 82.736L56.1048 82.868C54.6968 82.956 52.7168 83 50.1648 83C49.9888 83 49.9008 82.736 49.9008 82.208C49.9008 81.68 49.9888 81.416 50.1648 81.416C52.9808 81.416 55.0488 81.196 56.3688 80.756C57.6888 80.316 58.6568 79.48 59.2728 78.248C59.9768 77.016 60.5488 75.036 60.9888 72.308L66.4008 41.552H26.4048L20.9928 72.308C20.6408 74.596 20.4648 76.048 20.4648 76.664C20.4648 78.512 21.0368 79.788 22.1808 80.492C23.3248 81.108 25.4368 81.416 28.5168 81.416C28.7808 81.416 28.9128 81.68 28.9128 82.208C28.9128 82.736 28.7808 83 28.5168 83C26.1408 83 24.2488 82.956 22.8408 82.868L14.3928 82.736L6.47277 82.868C5.15277 82.956 3.30477 83 0.928772 83C0.664772 83 0.532772 82.736 0.532772 82.208C0.532772 81.68 0.664772 81.416 0.928772 81.416C3.65677 81.416 5.68077 81.196 7.00077 80.756C8.32077 80.316 9.33277 79.48 10.0368 78.248C10.7408 76.928 11.3128 74.948 11.7528 72.308L22.5768 11.192C22.9288 8.90399 23.1048 7.49599 23.1048 6.968C23.1048 5.03199 22.5328 3.75599 21.3888 3.14C20.2448 2.436 18.1328 2.084 15.0528 2.084C14.8768 2.084 14.7888 1.82 14.7888 1.292C14.7888 0.763999 14.8768 0.5 15.0528 0.5L20.7288 0.631998C23.8968 0.807996 26.4928 0.895995 28.5168 0.895995C30.5408 0.895995 33.3128 0.807996 36.8328 0.631998L42.6408 0.5C42.8168 0.5 42.9048 0.763999 42.9048 1.292C42.9048 1.82 42.8168 2.084 42.6408 2.084C40.0008 2.084 37.9768 2.34799 36.5688 2.87599C35.2488 3.404 34.2368 4.328 33.5328 5.648C32.9168 6.88 32.3448 8.816 31.8168 11.456L27.0648 38.516H66.9288L71.6808 11.456C72.0328 9.168 72.2088 7.672 72.2088 6.968C72.2088 5.03199 71.6368 3.75599 70.4928 3.14C69.3488 2.436 67.2808 2.084 64.2888 2.084C64.0248 2.084 63.8928 1.82 63.8928 1.292C63.8928 0.763999 64.0248 0.5 64.2888 0.5L69.9648 0.631998C73.3088 0.807996 75.9928 0.895995 78.0168 0.895995C79.9528 0.895995 82.6808 0.807996 86.2008 0.631998L91.7448 0.5ZM109.416 15.812C107.48 15.812 105.94 15.284 104.796 14.228C103.74 13.084 103.212 11.544 103.212 9.60799C103.212 7.76 103.74 6.308 104.796 5.25199C105.94 4.196 107.48 3.668 109.416 3.668C111.352 3.668 112.848 4.196 113.904 5.25199C115.048 6.308 115.62 7.76 115.62 9.60799C115.62 11.544 115.092 13.084 114.036 14.228C112.98 15.284 111.44 15.812 109.416 15.812ZM100.968 84.188C97.4483 84.188 95.6883 82.032 95.6883 77.72C95.6883 75.872 95.9523 73.716 96.4803 71.252L101.892 43.796C102.156 42.476 102.288 41.332 102.288 40.364C102.288 37.724 101.452 36.404 99.7803 36.404C98.8123 36.404 97.5803 36.932 96.0843 37.988C94.5883 38.956 92.9603 40.364 91.2003 42.212C91.1123 42.3 90.9803 42.344 90.8043 42.344C90.5403 42.344 90.2763 42.212 90.0123 41.948C89.8363 41.596 89.8803 41.332 90.1443 41.156C95.9523 34.292 101.1 30.86 105.588 30.86C107.348 30.86 108.624 31.388 109.416 32.444C110.296 33.412 110.736 34.952 110.736 37.064C110.736 39.088 110.516 41.112 110.076 43.136L104.664 71.252C104.4 72.572 104.268 73.716 104.268 74.684C104.268 77.236 105.06 78.512 106.644 78.512C108.668 78.512 111.44 76.664 114.96 72.968C115.048 72.88 115.18 72.836 115.356 72.836C115.708 72.836 115.972 73.012 116.148 73.364C116.324 73.628 116.28 73.848 116.016 74.024C113.112 77.456 110.428 80.008 107.964 81.68C105.588 83.352 103.256 84.188 100.968 84.188ZM131.602 84.452C128.258 84.452 125.31 83.704 122.758 82.208C120.294 80.624 119.062 78.776 119.062 76.664C119.062 75.08 119.502 73.848 120.382 72.968C121.35 72.088 122.494 71.648 123.814 71.648C124.782 71.648 125.574 71.956 126.19 72.572C126.806 73.1 127.554 74.068 128.434 75.476C129.402 77.236 130.458 78.6 131.602 79.568C132.746 80.536 134.33 81.02 136.354 81.02C140.578 81.02 142.998 78.644 143.614 73.892C143.702 73.54 143.746 72.968 143.746 72.176C143.746 69.624 142.998 67.424 141.502 65.576C140.094 63.728 137.894 61.572 134.902 59.108C131.998 56.732 129.798 54.62 128.302 52.772C126.806 50.924 126.058 48.724 126.058 46.172C126.058 43.356 126.894 40.76 128.566 38.384C130.326 36.008 132.614 34.16 135.43 32.84C138.334 31.432 141.37 30.728 144.538 30.728C147.97 30.728 150.786 31.388 152.986 32.708C155.186 34.028 156.154 35.7 155.89 37.724C155.626 39.044 155.054 40.1 154.174 40.892C153.294 41.596 152.326 41.948 151.27 41.948C149.95 41.948 148.938 41.64 148.234 41.024C147.53 40.408 146.782 39.484 145.99 38.252C145.11 36.844 144.186 35.788 143.218 35.084C142.338 34.292 141.062 33.896 139.39 33.896C137.718 33.896 136.31 34.336 135.166 35.216C134.11 36.096 133.494 37.284 133.318 38.78C133.23 39.132 133.186 39.704 133.186 40.496C133.186 42.872 133.89 44.984 135.298 46.832C136.794 48.68 138.95 50.792 141.766 53.168C144.846 55.808 147.134 58.14 148.63 60.164C150.214 62.1 151.006 64.388 151.006 67.028C151.006 69.668 150.126 72.352 148.366 75.08C146.694 77.808 144.362 80.052 141.37 81.812C138.466 83.572 135.21 84.452 131.602 84.452ZM195.973 32.312C196.325 32.312 196.589 32.444 196.765 32.708C196.941 32.972 196.985 33.28 196.897 33.632C196.633 34.512 196.061 35.48 195.181 36.536C194.301 37.592 193.421 38.12 192.541 38.12C192.101 38.12 190.429 37.9 187.525 37.46C184.709 37.02 181.805 36.756 178.813 36.668L173.005 69.008C172.741 70.328 172.609 71.516 172.609 72.572C172.609 74.772 173.137 76.4 174.193 77.456C175.249 78.424 176.921 78.908 179.209 78.908C181.321 78.908 183.301 78.468 185.149 77.588C187.085 76.62 189.197 75.212 191.485 73.364H191.617C191.881 73.364 192.145 73.496 192.409 73.76C192.673 74.024 192.717 74.244 192.541 74.42C188.581 78.028 185.061 80.624 181.981 82.208C178.989 83.792 176.085 84.584 173.269 84.584C170.453 84.584 168.165 83.924 166.405 82.604C164.645 81.196 163.765 78.864 163.765 75.608C163.765 75.08 163.853 74.024 164.029 72.44L169.573 42.608C169.925 41.112 170.101 39.748 170.101 38.516C170.101 37.284 169.749 36.492 169.045 36.14C168.341 35.7 167.021 35.48 165.085 35.48C164.821 35.48 164.689 35.26 164.689 34.82C164.689 34.556 164.733 34.292 164.821 34.028C164.997 33.764 165.129 33.632 165.217 33.632C168.473 33.632 171.289 32.664 173.665 30.728C176.129 28.704 177.889 26.152 178.945 23.072C178.945 22.808 179.253 22.676 179.869 22.676C180.221 22.676 180.529 22.764 180.793 22.94C181.145 23.028 181.277 23.116 181.189 23.204L179.341 33.368C181.453 33.28 183.477 33.192 185.413 33.104C187.349 32.928 189.109 32.796 190.693 32.708C193.245 32.444 195.005 32.312 195.973 32.312ZM215.361 84.848C209.905 84.848 205.681 83 202.689 79.304C199.785 75.52 198.333 70.636 198.333 64.652C198.333 62.716 198.553 60.34 198.993 57.524C199.961 52.332 201.809 47.668 204.537 43.532C207.353 39.396 210.741 36.184 214.701 33.896C218.661 31.52 222.841 30.332 227.241 30.332C232.873 30.332 237.185 32.18 240.177 35.876C243.257 39.484 244.797 44.28 244.797 50.264C244.797 52.552 244.533 54.972 244.005 57.524C242.861 63.068 240.793 67.908 237.801 72.044C234.897 76.18 231.465 79.348 227.505 81.548C223.545 83.748 219.497 84.848 215.361 84.848ZM219.981 81.548C223.413 81.548 226.449 79.92 229.089 76.664C231.817 73.408 233.709 68.964 234.765 63.332C235.293 60.516 235.557 57.744 235.557 55.016C235.557 49.032 234.457 43.972 232.257 39.836C230.145 35.612 227.109 33.5 223.149 33.5C219.805 33.5 216.769 35.128 214.041 38.384C211.313 41.64 209.421 46.128 208.365 51.848C207.749 55.192 207.441 58.14 207.441 60.692C207.441 66.588 208.541 71.56 210.741 75.608C213.029 79.568 216.109 81.548 219.981 81.548ZM285.105 30.86C286.953 30.86 288.713 31.52 290.385 32.84C292.057 34.16 292.893 35.7 292.893 37.46C292.893 38.78 292.409 39.968 291.441 41.024C290.561 41.992 289.417 42.476 288.009 42.476C287.041 42.476 286.249 42.3 285.633 41.948C285.017 41.508 284.357 40.892 283.653 40.1C283.213 39.66 282.729 39.264 282.201 38.912C281.761 38.472 281.233 38.252 280.617 38.252C278.857 38.252 276.701 40.76 274.149 45.776C271.685 50.704 269.309 56.644 267.021 63.596C264.821 70.46 263.193 76.532 262.137 81.812C261.961 82.516 261.433 83.044 260.553 83.396C259.673 83.836 258.485 84.056 256.989 84.056C254.701 84.056 253.557 83.748 253.557 83.132C253.645 82.604 253.909 81.24 254.349 79.04C254.877 76.84 255.273 74.904 255.537 73.232L260.289 47.228C260.641 45.204 260.817 43.356 260.817 41.684C260.817 38.164 259.849 36.404 257.913 36.404C256.065 36.404 253.469 38.076 250.125 41.42C250.037 41.508 249.905 41.552 249.729 41.552C249.465 41.552 249.245 41.42 249.069 41.156C248.893 40.804 248.893 40.54 249.069 40.364C251.885 37.108 254.481 34.732 256.857 33.236C259.233 31.652 261.565 30.86 263.853 30.86C265.701 30.86 267.065 31.432 267.945 32.576C268.825 33.72 269.265 35.656 269.265 38.384C269.265 40.496 269.001 43.224 268.473 46.568L265.701 62.012C268.517 52.948 271.597 45.512 274.941 39.704C278.373 33.808 281.761 30.86 285.105 30.86ZM339.321 30.728C341.169 30.728 342.577 31.432 343.545 32.84C344.513 34.248 344.997 36.184 344.997 38.648C344.997 45.6 341.521 55.72 334.569 69.008C327.705 82.296 319.785 94.132 310.809 104.516C301.833 114.9 294.397 120.092 288.501 120.092C286.653 120.092 285.157 119.652 284.013 118.772C282.869 117.98 282.297 116.704 282.297 114.944L282.429 113.756C283.133 110.852 285.157 109.4 288.501 109.4C289.381 109.4 290.789 109.488 292.725 109.664C294.485 109.84 295.805 109.928 296.685 109.928C299.589 109.928 302.009 109.18 303.945 107.684C306.497 106.012 309.841 102.36 313.977 96.728L314.109 89.864C314.109 73.144 312.789 60.208 310.149 51.056C307.597 41.816 304.077 37.196 299.589 37.196C298.445 37.196 297.301 37.592 296.157 38.384C295.013 39.176 294.045 40.32 293.253 41.816C293.165 42.08 292.901 42.212 292.461 42.212C291.845 42.212 291.581 41.948 291.669 41.42C293.253 38.076 295.233 35.48 297.609 33.632C299.985 31.784 302.405 30.86 304.869 30.86C308.477 30.86 311.557 32.928 314.109 37.064C316.749 41.2 318.729 46.876 320.049 54.092C321.457 61.22 322.161 69.228 322.161 78.116C322.161 81.196 322.117 83.528 322.029 85.112C325.637 79.48 328.805 73.936 331.533 68.48C334.349 63.024 336.153 58.844 336.945 55.94C337.385 53.74 337.605 51.98 337.605 50.66C337.605 48.812 337.385 47.14 336.945 45.644C336.505 44.148 335.889 42.52 335.097 40.76C334.745 39.88 334.393 39.044 334.041 38.252C333.777 37.372 333.645 36.58 333.645 35.876C333.645 34.38 334.173 33.148 335.229 32.18C336.285 31.212 337.649 30.728 339.321 30.728Z" fill="#6B99CF"/>
<path d="M91.7448 0.5V-0.760736H91.7298L91.7148 -0.76038L91.7448 0.5ZM85.8048 2.87599L86.2035 4.07203L86.2386 4.06032L86.273 4.04656L85.8048 2.87599ZM82.7688 5.384L81.6741 4.7585L81.6568 4.78888L81.6411 4.82018L82.7688 5.384ZM81.0528 11.192L79.8165 10.9447L79.8138 10.9584L79.8114 10.9721L81.0528 11.192ZM70.2288 72.308L68.9874 72.0881L68.9853 72.0997L68.9835 72.1114L70.2288 72.308ZM71.5488 80.492L70.888 81.5657L70.919 81.5848L70.9511 81.602L71.5488 80.492ZM72.4728 82.868L72.5566 81.6101L72.5249 81.6079L72.4931 81.6074L72.4728 82.868ZM64.2888 82.736L64.3091 81.4754L64.2888 81.4751L64.2684 81.4754L64.2888 82.736ZM56.1048 82.868L56.0844 81.6074L56.0553 81.6079L56.0261 81.6097L56.1048 82.868ZM56.3688 80.756L55.9701 79.56L56.3688 80.756ZM59.2728 78.248L58.1782 77.6225L58.1608 77.6529L58.1451 77.6842L59.2728 78.248ZM60.9888 72.308L59.7471 72.0895L59.7456 72.0984L59.7441 72.1072L60.9888 72.308ZM66.4008 41.552L67.6424 41.7705L67.9027 40.2913H66.4008V41.552ZM26.4048 41.552V40.2913H25.3465L25.1631 41.3335L26.4048 41.552ZM20.9928 72.308L19.7511 72.0895L19.7488 72.1029L19.7467 72.1163L20.9928 72.308ZM22.1808 80.492L21.52 81.5657L21.551 81.5848L21.5831 81.602L22.1808 80.492ZM22.8408 82.868L22.9194 81.6097L22.89 81.6079L22.8605 81.6074L22.8408 82.868ZM14.3928 82.736L14.4125 81.4754L14.3921 81.4751L14.3718 81.4754L14.3928 82.736ZM6.47277 82.868L6.45176 81.6074L6.4203 81.608L6.38891 81.6101L6.47277 82.868ZM7.00077 80.756L6.60209 79.56L7.00077 80.756ZM10.0368 78.248L11.1314 78.8735L11.1405 78.8575L11.1492 78.8413L10.0368 78.248ZM11.7528 72.308L10.5113 72.0881L10.5092 72.1007L11.7528 72.308ZM22.5768 11.192L23.8182 11.4119L23.8207 11.3978L23.8229 11.3837L22.5768 11.192ZM21.3888 3.14L20.728 4.21371L20.759 4.23279L20.7911 4.25004L21.3888 3.14ZM15.0528 0.5L15.0821 -0.760395L15.0674 -0.760736H15.0528V0.5ZM20.7288 0.631998L20.7987 -0.626797L20.7784 -0.627924L20.7581 -0.628397L20.7288 0.631998ZM36.8328 0.631998L36.8041 -0.628412L36.787 -0.628023L36.7698 -0.627165L36.8328 0.631998ZM42.6408 0.5V-0.760736H42.6264L42.6121 -0.76041L42.6408 0.5ZM36.5688 2.87599L36.1261 1.69553L36.1133 1.70034L36.1005 1.70543L36.5688 2.87599ZM33.5328 5.648L32.4204 5.05471L32.4126 5.06934L32.4051 5.08418L33.5328 5.648ZM31.8168 11.456L30.5805 11.2087L30.5776 11.2233L30.575 11.2379L31.8168 11.456ZM27.0648 38.516L25.823 38.2979L25.5633 39.7767H27.0648V38.516ZM66.9288 38.516V39.7767H67.9874L68.1705 38.7341L66.9288 38.516ZM71.6808 11.456L72.9225 11.6741L72.9248 11.6609L72.9269 11.6477L71.6808 11.456ZM70.4928 3.14L69.832 4.21371L69.863 4.23279L69.8951 4.25004L70.4928 3.14ZM64.2888 0.5L64.3181 -0.760395L64.3034 -0.760736H64.2888V0.5ZM69.9648 0.631998L70.031 -0.626995L70.0126 -0.627968L69.9941 -0.628397L69.9648 0.631998ZM86.2008 0.631998L86.1708 -0.62838L86.1543 -0.627989L86.1378 -0.627165L86.2008 0.631998ZM91.7448 1.76074C91.5902 1.76074 91.3986 1.71846 91.2187 1.59849C91.0466 1.48379 90.9559 1.34537 90.9141 1.26181C90.8748 1.18319 90.8697 1.13633 90.8724 1.15276C90.8746 1.16579 90.88 1.20914 90.88 1.292H93.4015C93.4015 0.963608 93.3671 0.529629 93.1694 0.134186C93.0616 -0.0813751 92.8884 -0.318789 92.6174 -0.499493C92.3384 -0.685459 92.0314 -0.760736 91.7448 -0.760736V1.76074ZM90.88 1.292C90.88 1.37485 90.8746 1.4182 90.8724 1.43123C90.8697 1.44767 90.8748 1.40081 90.9141 1.32218C90.9559 1.23862 91.0466 1.10021 91.2187 0.985502C91.3986 0.865536 91.5902 0.823259 91.7448 0.823259V3.34473C92.0314 3.34473 92.3384 3.26945 92.6174 3.08349C92.8884 2.90278 93.0616 2.66537 93.1694 2.44981C93.3671 2.05437 93.4015 1.62039 93.4015 1.292H90.88ZM91.7448 0.823259C89.0579 0.823259 86.8834 1.08669 85.3365 1.70543L86.273 4.04656C87.3662 3.6093 89.1516 3.34473 91.7448 3.34473V0.823259ZM85.4061 1.67995C83.7855 2.22017 82.5287 3.26306 81.6741 4.7585L83.8634 6.0095C84.4169 5.04093 85.1841 4.41182 86.2035 4.07203L85.4061 1.67995ZM81.6411 4.82018C80.9475 6.20739 80.3498 8.27836 79.8165 10.9447L82.289 11.4392C82.8118 8.82563 83.358 7.02461 83.8964 5.94782L81.6411 4.82018ZM79.8114 10.9721L68.9874 72.0881L71.4702 72.5279L82.2942 11.4119L79.8114 10.9721ZM68.9835 72.1114C68.7145 73.8146 68.572 75.2511 68.572 76.4H71.0935C71.0935 75.4369 71.215 74.1454 71.4741 72.5046L68.9835 72.1114ZM68.572 76.4C68.572 78.6239 69.2056 80.5304 70.888 81.5657L72.2095 79.4183C71.6039 79.0456 71.0935 78.2241 71.0935 76.4H68.572ZM70.9511 81.602C71.7091 82.0102 72.6885 82.2691 73.8088 82.4325C74.945 82.5982 76.3081 82.6767 77.8848 82.6767V80.1553C76.3815 80.1553 75.1485 80.0798 74.1727 79.9375C73.1811 79.7928 72.5324 79.5898 72.1465 79.382L70.9511 81.602ZM77.8848 82.6767C77.7302 82.6767 77.5387 82.6345 77.3587 82.5145C77.1866 82.3998 77.0959 82.2614 77.0541 82.1778C77.0148 82.0992 77.0097 82.0523 77.0124 82.0688C77.0146 82.0818 77.02 82.1251 77.02 82.208H79.5415C79.5415 81.8796 79.5071 81.4456 79.3094 81.0502C79.2016 80.8346 79.0284 80.5972 78.7574 80.4165C78.4784 80.2305 78.1714 80.1553 77.8848 80.1553V82.6767ZM77.02 82.208C77.02 82.2909 77.0146 82.3342 77.0124 82.3472C77.0097 82.3637 77.0148 82.3168 77.0541 82.2382C77.0959 82.1546 77.1866 82.0162 77.3587 81.9015C77.5387 81.7815 77.7302 81.7393 77.8848 81.7393V84.2607C78.1714 84.2607 78.4784 84.1855 78.7574 83.9995C79.0284 83.8188 79.2016 83.5814 79.3094 83.3658C79.5071 82.9704 79.5415 82.5364 79.5415 82.208H77.02ZM77.8848 81.7393C75.6078 81.7393 73.8358 81.6953 72.5566 81.6101L72.3889 84.1259C73.7498 84.2167 75.5858 84.2607 77.8848 84.2607V81.7393ZM72.4931 81.6074L64.3091 81.4754L64.2684 83.9966L72.4524 84.1286L72.4931 81.6074ZM64.2684 81.4754L56.0844 81.6074L56.1251 84.1286L64.3091 83.9966L64.2684 81.4754ZM56.0261 81.6097C54.6572 81.6953 52.7078 81.7393 50.1648 81.7393V84.2607C52.7257 84.2607 54.7363 84.2167 56.1834 84.1263L56.0261 81.6097ZM50.1648 81.7393C50.477 81.7393 50.7532 81.8715 50.9408 82.059C51.0973 82.2156 51.1508 82.3673 51.1628 82.4033C51.1845 82.4684 51.1615 82.4352 51.1615 82.208H48.64C48.64 82.5088 48.661 82.8716 48.7707 83.2007C48.8696 83.4974 49.2393 84.2607 50.1648 84.2607V81.7393ZM51.1615 82.208C51.1615 81.9808 51.1845 81.9476 51.1628 82.0127C51.1508 82.0487 51.0973 82.2004 50.9408 82.357C50.7532 82.5445 50.477 82.6767 50.1648 82.6767V80.1553C49.2393 80.1553 48.8696 80.9186 48.7707 81.2153C48.661 81.5444 48.64 81.9072 48.64 82.208H51.1615ZM50.1648 82.6767C53.007 82.6767 55.2453 82.4594 56.7675 81.952L55.9701 79.56C54.8523 79.9326 52.9545 80.1553 50.1648 80.1553V82.6767ZM56.7675 81.952C58.401 81.4075 59.6332 80.3463 60.4004 78.8118L58.1451 77.6842C57.6804 78.6137 56.9765 79.2245 55.9701 79.56L56.7675 81.952ZM60.3674 78.8735C61.188 77.4375 61.7877 75.2721 62.2334 72.5088L59.7441 72.1072C59.3098 74.7999 58.7656 76.5945 58.1782 77.6225L60.3674 78.8735ZM62.2304 72.5265L67.6424 41.7705L65.1591 41.3335L59.7471 72.0895L62.2304 72.5265ZM66.4008 40.2913H26.4048V42.8127H66.4008V40.2913ZM25.1631 41.3335L19.7511 72.0895L22.2344 72.5265L27.6464 41.7705L25.1631 41.3335ZM19.7467 72.1163C19.3996 74.3726 19.204 75.9308 19.204 76.664H21.7255C21.7255 76.1652 21.882 74.8194 22.2388 72.4997L19.7467 72.1163ZM19.204 76.664C19.204 78.7669 19.8702 80.5504 21.52 81.5657L22.8415 79.4183C22.2034 79.0256 21.7255 78.2571 21.7255 76.664H19.204ZM21.5831 81.602C22.3411 82.0102 23.3205 82.2691 24.4408 82.4325C25.577 82.5982 26.9401 82.6767 28.5168 82.6767V80.1553C27.0135 80.1553 25.7805 80.0798 24.8047 79.9375C23.8131 79.7928 23.1644 79.5898 22.7785 79.382L21.5831 81.602ZM28.5168 82.6767C28.3622 82.6767 28.1706 82.6345 27.9907 82.5145C27.8186 82.3998 27.7279 82.2614 27.6861 82.1778C27.6468 82.0992 27.6417 82.0523 27.6444 82.0688C27.6466 82.0818 27.652 82.1251 27.652 82.208H30.1735C30.1735 81.8796 30.1391 81.4456 29.9414 81.0502C29.8336 80.8346 29.6604 80.5972 29.3894 80.4165C29.1104 80.2305 28.8034 80.1553 28.5168 80.1553V82.6767ZM27.652 82.208C27.652 82.2909 27.6466 82.3342 27.6444 82.3472C27.6417 82.3637 27.6468 82.3168 27.6861 82.2382C27.7279 82.1546 27.8186 82.0162 27.9907 81.9015C28.1706 81.7815 28.3622 81.7393 28.5168 81.7393V84.2607C28.8034 84.2607 29.1104 84.1855 29.3894 83.9995C29.6604 83.8188 29.8336 83.5814 29.9414 83.3658C30.1391 82.9704 30.1735 82.5364 30.1735 82.208H27.652ZM28.5168 81.7393C26.1519 81.7393 24.2896 81.6954 22.9194 81.6097L22.7621 84.1263C24.208 84.2166 26.1296 84.2607 28.5168 84.2607V81.7393ZM22.8605 81.6074L14.4125 81.4754L14.3731 83.9966L22.8211 84.1286L22.8605 81.6074ZM14.3718 81.4754L6.45176 81.6074L6.49378 84.1286L14.4138 83.9966L14.3718 81.4754ZM6.38891 81.6101C5.11047 81.6953 3.29501 81.7393 0.928772 81.7393V84.2607C3.31454 84.2607 5.19508 84.2167 6.55664 84.1259L6.38891 81.6101ZM0.928772 81.7393C1.08338 81.7393 1.27491 81.7815 1.45485 81.9015C1.62691 82.0162 1.71763 82.1546 1.75941 82.2382C1.79872 82.3168 1.80384 82.3637 1.80111 82.3472C1.79893 82.3342 1.79351 82.2909 1.79351 82.208H-0.727964C-0.727964 82.5364 -0.693587 82.9704 -0.495864 83.3658C-0.388084 83.5814 -0.214864 83.8188 0.0561917 83.9995C0.33514 84.1855 0.642163 84.2607 0.928772 84.2607V81.7393ZM1.79351 82.208C1.79351 82.1251 1.79893 82.0818 1.80111 82.0688C1.80384 82.0523 1.79872 82.0992 1.75941 82.1778C1.71763 82.2614 1.62691 82.3998 1.45485 82.5145C1.27491 82.6345 1.08338 82.6767 0.928772 82.6767V80.1553C0.642163 80.1553 0.33514 80.2305 0.0561917 80.4165C-0.214864 80.5972 -0.388084 80.8346 -0.495864 81.0502C-0.693587 81.4456 -0.727964 81.8796 -0.727964 82.208H1.79351ZM0.928772 82.6767C3.68822 82.6767 5.87972 82.4586 7.39945 81.952L6.60209 79.56C5.48182 79.9334 3.62533 80.1553 0.928772 80.1553V82.6767ZM7.39945 81.952C9.02009 81.4118 10.2769 80.3689 11.1314 78.8735L8.94215 77.6225C8.38868 78.5911 7.62146 79.2202 6.60209 79.56L7.39945 81.952ZM11.1492 78.8413C11.9494 77.3408 12.5487 75.2014 12.9964 72.5153L10.5092 72.1007C10.0769 74.6946 9.53211 76.5152 8.92436 77.6547L11.1492 78.8413ZM12.9942 72.5279L23.8182 11.4119L21.3354 10.9721L10.5114 72.0881L12.9942 72.5279ZM23.8229 11.3837C24.1684 9.13739 24.3655 7.61569 24.3655 6.96799H21.844C21.844 7.37629 21.6891 8.6706 21.3307 11.0003L23.8229 11.3837ZM24.3655 6.96799C24.3655 4.81919 23.7204 2.96358 21.9865 2.02995L20.7911 4.25004C21.3452 4.5484 21.844 5.2448 21.844 6.96799H24.3655ZM22.0495 2.06628C21.2809 1.5933 20.2865 1.29315 19.154 1.10441C18.007 0.91324 16.6349 0.823259 15.0528 0.823259V3.34473C16.5507 3.34473 17.7745 3.43075 18.7395 3.59158C19.7191 3.75484 20.3526 3.98269 20.728 4.21371L22.0495 2.06628ZM15.0528 0.823259C15.365 0.823259 15.6412 0.955503 15.8287 1.14302C15.9853 1.29957 16.0388 1.45126 16.0508 1.48732C16.0725 1.55242 16.0495 1.5192 16.0495 1.292H13.528C13.528 1.59279 13.549 1.95558 13.6587 2.28468C13.7576 2.58139 14.1273 3.34473 15.0528 3.34473V0.823259ZM16.0495 1.292C16.0495 1.06479 16.0725 1.03158 16.0508 1.09668C16.0388 1.13274 15.9853 1.28442 15.8287 1.44098C15.6412 1.62849 15.365 1.76074 15.0528 1.76074V-0.760736C14.1273 -0.760736 13.7576 0.00260544 13.6587 0.299318C13.549 0.628418 13.528 0.991205 13.528 1.292H16.0495ZM15.0235 1.7604L20.6995 1.89239L20.7581 -0.628397L15.0821 -0.760395L15.0235 1.7604ZM20.6588 1.89079C23.8387 2.06745 26.4603 2.15673 28.5168 2.15673V-0.364742C26.5253 -0.364742 23.9549 -0.451458 20.7987 -0.626797L20.6588 1.89079ZM28.5168 2.15673C30.5716 2.15673 33.3676 2.06756 36.8957 1.89116L36.7698 -0.627165C33.2579 -0.451572 30.51 -0.364742 28.5168 -0.364742V2.15673ZM36.8614 1.89241L42.6694 1.76041L42.6121 -0.76041L36.8041 -0.628412L36.8614 1.89241ZM42.6408 1.76074C42.3285 1.76074 42.0523 1.62849 41.8648 1.44098C41.7082 1.28443 41.6548 1.13274 41.6427 1.09668C41.621 1.03158 41.644 1.06479 41.644 1.292H44.1655C44.1655 0.991205 44.1445 0.628418 44.0348 0.299318C43.9359 0.00260162 43.5662 -0.760736 42.6408 -0.760736V1.76074ZM41.644 1.292C41.644 1.5192 41.621 1.55241 41.6427 1.48731C41.6548 1.45126 41.7082 1.29957 41.8648 1.14302C42.0523 0.955502 42.3285 0.823259 42.6408 0.823259V3.34473C43.5662 3.34473 43.9359 2.58139 44.0348 2.28468C44.1445 1.95558 44.1655 1.59279 44.1655 1.292H41.644ZM42.6408 0.823259C39.9461 0.823259 37.7442 1.08874 36.1261 1.69553L37.0114 4.05646C38.2093 3.60725 40.0555 3.34473 42.6408 3.34473V0.823259ZM36.1005 1.70543C34.4892 2.34997 33.2564 3.48721 32.4204 5.05471L34.6452 6.24129C35.2172 5.16878 36.0084 4.45802 37.037 4.04656L36.1005 1.70543ZM32.4051 5.08418C31.7115 6.47139 31.1138 8.54236 30.5805 11.2087L33.053 11.7032C33.5757 9.08963 34.122 7.2886 34.6604 6.21181L32.4051 5.08418ZM30.575 11.2379L25.823 38.2979L28.3065 38.7341L33.0585 11.6741L30.575 11.2379ZM27.0648 39.7767H66.9288V37.2553H27.0648V39.7767ZM68.1705 38.7341L72.9225 11.6741L70.439 11.2379L65.687 38.2979L68.1705 38.7341ZM72.9269 11.6477C73.2754 9.38232 73.4695 7.78658 73.4695 6.96799H70.948C70.948 7.55741 70.7902 8.95367 70.4347 11.2643L72.9269 11.6477ZM73.4695 6.96799C73.4695 4.81919 72.8244 2.96358 71.0905 2.02995L69.8951 4.25004C70.4492 4.54841 70.948 5.2448 70.948 6.96799H73.4695ZM71.1535 2.06628C69.6818 1.16059 67.2917 0.823259 64.2888 0.823259V3.34473C67.2699 3.34473 69.0158 3.7114 69.832 4.21371L71.1535 2.06628ZM64.2888 0.823259C64.4434 0.823259 64.6349 0.865534 64.8149 0.9855C64.9869 1.1002 65.0776 1.23862 65.1194 1.32218C65.1587 1.4008 65.1638 1.44766 65.1611 1.43123C65.1589 1.4182 65.1535 1.37485 65.1535 1.292H62.632C62.632 1.62039 62.6664 2.05437 62.8641 2.44981C62.9719 2.66537 63.1451 2.90279 63.4162 3.08349C63.6951 3.26946 64.0022 3.34473 64.2888 3.34473V0.823259ZM65.1535 1.292C65.1535 1.20914 65.1589 1.16579 65.1611 1.15276C65.1638 1.13633 65.1587 1.18319 65.1194 1.26182C65.0776 1.34538 64.9869 1.48379 64.8149 1.5985C64.6349 1.71846 64.4434 1.76074 64.2888 1.76074V-0.760736C64.0022 -0.760736 63.6951 -0.685461 63.4162 -0.499496C63.1451 -0.318792 62.9719 -0.0813808 62.8641 0.134182C62.6664 0.529627 62.632 0.963608 62.632 1.292H65.1535ZM64.2595 1.7604L69.9355 1.89239L69.9941 -0.628397L64.3181 -0.760395L64.2595 1.7604ZM69.8985 1.89099C73.2523 2.06751 75.9611 2.15673 78.0168 2.15673V-0.364742C76.0244 -0.364742 73.3652 -0.451515 70.031 -0.626995L69.8985 1.89099ZM78.0168 2.15673C79.9842 2.15673 82.7367 2.06751 86.2637 1.89116L86.1378 -0.627165C82.6248 -0.451517 79.9213 -0.364742 78.0168 -0.364742V2.15673ZM86.2308 1.89238L91.7748 1.76038L91.7148 -0.76038L86.1708 -0.62838L86.2308 1.89238ZM104.796 14.228L103.87 15.0831L103.904 15.1202L103.941 15.1544L104.796 14.228ZM104.796 5.25199L103.941 4.3256L103.923 4.3427L103.905 4.36052L104.796 5.25199ZM113.904 5.25199L113.013 6.14347L113.031 6.16129L113.049 6.17839L113.904 5.25199ZM114.036 14.228L114.928 15.1195L114.946 15.1017L114.963 15.0831L114.036 14.228ZM96.4803 71.252L97.713 71.5162L97.7152 71.506L97.7172 71.4958L96.4803 71.252ZM101.892 43.796L100.656 43.5487L100.655 43.5522L101.892 43.796ZM96.0843 37.988L96.7692 39.0465L96.7905 39.0327L96.8113 39.018L96.0843 37.988ZM91.2003 42.212L92.0917 43.1035L92.1026 43.0926L92.1132 43.0815L91.2003 42.212ZM90.0123 41.948L88.8846 42.5118L88.9761 42.6948L89.1208 42.8395L90.0123 41.948ZM90.1443 41.156L90.8436 42.205L90.9917 42.1063L91.1067 41.9704L90.1443 41.156ZM109.416 32.444L108.408 33.2004L108.443 33.248L108.483 33.2921L109.416 32.444ZM110.076 43.136L108.844 42.8682L108.841 42.8829L108.838 42.8977L110.076 43.136ZM104.664 71.252L105.901 71.4993L105.902 71.4903L104.664 71.252ZM114.96 72.968L114.069 72.0765L114.058 72.0874L114.047 72.0985L114.96 72.968ZM116.148 73.364L115.021 73.9278L115.056 73.998L115.099 74.0633L116.148 73.364ZM116.016 74.024L115.317 72.975L115.169 73.0737L115.054 73.2096L116.016 74.024ZM107.964 81.68L107.256 80.6368L107.247 80.6428L107.239 80.649L107.964 81.68ZM109.416 14.5513C107.717 14.5513 106.509 14.0935 105.651 13.3016L103.941 15.1544C105.371 16.4745 107.244 17.0727 109.416 17.0727V14.5513ZM105.723 13.3729C104.931 12.5149 104.473 11.3077 104.473 9.60799H101.952C101.952 11.7803 102.55 13.6531 103.87 15.0831L105.723 13.3729ZM104.473 9.60799C104.473 8.01023 104.922 6.90954 105.688 6.14347L103.905 4.36052C102.559 5.70646 101.952 7.50977 101.952 9.60799H104.473ZM105.651 6.17839C106.509 5.38645 107.717 4.92873 109.416 4.92873V2.40726C107.244 2.40726 105.371 3.00554 103.941 4.3256L105.651 6.17839ZM109.416 4.92873C111.121 4.92873 112.257 5.38816 113.013 6.14347L114.796 4.36052C113.439 3.00384 111.583 2.40726 109.416 2.40726V4.92873ZM113.049 6.17839C113.886 6.95115 114.36 8.04028 114.36 9.60799H116.881C116.881 7.47971 116.21 5.66484 114.759 4.3256L113.049 6.17839ZM114.36 9.60799C114.36 11.3077 113.902 12.5149 113.11 13.3729L114.963 15.0831C116.283 13.6531 116.881 11.7803 116.881 9.60799H114.36ZM113.145 13.3365C112.399 14.0819 111.228 14.5513 109.416 14.5513V17.0727C111.653 17.0727 113.561 16.4861 114.928 15.1195L113.145 13.3365ZM100.968 82.9273C99.4778 82.9273 98.5641 82.4833 97.9849 81.7737C97.3658 81.0153 96.949 79.7368 96.949 77.72H94.4275C94.4275 80.0152 94.8908 81.9707 96.0316 83.3683C97.2124 84.8147 98.9387 85.4487 100.968 85.4487V82.9273ZM96.949 77.72C96.949 75.9862 97.1974 73.9223 97.713 71.5162L95.2475 70.9878C94.7071 73.5097 94.4275 75.7578 94.4275 77.72H96.949ZM97.7172 71.4958L103.129 44.0398L100.655 43.5522L95.2433 71.0082L97.7172 71.4958ZM103.129 44.0433C103.403 42.6708 103.549 41.4401 103.549 40.364H101.028C101.028 41.2239 100.91 42.2812 100.656 43.5487L103.129 44.0433ZM103.549 40.364C103.549 38.9516 103.333 37.6768 102.726 36.7194C102.058 35.6648 101.012 35.1433 99.7803 35.1433V37.6647C100.221 37.6647 100.428 37.8032 100.596 38.0686C100.826 38.4312 101.028 39.1364 101.028 40.364H103.549ZM99.7803 35.1433C98.4065 35.1433 96.904 35.8662 95.3572 36.958L96.8113 39.018C98.2565 37.9978 99.218 37.6647 99.7803 37.6647V35.1433ZM95.3994 36.9295C93.793 37.969 92.0889 39.4508 90.2873 41.3425L92.1132 43.0815C93.8316 41.2772 95.3836 39.943 96.7692 39.0465L95.3994 36.9295ZM90.3088 41.3205C90.5406 41.0887 90.7859 41.0833 90.8043 41.0833V43.6047C91.1746 43.6047 91.6839 43.5113 92.0917 43.1035L90.3088 41.3205ZM90.8043 41.0833C90.8445 41.0833 90.8811 41.0884 90.912 41.0962C90.9425 41.1038 90.9627 41.1127 90.9721 41.1174C90.9885 41.1256 90.9641 41.1169 90.9037 41.0565L89.1208 42.8395C89.5222 43.2409 90.088 43.6047 90.8043 43.6047V41.0833ZM91.1399 41.3842C91.1176 41.3395 91.1949 41.4649 91.1569 41.6933C91.1368 41.8134 91.0893 41.929 91.0204 42.0275C90.9542 42.122 90.8849 42.1775 90.8436 42.205L89.4449 40.107C89.0814 40.3494 88.7596 40.7394 88.6697 41.2787C88.5876 41.7711 88.731 42.2045 88.8846 42.5118L91.1399 41.3842ZM91.1067 41.9704C96.8889 35.1369 101.708 32.1207 105.588 32.1207V29.5993C100.493 29.5993 95.0157 33.4471 89.1818 40.3416L91.1067 41.9704ZM105.588 32.1207C107.095 32.1207 107.928 32.5614 108.408 33.2004L110.425 31.6876C109.32 30.2146 107.602 29.5993 105.588 29.5993V32.1207ZM108.483 33.2921C109.056 33.9215 109.476 35.0834 109.476 37.064H111.997C111.997 34.8206 111.537 32.9025 110.349 31.5959L108.483 33.2921ZM109.476 37.064C109.476 38.9959 109.266 40.9301 108.844 42.8682L111.308 43.4038C111.767 41.2939 111.997 39.1801 111.997 37.064H109.476ZM108.838 42.8977L103.426 71.0137L105.902 71.4903L111.314 43.3743L108.838 42.8977ZM103.428 71.0047C103.154 72.3772 103.008 73.6079 103.008 74.684H105.529C105.529 73.8241 105.647 72.7668 105.901 71.4993L103.428 71.0047ZM103.008 74.684C103.008 76.0495 103.212 77.287 103.791 78.2199C104.432 79.2523 105.445 79.7727 106.644 79.7727V77.2513C106.259 77.2513 106.085 77.1337 105.933 76.8901C105.72 76.547 105.529 75.8705 105.529 74.684H103.008ZM106.644 79.7727C108.019 79.7727 109.468 79.1565 110.941 78.175C112.434 77.1796 114.079 75.7214 115.873 73.8375L114.047 72.0985C112.322 73.9106 110.821 75.2244 109.542 76.077C108.242 76.9435 107.294 77.2513 106.644 77.2513V79.7727ZM115.852 73.8595C115.62 74.0913 115.375 74.0967 115.356 74.0967V71.5753C114.986 71.5753 114.477 71.6687 114.069 72.0765L115.852 73.8595ZM115.356 74.0967C115.312 74.0967 115.216 74.082 115.119 74.017C115.029 73.9573 115.007 73.9014 115.021 73.9278L117.276 72.8002C117.113 72.4746 116.871 72.1547 116.518 71.919C116.156 71.678 115.753 71.5753 115.356 71.5753V74.0967ZM115.099 74.0633C115.079 74.0336 114.944 73.8133 115.011 73.4798C115.078 73.1462 115.287 72.9948 115.317 72.975L116.716 75.073C117.009 74.8772 117.373 74.5278 117.484 73.9743C117.594 73.4207 117.393 72.9584 117.197 72.6647L115.099 74.0633ZM115.054 73.2096C112.19 76.5938 109.59 79.0529 107.256 80.6368L108.672 82.7232C111.266 80.9631 114.034 78.3182 116.979 74.8384L115.054 73.2096ZM107.239 80.649C105.018 82.2119 102.934 82.9273 100.968 82.9273V85.4487C103.578 85.4487 106.159 84.4921 108.69 82.711L107.239 80.649ZM122.758 82.208L122.076 83.2685L122.098 83.2825L122.12 83.2956L122.758 82.208ZM120.382 72.968L119.533 72.0351L119.511 72.0553L119.49 72.0765L120.382 72.968ZM126.19 72.572L125.298 73.4635L125.332 73.4977L125.369 73.5292L126.19 72.572ZM128.434 75.476L129.538 74.8684L129.521 74.8376L129.503 74.8078L128.434 75.476ZM131.602 79.568L132.416 78.6056L131.602 79.568ZM143.614 73.892L142.39 73.5862L142.373 73.6573L142.363 73.7299L143.614 73.892ZM141.502 65.576L140.499 66.3401L140.51 66.3548L140.522 66.3693L141.502 65.576ZM134.902 59.108L135.703 58.1348L135.7 58.1322L134.902 59.108ZM128.302 52.772L129.281 51.9787L128.302 52.772ZM128.566 38.384L127.552 37.6336L127.543 37.6459L127.535 37.6585L128.566 38.384ZM135.43 32.84L135.965 33.9815L135.972 33.978L135.98 33.9744L135.43 32.84ZM152.986 32.708L152.337 33.7891L152.986 32.708ZM155.89 37.724L157.126 37.9712L157.134 37.9294L157.14 37.8871L155.89 37.724ZM154.174 40.892L154.961 41.8765L154.99 41.8536L155.017 41.8291L154.174 40.892ZM145.99 38.252L144.92 38.9202L144.925 38.927L144.929 38.9338L145.99 38.252ZM143.218 35.084L142.374 36.0211L142.423 36.065L142.476 36.1036L143.218 35.084ZM135.166 35.216L134.397 34.2167L134.377 34.2317L134.358 34.2475L135.166 35.216ZM133.318 38.78L134.541 39.0858L134.56 39.0075L134.57 38.9273L133.318 38.78ZM135.298 46.832L134.295 47.5961L134.306 47.6108L134.318 47.6253L135.298 46.832ZM141.766 53.168L142.586 52.2107L142.579 52.2044L141.766 53.168ZM148.63 60.164L147.616 60.9134L147.634 60.9383L147.654 60.9623L148.63 60.164ZM148.366 75.08L147.306 74.3965L147.298 74.4088L147.291 74.4212L148.366 75.08ZM141.37 81.812L140.73 80.7253L140.723 80.7295L140.716 80.7338L141.37 81.812ZM131.602 83.1913C128.452 83.1913 125.73 82.4888 123.395 81.1204L122.12 83.2956C124.89 84.9192 128.063 85.7127 131.602 85.7127V83.1913ZM123.439 81.1475C121.183 79.6968 120.322 78.1918 120.322 76.664H117.801C117.801 79.3602 119.404 81.5512 122.076 83.2685L123.439 81.1475ZM120.322 76.664C120.322 75.3186 120.69 74.443 121.273 73.8595L119.49 72.0765C118.314 73.253 117.801 74.8414 117.801 76.664H120.322ZM121.23 73.9009C121.963 73.2339 122.804 72.9087 123.814 72.9087V70.3873C122.183 70.3873 120.736 70.9421 119.533 72.0351L121.23 73.9009ZM123.814 72.9087C124.488 72.9087 124.946 73.1112 125.298 73.4635L127.081 71.6805C126.201 70.8008 125.075 70.3873 123.814 70.3873V72.9087ZM125.369 73.5292C125.832 73.9259 126.497 74.7559 127.364 76.1442L129.503 74.8078C128.61 73.3801 127.779 72.2741 127.01 71.6148L125.369 73.5292ZM127.329 76.0836C128.347 77.9354 129.493 79.4354 130.787 80.5304L132.416 78.6056C131.422 77.7646 130.456 76.5366 129.538 74.8684L127.329 76.0836ZM130.787 80.5304C132.228 81.7494 134.136 82.2807 136.354 82.2807V79.7593C134.523 79.7593 133.263 79.3226 132.416 78.6056L130.787 80.5304ZM136.354 82.2807C138.71 82.2807 140.719 81.6108 142.22 80.1376C143.7 78.6845 144.534 76.597 144.864 74.0541L142.363 73.7299C142.077 75.939 141.393 77.4155 140.453 78.3384C139.534 79.2412 138.221 79.7593 136.354 79.7593V82.2807ZM144.837 74.1978C144.965 73.6846 145.006 72.9793 145.006 72.176H142.485C142.485 72.9567 142.438 73.3954 142.39 73.5862L144.837 74.1978ZM145.006 72.176C145.006 69.3579 144.173 66.8722 142.481 64.7827L140.522 66.3693C141.822 67.9758 142.485 69.8901 142.485 72.176H145.006ZM142.504 64.8119C141.012 62.8525 138.727 60.6254 135.703 58.1348L134.1 60.0812C137.06 62.5186 139.176 64.6035 140.499 66.3401L142.504 64.8119ZM135.7 58.1322C132.829 55.7833 130.702 53.733 129.281 51.9787L127.322 53.5653C128.894 55.507 131.166 57.6807 134.103 60.0838L135.7 58.1322ZM129.281 51.9787C127.981 50.3722 127.318 48.4579 127.318 46.172H124.797C124.797 48.9901 125.63 51.4758 127.322 53.5653L129.281 51.9787ZM127.318 46.172C127.318 43.6244 128.069 41.2803 129.597 39.1095L127.535 37.6585C125.718 40.2397 124.797 43.0876 124.797 46.172H127.318ZM129.579 39.1344C131.208 36.9352 133.328 35.2176 135.965 33.9815L134.894 31.6985C131.899 33.1024 129.443 35.0808 127.552 37.6336L129.579 39.1344ZM135.98 33.9744C138.715 32.6479 141.564 31.9887 144.538 31.9887V29.4673C141.175 29.4673 137.952 30.2161 134.88 31.7056L135.98 33.9744ZM144.538 31.9887C147.816 31.9887 150.388 32.6199 152.337 33.7891L153.634 31.6269C151.183 30.1561 148.123 29.4673 144.538 29.4673V31.9887ZM152.337 33.7891C153.312 34.3739 153.923 34.9833 154.27 35.5837C154.607 36.1654 154.738 36.8075 154.639 37.5609L157.14 37.8871C157.305 36.6165 157.084 35.4106 156.453 34.3203C155.832 33.2487 154.859 32.3621 153.634 31.6269L152.337 33.7891ZM154.653 37.4767C154.435 38.5686 153.981 39.3689 153.33 39.9549L155.017 41.8291C156.126 40.8311 156.816 39.5194 157.126 37.9712L154.653 37.4767ZM153.386 39.9075C152.713 40.4456 152.019 40.6873 151.27 40.6873V43.2087C152.632 43.2087 153.874 42.7464 154.961 41.8765L153.386 39.9075ZM151.27 40.6873C150.13 40.6873 149.459 40.4209 149.064 40.0752L147.403 41.9728C148.416 42.8591 149.769 43.2087 151.27 43.2087V40.6873ZM149.064 40.0752C148.484 39.5679 147.81 38.7522 147.05 37.5702L144.929 38.9338C145.753 40.2158 146.575 41.248 147.403 41.9728L149.064 40.0752ZM147.059 37.5838C146.124 36.0882 145.098 34.8926 143.959 34.0644L142.476 36.1036C143.273 36.6834 144.095 37.5998 144.92 38.9202L147.059 37.5838ZM144.061 34.1469C142.869 33.0745 141.245 32.6353 139.39 32.6353V35.1567C140.878 35.1567 141.806 35.5095 142.374 36.0211L144.061 34.1469ZM139.39 32.6353C137.485 32.6353 135.795 33.1412 134.397 34.2167L135.934 36.2153C136.824 35.5308 137.95 35.1567 139.39 35.1567V32.6353ZM134.358 34.2475C133.03 35.3548 132.275 36.8496 132.065 38.6327L134.57 38.9273C134.712 37.7184 135.189 36.8372 135.973 36.1845L134.358 34.2475ZM132.094 38.4742C131.966 38.9874 131.925 39.6927 131.925 40.496H134.446C134.446 39.7153 134.493 39.2766 134.541 39.0858L132.094 38.4742ZM131.925 40.496C131.925 43.1413 132.715 45.5232 134.295 47.5961L136.3 46.0679C135.064 44.4448 134.446 42.6027 134.446 40.496H131.925ZM134.318 47.6253C135.883 49.5591 138.105 51.7289 140.953 54.1316L142.579 52.2044C139.794 49.8551 137.704 47.8008 136.277 46.0387L134.318 47.6253ZM140.945 54.1252C143.991 56.7361 146.2 58.9976 147.616 60.9134L149.643 59.4146C148.067 57.2824 145.7 54.8799 142.586 52.2108L140.945 54.1252ZM147.654 60.9623C149.043 62.66 149.745 64.6616 149.745 67.028H152.266C152.266 64.1144 151.384 61.54 149.605 59.3657L147.654 60.9623ZM149.745 67.028C149.745 69.3751 148.965 71.8253 147.306 74.3965L149.425 75.7635C151.286 72.8787 152.266 69.9609 152.266 67.028H149.745ZM147.291 74.4212C145.736 76.9583 143.56 79.061 140.73 80.7253L142.009 82.8987C145.163 81.043 147.651 78.6577 149.44 75.7388L147.291 74.4212ZM140.716 80.7338C138.022 82.3669 134.994 83.1913 131.602 83.1913V85.7127C135.425 85.7127 138.91 84.7771 142.023 82.8902L140.716 80.7338ZM196.765 32.708L197.814 32.0087L197.814 32.0087L196.765 32.708ZM196.897 33.632L198.105 33.9943L198.113 33.9662L198.12 33.9378L196.897 33.632ZM195.181 36.536L194.213 35.7289L195.181 36.536ZM187.525 37.46L187.331 38.7056L187.336 38.7065L187.525 37.46ZM178.813 36.668L178.85 35.4078L177.764 35.3759L177.572 36.4451L178.813 36.668ZM173.005 69.008L174.241 69.2552L174.244 69.2431L174.246 69.2309L173.005 69.008ZM174.193 77.456L173.302 78.3475L173.321 78.3668L173.341 78.3854L174.193 77.456ZM185.149 77.588L185.691 78.7263L185.702 78.7211L185.713 78.7156L185.149 77.588ZM191.485 73.364V72.1033H191.04L190.693 72.3832L191.485 73.364ZM192.409 73.76L191.518 74.6515V74.6515L192.409 73.76ZM192.541 74.42L193.39 75.3519L193.412 75.3322L193.433 75.3115L192.541 74.42ZM181.981 82.208L181.405 81.0868L181.398 81.0903L181.391 81.0938L181.981 82.208ZM166.405 82.604L165.618 83.5885L165.633 83.6008L165.649 83.6126L166.405 82.604ZM164.029 72.44L162.79 72.2096L162.781 72.255L162.776 72.3008L164.029 72.44ZM169.573 42.608L168.346 42.3192L168.339 42.3483L168.334 42.3776L169.573 42.608ZM169.045 36.14L168.377 37.2091L168.428 37.2408L168.481 37.2676L169.045 36.14ZM164.821 34.028L163.772 33.3287L163.679 33.4691L163.625 33.6293L164.821 34.028ZM173.665 30.728L174.462 31.7054L174.465 31.7022L173.665 30.728ZM178.945 23.072L180.138 23.4809L180.206 23.2821V23.072H178.945ZM180.793 22.94L180.094 23.989L180.276 24.1101L180.487 24.1631L180.793 22.94ZM181.189 23.204L180.298 22.3125L180.019 22.591L179.949 22.9785L181.189 23.204ZM179.341 33.368L178.101 33.1425L177.819 34.6933L179.394 34.6276L179.341 33.368ZM185.413 33.104L185.47 34.3634L185.499 34.3621L185.527 34.3596L185.413 33.104ZM190.693 32.708L190.763 33.9668L190.793 33.9651L190.823 33.962L190.693 32.708ZM195.973 33.5727C195.991 33.5727 195.945 33.5755 195.871 33.5386C195.792 33.4992 195.74 33.4438 195.716 33.4073L197.814 32.0087C197.376 31.3511 196.692 31.0513 195.973 31.0513V33.5727ZM195.716 33.4073C195.711 33.3988 195.703 33.385 195.696 33.3668C195.689 33.3485 195.684 33.3307 195.682 33.3153C195.678 33.2833 195.685 33.2825 195.674 33.3262L198.12 33.9378C198.281 33.2957 198.216 32.612 197.814 32.0087L195.716 33.4073ZM195.69 33.2697C195.493 33.9268 195.033 34.7447 194.213 35.7289L196.15 37.3431C197.09 36.2153 197.774 35.0972 198.105 33.9943L195.69 33.2697ZM194.213 35.7289C193.437 36.6592 192.878 36.8593 192.541 36.8593V39.3807C193.964 39.3807 195.165 38.5248 196.15 37.3431L194.213 35.7289ZM192.541 36.8593C192.422 36.8593 191.986 36.8188 191.122 36.705C190.298 36.5966 189.163 36.433 187.714 36.2135L187.336 38.7065C188.791 38.927 189.945 39.0934 190.793 39.205C191.6 39.3112 192.221 39.3807 192.541 39.3807V36.8593ZM187.72 36.2144C184.849 35.7658 181.892 35.4973 178.85 35.4078L178.776 37.9282C181.718 38.0147 184.569 38.2742 187.331 38.7056L187.72 36.2144ZM177.572 36.4451L171.764 68.7851L174.246 69.2309L180.054 36.8909L177.572 36.4451ZM171.769 68.7607C171.493 70.1412 171.348 71.414 171.348 72.572H173.87C173.87 71.618 173.99 70.5148 174.241 69.2552L171.769 68.7607ZM171.348 72.572C171.348 74.9489 171.917 76.9631 173.302 78.3475L175.085 76.5645C174.357 75.8369 173.87 74.5951 173.87 72.572H171.348ZM173.341 78.3854C174.735 79.6626 176.785 80.1687 179.209 80.1687V77.6473C177.058 77.6473 175.764 77.1854 175.045 76.5266L173.341 78.3854ZM179.209 80.1687C181.503 80.1687 183.668 79.6895 185.691 78.7263L184.607 76.4497C182.934 77.2465 181.14 77.6473 179.209 77.6473V80.1687ZM185.713 78.7156C187.753 77.6955 189.942 76.231 192.277 74.3448L190.693 72.3832C188.452 74.193 186.417 75.5445 184.585 76.4604L185.713 78.7156ZM191.485 74.6247H191.617V72.1033H191.485V74.6247ZM191.617 74.6247C191.577 74.6247 191.54 74.6196 191.509 74.6118C191.479 74.6042 191.459 74.5953 191.449 74.5906C191.433 74.5824 191.457 74.5911 191.518 74.6515L193.301 72.8685C192.899 72.4671 192.334 72.1033 191.617 72.1033V74.6247ZM191.518 74.6515C191.579 74.7126 191.453 74.6178 191.404 74.3703C191.375 74.2268 191.378 74.0553 191.436 73.8811C191.492 73.7124 191.582 73.5965 191.65 73.5285L193.433 75.3115C193.78 74.9638 193.991 74.4496 193.876 73.8757C193.783 73.4082 193.504 73.0714 193.301 72.8685L191.518 74.6515ZM191.692 73.4881C187.775 77.0573 184.347 79.5734 181.405 81.0868L182.558 83.3292C185.775 81.6746 189.388 78.9987 193.39 75.3519L191.692 73.4881ZM181.391 81.0938C178.545 82.6009 175.842 83.3233 173.269 83.3233V85.8447C176.329 85.8447 179.434 84.9831 182.571 83.3222L181.391 81.0938ZM173.269 83.3233C170.649 83.3233 168.649 82.7109 167.162 81.5954L165.649 83.6126C167.681 85.1371 170.257 85.8447 173.269 85.8447V83.3233ZM167.193 81.6195C165.847 80.543 165.026 78.6582 165.026 75.608H162.504C162.504 79.0698 163.443 81.849 165.618 83.5885L167.193 81.6195ZM165.026 75.608C165.026 75.1616 165.105 74.1752 165.282 72.5792L162.776 72.3008C162.602 73.8728 162.504 74.9984 162.504 75.608H165.026ZM165.269 72.6703L170.813 42.8383L168.334 42.3776L162.79 72.2096L165.269 72.6703ZM170.8 42.8968C171.169 41.3283 171.362 39.8657 171.362 38.516H168.84C168.84 39.6303 168.681 40.8957 168.346 42.3192L170.8 42.8968ZM171.362 38.516C171.362 37.1024 170.952 35.6841 169.609 35.0124L168.481 37.2676C168.546 37.2999 168.84 37.4656 168.84 38.516H171.362ZM169.713 35.0709C169.161 34.7256 168.47 34.524 167.734 34.4014C166.983 34.2762 166.095 34.2193 165.085 34.2193V36.7407C166.012 36.7407 166.751 36.7938 167.32 36.8886C167.904 36.986 168.226 37.1144 168.377 37.2091L169.713 35.0709ZM165.085 34.2193C165.198 34.2193 165.358 34.2441 165.524 34.3367C165.693 34.4302 165.804 34.5573 165.869 34.6664C165.978 34.8468 165.95 34.9551 165.95 34.82H163.428C163.428 35.1249 163.467 35.5632 163.707 35.9636C164.009 36.4667 164.526 36.7407 165.085 36.7407V34.2193ZM165.95 34.82C165.95 34.6987 165.97 34.5691 166.017 34.4267L163.625 33.6293C163.497 34.0149 163.428 34.4133 163.428 34.82H165.95ZM165.87 34.7273C165.939 34.6237 165.963 34.6031 165.944 34.6225C165.934 34.6325 165.883 34.6832 165.792 34.7378C165.707 34.7883 165.505 34.8927 165.217 34.8927V32.3713C164.885 32.3713 164.634 32.4921 164.494 32.5757C164.348 32.6632 164.237 32.7635 164.161 32.8395C164.009 32.9909 163.879 33.1683 163.772 33.3287L165.87 34.7273ZM165.217 34.8927C168.744 34.8927 171.846 33.8366 174.462 31.7054L172.869 29.7506C170.732 31.4914 168.203 32.3713 165.217 32.3713V34.8927ZM174.465 31.7022C177.114 29.5265 179.008 26.7771 180.138 23.4809L177.753 22.6631C176.771 25.5269 175.144 27.8815 172.865 29.7538L174.465 31.7022ZM180.206 23.072C180.206 23.2706 180.141 23.4888 179.998 23.6728C179.869 23.8388 179.728 23.9099 179.673 23.9338C179.617 23.9577 179.598 23.9553 179.643 23.9488C179.684 23.9429 179.757 23.9367 179.869 23.9367V21.4153C179.51 21.4153 179.072 21.4481 178.68 21.6162C178.47 21.7061 178.214 21.8597 178.008 22.1247C177.788 22.4077 177.684 22.7414 177.684 23.072H180.206ZM179.869 23.9367C180.001 23.9367 180.059 23.966 180.094 23.989L181.493 21.891C180.999 21.562 180.442 21.4153 179.869 21.4153V23.9367ZM180.487 24.1631C180.657 24.2055 180.588 24.2087 180.457 24.121C180.407 24.088 180.101 23.8843 179.991 23.4438C179.851 22.8834 180.137 22.4734 180.298 22.3125L182.081 24.0955C182.286 23.8906 182.588 23.4366 182.437 22.8322C182.316 22.3477 181.971 22.1 181.856 22.023C181.592 21.8473 181.281 21.7625 181.099 21.7169L180.487 24.1631ZM179.949 22.9785L178.101 33.1425L180.582 33.5935L182.43 23.4295L179.949 22.9785ZM179.394 34.6276C181.507 34.5396 183.533 34.4515 185.47 34.3634L185.356 31.8446C183.422 31.9325 181.399 32.0204 179.289 32.1084L179.394 34.6276ZM185.527 34.3596C187.452 34.1846 189.197 34.0538 190.763 33.9668L190.623 31.4492C189.022 31.5382 187.247 31.6714 185.299 31.8484L185.527 34.3596ZM190.823 33.962C193.38 33.6976 195.079 33.5727 195.973 33.5727V31.0513C194.932 31.0513 193.111 31.1904 190.563 31.454L190.823 33.962ZM202.689 79.304L201.689 80.0716L201.699 80.0845L201.709 80.0973L202.689 79.304ZM198.993 57.524L197.753 57.2929L197.75 57.3111L197.747 57.3294L198.993 57.524ZM204.537 43.532L203.495 42.8225L203.489 42.8301L203.484 42.8378L204.537 43.532ZM214.701 33.896L215.331 34.9876L215.34 34.9824L215.349 34.9771L214.701 33.896ZM240.177 35.876L239.197 36.6693L239.207 36.682L239.218 36.6945L240.177 35.876ZM244.005 57.524L242.77 57.2686L242.77 57.2692L244.005 57.524ZM237.801 72.044L236.779 71.3051L236.774 71.3123L236.769 71.3195L237.801 72.044ZM227.505 81.548L226.892 80.4459L227.505 81.548ZM229.089 76.664L228.122 75.8543L228.116 75.8621L228.109 75.87L229.089 76.664ZM234.765 63.332L233.526 63.0997L234.765 63.332ZM232.257 39.836L231.129 40.3998L231.136 40.414L231.144 40.4281L232.257 39.836ZM208.365 51.848L207.125 51.6191L207.125 51.6196L208.365 51.848ZM210.741 75.608L209.633 76.21L209.641 76.2245L209.649 76.2387L210.741 75.608ZM215.361 83.5873C210.222 83.5873 206.384 81.8653 203.669 78.5107L201.709 80.0973C204.977 84.1347 209.587 86.1087 215.361 86.1087V83.5873ZM203.689 78.5364C200.993 75.0235 199.593 70.4303 199.593 64.652H197.072C197.072 70.8417 198.577 76.0165 201.689 80.0716L203.689 78.5364ZM199.593 64.652C199.593 62.8038 199.804 60.4973 200.238 57.7186L197.747 57.3294C197.301 60.1827 197.072 62.6282 197.072 64.652H199.593ZM200.232 57.7551C201.171 52.7173 202.96 48.2127 205.589 44.2262L203.484 42.8378C200.658 47.1233 198.75 51.9467 197.753 57.2929L200.232 57.7551ZM205.579 44.2415C208.298 40.2472 211.551 37.1722 215.331 34.9876L214.07 32.8044C209.931 35.1958 206.407 38.5447 203.495 42.8225L205.579 44.2415ZM215.349 34.9771C219.124 32.7125 223.081 31.5927 227.241 31.5927V29.0713C222.601 29.0713 218.198 30.3274 214.052 32.8149L215.349 34.9771ZM227.241 31.5927C232.57 31.5927 236.489 33.3247 239.197 36.6693L241.157 35.0827C237.88 31.0353 233.175 29.0713 227.241 29.0713V31.5927ZM239.218 36.6945C242.056 40.0196 243.536 44.4994 243.536 50.264H246.057C246.057 44.0606 244.457 38.9484 241.136 35.0574L239.218 36.6945ZM243.536 50.264C243.536 52.4553 243.283 54.7892 242.77 57.2686L245.239 57.7794C245.782 55.1548 246.057 52.6487 246.057 50.264H243.536ZM242.77 57.2692C241.658 62.6577 239.656 67.3286 236.779 71.3051L238.822 72.7829C241.93 68.4874 244.063 63.4783 245.239 57.7788L242.77 57.2692ZM236.769 71.3195C233.962 75.3178 230.667 78.3487 226.892 80.4459L228.117 82.6501C232.262 80.3473 235.832 77.0422 238.833 72.7685L236.769 71.3195ZM226.892 80.4459C223.101 82.552 219.262 83.5873 215.361 83.5873V86.1087C219.731 86.1087 223.988 84.944 228.117 82.6501L226.892 80.4459ZM219.981 82.8087C223.877 82.8087 227.247 80.9372 230.068 77.458L228.109 75.87C225.65 78.9028 222.949 80.2873 219.981 80.2873V82.8087ZM230.055 77.4737C232.962 74.0039 234.921 69.3377 236.004 63.5643L233.526 63.0997C232.496 68.5903 230.671 72.8121 228.122 75.8543L230.055 77.4737ZM236.004 63.5643C236.546 60.6756 236.817 57.8257 236.817 55.016H234.296C234.296 57.6623 234.04 60.3564 233.526 63.0997L236.004 63.5643ZM236.817 55.016C236.817 48.8813 235.69 43.6058 233.37 39.2439L231.144 40.4281C233.223 44.3382 234.296 49.1827 234.296 55.016H236.817ZM233.384 39.2722C232.26 37.0225 230.848 35.2544 229.116 34.0491C227.371 32.8355 225.367 32.2393 223.149 32.2393V34.7607C224.891 34.7607 226.384 35.2205 227.676 36.1189C228.979 37.0256 230.142 38.4255 231.129 40.3998L233.384 39.2722ZM223.149 32.2393C219.335 32.2393 215.972 34.116 213.074 37.5743L215.007 39.1937C217.566 36.14 220.275 34.7607 223.149 34.7607V32.2393ZM213.074 37.5743C210.164 41.0475 208.206 45.7607 207.125 51.6191L209.604 52.0769C210.635 46.4953 212.461 42.2325 215.007 39.1937L213.074 37.5743ZM207.125 51.6196C206.499 55.0158 206.18 58.043 206.18 60.692H208.701C208.701 58.237 208.998 55.3682 209.605 52.0764L207.125 51.6196ZM206.18 60.692C206.18 66.7409 207.308 71.9327 209.633 76.21L211.848 75.006C209.773 71.1873 208.701 66.4351 208.701 60.692H206.18ZM209.649 76.2387C212.114 80.5048 215.569 82.8087 219.981 82.8087V80.2873C216.648 80.2873 213.943 78.6312 211.832 74.9773L209.649 76.2387ZM290.385 32.84L291.166 31.8505L290.385 32.84ZM291.441 41.024L290.512 40.1721L290.508 40.1759L291.441 41.024ZM285.633 41.948L284.9 42.9739L284.952 43.011L285.008 43.0426L285.633 41.948ZM283.653 40.1L284.595 39.2624L284.571 39.2347L284.545 39.2085L283.653 40.1ZM282.201 38.912L281.31 39.8035L281.398 39.8917L281.502 39.961L282.201 38.912ZM274.149 45.776L273.025 45.2043L273.022 45.2122L274.149 45.776ZM267.021 63.596L265.824 63.2019L265.821 63.2112L267.021 63.596ZM262.137 81.812L263.36 82.1178L263.368 82.0887L263.373 82.0592L262.137 81.812ZM260.553 83.396L260.085 82.2254L260.036 82.2449L259.989 82.2684L260.553 83.396ZM253.557 83.132L252.314 82.9247L252.296 83.0277V83.132H253.557ZM254.349 79.04L253.123 78.7458L253.118 78.7692L253.113 78.7927L254.349 79.04ZM255.537 73.232L254.297 73.0054L254.294 73.0203L254.292 73.0354L255.537 73.232ZM260.289 47.228L261.529 47.4546L261.531 47.444L260.289 47.228ZM250.125 41.42L249.234 40.5285L249.234 40.5285L250.125 41.42ZM249.069 41.156L247.942 41.7198L247.977 41.79L248.02 41.8553L249.069 41.156ZM249.069 40.364L249.961 41.2555L249.993 41.2232L250.023 41.1887L249.069 40.364ZM256.857 33.236L257.529 34.3029L257.543 34.2941L257.557 34.285L256.857 33.236ZM267.945 32.576L268.944 31.8073L267.945 32.576ZM268.473 46.568L269.714 46.7907L269.716 46.7777L269.718 46.7646L268.473 46.568ZM265.701 62.012L264.46 61.7893L266.905 62.386L265.701 62.012ZM274.941 39.704L273.852 39.0698L273.849 39.0749L274.941 39.704ZM285.105 32.1207C286.627 32.1207 288.119 32.6571 289.604 33.8295L291.166 31.8505C289.307 30.3829 287.279 29.5993 285.105 29.5993V32.1207ZM289.604 33.8295C291.044 34.9663 291.632 36.1678 291.632 37.46H294.154C294.154 35.2322 293.07 33.3537 291.166 31.8505L289.604 33.8295ZM291.632 37.46C291.632 38.4365 291.286 39.327 290.512 40.1721L292.371 41.8759C293.532 40.609 294.154 39.1235 294.154 37.46H291.632ZM290.508 40.1759C289.887 40.8594 289.092 41.2153 288.009 41.2153V43.7367C289.742 43.7367 291.235 43.1246 292.374 41.8721L290.508 40.1759ZM288.009 41.2153C287.184 41.2153 286.627 41.0639 286.259 40.8534L285.008 43.0426C285.871 43.536 286.898 43.7367 288.009 43.7367V41.2153ZM286.366 40.9221C285.85 40.5537 285.26 40.0097 284.595 39.2624L282.711 40.9376C283.455 41.7743 284.184 42.4623 284.9 42.9739L286.366 40.9221ZM284.545 39.2085C284.045 38.7087 283.496 38.2601 282.901 37.863L281.502 39.961C281.962 40.2679 282.382 40.6113 282.762 40.9915L284.545 39.2085ZM283.093 38.0205C282.419 37.3468 281.571 36.9913 280.617 36.9913V39.5127C280.895 39.5127 281.103 39.5972 281.31 39.8035L283.093 38.0205ZM280.617 36.9913C279.152 36.9913 277.849 38.0028 276.724 39.3111C275.55 40.6764 274.32 42.6598 273.026 45.2043L275.273 46.3477C276.53 43.8762 277.654 42.0976 278.636 40.9549C279.668 39.7552 280.322 39.5127 280.617 39.5127V36.9913ZM273.022 45.2122C270.523 50.2094 268.125 56.2093 265.824 63.2019L268.219 63.9901C270.493 57.0787 272.847 51.1986 275.277 46.3398L273.022 45.2122ZM265.821 63.2112C263.611 70.1063 261.969 76.2257 260.901 81.5648L263.373 82.0592C264.418 76.8382 266.032 70.8137 268.222 63.9808L265.821 63.2112ZM260.914 81.5062C260.865 81.7017 260.716 81.9732 260.085 82.2254L261.021 84.5666C262.151 84.1148 263.057 83.3303 263.36 82.1178L260.914 81.5062ZM259.989 82.2684C259.352 82.5871 258.382 82.7953 256.989 82.7953V85.3167C258.588 85.3167 259.994 85.0849 261.117 84.5236L259.989 82.2684ZM256.989 82.7953C255.873 82.7953 255.15 82.7173 254.743 82.6076C254.535 82.5516 254.512 82.5135 254.564 82.5555C254.653 82.6278 254.818 82.83 254.818 83.132H252.296C252.296 83.742 252.604 84.2137 252.98 84.517C253.317 84.79 253.723 84.9444 254.087 85.0424C254.824 85.2407 255.817 85.3167 256.989 85.3167V82.7953ZM254.801 83.3393C254.885 82.836 255.144 81.4953 255.585 79.2873L253.113 78.7927C252.675 80.9847 252.406 82.372 252.314 82.9247L254.801 83.3393ZM255.575 79.3342C256.108 77.1119 256.512 75.1422 256.782 73.4286L254.292 73.0354C254.034 74.6658 253.646 76.5681 253.123 78.7458L255.575 79.3342ZM256.777 73.4586L261.529 47.4546L259.049 47.0014L254.297 73.0054L256.777 73.4586ZM261.531 47.444C261.893 45.3642 262.078 43.4426 262.078 41.684H259.556C259.556 43.2694 259.389 45.0438 259.047 47.012L261.531 47.444ZM262.078 41.684C262.078 39.8497 261.833 38.2745 261.196 37.1164C260.867 36.5184 260.421 36.0098 259.837 35.6558C259.251 35.3004 258.595 35.1433 257.913 35.1433V37.6647C258.2 37.6647 258.391 37.7276 258.53 37.8122C258.672 37.8982 258.831 38.0496 258.986 38.3316C259.318 38.9335 259.556 39.9983 259.556 41.684H262.078ZM257.913 35.1433C256.634 35.1433 255.277 35.7097 253.898 36.5981C252.496 37.501 250.939 38.8228 249.234 40.5285L251.017 42.3115C252.655 40.6732 254.069 39.487 255.263 38.7179C256.479 37.9343 257.344 37.6647 257.913 37.6647V35.1433ZM249.234 40.5285C249.466 40.2967 249.711 40.2913 249.729 40.2913V42.8127C250.1 42.8127 250.609 42.7193 251.017 42.3115L249.234 40.5285ZM249.729 40.2913C249.819 40.2913 249.923 40.3168 250.015 40.3719C250.098 40.4219 250.127 40.4693 250.118 40.4567L248.02 41.8553C248.376 42.3888 248.954 42.8127 249.729 42.8127V40.2913ZM250.197 40.5922C250.157 40.5124 250.198 40.5579 250.198 40.694C250.198 40.7701 250.185 40.8707 250.141 40.9807C250.096 41.0922 250.031 41.1849 249.961 41.2555L248.178 39.4725C247.41 40.2407 247.688 41.2125 247.942 41.7198L250.197 40.5922ZM250.023 41.1887C252.796 37.9824 255.299 35.7071 257.529 34.3029L256.185 32.1691C253.664 33.7569 250.975 36.2336 248.116 39.5393L250.023 41.1887ZM257.557 34.285C259.777 32.8047 261.869 32.1207 263.853 32.1207V29.5993C261.261 29.5993 258.689 30.4993 256.158 32.187L257.557 34.285ZM263.853 32.1207C265.43 32.1207 266.369 32.5952 266.946 33.3447L268.944 31.8073C267.761 30.2688 265.972 29.5993 263.853 29.5993V32.1207ZM266.946 33.3447C267.561 34.1442 268.004 35.7207 268.004 38.384H270.526C270.526 35.5913 270.089 33.2958 268.944 31.8073L266.946 33.3447ZM268.004 38.384C268.004 40.4031 267.751 43.0586 267.228 46.3714L269.718 46.7646C270.251 43.3894 270.526 40.5889 270.526 38.384H268.004ZM267.232 46.3453L264.46 61.7893L266.942 62.2347L269.714 46.7907L267.232 46.3453ZM266.905 62.386C269.704 53.3773 272.751 46.0348 276.034 40.3331L273.849 39.0749C270.443 44.9892 267.33 52.5186 264.497 61.6379L266.905 62.386ZM276.031 40.3382C277.71 37.4542 279.333 35.3714 280.884 34.0221C282.428 32.6786 283.828 32.1207 285.105 32.1207V29.5993C283.038 29.5993 281.073 30.5154 279.229 32.1199C277.391 33.7186 275.605 36.0578 273.852 39.0698L276.031 40.3382ZM343.545 32.84L342.506 33.5542V33.5542L343.545 32.84ZM334.569 69.008L333.452 68.4236L333.449 68.4294L334.569 69.008ZM310.809 104.516L309.855 103.692L310.809 104.516ZM284.013 118.772L284.782 117.773L284.757 117.753L284.731 117.735L284.013 118.772ZM282.297 114.944L281.044 114.805L281.036 114.874V114.944H282.297ZM282.429 113.756L281.204 113.459L281.185 113.537L281.176 113.617L282.429 113.756ZM292.725 109.664L292.85 108.409L292.839 108.408L292.725 109.664ZM303.945 107.684L303.254 106.629L303.213 106.656L303.174 106.686L303.945 107.684ZM313.977 96.728L314.993 97.4742L315.23 97.152L315.238 96.7522L313.977 96.728ZM314.109 89.864L315.37 89.8882L315.37 89.8761V89.864H314.109ZM310.149 51.056L308.934 51.3916L308.936 51.3985L308.938 51.4054L310.149 51.056ZM296.157 38.384L295.439 37.3474L296.157 38.384ZM293.253 41.816L292.139 41.2261L292.09 41.3183L292.057 41.4173L293.253 41.816ZM291.669 41.42L290.53 40.8803L290.454 41.0392L290.425 41.2127L291.669 41.42ZM297.609 33.632L296.835 32.6368L297.609 33.632ZM314.109 37.064L313.036 37.726L313.041 37.7342L313.046 37.7423L314.109 37.064ZM320.049 54.092L318.809 54.3189L318.81 54.3276L318.812 54.3363L320.049 54.092ZM322.029 85.112L320.77 85.0421L320.504 89.8293L323.091 85.7921L322.029 85.112ZM331.533 68.48L330.413 67.9018L330.409 67.909L330.405 67.9162L331.533 68.48ZM336.945 55.94L338.161 56.2717L338.173 56.2298L338.181 56.1872L336.945 55.94ZM336.945 45.644L338.155 45.2883L336.945 45.644ZM335.097 40.76L333.926 41.2282L333.936 41.253L333.947 41.2774L335.097 40.76ZM334.041 38.252L332.833 38.6143L332.856 38.6909L332.889 38.764L334.041 38.252ZM339.321 31.9887C340.794 31.9887 341.795 32.52 342.506 33.5542L344.584 32.1258C343.359 30.344 341.544 29.4673 339.321 29.4673V31.9887ZM342.506 33.5542C343.279 34.678 343.736 36.3313 343.736 38.648H346.258C346.258 36.0367 345.747 33.818 344.584 32.1258L342.506 33.5542ZM343.736 38.648C343.736 45.2695 340.395 55.1531 333.452 68.4236L335.686 69.5924C342.647 56.2869 346.258 45.9305 346.258 38.648H343.736ZM333.449 68.4294C326.626 81.637 318.761 93.389 309.855 103.692L311.763 105.34C320.809 94.875 328.784 82.955 335.689 69.5866L333.449 68.4294ZM309.855 103.692C305.405 108.84 301.379 112.65 297.778 115.164C294.166 117.687 291.086 118.831 288.501 118.831V121.353C291.812 121.353 295.398 119.901 299.222 117.232C303.057 114.554 307.238 110.576 311.763 105.34L309.855 103.692ZM288.501 118.831C286.852 118.831 285.65 118.441 284.782 117.773L283.244 119.771C284.664 120.863 286.454 121.353 288.501 121.353V118.831ZM284.731 117.735C284.017 117.241 283.558 116.413 283.558 114.944H281.036C281.036 116.995 281.721 118.719 283.295 119.809L284.731 117.735ZM283.55 115.083L283.682 113.895L281.176 113.617L281.044 114.805L283.55 115.083ZM283.654 114.053C283.95 112.833 284.49 112.03 285.21 111.513C285.945 110.986 287.004 110.661 288.501 110.661V108.139C286.654 108.139 285.029 108.54 283.74 109.465C282.436 110.4 281.612 111.775 281.204 113.459L283.654 114.053ZM288.501 110.661C289.32 110.661 290.679 110.744 292.611 110.92L292.839 108.408C290.899 108.232 289.443 108.139 288.501 108.139V110.661ZM292.6 110.918C294.369 111.095 295.74 111.189 296.685 111.189V108.667C295.87 108.667 294.602 108.585 292.85 108.41L292.6 110.918ZM296.685 111.189C299.814 111.189 302.52 110.379 304.716 108.682L303.174 106.686C301.498 107.981 299.364 108.667 296.685 108.667V111.189ZM304.636 108.739C307.395 106.931 310.854 103.111 314.993 97.4742L312.961 95.9818C308.829 101.609 305.599 105.093 303.254 106.629L304.636 108.739ZM315.238 96.7522L315.37 89.8882L312.849 89.8398L312.717 96.7038L315.238 96.7522ZM315.37 89.864C315.37 73.1005 314.049 60.0267 311.36 50.7066L308.938 51.4054C311.529 60.3893 312.848 73.1875 312.848 89.864H315.37ZM311.364 50.7204C310.07 46.033 308.498 42.3915 306.598 39.8969C304.676 37.3746 302.338 35.9353 299.589 35.9353V38.4567C301.328 38.4567 302.994 39.3274 304.592 41.4251C306.212 43.5505 307.676 46.839 308.934 51.3916L311.364 50.7204ZM299.589 35.9353C298.138 35.9353 296.748 36.4415 295.439 37.3474L296.875 39.4206C297.854 38.7425 298.753 38.4567 299.589 38.4567V35.9353ZM295.439 37.3474C294.097 38.2767 293.005 39.5898 292.139 41.2261L294.367 42.4059C295.085 41.0502 295.929 40.0753 296.875 39.4206L295.439 37.3474ZM292.057 41.4173C292.086 41.3297 292.137 41.2362 292.212 41.1517C292.286 41.0683 292.364 41.0159 292.425 40.9854C292.533 40.9315 292.573 40.9513 292.461 40.9513V43.4727C293.075 43.4727 294.096 43.2732 294.449 42.2147L292.057 41.4173ZM292.461 40.9513C292.391 40.9513 292.388 40.943 292.427 40.9549C292.472 40.9682 292.581 41.0107 292.693 41.1225C292.811 41.2407 292.874 41.379 292.9 41.493C292.922 41.5936 292.909 41.648 292.913 41.6273L290.425 41.2127C290.345 41.6929 290.378 42.3743 290.91 42.9055C291.392 43.388 292.025 43.4727 292.461 43.4727V40.9513ZM292.808 41.9597C294.327 38.7538 296.194 36.3294 298.383 34.6272L296.835 32.6368C294.272 34.6306 292.179 37.3982 290.53 40.8803L292.808 41.9597ZM298.383 34.6272C300.588 32.9121 302.743 32.1207 304.869 32.1207V29.5993C302.067 29.5993 299.382 30.6559 296.835 32.6368L298.383 34.6272ZM304.869 32.1207C307.893 32.1207 310.624 33.8175 313.036 37.726L315.182 36.402C312.49 32.0385 309.061 29.5993 304.869 29.5993V32.1207ZM313.046 37.7423C315.566 41.6902 317.505 47.1914 318.809 54.3189L321.289 53.8651C319.953 46.5606 317.932 40.7098 315.172 36.3857L313.046 37.7423ZM318.812 54.3363C320.201 61.3684 320.9 69.2926 320.9 78.116H323.422C323.422 69.1634 322.713 61.0716 321.286 53.8477L318.812 54.3363ZM320.9 78.116C320.9 81.19 320.856 83.4939 320.77 85.0421L323.288 85.1819C323.378 83.5621 323.422 81.202 323.422 78.116H320.9ZM323.091 85.7921C326.72 80.1261 329.911 74.5433 332.661 69.0438L330.405 67.9162C327.699 73.3287 324.554 78.8339 320.967 84.4319L323.091 85.7921ZM332.653 69.0582C335.477 63.5871 337.333 59.3098 338.161 56.2717L335.729 55.6083C334.973 58.3782 333.221 62.4609 330.413 67.9018L332.653 69.0582ZM338.181 56.1872C338.628 53.9538 338.866 52.1007 338.866 50.66H336.344C336.344 51.8593 336.142 53.5262 335.709 55.6927L338.181 56.1872ZM338.866 50.66C338.866 48.7132 338.634 46.9188 338.155 45.2883L335.736 45.9997C336.136 47.3612 336.344 48.9108 336.344 50.66H338.866ZM338.155 45.2883C337.695 43.7259 337.057 42.0433 336.247 40.2426L333.947 41.2774C334.721 42.9967 335.315 44.57 335.736 45.9997L338.155 45.2883ZM336.268 40.2918C335.91 39.3984 335.552 38.5477 335.193 37.74L332.889 38.764C333.234 39.5403 333.58 40.3616 333.926 41.2282L336.268 40.2918ZM335.249 37.8897C335.01 37.0936 334.906 36.4265 334.906 35.876H332.384C332.384 36.7335 332.544 37.6504 332.833 38.6143L335.249 37.8897ZM334.906 35.876C334.906 34.7157 335.298 33.8269 336.081 33.1094L334.377 31.2506C333.048 32.4691 332.384 34.0443 332.384 35.876H334.906ZM336.081 33.1094C336.866 32.3896 337.908 31.9887 339.321 31.9887V29.4673C337.39 29.4673 335.704 30.0344 334.377 31.2506L336.081 33.1094Z" fill="#F5F1E6" mask="url(#path-1-outside-1_143_6328)"/>
</svg>
