<svg width="58" height="44" viewBox="0 0 58 44" fill="none" xmlns="http://www.w3.org/2000/svg">
<mask id="path-1-inside-1_450_1483" fill="white">
<path fill-rule="evenodd" clip-rule="evenodd" d="M58 37V11C58 7.13401 45.0163 4 29 4C12.9837 4 0 7.13401 0 11V37C0 40.866 12.9837 44 29 44C45.0163 44 58 40.866 58 37Z"/>
</mask>
<path d="M57 11V37H59V11H57ZM29 5C36.9531 5 44.1206 5.77902 49.2715 7.02233C51.8548 7.64589 53.8751 8.37322 55.2254 9.14381C56.653 9.95851 57 10.6226 57 11H59C59 9.44436 57.7241 8.267 56.2167 7.40676C54.632 6.50241 52.4054 5.72137 49.7407 5.07817C44.3957 3.78799 37.0632 3 29 3V5ZM1 11C1 10.6226 1.34703 9.95851 2.77462 9.14381C4.1249 8.37322 6.14525 7.64589 8.72854 7.02233C13.8794 5.77902 21.0469 5 29 5V3C20.9368 3 13.6043 3.78799 8.25926 5.07817C5.59459 5.72137 3.36798 6.50241 1.78331 7.40676C0.275941 8.267 -1 9.44436 -1 11H1ZM1 37V11H-1V37H1ZM29 43C21.0469 43 13.8794 42.221 8.72854 40.9777C6.14525 40.3541 4.1249 39.6268 2.77462 38.8562C1.34703 38.0415 1 37.3774 1 37H-1C-1 38.5556 0.275941 39.733 1.78331 40.5932C3.36798 41.4976 5.59459 42.2786 8.25926 42.9218C13.6043 44.212 20.9368 45 29 45V43ZM57 37C57 37.3774 56.653 38.0415 55.2254 38.8562C53.8751 39.6268 51.8548 40.3541 49.2715 40.9777C44.1206 42.221 36.9531 43 29 43V45C37.0632 45 44.3957 44.212 49.7407 42.9218C52.4054 42.2786 54.632 41.4976 56.2167 40.5932C57.7241 39.733 59 38.5556 59 37H57Z" fill="#EEBE74" mask="url(#path-1-inside-1_450_1483)"/>
<path d="M4.0415 39.8633L4.0415 22.0714" stroke="#EEBE74" stroke-width="0.75" stroke-linecap="round"/>
<path d="M9.04785 41.5425L9.04789 36.1889" stroke="#EEBE74" stroke-width="0.75" stroke-linecap="round"/>
<path d="M14.0039 42.4528L14.0039 37.0416" stroke="#EEBE74" stroke-width="0.75" stroke-linecap="round"/>
<path d="M19 43.0091L19 37.9518" stroke="#EEBE74" stroke-width="0.75" stroke-linecap="round"/>
<path d="M24.0571 43.009L24.0572 39.0645" stroke="#EEBE74" stroke-width="0.75" stroke-linecap="round"/>
<path d="M29 43.009L29 39.9748" stroke="#EEBE74" stroke-width="0.75" stroke-linecap="round"/>
<path d="M34.0947 43.009L34.0948 39.0645" stroke="#EEBE74" stroke-width="0.75" stroke-linecap="round"/>
<path d="M39.0772 43.0091L39.0771 37.9518" stroke="#EEBE74" stroke-width="0.75" stroke-linecap="round"/>
<path d="M44.0435 42.4528L44.0435 37.0416" stroke="#EEBE74" stroke-width="0.75" stroke-linecap="round"/>
<path d="M48.9995 41.5425L48.9995 36.1889" stroke="#EEBE74" stroke-width="0.75" stroke-linecap="round"/>
<path d="M54.0581 39.8633L54.0581 22.1139" stroke="#EEBE74" stroke-width="0.75" stroke-linecap="round"/>
<path d="M57.5 37C57.5 37.6318 56.9715 38.413 55.5408 39.2468C54.1435 40.061 52.0606 40.8188 49.3888 41.4637C46.7232 42.1071 43.5496 42.6195 40.0481 42.9696C36.5474 43.3196 32.793 43.5 29 43.5C25.207 43.5 21.4526 43.3196 17.9519 42.9696C14.4504 42.6195 11.2768 42.1071 8.61122 41.4637C5.93939 40.8188 3.85649 40.061 2.45924 39.2468C1.02849 38.413 0.5 37.6318 0.5 37" stroke="#EEBE74"/>
<path d="M57.5 11C57.5 11.6719 56.9207 12.4644 55.4732 13.2905C54.0643 14.0945 51.9924 14.8352 49.3888 15.4637C44.1894 16.7187 36.9806 17.5 29 17.5C21.0194 17.5 13.8107 16.7187 8.61122 15.4637C6.00759 14.8352 3.93567 14.0945 2.52679 13.2905C1.07926 12.4644 0.5 11.6719 0.5 11C0.5 10.3281 1.07926 9.53563 2.52679 8.70954C3.93567 7.90552 6.00759 7.16476 8.61122 6.53629C13.8107 5.28126 21.0194 4.5 29 4.5C36.9806 4.5 44.1894 5.28126 49.3888 6.53629C51.9924 7.16476 54.0643 7.90552 55.4732 8.70954C56.9207 9.53563 57.5 10.3281 57.5 11Z" stroke="#EEBE74"/>
<path d="M5.8754 7.30111C9.41872 6.14983 14.3893 5.2858 20.1029 4.83909" stroke="#FFE1B4"/>
<path d="M51.0871 15.0161C48.3998 15.79 45.0284 16.4161 41.2071 16.8465C37.3875 17.2767 33.2204 17.5 29 17.5" stroke="#FFE1B4"/>
<path fill-rule="evenodd" clip-rule="evenodd" d="M28.5013 2C26.7617 1.99985 25.1069 2.31408 23.773 2.86014C22.4169 3.41529 21.6124 4.11572 21.25 4.70939C20.9379 5.2207 20.9317 5.66104 21.156 6.11968C21.3556 6.52783 21.7803 7.01792 22.5029 7.4861C22.9664 7.78641 23.1893 8.37297 22.9554 8.87329L22.5319 9.77919C21.0026 9.06428 19.8945 8.09259 19.3593 6.99833C18.8242 5.90422 18.8879 4.74043 19.5429 3.66733C20.1975 2.59493 21.4105 1.66616 23.0153 1.00923C24.6197 0.352433 26.5364 -0.000173862 28.5015 6.4312e-08C30.4665 0.000174169 32.383 0.353121 33.9871 1.0102C35.5915 1.66742 36.804 2.5964 37.4581 3.66892C38.1125 4.74213 38.1755 5.90593 37.6399 6.99995C37.1042 8.09412 35.9955 9.06561 34.4658 9.78025L34.0426 8.87424C33.8088 8.37387 34.0319 7.78735 34.4954 7.48719C35.2185 7.01903 35.6437 6.52883 35.8436 6.12047C36.0683 5.66159 36.0622 5.22129 35.7505 4.71024C35.3886 4.11675 34.5847 3.4163 33.229 2.86094C31.8954 2.31469 30.2409 2.00015 28.5013 2Z" fill="#FFE1B4"/>
<path d="M22.867 9.38287C21.3685 8.70697 20.3327 7.80256 19.8377 6.83695C19.3547 5.89486 19.3885 4.90388 19.9479 3.96393C20.5202 3.00251 21.6306 2.12056 23.1817 1.48141C24.727 0.844646 26.5929 0.497994 28.5167 0.500009C30.4404 0.502023 32.304 0.852586 33.845 1.49246C35.3918 2.13475 36.4961 3.01866 37.0619 3.98052C37.6149 4.92071 37.6431 5.91167 37.1537 6.85362C36.6522 7.81898 35.6102 8.7216 34.1072 9.3945" stroke="#EEBE74"/>
<path d="M9.616 31.8348L10.47 31.7088V25.8288L9.462 25.5768V24.8208L11.464 24.5688L11.716 24.7508L11.8 25.3108L11.786 25.7588C12.1127 25.4601 12.556 25.1894 13.116 24.9468C13.6853 24.6948 14.194 24.5688 14.642 24.5688C15.146 24.5688 15.552 24.6528 15.86 24.8208C16.168 24.9888 16.4013 25.2501 16.56 25.6048C16.8587 25.3528 17.274 25.1194 17.806 24.9048C18.3473 24.6808 18.8513 24.5688 19.318 24.5688C19.8967 24.5688 20.3493 24.6808 20.676 24.9048C21.0027 25.1194 21.2313 25.4601 21.362 25.9268C21.502 26.3841 21.572 27.0001 21.572 27.7748V31.7088L22.58 31.8348V32.5208H19.248V31.8348L20.116 31.7088V27.8168C20.116 27.2754 20.074 26.8461 19.99 26.5288C19.9153 26.2021 19.766 25.9594 19.542 25.8008C19.3273 25.6421 19.0147 25.5628 18.604 25.5628C18.296 25.5628 17.9693 25.6328 17.624 25.7728C17.2787 25.9034 16.9847 26.0621 16.742 26.2488C16.826 26.6128 16.868 27.1308 16.868 27.8028V31.7088L17.862 31.8348V32.5208H14.474V31.8348L15.398 31.7088V27.7888C15.398 27.2288 15.3607 26.7948 15.286 26.4868C15.2207 26.1788 15.09 25.9501 14.894 25.8008C14.698 25.6421 14.3993 25.5628 13.998 25.5628C13.662 25.5628 13.3027 25.6468 12.92 25.8148C12.5467 25.9828 12.22 26.1788 11.94 26.4028V31.7088L12.878 31.8348V32.5208H9.616V31.8348ZM26.8656 32.6748C25.7363 32.6748 24.873 32.3061 24.2756 31.5688C23.6876 30.8314 23.3936 29.8468 23.3936 28.6148C23.3936 27.8028 23.5476 27.0888 23.8556 26.4728C24.1636 25.8568 24.593 25.3808 25.1436 25.0448C25.7036 24.7088 26.3383 24.5408 27.0476 24.5408C27.9156 24.5408 28.5876 24.7834 29.0636 25.2688C29.549 25.7448 29.8056 26.4308 29.8336 27.3268C29.8336 27.8961 29.801 28.3301 29.7356 28.6288H24.9196C24.9383 29.5528 25.153 30.2994 25.5636 30.8688C25.9743 31.4288 26.5576 31.7088 27.3136 31.7088C27.687 31.7088 28.0743 31.6434 28.4756 31.5128C28.8863 31.3728 29.2036 31.2094 29.4276 31.0228L29.6936 31.6388C29.423 31.9188 29.0216 32.1614 28.4896 32.3668C27.9576 32.5721 27.4163 32.6748 26.8656 32.6748ZM28.2936 27.8868C28.3216 27.6908 28.3356 27.4901 28.3356 27.2848C28.3263 26.6781 28.1956 26.2021 27.9436 25.8568C27.701 25.5021 27.3136 25.3248 26.7816 25.3248C26.2403 25.3248 25.8063 25.5208 25.4796 25.9128C25.1623 26.3048 24.9803 26.9628 24.9336 27.8868H28.2936ZM31.7369 25.8288L30.7289 25.5768V24.8208L32.7309 24.5688H32.7729L33.0669 24.8208V25.4088L33.0529 25.7448C33.3889 25.4461 33.8322 25.1754 34.3829 24.9328C34.9335 24.6901 35.4609 24.5688 35.9649 24.5688C36.5529 24.5688 37.0055 24.6808 37.3229 24.9048C37.6495 25.1288 37.8782 25.4741 38.0089 25.9408C38.1395 26.3981 38.2049 27.0188 38.2049 27.8028V31.7228L39.1849 31.8208V32.5208H35.8669V31.8348L36.7349 31.7228V27.7888C36.7349 27.2381 36.6975 26.8088 36.6229 26.5008C36.5482 26.1834 36.4082 25.9501 36.2029 25.8008C35.9975 25.6421 35.6989 25.5628 35.3069 25.5628C34.9709 25.5628 34.6115 25.6468 34.2289 25.8148C33.8462 25.9828 33.5055 26.1788 33.2069 26.4028V31.7088L34.1589 31.8348V32.5208H30.8549V31.8348L31.7369 31.7088V25.8288ZM46.4237 32.6468C46.1624 32.6468 45.9664 32.5954 45.8358 32.4928C45.7144 32.3901 45.6538 32.2221 45.6538 31.9888V31.5128C45.3458 31.8208 44.9584 32.0914 44.4918 32.3248C44.0344 32.5581 43.5724 32.6748 43.1058 32.6748C42.2377 32.6748 41.6217 32.4414 41.2578 31.9748C40.8938 31.5081 40.7118 30.7381 40.7118 29.6648V25.6048L39.9277 25.3808V24.7648L41.8878 24.5828H41.9017L42.1678 24.7508V29.5528C42.1678 30.0941 42.2051 30.5188 42.2798 30.8268C42.3638 31.1254 42.5038 31.3494 42.6998 31.4988C42.9051 31.6388 43.1991 31.7088 43.5818 31.7088C43.9551 31.7088 44.3051 31.6294 44.6318 31.4708C44.9584 31.3121 45.2431 31.1254 45.4858 30.9108V25.6048L44.4778 25.3808V24.7648L46.6058 24.5828H46.6197L46.9417 24.7508V31.8068H47.7817L47.7678 32.4368C47.5064 32.5021 47.2778 32.5534 47.0818 32.5908C46.8951 32.6281 46.6758 32.6468 46.4237 32.6468Z" fill="#262626"/>
<circle cx="22.8447" cy="9.37927" r="0.5" fill="#EEBE74"/>
<circle cx="29" cy="17.5" r="0.5" fill="#FFE1B4"/>
<circle cx="5.90723" cy="7.29065" r="0.5" fill="#FFE1B4"/>
<circle cx="51.0898" cy="15.0171" r="0.5" fill="#FFE1B4"/>
<circle cx="34.0947" cy="9.40271" r="0.5" fill="#EEBE74"/>
</svg>
