<svg width="84" height="64" viewBox="0 0 84 64" fill="none" xmlns="http://www.w3.org/2000/svg">
<path fill-rule="evenodd" clip-rule="evenodd" d="M32.572 2.83457C34.9724 1.80579 37.3712 1.09312 41.9375 1.00846C46.5038 1.09312 48.9026 1.80579 51.303 2.83457C51.8131 3.05316 52.3149 3.2897 52.8277 3.53144C54.8958 4.50631 57.1434 5.56576 60.8335 5.87327C62.8327 6.03987 64.037 6.65995 64.8276 7.37632C65.6089 8.08425 66.0246 8.91652 66.3961 9.66027L66.4278 9.72361L66.5229 9.91381L66.7259 9.97724C69.655 10.8926 70.7833 11.8699 71.5091 12.9639C71.821 13.4339 72.0625 13.9298 72.339 14.4977L72.3391 14.4979L72.3391 14.4979C72.4008 14.6246 72.4643 14.755 72.5307 14.8894C72.8892 15.6153 73.3152 16.4203 73.975 17.3C74.5852 18.1136 75.5684 18.9693 76.5889 19.8576L76.589 19.8576C76.7329 19.9829 76.8775 20.1087 77.0219 20.2352C78.218 21.2828 79.4431 22.4055 80.3431 23.6656C82.0605 26.0699 82.8219 28.534 82.8723 32C82.8219 35.466 82.0605 37.9301 80.3431 40.3344C79.4431 41.5945 78.218 42.7172 77.0219 43.7648C76.8775 43.8913 76.7329 44.0171 76.589 44.1424L76.5889 44.1424C75.5684 45.0307 74.5852 45.8864 73.975 46.7C73.3152 47.5797 72.8892 48.3847 72.5307 49.1106C72.4972 49.1784 72.4645 49.2452 72.4323 49.311C72.4007 49.3756 72.3697 49.4393 72.3391 49.5021C72.0625 50.0701 71.821 50.566 71.5091 51.0361C70.7833 52.1301 69.655 53.1074 66.7259 54.0228L66.5229 54.0862L66.4278 54.2764L66.3961 54.3397C66.0246 55.0835 65.6089 55.9158 64.8276 56.6237C64.037 57.34 62.8327 57.9601 60.8335 58.1267C57.1434 58.4342 54.8958 59.4937 52.8277 60.4686C52.3149 60.7103 51.8131 60.9468 51.303 61.1654C48.9026 62.1942 46.5038 62.9069 41.9375 62.9915C37.3712 62.9069 34.9724 62.1942 32.572 61.1654C32.0621 60.9469 31.5604 60.7104 31.0477 60.4687L31.0475 60.4687L31.0474 60.4686L31.0473 60.4686C28.9792 59.4937 26.7316 58.4342 23.0415 58.1267C21.0423 57.9601 19.838 57.34 19.0474 56.6237C18.2661 55.9158 17.8504 55.0835 17.4789 54.3397L17.4472 54.2764L17.3521 54.0862L17.1491 54.0228C14.22 53.1074 13.0917 52.1301 12.3659 51.0361C12.054 50.566 11.8125 50.0701 11.5359 49.5021L11.5356 49.5016C11.474 49.3751 11.4106 49.2449 11.3443 49.1106C10.9858 48.3847 10.5598 47.5797 9.9 46.7C9.28978 45.8864 8.30659 45.0306 7.28604 44.1424L7.28602 44.1424L7.28543 44.1419C7.14174 44.0168 6.9973 43.8911 6.85307 43.7648C5.657 42.7172 4.43194 41.5945 3.53187 40.3344C1.81453 37.9301 1.05313 35.466 1.00269 32C1.05313 28.534 1.81453 26.0699 3.53187 23.6656C4.43194 22.4055 5.657 21.2828 6.85307 20.2352C6.9975 20.1087 7.14213 19.9829 7.28602 19.8576C8.30657 18.9694 9.28977 18.1136 9.9 17.3C10.5598 16.4203 10.9858 15.6153 11.3443 14.8894C11.4104 14.7555 11.4736 14.6257 11.5351 14.4994L11.5357 14.4982L11.5359 14.4979C11.8125 13.9299 12.054 13.434 12.3659 12.9639C13.0917 11.8699 14.22 10.8926 17.1491 9.97724L17.3521 9.91381L17.4472 9.72361L17.4789 9.66027C17.8504 8.91652 18.2661 8.08425 19.0474 7.37632C19.838 6.65995 21.0423 6.03987 23.0415 5.87327C26.7316 5.56576 28.9792 4.50631 31.0473 3.53144C31.5601 3.2897 32.0619 3.05316 32.572 2.83457ZM41.9375 63.9917C42.2408 63.9972 42.5531 64 42.875 64V63.965C46.9873 63.8033 49.3429 63.0935 51.697 62.0846C52.2456 61.8494 52.7716 61.6019 53.2989 61.3539L53.2994 61.3536C55.3505 60.3886 57.4206 59.4146 60.9165 59.1233C63.1028 58.9411 64.5235 58.2487 65.499 57.3647C66.3822 56.5645 66.8678 55.6327 67.2279 54.9126C70.1555 53.9689 71.471 52.9023 72.3424 51.5889C72.6945 51.0583 72.9708 50.4902 73.2486 49.919C73.3079 49.7972 73.3672 49.6752 73.4273 49.5534C73.7749 48.8497 74.1692 48.1078 74.775 47.3C75.3164 46.5782 76.2076 45.8015 77.2455 44.897L77.2456 44.8969L77.2474 44.8954C77.3893 44.7717 77.5339 44.6457 77.6808 44.517C78.8755 43.4707 80.1819 42.2805 81.1569 40.9156C82.9497 38.4056 83.7641 35.8271 83.8644 32.375H83.875C83.875 32.2489 83.8741 32.1239 83.8724 32C83.8741 31.8761 83.875 31.7511 83.875 31.625H83.8644C83.7641 28.1729 82.9497 25.5944 81.1569 23.0844C80.1819 21.7195 78.8755 20.5293 77.6808 19.483C77.5339 19.3543 77.3893 19.2283 77.2473 19.1046L77.2456 19.103C76.2076 18.1985 75.3164 17.4218 74.775 16.7C74.1692 15.8922 73.7749 15.1503 73.4273 14.4466C73.3679 14.3262 73.3092 14.2057 73.2507 14.0853L73.2486 14.081C72.9708 13.5098 72.6945 12.9417 72.3424 12.4111C71.471 11.0977 70.1555 10.0311 67.2279 9.08743C66.8678 8.36727 66.3822 7.4355 65.499 6.63528C64.5235 5.75134 63.1028 5.05892 60.9165 4.87673C57.4206 4.5854 55.3505 3.61141 53.2994 2.64635L53.2991 2.64625C52.7718 2.39813 52.2457 2.1506 51.697 1.91543C49.3429 0.906538 46.9873 0.196701 42.875 0.0350099V0C42.5531 0 42.2408 0.00279789 41.9375 0.008311C41.6342 0.00279789 41.3219 0 41 0V0.0350099C36.8877 0.196701 34.5321 0.906538 32.178 1.91543C31.6292 2.15063 31.1031 2.39819 30.5757 2.64633L30.5756 2.64635C28.5245 3.61141 26.4544 4.5854 22.9585 4.87673C20.7722 5.05892 19.3515 5.75134 18.376 6.63528C17.4928 7.4355 17.0072 8.36727 16.6471 9.08743C13.7195 10.0311 12.404 11.0977 11.5326 12.4111C11.1805 12.9417 10.9042 13.5098 10.6264 14.081L10.6263 14.0812C10.5671 14.2029 10.5078 14.3248 10.4477 14.4466C10.1001 15.1503 9.70583 15.8922 9.1 16.7C8.55862 17.4218 7.6674 18.1985 6.62943 19.103C6.48694 19.2272 6.3417 19.3538 6.19421 19.483C4.99952 20.5293 3.69306 21.7195 2.71813 23.0844C0.925277 25.5944 0.110878 28.1729 0.0106441 31.625H0C0 31.7511 0.000863123 31.8761 0.00260093 32C0.000863123 32.1239 0 32.2489 0 32.375H0.0106441C0.110878 35.8271 0.925277 38.4056 2.71813 40.9156C3.69306 42.2805 4.99952 43.4707 6.19421 44.517C6.3417 44.6462 6.48694 44.7728 6.62943 44.8969L6.6295 44.897C7.66744 45.8015 8.55863 46.5782 9.1 47.3C9.70583 48.1078 10.1001 48.8497 10.4477 49.5534C10.5078 49.6752 10.5671 49.7972 10.6264 49.919C10.9042 50.4902 11.1805 51.0583 11.5326 51.5889C12.404 52.9023 13.7195 53.9689 16.6471 54.9126C17.0072 55.6327 17.4928 56.5645 18.376 57.3647C19.3515 58.2487 20.7722 58.9411 22.9585 59.1233C26.4544 59.4146 28.5245 60.3886 30.5756 61.3536L30.5759 61.3538L30.576 61.3538L30.5761 61.3539C31.1034 61.602 31.6294 61.8494 32.178 62.0846C34.5321 63.0935 36.8877 63.8033 41 63.965V64C41.3219 64 41.6342 63.9972 41.9375 63.9917Z" fill="#9C8B6D"/>
<path d="M41.75 55.375C50.7452 55.375 58.9104 52.8321 64.8403 48.695C70.7684 44.559 74.5 38.7969 74.5 32.375C74.5 25.9531 70.7684 20.191 64.8403 16.055C58.9104 11.9179 50.7452 9.375 41.75 9.375C32.7548 9.375 24.5896 11.9179 18.6597 16.055C12.7316 20.191 9 25.9531 9 32.375C9 38.7969 12.7316 44.559 18.6597 48.695C24.5896 52.8321 32.7548 55.375 41.75 55.375Z" stroke="#D5CAAD"/>
<path d="M71 32.375C71 43.5588 57.9043 51.8751 41.75 51.8751C25.5957 51.8751 12.5 43.5588 12.5 32.375C12.5 21.1913 25.5957 12.8755 41.75 12.8755C57.9043 12.8755 71 21.1913 71 32.375Z" fill="#F5F1E6"/>
<path d="M19.704 36.216L20.68 36.072V29.352L19.528 29.064V28.2L21.816 27.912L22.104 28.12L22.2 28.76L22.184 29.272C22.5573 28.9307 23.064 28.6213 23.704 28.344C24.3547 28.056 24.936 27.912 25.448 27.912C26.024 27.912 26.488 28.008 26.84 28.2C27.192 28.392 27.4587 28.6907 27.64 29.096C27.9813 28.808 28.456 28.5413 29.064 28.296C29.6827 28.04 30.2587 27.912 30.792 27.912C31.4533 27.912 31.9707 28.04 32.344 28.296C32.7173 28.5413 32.9787 28.9307 33.128 29.464C33.288 29.9867 33.368 30.6907 33.368 31.576V36.072L34.52 36.216V37H30.712V36.216L31.704 36.072V31.624C31.704 31.0053 31.656 30.5147 31.56 30.152C31.4747 29.7787 31.304 29.5013 31.048 29.32C30.8027 29.1387 30.4453 29.048 29.976 29.048C29.624 29.048 29.2507 29.128 28.856 29.288C28.4613 29.4373 28.1253 29.6187 27.848 29.832C27.944 30.248 27.992 30.84 27.992 31.608V36.072L29.128 36.216V37H25.256V36.216L26.312 36.072V31.592C26.312 30.952 26.2693 30.456 26.184 30.104C26.1093 29.752 25.96 29.4907 25.736 29.32C25.512 29.1387 25.1707 29.048 24.712 29.048C24.328 29.048 23.9173 29.144 23.48 29.336C23.0533 29.528 22.68 29.752 22.36 30.008V36.072L23.432 36.216V37H19.704V36.216ZM39.4179 37.176C38.1272 37.176 37.1405 36.7547 36.4579 35.912C35.7859 35.0693 35.4499 33.944 35.4499 32.536C35.4499 31.608 35.6259 30.792 35.9779 30.088C36.3299 29.384 36.8205 28.84 37.4499 28.456C38.0899 28.072 38.8152 27.88 39.6259 27.88C40.6179 27.88 41.3859 28.1573 41.9299 28.712C42.4845 29.256 42.7779 30.04 42.8099 31.064C42.8099 31.7147 42.7725 32.2107 42.6979 32.552H37.1939C37.2152 33.608 37.4605 34.4613 37.9299 35.112C38.3992 35.752 39.0659 36.072 39.9299 36.072C40.3565 36.072 40.7992 35.9973 41.2579 35.848C41.7272 35.688 42.0899 35.5013 42.3459 35.288L42.6499 35.992C42.3405 36.312 41.8819 36.5893 41.2739 36.824C40.6659 37.0587 40.0472 37.176 39.4179 37.176ZM41.0499 31.704C41.0819 31.48 41.0979 31.2507 41.0979 31.016C41.0872 30.3227 40.9379 29.7787 40.6499 29.384C40.3725 28.9787 39.9299 28.776 39.3219 28.776C38.7032 28.776 38.2072 29 37.8339 29.448C37.4712 29.896 37.2632 30.648 37.2099 31.704H41.0499ZM44.985 29.352L43.833 29.064V28.2L46.121 27.912H46.169L46.505 28.2V28.872L46.489 29.256C46.873 28.9147 47.3797 28.6053 48.009 28.328C48.6383 28.0507 49.241 27.912 49.817 27.912C50.489 27.912 51.0063 28.04 51.369 28.296C51.7423 28.552 52.0037 28.9467 52.153 29.48C52.3023 30.0027 52.377 30.712 52.377 31.608V36.088L53.497 36.2V37H49.705V36.216L50.697 36.088V31.592C50.697 30.9627 50.6543 30.472 50.569 30.12C50.4837 29.7573 50.3237 29.4907 50.089 29.32C49.8543 29.1387 49.513 29.048 49.065 29.048C48.681 29.048 48.2703 29.144 47.833 29.336C47.3957 29.528 47.0063 29.752 46.665 30.008V36.072L47.753 36.216V37H43.977V36.216L44.985 36.072V29.352ZM61.77 37.144C61.4713 37.144 61.2473 37.0853 61.098 36.968C60.9593 36.8507 60.89 36.6587 60.89 36.392V35.848C60.538 36.2 60.0953 36.5093 59.562 36.776C59.0393 37.0427 58.5113 37.176 57.978 37.176C56.986 37.176 56.282 36.9093 55.866 36.376C55.45 35.8427 55.242 34.9627 55.242 33.736V29.096L54.346 28.84V28.136L56.586 27.928H56.602L56.906 28.12V33.608C56.906 34.2267 56.9487 34.712 57.034 35.064C57.13 35.4053 57.29 35.6613 57.514 35.832C57.7487 35.992 58.0847 36.072 58.522 36.072C58.9487 36.072 59.3487 35.9813 59.722 35.8C60.0953 35.6187 60.4207 35.4053 60.698 35.16V29.096L59.546 28.84V28.136L61.978 27.928H61.994L62.362 28.12V36.184H63.322L63.306 36.904C63.0073 36.9787 62.746 37.0373 62.522 37.08C62.3087 37.1227 62.058 37.144 61.77 37.144Z" fill="#262626"/>
</svg>
