<svg width="58" height="44" viewBox="0 0 58 44" fill="none" xmlns="http://www.w3.org/2000/svg">
<mask id="path-1-inside-1_451_2146" fill="white">
<path fill-rule="evenodd" clip-rule="evenodd" d="M58 37V11C58 7.13401 45.0163 4 29 4C12.9837 4 0 7.13401 0 11V37C0 40.866 12.9837 44 29 44C45.0163 44 58 40.866 58 37Z"/>
</mask>
<path d="M57 11V37H59V11H57ZM29 5C36.9531 5 44.1206 5.77902 49.2715 7.02233C51.8548 7.64589 53.8751 8.37322 55.2254 9.14381C56.653 9.95851 57 10.6226 57 11H59C59 9.44436 57.7241 8.267 56.2167 7.40676C54.632 6.50241 52.4054 5.72137 49.7407 5.07817C44.3957 3.78799 37.0632 3 29 3V5ZM1 11C1 10.6226 1.34703 9.95851 2.77462 9.14381C4.1249 8.37322 6.14525 7.64589 8.72854 7.02233C13.8794 5.77902 21.0469 5 29 5V3C20.9368 3 13.6043 3.78799 8.25926 5.07817C5.59459 5.72137 3.36798 6.50241 1.78331 7.40676C0.275941 8.267 -1 9.44436 -1 11H1ZM1 37V11H-1V37H1ZM29 43C21.0469 43 13.8794 42.221 8.72854 40.9777C6.14525 40.3541 4.1249 39.6268 2.77462 38.8562C1.34703 38.0415 1 37.3774 1 37H-1C-1 38.5556 0.275941 39.733 1.78331 40.5932C3.36798 41.4976 5.59459 42.2786 8.25926 42.9218C13.6043 44.212 20.9368 45 29 45V43ZM57 37C57 37.3774 56.653 38.0415 55.2254 38.8562C53.8751 39.6268 51.8548 40.3541 49.2715 40.9777C44.1206 42.221 36.9531 43 29 43V45C37.0632 45 44.3957 44.212 49.7407 42.9218C52.4054 42.2786 54.632 41.4976 56.2167 40.5932C57.7241 39.733 59 38.5556 59 37H57Z" fill="#8F8875" mask="url(#path-1-inside-1_451_2146)"/>
<path d="M4.0415 39.8633L4.0415 22.0714" stroke="#F5F1E6" stroke-width="0.75" stroke-linecap="round"/>
<path d="M9.04785 41.5425L9.04789 36.1889" stroke="#F5F1E6" stroke-width="0.75" stroke-linecap="round"/>
<path d="M14.0039 42.4528L14.0039 37.0416" stroke="#F5F1E6" stroke-width="0.75" stroke-linecap="round"/>
<path d="M19 43.0091L19 37.9518" stroke="#F5F1E6" stroke-width="0.75" stroke-linecap="round"/>
<path d="M24.0571 43.009L24.0572 39.0645" stroke="#F5F1E6" stroke-width="0.75" stroke-linecap="round"/>
<path d="M29 43.009L29 39.9748" stroke="#F5F1E6" stroke-width="0.75" stroke-linecap="round"/>
<path d="M34.0947 43.009L34.0948 39.0645" stroke="#F5F1E6" stroke-width="0.75" stroke-linecap="round"/>
<path d="M39.0772 43.0091L39.0771 37.9518" stroke="#F5F1E6" stroke-width="0.75" stroke-linecap="round"/>
<path d="M44.0435 42.4528L44.0435 37.0416" stroke="#F5F1E6" stroke-width="0.75" stroke-linecap="round"/>
<path d="M48.9995 41.5425L48.9995 36.1889" stroke="#F5F1E6" stroke-width="0.75" stroke-linecap="round"/>
<path d="M54.0581 39.8633L54.0581 22.1139" stroke="#F5F1E6" stroke-width="0.75" stroke-linecap="round"/>
<path d="M57.5 37C57.5 37.6318 56.9715 38.413 55.5408 39.2468C54.1435 40.061 52.0606 40.8188 49.3888 41.4637C46.7232 42.1071 43.5496 42.6195 40.0481 42.9696C36.5474 43.3196 32.793 43.5 29 43.5C25.207 43.5 21.4526 43.3196 17.9519 42.9696C14.4504 42.6195 11.2768 42.1071 8.61122 41.4637C5.93939 40.8188 3.85649 40.061 2.45924 39.2468C1.02849 38.413 0.5 37.6318 0.5 37" stroke="#8F8875"/>
<path d="M57.5 11C57.5 11.6719 56.9207 12.4644 55.4732 13.2905C54.0643 14.0945 51.9924 14.8352 49.3888 15.4637C44.1894 16.7187 36.9806 17.5 29 17.5C21.0194 17.5 13.8107 16.7187 8.61122 15.4637C6.00759 14.8352 3.93567 14.0945 2.52679 13.2905C1.07926 12.4644 0.5 11.6719 0.5 11C0.5 10.3281 1.07926 9.53563 2.52679 8.70954C3.93567 7.90552 6.00759 7.16476 8.61122 6.53629C13.8107 5.28126 21.0194 4.5 29 4.5C36.9806 4.5 44.1894 5.28126 49.3888 6.53629C51.9924 7.16476 54.0643 7.90552 55.4732 8.70954C56.9207 9.53563 57.5 10.3281 57.5 11Z" stroke="#8F8875"/>
<path d="M5.8754 7.30111C9.41872 6.14983 14.3893 5.2858 20.1029 4.83909" stroke="#FFE1B4"/>
<path d="M51.0871 15.0161C48.3998 15.79 45.0284 16.4161 41.2071 16.8465C37.3875 17.2767 33.2204 17.5 29 17.5" stroke="#FFE1B4"/>
<path fill-rule="evenodd" clip-rule="evenodd" d="M28.5013 2C26.7617 1.99985 25.1069 2.31408 23.773 2.86014C22.4169 3.41529 21.6124 4.11572 21.25 4.70939C20.9379 5.2207 20.9317 5.66104 21.156 6.11968C21.3556 6.52783 21.7803 7.01792 22.5029 7.4861C22.9664 7.78641 23.1893 8.37297 22.9554 8.87329L22.5319 9.77919C21.0026 9.06428 19.8945 8.09259 19.3593 6.99833C18.8242 5.90422 18.8879 4.74043 19.5429 3.66733C20.1975 2.59493 21.4105 1.66616 23.0153 1.00923C24.6197 0.352433 26.5364 -0.000173862 28.5015 6.4312e-08C30.4665 0.000174169 32.383 0.353121 33.9871 1.0102C35.5915 1.66742 36.804 2.5964 37.4581 3.66892C38.1125 4.74213 38.1755 5.90593 37.6399 6.99995C37.1042 8.09412 35.9955 9.06561 34.4658 9.78025L34.0426 8.87424C33.8088 8.37387 34.0319 7.78735 34.4954 7.48719C35.2185 7.01903 35.6437 6.52883 35.8436 6.12047C36.0683 5.66159 36.0622 5.22129 35.7505 4.71024C35.3886 4.11675 34.5847 3.4163 33.229 2.86094C31.8954 2.31469 30.2409 2.00015 28.5013 2Z" fill="#F5F1E6"/>
<path d="M22.867 9.38287C21.3685 8.70697 20.3327 7.80256 19.8377 6.83695C19.3547 5.89486 19.3885 4.90388 19.9479 3.96393C20.5202 3.00251 21.6306 2.12056 23.1817 1.48141C24.727 0.844646 26.5929 0.497994 28.5167 0.500009C30.4404 0.502023 32.304 0.852586 33.845 1.49246C35.3918 2.13475 36.4961 3.01866 37.0619 3.98052C37.6149 4.92071 37.6431 5.91167 37.1537 6.85362C36.6522 7.81898 35.6102 8.7216 34.1072 9.3945" stroke="#8F8875"/>
<path d="M9.616 31.834L10.47 31.708V25.828L9.462 25.576V24.82L11.464 24.568L11.716 24.75L11.8 25.31L11.786 25.758C12.1127 25.4594 12.556 25.1887 13.116 24.946C13.6853 24.694 14.194 24.568 14.642 24.568C15.146 24.568 15.552 24.652 15.86 24.82C16.168 24.988 16.4013 25.2494 16.56 25.604C16.8587 25.352 17.274 25.1187 17.806 24.904C18.3473 24.68 18.8513 24.568 19.318 24.568C19.8967 24.568 20.3493 24.68 20.676 24.904C21.0027 25.1187 21.2313 25.4594 21.362 25.926C21.502 26.3834 21.572 26.9994 21.572 27.774V31.708L22.58 31.834V32.52H19.248V31.834L20.116 31.708V27.816C20.116 27.2747 20.074 26.8454 19.99 26.528C19.9153 26.2014 19.766 25.9587 19.542 25.8C19.3273 25.6414 19.0147 25.562 18.604 25.562C18.296 25.562 17.9693 25.632 17.624 25.772C17.2787 25.9027 16.9847 26.0614 16.742 26.248C16.826 26.612 16.868 27.13 16.868 27.802V31.708L17.862 31.834V32.52H14.474V31.834L15.398 31.708V27.788C15.398 27.228 15.3607 26.794 15.286 26.486C15.2207 26.178 15.09 25.9494 14.894 25.8C14.698 25.6414 14.3993 25.562 13.998 25.562C13.662 25.562 13.3027 25.646 12.92 25.814C12.5467 25.982 12.22 26.178 11.94 26.402V31.708L12.878 31.834V32.52H9.616V31.834ZM26.8656 32.674C25.7363 32.674 24.873 32.3054 24.2756 31.568C23.6876 30.8307 23.3936 29.846 23.3936 28.614C23.3936 27.802 23.5476 27.088 23.8556 26.472C24.1636 25.856 24.593 25.38 25.1436 25.044C25.7036 24.708 26.3383 24.54 27.0476 24.54C27.9156 24.54 28.5876 24.7827 29.0636 25.268C29.549 25.744 29.8056 26.43 29.8336 27.326C29.8336 27.8954 29.801 28.3294 29.7356 28.628H24.9196C24.9383 29.552 25.153 30.2987 25.5636 30.868C25.9743 31.428 26.5576 31.708 27.3136 31.708C27.687 31.708 28.0743 31.6427 28.4756 31.512C28.8863 31.372 29.2036 31.2087 29.4276 31.022L29.6936 31.638C29.423 31.918 29.0216 32.1607 28.4896 32.366C27.9576 32.5714 27.4163 32.674 26.8656 32.674ZM28.2936 27.886C28.3216 27.69 28.3356 27.4894 28.3356 27.284C28.3263 26.6774 28.1956 26.2014 27.9436 25.856C27.701 25.5014 27.3136 25.324 26.7816 25.324C26.2403 25.324 25.8063 25.52 25.4796 25.912C25.1623 26.304 24.9803 26.962 24.9336 27.886H28.2936ZM31.7369 25.828L30.7289 25.576V24.82L32.7309 24.568H32.7729L33.0669 24.82V25.408L33.0529 25.744C33.3889 25.4454 33.8322 25.1747 34.3829 24.932C34.9335 24.6894 35.4609 24.568 35.9649 24.568C36.5529 24.568 37.0055 24.68 37.3229 24.904C37.6495 25.128 37.8782 25.4734 38.0089 25.94C38.1395 26.3974 38.2049 27.018 38.2049 27.802V31.722L39.1849 31.82V32.52H35.8669V31.834L36.7349 31.722V27.788C36.7349 27.2374 36.6975 26.808 36.6229 26.5C36.5482 26.1827 36.4082 25.9494 36.2029 25.8C35.9975 25.6414 35.6989 25.562 35.3069 25.562C34.9709 25.562 34.6115 25.646 34.2289 25.814C33.8462 25.982 33.5055 26.178 33.2069 26.402V31.708L34.1589 31.834V32.52H30.8549V31.834L31.7369 31.708V25.828ZM46.4237 32.646C46.1624 32.646 45.9664 32.5947 45.8358 32.492C45.7144 32.3894 45.6538 32.2214 45.6538 31.988V31.512C45.3458 31.82 44.9584 32.0907 44.4918 32.324C44.0344 32.5574 43.5724 32.674 43.1058 32.674C42.2377 32.674 41.6217 32.4407 41.2578 31.974C40.8938 31.5074 40.7118 30.7374 40.7118 29.664V25.604L39.9277 25.38V24.764L41.8878 24.582H41.9017L42.1678 24.75V29.552C42.1678 30.0934 42.2051 30.518 42.2798 30.826C42.3638 31.1247 42.5038 31.3487 42.6998 31.498C42.9051 31.638 43.1991 31.708 43.5818 31.708C43.9551 31.708 44.3051 31.6287 44.6318 31.47C44.9584 31.3114 45.2431 31.1247 45.4858 30.91V25.604L44.4778 25.38V24.764L46.6058 24.582H46.6197L46.9417 24.75V31.806H47.7817L47.7678 32.436C47.5064 32.5014 47.2778 32.5527 47.0818 32.59C46.8951 32.6274 46.6758 32.646 46.4237 32.646Z" fill="#262626"/>
<circle cx="22.8447" cy="9.37927" r="0.5" fill="#8F8875"/>
<circle cx="29" cy="17.5" r="0.5" fill="#FFFCE4"/>
<circle cx="5.90723" cy="7.29065" r="0.5" fill="#FFFCE4"/>
<circle cx="51.0898" cy="15.0171" r="0.5" fill="#FFFCE4"/>
<circle cx="34.0947" cy="9.40271" r="0.5" fill="#8F8875"/>
</svg>
