<svg width="47" height="36" viewBox="0 0 47 36" fill="none" xmlns="http://www.w3.org/2000/svg">
<path d="M6.01074 6.1366H32.0107" stroke="#262626" stroke-width="1.75" stroke-linecap="round"/>
<path d="M14.3115 18.3878H40.3115" stroke="#262626" stroke-width="1.75" stroke-linecap="round"/>
<path d="M6.01074 30.3878H32.0107" stroke="#262626" stroke-width="1.75" stroke-linecap="round"/>
<mask id="path-4-outside-1_451_2378" maskUnits="userSpaceOnUse" x="34.5083" y="0.230103" width="12" height="12" fill="black">
<rect fill="white" x="34.5083" y="0.230103" width="12" height="12"/>
<path fill-rule="evenodd" clip-rule="evenodd" d="M40.6306 1.44749C40.6306 1.32743 40.5333 1.2301 40.4132 1.2301C40.2931 1.2301 40.1958 1.32743 40.1958 1.44749V4.39625C40.1958 4.8417 39.6572 5.06479 39.3422 4.7498L37.3096 2.71712C37.2247 2.63222 37.087 2.63222 37.0021 2.71712C36.9172 2.80202 36.9172 2.93966 37.0021 3.02456L39.0416 5.06405C39.3566 5.37903 39.1335 5.9176 38.6881 5.9176H35.7257C35.6056 5.9176 35.5083 6.01493 35.5083 6.13499C35.5083 6.25505 35.6056 6.35238 35.7257 6.35238H38.6945C39.1399 6.35238 39.363 6.89096 39.048 7.20594L36.7732 9.48081C36.6883 9.56571 36.6883 9.70335 36.7732 9.78825C36.858 9.87314 36.9957 9.87314 37.0806 9.78825L39.3422 7.52659C39.6572 7.2116 40.1958 7.43469 40.1958 7.88014V11.0127C40.1958 11.1328 40.2931 11.2301 40.4132 11.2301C40.5333 11.2301 40.6306 11.1328 40.6306 11.0127V7.86012C40.6306 7.41467 41.1692 7.19159 41.4841 7.50657L43.7658 9.78819C43.8507 9.87309 43.9883 9.87309 44.0732 9.78819C44.1581 9.70329 44.1581 9.56565 44.0732 9.48075L41.7984 7.20594C41.4834 6.89096 41.7065 6.35239 42.1519 6.35239H45.2909C45.411 6.35239 45.5083 6.25506 45.5083 6.13499C45.5083 6.01493 45.411 5.9176 45.2909 5.9176H42.1583C41.7129 5.9176 41.4898 5.37903 41.8048 5.06405L43.8442 3.02462C43.9291 2.93972 43.9291 2.80207 43.8442 2.71718C43.7593 2.63228 43.6217 2.63228 43.5368 2.71718L41.4841 4.76982C41.1692 5.0848 40.6306 4.86172 40.6306 4.41627V1.44749Z"/>
</mask>
<path fill-rule="evenodd" clip-rule="evenodd" d="M40.6306 1.44749C40.6306 1.32743 40.5333 1.2301 40.4132 1.2301C40.2931 1.2301 40.1958 1.32743 40.1958 1.44749V4.39625C40.1958 4.8417 39.6572 5.06479 39.3422 4.7498L37.3096 2.71712C37.2247 2.63222 37.087 2.63222 37.0021 2.71712C36.9172 2.80202 36.9172 2.93966 37.0021 3.02456L39.0416 5.06405C39.3566 5.37903 39.1335 5.9176 38.6881 5.9176H35.7257C35.6056 5.9176 35.5083 6.01493 35.5083 6.13499C35.5083 6.25505 35.6056 6.35238 35.7257 6.35238H38.6945C39.1399 6.35238 39.363 6.89096 39.048 7.20594L36.7732 9.48081C36.6883 9.56571 36.6883 9.70335 36.7732 9.78825C36.858 9.87314 36.9957 9.87314 37.0806 9.78825L39.3422 7.52659C39.6572 7.2116 40.1958 7.43469 40.1958 7.88014V11.0127C40.1958 11.1328 40.2931 11.2301 40.4132 11.2301C40.5333 11.2301 40.6306 11.1328 40.6306 11.0127V7.86012C40.6306 7.41467 41.1692 7.19159 41.4841 7.50657L43.7658 9.78819C43.8507 9.87309 43.9883 9.87309 44.0732 9.78819C44.1581 9.70329 44.1581 9.56565 44.0732 9.48075L41.7984 7.20594C41.4834 6.89096 41.7065 6.35239 42.1519 6.35239H45.2909C45.411 6.35239 45.5083 6.25506 45.5083 6.13499C45.5083 6.01493 45.411 5.9176 45.2909 5.9176H42.1583C41.7129 5.9176 41.4898 5.37903 41.8048 5.06405L43.8442 3.02462C43.9291 2.93972 43.9291 2.80207 43.8442 2.71718C43.7593 2.63228 43.6217 2.63228 43.5368 2.71718L41.4841 4.76982C41.1692 5.0848 40.6306 4.86172 40.6306 4.41627V1.44749Z" fill="#262626"/>
<path d="M41.4841 4.76982L41.1306 4.41627L41.4841 4.76982ZM43.5368 2.71718L43.8903 3.07073L43.5368 2.71718ZM41.8048 5.06405L41.4512 4.7105L41.8048 5.06405ZM41.7984 7.20594L41.4448 7.55949L41.7984 7.20594ZM44.0732 9.48075L43.7196 9.8343L44.0732 9.48075ZM43.7658 9.78819L43.4122 10.1417L43.7658 9.78819ZM39.3422 7.52659L39.6958 7.88014L39.3422 7.52659ZM37.0806 9.78825L36.727 9.43469L37.0806 9.78825ZM36.7732 9.48081L36.4196 9.12725L36.7732 9.48081ZM37.0021 3.02456L36.6486 3.37811L37.0021 3.02456ZM40.6958 4.39625V1.44749H39.6958V4.39625H40.6958ZM36.956 3.07067L38.9887 5.10336L39.6958 4.39625L37.6631 2.36357L36.956 3.07067ZM39.3952 4.7105L37.3557 2.671L36.6486 3.37811L38.6881 5.4176L39.3952 4.7105ZM35.7257 6.4176H38.6881V5.4176H35.7257V6.4176ZM38.6945 5.85238H35.7257V6.85238H38.6945V5.85238ZM37.1267 9.83436L39.4016 7.55949L38.6945 6.85239L36.4196 9.12725L37.1267 9.83436ZM38.9887 7.17303L36.727 9.43469L37.4341 10.1418L39.6958 7.88014L38.9887 7.17303ZM40.6958 11.0127V7.88014H39.6958V11.0127H40.6958ZM40.1306 7.86012V11.0127H41.1306V7.86012H40.1306ZM44.1193 9.43463L41.8377 7.15302L41.1306 7.86012L43.4122 10.1417L44.1193 9.43463ZM41.4448 7.55949L43.7196 9.8343L44.4267 9.1272L42.1519 6.85239L41.4448 7.55949ZM45.2909 5.85239H42.1519V6.85239H45.2909V5.85239ZM42.1583 6.4176H45.2909V5.4176H42.1583V6.4176ZM43.4907 2.67106L41.4512 4.7105L42.1583 5.4176L44.1978 3.37817L43.4907 2.67106ZM41.8377 5.12338L43.8903 3.07073L43.1832 2.36362L41.1306 4.41627L41.8377 5.12338ZM40.1306 1.44749V4.41627H41.1306V1.44749H40.1306ZM41.1306 4.41627V4.41627H40.1306C40.1306 5.30718 41.2077 5.75334 41.8377 5.12338L41.1306 4.41627ZM44.1978 2.36362C43.9176 2.08347 43.4634 2.08347 43.1832 2.36362L43.8903 3.07073C43.78 3.1811 43.601 3.1811 43.4907 3.07073L44.1978 2.36362ZM44.1978 3.37817C44.4779 3.09801 44.4779 2.64378 44.1978 2.36362L43.4907 3.07073C43.3803 2.96037 43.3803 2.78143 43.4907 2.67106L44.1978 3.37817ZM42.1583 5.4176L42.1583 5.4176L41.4512 4.7105C40.8213 5.34046 41.2674 6.4176 42.1583 6.4176V5.4176ZM46.0083 6.13499C46.0083 5.73879 45.6871 5.4176 45.2909 5.4176V6.4176C45.1348 6.4176 45.0083 6.29107 45.0083 6.13499H46.0083ZM45.2909 6.85239C45.6871 6.85239 46.0083 6.5312 46.0083 6.13499H45.0083C45.0083 5.97891 45.1348 5.85239 45.2909 5.85239V6.85239ZM42.1519 6.85239H42.1519V5.85239C41.261 5.85239 40.8149 6.92953 41.4448 7.55949L42.1519 6.85239ZM44.4267 10.1417C44.7069 9.86158 44.7069 9.40736 44.4267 9.1272L43.7196 9.8343C43.6093 9.72394 43.6093 9.545 43.7196 9.43463L44.4267 10.1417ZM43.4122 10.1417C43.6924 10.4219 44.1466 10.4219 44.4267 10.1417L43.7196 9.43463C43.83 9.32427 44.0089 9.32427 44.1193 9.43463L43.4122 10.1417ZM41.1306 7.86012L41.1306 7.86012L41.8377 7.15302C41.2077 6.52305 40.1306 6.96922 40.1306 7.86012H41.1306ZM40.4132 11.7301C40.8094 11.7301 41.1306 11.4089 41.1306 11.0127H40.1306C40.1306 10.8566 40.2571 10.7301 40.4132 10.7301V11.7301ZM39.6958 11.0127C39.6958 11.4089 40.017 11.7301 40.4132 11.7301V10.7301C40.5693 10.7301 40.6958 10.8566 40.6958 11.0127H39.6958ZM39.6958 7.88014V7.88014H40.6958C40.6958 6.98924 39.6187 6.54307 38.9887 7.17303L39.6958 7.88014ZM36.4196 10.1418C36.6998 10.422 37.154 10.422 37.4341 10.1418L36.727 9.43469C36.8374 9.32433 37.0163 9.32433 37.1267 9.43469L36.4196 10.1418ZM36.4196 9.12725C36.1394 9.40741 36.1394 9.86164 36.4196 10.1418L37.1267 9.43469C37.2371 9.54506 37.2371 9.724 37.1267 9.83436L36.4196 9.12725ZM38.6945 6.85238L38.6945 6.85239L39.4016 7.55949C40.0315 6.92953 39.5854 5.85238 38.6945 5.85238V6.85238ZM35.0083 6.13499C35.0083 6.5312 35.3295 6.85238 35.7257 6.85238V5.85238C35.8818 5.85238 36.0083 5.97891 36.0083 6.13499H35.0083ZM35.7257 5.4176C35.3295 5.4176 35.0083 5.73879 35.0083 6.13499H36.0083C36.0083 6.29107 35.8818 6.4176 35.7257 6.4176V5.4176ZM38.6881 5.4176H38.6881V6.4176C39.579 6.4176 40.0251 5.34046 39.3952 4.7105L38.6881 5.4176ZM36.6486 2.36357C36.3684 2.64372 36.3684 3.09795 36.6486 3.37811L37.3557 2.671C37.466 2.78137 37.466 2.96031 37.3557 3.07067L36.6486 2.36357ZM37.6631 2.36357C37.383 2.08341 36.9287 2.08341 36.6486 2.36357L37.3557 3.07067C37.2453 3.18104 37.0664 3.18104 36.956 3.07067L37.6631 2.36357ZM39.6958 4.39625V4.39625L38.9887 5.10336C39.6187 5.73332 40.6958 5.28716 40.6958 4.39625H39.6958ZM40.4132 1.7301C40.2571 1.7301 40.1306 1.60357 40.1306 1.44749H41.1306C41.1306 1.05129 40.8094 0.730103 40.4132 0.730103V1.7301ZM40.4132 0.730103C40.017 0.730103 39.6958 1.05129 39.6958 1.44749H40.6958C40.6958 1.60358 40.5693 1.7301 40.4132 1.7301V0.730103Z" fill="#262626" mask="url(#path-4-outside-1_451_2378)"/>
<mask id="path-6-outside-2_451_2378" maskUnits="userSpaceOnUse" x="-0.183594" y="12.4946" width="12" height="12" fill="black">
<rect fill="white" x="-0.183594" y="12.4946" width="12" height="12"/>
<path fill-rule="evenodd" clip-rule="evenodd" d="M5.93869 13.712C5.93869 13.592 5.84136 13.4946 5.7213 13.4946C5.60124 13.4946 5.50391 13.592 5.50391 13.712V16.6608C5.50391 17.1062 4.96533 17.3293 4.65035 17.0143L2.61767 14.9816C2.53277 14.8967 2.39513 14.8967 2.31023 14.9816C2.22533 15.0665 2.22533 15.2042 2.31023 15.2891L4.34972 17.3286C4.6647 17.6436 4.44162 18.1821 3.99617 18.1821H1.0338C0.913736 18.1821 0.816406 18.2795 0.816406 18.3995C0.816406 18.5196 0.913735 18.6169 1.0338 18.6169H4.00257C4.44803 18.6169 4.67111 19.1555 4.35613 19.4705L2.08126 21.7453C1.99636 21.8302 1.99636 21.9679 2.08126 22.0528C2.16615 22.1377 2.3038 22.1377 2.38869 22.0528L4.65035 19.7911C4.96534 19.4761 5.50391 19.6992 5.50391 20.1447V23.2772C5.50391 23.3973 5.60124 23.4946 5.7213 23.4946C5.84136 23.4946 5.93869 23.3973 5.93869 23.2772V20.1246C5.93869 19.6792 6.47726 19.4561 6.79224 19.7711L9.07386 22.0527C9.15876 22.1376 9.2964 22.1376 9.3813 22.0527C9.4662 21.9678 9.4662 21.8302 9.3813 21.7453L7.10649 19.4705C6.7915 19.1555 7.01459 18.6169 7.46004 18.6169H10.599C10.7191 18.6169 10.8164 18.5196 10.8164 18.3995C10.8164 18.2795 10.7191 18.1821 10.599 18.1821H7.46644C7.02099 18.1821 6.79791 17.6436 7.11289 17.3286L9.15232 15.2891C9.23722 15.2042 9.23722 15.0666 9.15232 14.9817C9.06743 14.8968 8.92978 14.8968 8.84489 14.9817L6.79224 17.0343C6.47726 17.3493 5.93869 17.1262 5.93869 16.6808V13.712Z"/>
</mask>
<path fill-rule="evenodd" clip-rule="evenodd" d="M5.93869 13.712C5.93869 13.592 5.84136 13.4946 5.7213 13.4946C5.60124 13.4946 5.50391 13.592 5.50391 13.712V16.6608C5.50391 17.1062 4.96533 17.3293 4.65035 17.0143L2.61767 14.9816C2.53277 14.8967 2.39513 14.8967 2.31023 14.9816C2.22533 15.0665 2.22533 15.2042 2.31023 15.2891L4.34972 17.3286C4.6647 17.6436 4.44162 18.1821 3.99617 18.1821H1.0338C0.913736 18.1821 0.816406 18.2795 0.816406 18.3995C0.816406 18.5196 0.913735 18.6169 1.0338 18.6169H4.00257C4.44803 18.6169 4.67111 19.1555 4.35613 19.4705L2.08126 21.7453C1.99636 21.8302 1.99636 21.9679 2.08126 22.0528C2.16615 22.1377 2.3038 22.1377 2.38869 22.0528L4.65035 19.7911C4.96534 19.4761 5.50391 19.6992 5.50391 20.1447V23.2772C5.50391 23.3973 5.60124 23.4946 5.7213 23.4946C5.84136 23.4946 5.93869 23.3973 5.93869 23.2772V20.1246C5.93869 19.6792 6.47726 19.4561 6.79224 19.7711L9.07386 22.0527C9.15876 22.1376 9.2964 22.1376 9.3813 22.0527C9.4662 21.9678 9.4662 21.8302 9.3813 21.7453L7.10649 19.4705C6.7915 19.1555 7.01459 18.6169 7.46004 18.6169H10.599C10.7191 18.6169 10.8164 18.5196 10.8164 18.3995C10.8164 18.2795 10.7191 18.1821 10.599 18.1821H7.46644C7.02099 18.1821 6.79791 17.6436 7.11289 17.3286L9.15232 15.2891C9.23722 15.2042 9.23722 15.0666 9.15232 14.9817C9.06743 14.8968 8.92978 14.8968 8.84489 14.9817L6.79224 17.0343C6.47726 17.3493 5.93869 17.1262 5.93869 16.6808V13.712Z" fill="#262626"/>
<path d="M6.79224 17.0343L6.43869 16.6808L6.79224 17.0343ZM8.84489 14.9817L9.19844 15.3353L8.84489 14.9817ZM7.11289 17.3286L6.75934 16.975L7.11289 17.3286ZM7.10649 19.4705L6.75293 19.824L7.10649 19.4705ZM9.3813 21.7453L9.02774 22.0988L9.3813 21.7453ZM9.07386 22.0527L8.72031 22.4063L9.07386 22.0527ZM4.65035 19.7911L5.00391 20.1447L4.65035 19.7911ZM2.38869 22.0528L2.03514 21.6992L2.38869 22.0528ZM2.08126 21.7453L1.7277 21.3918L2.08126 21.7453ZM2.31023 15.2891L1.95668 15.6426L2.31023 15.2891ZM6.00391 16.6608V13.712H5.00391V16.6608H6.00391ZM2.26412 15.3352L4.2968 17.3679L5.00391 16.6608L2.97122 14.6281L2.26412 15.3352ZM4.70328 16.975L2.66378 14.9355L1.95668 15.6426L3.99617 17.6821L4.70328 16.975ZM1.0338 18.6821H3.99617V17.6821H1.0338V18.6821ZM4.00257 18.1169H1.0338V19.1169H4.00257V18.1169ZM2.43481 22.0989L4.70968 19.824L4.00257 19.1169L1.7277 21.3918L2.43481 22.0989ZM4.2968 19.4376L2.03514 21.6992L2.74225 22.4063L5.00391 20.1447L4.2968 19.4376ZM6.00391 23.2772V20.1447H5.00391V23.2772H6.00391ZM5.43869 20.1246V23.2772H6.43869V20.1246H5.43869ZM9.42741 21.6992L7.1458 19.4175L6.43869 20.1246L8.72031 22.4063L9.42741 21.6992ZM6.75293 19.824L9.02774 22.0988L9.73485 21.3917L7.46004 19.1169L6.75293 19.824ZM10.599 18.1169H7.46004V19.1169H10.599V18.1169ZM7.46644 18.6821H10.599V17.6821H7.46644V18.6821ZM8.79877 14.9356L6.75934 16.975L7.46644 17.6821L9.50588 15.6427L8.79877 14.9356ZM7.1458 17.3879L9.19844 15.3353L8.49133 14.6282L6.43869 16.6808L7.1458 17.3879ZM5.43869 13.712V16.6808H6.43869V13.712H5.43869ZM6.43869 16.6808V16.6808H5.43869C5.43869 17.5717 6.51583 18.0179 7.1458 17.3879L6.43869 16.6808ZM9.50588 14.6282C9.22572 14.348 8.77149 14.348 8.49133 14.6282L9.19844 15.3353C9.08807 15.4456 8.90914 15.4456 8.79877 15.3353L9.50588 14.6282ZM9.50588 15.6427C9.78604 15.3625 9.78604 14.9083 9.50588 14.6282L8.79877 15.3353C8.6884 15.2249 8.68841 15.046 8.79877 14.9356L9.50588 15.6427ZM7.46644 17.6821L7.46644 17.6821L6.75934 16.975C6.12937 17.605 6.57554 18.6821 7.46644 18.6821V17.6821ZM11.3164 18.3995C11.3164 18.0033 10.9952 17.6821 10.599 17.6821V18.6821C10.4429 18.6821 10.3164 18.5556 10.3164 18.3995H11.3164ZM10.599 19.1169C10.9952 19.1169 11.3164 18.7957 11.3164 18.3995H10.3164C10.3164 18.2434 10.4429 18.1169 10.599 18.1169V19.1169ZM7.46004 19.1169H7.46004V18.1169C6.56913 18.1169 6.12297 19.1941 6.75293 19.824L7.46004 19.1169ZM9.73485 22.4063C10.015 22.1261 10.015 21.6719 9.73485 21.3917L9.02774 22.0988C8.91738 21.9885 8.91738 21.8095 9.02774 21.6992L9.73485 22.4063ZM8.72031 22.4063C9.00047 22.6864 9.45469 22.6864 9.73485 22.4063L9.02774 21.6992C9.13811 21.5888 9.31705 21.5888 9.42741 21.6992L8.72031 22.4063ZM6.43869 20.1246L6.43869 20.1246L7.1458 19.4175C6.51583 18.7876 5.43869 19.2337 5.43869 20.1246H6.43869ZM5.7213 23.9946C6.1175 23.9946 6.43869 23.6734 6.43869 23.2772H5.43869C5.43869 23.1212 5.56522 22.9946 5.7213 22.9946V23.9946ZM5.00391 23.2772C5.00391 23.6734 5.32509 23.9946 5.7213 23.9946V22.9946C5.87738 22.9946 6.00391 23.1212 6.00391 23.2772H5.00391ZM5.00391 20.1447V20.1447H6.00391C6.00391 19.2538 4.92676 18.8076 4.2968 19.4376L5.00391 20.1447ZM1.7277 22.4063C2.00786 22.6865 2.46209 22.6865 2.74225 22.4063L2.03514 21.6992C2.14551 21.5889 2.32444 21.5889 2.43481 21.6992L1.7277 22.4063ZM1.7277 21.3918C1.44754 21.6719 1.44754 22.1262 1.7277 22.4063L2.43481 21.6992C2.54517 21.8096 2.54518 21.9885 2.43481 22.0989L1.7277 21.3918ZM4.00257 19.1169L4.00257 19.1169L4.70968 19.824C5.33964 19.1941 4.89348 18.1169 4.00257 18.1169V19.1169ZM0.316406 18.3995C0.316406 18.7957 0.637591 19.1169 1.0338 19.1169V18.1169C1.18988 18.1169 1.31641 18.2434 1.31641 18.3995H0.316406ZM1.0338 17.6821C0.637593 17.6821 0.316406 18.0033 0.316406 18.3995H1.31641C1.31641 18.5556 1.18988 18.6821 1.0338 18.6821V17.6821ZM3.99617 17.6821H3.99617V18.6821C4.88708 18.6821 5.33324 17.605 4.70328 16.975L3.99617 17.6821ZM1.95668 14.6281C1.67652 14.9083 1.67652 15.3625 1.95668 15.6426L2.66378 14.9355C2.77415 15.0459 2.77415 15.2248 2.66378 15.3352L1.95668 14.6281ZM2.97122 14.6281C2.69106 14.3479 2.23684 14.3479 1.95668 14.6281L2.66378 15.3352C2.55342 15.4456 2.37448 15.4456 2.26412 15.3352L2.97122 14.6281ZM5.00391 16.6608V16.6608L4.2968 17.3679C4.92676 17.9978 6.00391 17.5517 6.00391 16.6608H5.00391ZM5.7213 13.9946C5.56522 13.9946 5.43869 13.8681 5.43869 13.712H6.43869C6.43869 13.3158 6.1175 12.9946 5.7213 12.9946V13.9946ZM5.7213 12.9946C5.32509 12.9946 5.00391 13.3158 5.00391 13.712H6.00391C6.00391 13.8681 5.87738 13.9946 5.7213 13.9946V12.9946Z" fill="#262626" mask="url(#path-6-outside-2_451_2378)"/>
<mask id="path-8-outside-3_451_2378" maskUnits="userSpaceOnUse" x="34.5083" y="24.4803" width="12" height="12" fill="black">
<rect fill="white" x="34.5083" y="24.4803" width="12" height="12"/>
<path fill-rule="evenodd" clip-rule="evenodd" d="M40.6306 25.6977C40.6306 25.5777 40.5333 25.4803 40.4132 25.4803C40.2931 25.4803 40.1958 25.5777 40.1958 25.6977V28.6465C40.1958 29.0919 39.6572 29.315 39.3422 29L37.3096 26.9674C37.2247 26.8825 37.087 26.8825 37.0021 26.9674C36.9172 27.0523 36.9172 27.1899 37.0021 27.2748L39.0416 29.3143C39.3566 29.6293 39.1335 30.1678 38.6881 30.1678H35.7257C35.6056 30.1678 35.5083 30.2652 35.5083 30.3852C35.5083 30.5053 35.6056 30.6026 35.7257 30.6026H38.6945C39.1399 30.6026 39.363 31.1412 39.048 31.4562L36.7732 33.7311C36.6883 33.8159 36.6883 33.9536 36.7732 34.0385C36.858 34.1234 36.9957 34.1234 37.0806 34.0385L39.3422 31.7768C39.6572 31.4618 40.1958 31.6849 40.1958 32.1304V35.263C40.1958 35.383 40.2931 35.4803 40.4132 35.4803C40.5333 35.4803 40.6306 35.383 40.6306 35.263V32.1104C40.6306 31.6649 41.1692 31.4418 41.4841 31.7568L43.7658 34.0384C43.8507 34.1233 43.9883 34.1233 44.0732 34.0384C44.1581 33.9535 44.1581 33.8159 44.0732 33.731L41.7984 31.4562C41.4834 31.1412 41.7065 30.6026 42.1519 30.6026H45.2909C45.411 30.6026 45.5083 30.5053 45.5083 30.3852C45.5083 30.2652 45.411 30.1678 45.2909 30.1678H42.1583C41.7129 30.1678 41.4898 29.6293 41.8048 29.3143L43.8442 27.2749C43.9291 27.19 43.9291 27.0523 43.8442 26.9674C43.7593 26.8825 43.6217 26.8825 43.5368 26.9674L41.4841 29.0201C41.1692 29.335 40.6306 29.112 40.6306 28.6665V25.6977Z"/>
</mask>
<path fill-rule="evenodd" clip-rule="evenodd" d="M40.6306 25.6977C40.6306 25.5777 40.5333 25.4803 40.4132 25.4803C40.2931 25.4803 40.1958 25.5777 40.1958 25.6977V28.6465C40.1958 29.0919 39.6572 29.315 39.3422 29L37.3096 26.9674C37.2247 26.8825 37.087 26.8825 37.0021 26.9674C36.9172 27.0523 36.9172 27.1899 37.0021 27.2748L39.0416 29.3143C39.3566 29.6293 39.1335 30.1678 38.6881 30.1678H35.7257C35.6056 30.1678 35.5083 30.2652 35.5083 30.3852C35.5083 30.5053 35.6056 30.6026 35.7257 30.6026H38.6945C39.1399 30.6026 39.363 31.1412 39.048 31.4562L36.7732 33.7311C36.6883 33.8159 36.6883 33.9536 36.7732 34.0385C36.858 34.1234 36.9957 34.1234 37.0806 34.0385L39.3422 31.7768C39.6572 31.4618 40.1958 31.6849 40.1958 32.1304V35.263C40.1958 35.383 40.2931 35.4803 40.4132 35.4803C40.5333 35.4803 40.6306 35.383 40.6306 35.263V32.1104C40.6306 31.6649 41.1692 31.4418 41.4841 31.7568L43.7658 34.0384C43.8507 34.1233 43.9883 34.1233 44.0732 34.0384C44.1581 33.9535 44.1581 33.8159 44.0732 33.731L41.7984 31.4562C41.4834 31.1412 41.7065 30.6026 42.1519 30.6026H45.2909C45.411 30.6026 45.5083 30.5053 45.5083 30.3852C45.5083 30.2652 45.411 30.1678 45.2909 30.1678H42.1583C41.7129 30.1678 41.4898 29.6293 41.8048 29.3143L43.8442 27.2749C43.9291 27.19 43.9291 27.0523 43.8442 26.9674C43.7593 26.8825 43.6217 26.8825 43.5368 26.9674L41.4841 29.0201C41.1692 29.335 40.6306 29.112 40.6306 28.6665V25.6977Z" fill="#262626"/>
<path d="M41.4841 29.0201L41.1306 28.6665L41.4841 29.0201ZM43.5368 26.9674L43.8903 27.321L43.5368 26.9674ZM41.8048 29.3143L41.4512 28.9607L41.8048 29.3143ZM41.7984 31.4562L41.4448 31.8097L41.7984 31.4562ZM44.0732 33.731L43.7196 34.0845L44.0732 33.731ZM43.7658 34.0384L43.4122 34.392L43.7658 34.0384ZM39.3422 31.7768L39.6958 32.1304L39.3422 31.7768ZM37.0806 34.0385L36.727 33.6849L37.0806 34.0385ZM36.7732 33.7311L36.4196 33.3775L36.7732 33.7311ZM37.0021 27.2748L36.6486 27.6284L37.0021 27.2748ZM40.6958 28.6465V25.6977H39.6958V28.6465H40.6958ZM36.956 27.3209L38.9887 29.3536L39.6958 28.6465L37.6631 26.6138L36.956 27.3209ZM39.3952 28.9607L37.3557 26.9212L36.6486 27.6284L38.6881 29.6678L39.3952 28.9607ZM35.7257 30.6678H38.6881V29.6678H35.7257V30.6678ZM38.6945 30.1026H35.7257V31.1026H38.6945V30.1026ZM37.1267 34.0846L39.4016 31.8097L38.6945 31.1026L36.4196 33.3775L37.1267 34.0846ZM38.9887 31.4233L36.727 33.6849L37.4341 34.392L39.6958 32.1304L38.9887 31.4233ZM40.6958 35.263V32.1304H39.6958V35.263H40.6958ZM40.1306 32.1104V35.263H41.1306V32.1104H40.1306ZM44.1193 33.6849L41.8377 31.4033L41.1306 32.1104L43.4122 34.392L44.1193 33.6849ZM41.4448 31.8097L43.7196 34.0845L44.4267 33.3774L42.1519 31.1026L41.4448 31.8097ZM45.2909 30.1026H42.1519V31.1026H45.2909V30.1026ZM42.1583 30.6678H45.2909V29.6678H42.1583V30.6678ZM43.4907 26.9213L41.4512 28.9607L42.1583 29.6678L44.1978 27.6284L43.4907 26.9213ZM41.8377 29.3736L43.8903 27.321L43.1832 26.6139L41.1306 28.6665L41.8377 29.3736ZM40.1306 25.6977V28.6665H41.1306V25.6977H40.1306ZM41.1306 28.6665V28.6665H40.1306C40.1306 29.5574 41.2077 30.0036 41.8377 29.3736L41.1306 28.6665ZM44.1978 26.6139C43.9176 26.3337 43.4634 26.3337 43.1832 26.6139L43.8903 27.321C43.78 27.4313 43.601 27.4313 43.4907 27.321L44.1978 26.6139ZM44.1978 27.6284C44.4779 27.3483 44.4779 26.894 44.1978 26.6139L43.4907 27.321C43.3803 27.2106 43.3803 27.0317 43.4907 26.9213L44.1978 27.6284ZM42.1583 29.6678L42.1583 29.6678L41.4512 28.9607C40.8213 29.5907 41.2674 30.6678 42.1583 30.6678V29.6678ZM46.0083 30.3852C46.0083 29.989 45.6871 29.6678 45.2909 29.6678V30.6678C45.1348 30.6678 45.0083 30.5413 45.0083 30.3852H46.0083ZM45.2909 31.1026C45.6871 31.1026 46.0083 30.7814 46.0083 30.3852H45.0083C45.0083 30.2292 45.1348 30.1026 45.2909 30.1026V31.1026ZM42.1519 31.1026H42.1519V30.1026C41.261 30.1026 40.8149 31.1798 41.4448 31.8097L42.1519 31.1026ZM44.4267 34.392C44.7069 34.1118 44.7069 33.6576 44.4267 33.3774L43.7196 34.0845C43.6093 33.9742 43.6093 33.7952 43.7196 33.6849L44.4267 34.392ZM43.4122 34.392C43.6924 34.6721 44.1466 34.6721 44.4267 34.392L43.7196 33.6849C43.83 33.5745 44.0089 33.5745 44.1193 33.6849L43.4122 34.392ZM41.1306 32.1104L41.1306 32.1104L41.8377 31.4033C41.2077 30.7733 40.1306 31.2195 40.1306 32.1104H41.1306ZM40.4132 35.9803C40.8094 35.9803 41.1306 35.6592 41.1306 35.263H40.1306C40.1306 35.1069 40.2571 34.9803 40.4132 34.9803V35.9803ZM39.6958 35.263C39.6958 35.6592 40.017 35.9803 40.4132 35.9803V34.9803C40.5693 34.9803 40.6958 35.1069 40.6958 35.263H39.6958ZM39.6958 32.1304V32.1304H40.6958C40.6958 31.2395 39.6187 30.7933 38.9887 31.4233L39.6958 32.1304ZM36.4196 34.392C36.6998 34.6722 37.154 34.6722 37.4341 34.392L36.727 33.6849C36.8374 33.5746 37.0163 33.5746 37.1267 33.6849L36.4196 34.392ZM36.4196 33.3775C36.1394 33.6577 36.1394 34.1119 36.4196 34.392L37.1267 33.6849C37.2371 33.7953 37.2371 33.9742 37.1267 34.0846L36.4196 33.3775ZM38.6945 31.1026L38.6945 31.1026L39.4016 31.8097C40.0315 31.1798 39.5854 30.1026 38.6945 30.1026V31.1026ZM35.0083 30.3852C35.0083 30.7814 35.3295 31.1026 35.7257 31.1026V30.1026C35.8818 30.1026 36.0083 30.2292 36.0083 30.3852H35.0083ZM35.7257 29.6678C35.3295 29.6678 35.0083 29.989 35.0083 30.3852H36.0083C36.0083 30.5413 35.8818 30.6678 35.7257 30.6678V29.6678ZM38.6881 29.6678H38.6881V30.6678C39.579 30.6678 40.0251 29.5907 39.3952 28.9607L38.6881 29.6678ZM36.6486 26.6138C36.3684 26.894 36.3684 27.3482 36.6486 27.6284L37.3557 26.9212C37.466 27.0316 37.466 27.2106 37.3557 27.3209L36.6486 26.6138ZM37.6631 26.6138C37.383 26.3337 36.9287 26.3337 36.6486 26.6138L37.3557 27.3209C37.2453 27.4313 37.0664 27.4313 36.956 27.3209L37.6631 26.6138ZM39.6958 28.6465V28.6465L38.9887 29.3536C39.6187 29.9836 40.6958 29.5374 40.6958 28.6465H39.6958ZM40.4132 25.9803C40.2571 25.9803 40.1306 25.8538 40.1306 25.6977H41.1306C41.1306 25.3015 40.8094 24.9803 40.4132 24.9803V25.9803ZM40.4132 24.9803C40.017 24.9803 39.6958 25.3015 39.6958 25.6977H40.6958C40.6958 25.8538 40.5693 25.9803 40.4132 25.9803V24.9803Z" fill="#262626" mask="url(#path-8-outside-3_451_2378)"/>
</svg>
